<?xml version="1.0" encoding="UTF-8"?>
<svg width="90px" height="90px" viewBox="0 0 90 90" version="1.1" xmlns="http://www.w3.org/2000/svg" xmlns:xlink="http://www.w3.org/1999/xlink">
    <title>partners-logo-baltic-assembly</title>
    <g id="Design" stroke="none" stroke-width="1" fill="none" fill-rule="evenodd">
        <g id="Group-16" transform="translate(-835, -592)" fill="#292C33">
            <g id="Clients" transform="translate(0, 397)">
                <g id="Client-12" transform="translate(800, 160)">
                    <path d="M125,35 L125,125 L35,125 L35,35 L125,35 Z M72.006629,108.69224 C71.6679743,108.69224 71.3438333,108.74306 71.0342061,108.8447 C70.724579,108.94634 70.4500268,109.10122 70.2105495,109.30934 C69.9710722,109.51746 69.7823932,109.77882 69.6445123,110.09342 C69.5066315,110.40802 69.4376911,110.7807 69.4376911,111.21146 C69.4376911,111.77774 69.5501728,112.24722 69.7751363,112.6199 C70.0000998,112.99258 70.3036795,113.27209 70.6858756,113.45843 C71.0680716,113.64477 71.49139,113.73794 71.9558308,113.73794 C72.2702959,113.73794 72.5545239,113.70285 72.808515,113.63267 C72.9990082,113.580035 73.1724932,113.517191 73.3289698,113.444137 L73.479777,113.36768 L73.5088045,112.24964 L72.9572811,112.24964 L72.7540883,113.17892 C72.6524919,113.22248 72.5508955,113.25636 72.4492991,113.28056 C72.3477027,113.30476 72.2461062,113.31686 72.1445098,113.31686 C71.8880998,113.31686 71.652251,113.24426 71.4369634,113.09906 C71.2216757,112.95386 71.0487199,112.72759 70.918096,112.42025 C70.787472,112.11291 70.72216,111.7124 70.72216,111.21872 C70.72216,110.72504 70.789891,110.32211 70.9253528,110.00993 C71.0608147,109.69775 71.2386085,109.46906 71.458734,109.32386 C71.6788596,109.17866 71.9171274,109.10606 72.1735374,109.10606 C72.3114182,109.10606 72.4438564,109.129201 72.5708519,109.175484 L72.6960332,109.22948 L72.9064829,110.18054 L73.4580063,110.18054 L73.4289788,109.05524 C73.2112722,108.93424 72.9887277,108.84349 72.7613452,108.78299 C72.5339627,108.72249 72.2823907,108.69224 72.006629,108.69224 Z M85.496162,108.69224 C84.9494765,108.69224 84.5128538,108.81687 84.1862939,109.06613 C83.859734,109.31539 83.696454,109.65782 83.696454,110.09342 C83.696454,110.49514 83.8137737,110.817 84.0484131,111.059 C84.2439458,111.260667 84.5058321,111.447208 84.8340718,111.618625 L85.0389781,111.71966 L85.3510242,111.8576 C85.5687308,111.9544 85.7271729,112.05604 85.8263503,112.16252 C85.9255278,112.269 85.9751165,112.41904 85.9751165,112.61264 C85.9751165,112.80624 85.9073856,112.96959 85.7719237,113.10269 C85.6364618,113.23579 85.4381069,113.30234 85.1768589,113.30234 C85.0413971,113.30234 84.91803,113.29145 84.8067577,113.26967 L84.6398493,113.228833 L84.4729409,113.17166 L84.3278032,112.27868 L83.6529127,112.27868 L83.6093714,113.35316 C83.8174022,113.48384 84.0641363,113.58064 84.3495739,113.64356 C84.6350114,113.70648 84.9131921,113.73794 85.1841158,113.73794 C85.8033702,113.73794 86.2738583,113.6 86.5955803,113.32412 C86.9173023,113.04824 87.0781633,112.69734 87.0781633,112.27142 C87.0781633,111.90358 86.9753574,111.60471 86.7697456,111.37481 C86.5935069,111.177753 86.3239654,110.988697 85.9611211,110.807641 L85.7719237,110.71778 L85.43085,110.56532 C85.2179813,110.46852 85.0547014,110.36325 84.9410101,110.24951 C84.8273189,110.13577 84.7704733,109.9821 84.7704733,109.7885 C84.7704733,109.59006 84.8430422,109.43034 84.9881799,109.30934 C85.1333176,109.18834 85.3099019,109.12784 85.5179326,109.12784 C85.6098532,109.12784 85.6945169,109.13631 85.7719237,109.15325 L85.8880338,109.183198 L86.004144,109.22222 L86.1420249,110.0789 L86.8096585,110.0789 L86.8677136,109.0625 C86.6935483,108.94634 86.486727,108.85559 86.2472497,108.79025 C86.0077725,108.72491 85.7574099,108.69224 85.496162,108.69224 Z M81.782705,108.69224 C81.2360196,108.69224 80.7993969,108.81687 80.472837,109.06613 C80.1462771,109.31539 79.9829971,109.65782 79.9829971,110.09342 C79.9829971,110.49514 80.1003168,110.817 80.3349561,111.059 C80.5304889,111.260667 80.7923752,111.447208 81.1206149,111.618625 L81.3255212,111.71966 L81.6375673,111.8576 C81.8552739,111.9544 82.0137159,112.05604 82.1128934,112.16252 C82.2120708,112.269 82.2616596,112.41904 82.2616596,112.61264 C82.2616596,112.80624 82.1939286,112.96959 82.0584667,113.10269 C81.9230049,113.23579 81.7246499,113.30234 81.463402,113.30234 C81.3279401,113.30234 81.2045731,113.29145 81.0933008,113.26967 L80.9263924,113.228833 L80.759484,113.17166 L80.6143463,112.27868 L79.9394558,112.27868 L79.8959145,113.35316 C80.1039452,113.48384 80.3506794,113.58064 80.6361169,113.64356 C80.9215545,113.70648 81.1997351,113.73794 81.4706589,113.73794 C82.0899132,113.73794 82.5604014,113.6 82.8821234,113.32412 C83.2038454,113.04824 83.3647064,112.69734 83.3647064,112.27142 C83.3647064,111.90358 83.2619005,111.60471 83.0562887,111.37481 C82.88005,111.177753 82.6105085,110.988697 82.2476641,110.807641 L82.0584667,110.71778 L81.7173931,110.56532 C81.5045244,110.46852 81.3412444,110.36325 81.2275532,110.24951 C81.113862,110.13577 81.0570164,109.9821 81.0570164,109.7885 C81.0570164,109.59006 81.1295852,109.43034 81.274723,109.30934 C81.4198607,109.18834 81.5964449,109.12784 81.8044757,109.12784 C81.8963963,109.12784 81.9810599,109.13631 82.0584667,109.15325 L82.1745769,109.183198 L82.2906871,109.22222 L82.428568,110.0789 L83.0962015,110.0789 L83.1542566,109.0625 C82.9800914,108.94634 82.7732701,108.85559 82.5337928,108.79025 C82.2943156,108.72491 82.043953,108.69224 81.782705,108.69224 Z M66.6479279,108.83018 L62.3881353,108.83018 L62.3591078,110.18054 L62.9614294,110.18054 L63.0993102,109.23674 L63.8903109,109.23674 L63.9011962,109.700473 L63.9048247,110.16239 L63.9048247,112.24964 L63.9011962,112.697945 L63.8903109,113.14262 L63.2734755,113.20796 L63.2734755,113.6 L65.7625877,113.6 L65.7625877,113.20796 L65.1384954,113.14262 L65.1276101,112.24238 L65.1239816,111.08078 L65.1276101,110.14787 L65.1384954,109.23674 L65.936753,109.23674 L66.0673769,110.18054 L66.6696985,110.18054 L66.6479279,108.83018 Z M52.3435544,108.83018 L49.99958,108.83018 L49.99958,109.22222 L50.5438465,109.2803 L50.5547318,109.738588 L50.5583603,110.19869 L50.5583603,112.24238 L50.5547318,112.697945 L50.5438465,113.14988 L49.99958,113.20796 L49.99958,113.6 L52.0677927,113.6 C52.5177197,113.6 52.8890304,113.55886 53.1817249,113.47658 C53.4744193,113.3943 53.7030112,113.28782 53.8675007,113.15714 C54.0319901,113.02646 54.1481003,112.88247 54.2158312,112.72517 C54.2835622,112.56787 54.3174276,112.4142 54.3174276,112.26416 C54.3174276,111.93504 54.200108,111.66521 53.9654686,111.45467 C53.7308293,111.24413 53.3425858,111.1074 52.8007383,111.04448 C53.1200413,110.9864 53.3691944,110.90291 53.5481976,110.79401 C53.7272008,110.68511 53.8529869,110.55927 53.9255558,110.41649 C53.9981246,110.27371 54.0344091,110.12004 54.0344091,109.95548 C54.0344091,109.74252 53.9787729,109.55134 53.8675007,109.38194 C53.7562284,109.21254 53.5772252,109.07823 53.330491,108.97901 C53.1248792,108.896327 52.8621531,108.848095 52.5423125,108.834314 L52.3435544,108.83018 Z M77.7934864,108.82292 L77.0460271,108.82292 L75.5728791,113.12084 L74.9850712,113.20796 L74.9850712,113.6 L76.5453019,113.6 L76.5453019,113.20796 L75.9937785,113.12084 L76.284054,112.21334 L77.7426882,112.21334 L78.0402206,113.14988 L77.4814403,113.22248 L77.4814403,113.6 L79.7238183,113.6 L79.7238183,113.22248 L79.2811482,113.17166 L77.7934864,108.82292 Z M107.880569,108.83018 L105.543851,108.83018 L105.543851,109.22222 L105.950237,109.26578 L107.15488,111.72692 L107.153066,112.8377 L107.147623,113.14262 L106.523531,113.20796 L106.523531,113.6 L109.012643,113.6 L109.012643,113.20796 L108.381294,113.14262 L108.374844,112.690887 L108.374037,111.53816 L109.469827,109.30934 L109.99958,109.22222 L109.99958,108.83018 L108.497404,108.83018 L108.497404,109.22222 L108.99813,109.30208 L108.163588,111.12434 L107.336302,109.28756 L107.880569,109.22222 L107.880569,108.83018 Z M91.0383544,108.83018 L87.3373421,108.83018 L87.3373421,109.22222 L87.8816086,109.2803 L87.892494,109.725883 L87.8961224,110.17691 L87.8961224,112.2569 L87.892494,112.705205 L87.8816086,113.14988 L87.3373421,113.20796 L87.3373421,113.6 L91.1834921,113.6 L91.2342903,112.35128 L90.6319687,112.35128 L90.486831,113.19344 L89.1297931,113.19344 L89.116892,111.994733 L89.1152794,111.3494 L89.8990231,111.3494 L89.9861058,111.91568 L90.4070052,111.91568 L90.4070052,110.35478 L89.9861058,110.35478 L89.8990231,110.92106 L89.1152794,110.92106 L89.1189078,110.07164 L89.1297931,109.23674 L90.3416932,109.23674 L90.486831,110.0789 L91.0891526,110.0789 L91.0383544,108.83018 Z M69.2220536,108.83018 L66.885336,108.83018 L66.885336,109.22222 L67.4296025,109.2803 L67.4404879,109.725883 L67.4441163,110.17691 L67.4441163,112.2569 L67.4404879,112.705205 L67.4296025,113.14988 L66.885336,113.20796 L66.885336,113.6 L69.2220536,113.6 L69.2220536,113.20796 L68.677787,113.14988 L68.6669017,112.24601 L68.6632733,111.08078 L68.6669017,110.17328 L68.677787,109.2803 L69.2220536,109.22222 L69.2220536,108.83018 Z M93.358489,108.83018 L91.4426709,108.83018 L91.4426709,109.22222 L92.081277,109.29482 L92.081277,113.12084 L91.3773589,113.20796 L91.3773589,113.6 L93.1480393,113.6 L93.1480393,113.20796 L92.5529746,113.11358 L92.5529746,111.34214 L92.5166902,109.89014 L93.9027555,113.6 L94.4615358,113.6 L95.7532617,109.8974 L95.73391,112.00522 C95.73391,112.093953 95.7343132,112.185107 95.7351195,112.27868 L95.7342123,112.705205 L95.7242341,113.14262 L95.1944814,113.20796 L95.1944814,113.6 L97.5094283,113.6 L97.5094283,113.20796 L96.9724187,113.14988 L96.9615333,112.24964 L96.9579049,111.08078 L96.9615333,110.17691 L96.9724187,109.2803 L97.4876576,109.22222 L97.4876576,108.83018 L95.6516653,108.83018 L94.5413616,112.02458 L93.358489,108.83018 Z M61.388754,108.83018 L58.9939814,108.83018 L58.9939814,109.22222 L59.5382479,109.2803 L59.5491332,109.725883 L59.5527617,110.17691 L59.5527617,112.28231 L59.5491332,112.711558 L59.5382479,113.14988 L58.9939814,113.20796 L58.9939814,113.6 L62.7530488,113.6 L62.8256176,112.17704 L62.2378098,112.17704 L62.0418739,113.18618 L60.7864324,113.18618 L60.7735313,112.009253 L60.7728258,110.629753 L60.7864324,109.2803 L61.388754,109.22222 L61.388754,108.83018 Z M100.16338,108.83018 L97.8194053,108.83018 L97.8194053,109.22222 L98.3636718,109.2803 L98.3745572,109.738588 L98.3781856,110.19869 L98.3781856,112.24238 L98.3745572,112.697945 L98.3636718,113.14988 L97.8194053,113.20796 L97.8194053,113.6 L99.887618,113.6 C100.337545,113.6 100.708856,113.55886 101.00155,113.47658 C101.294245,113.3943 101.522836,113.28782 101.687326,113.15714 C101.851815,113.02646 101.967926,112.88247 102.035656,112.72517 C102.103387,112.56787 102.137253,112.4142 102.137253,112.26416 C102.137253,111.93504 102.019933,111.66521 101.785294,111.45467 C101.550655,111.24413 101.162411,111.1074 100.620564,111.04448 C100.939867,110.9864 101.18902,110.90291 101.368023,110.79401 C101.547026,110.68511 101.672812,110.55927 101.745381,110.41649 C101.81795,110.27371 101.854234,110.12004 101.854234,109.95548 C101.854234,109.74252 101.798598,109.55134 101.687326,109.38194 C101.576054,109.21254 101.39705,109.07823 101.150316,108.97901 C100.944705,108.896327 100.681978,108.848095 100.362138,108.834314 L100.16338,108.83018 Z M56.9205809,108.82292 L56.1731215,108.82292 L54.6999735,113.12084 L54.1121657,113.20796 L54.1121657,113.6 L55.6723964,113.6 L55.6723964,113.20796 L55.120873,113.12084 L55.4111484,112.21334 L56.8697827,112.21334 L57.167315,113.14988 L56.6085348,113.22248 L56.6085348,113.6 L58.8509128,113.6 L58.8509128,113.22248 L58.4082427,113.17166 L56.9205809,108.82292 Z M104.667837,108.83018 L102.273065,108.83018 L102.273065,109.22222 L102.817331,109.2803 L102.828217,109.725883 L102.831845,110.17691 L102.831845,112.28231 L102.828217,112.711558 L102.817331,113.14988 L102.273065,113.20796 L102.273065,113.6 L106.032132,113.6 L106.104701,112.17704 L105.516893,112.17704 L105.320957,113.18618 L104.065516,113.18618 L104.052615,112.009253 L104.051909,110.629753 L104.065516,109.2803 L104.667837,109.22222 L104.667837,108.83018 Z M99.8223061,111.29858 C100.180312,111.29858 100.447608,111.37481 100.624192,111.52727 C100.800776,111.67973 100.889068,111.92052 100.889068,112.24964 C100.889068,112.5594 100.795938,112.79172 100.609678,112.9466 C100.423418,113.10148 100.160961,113.17892 99.8223061,113.17892 L99.5900857,113.17892 L99.5837359,112.726078 L99.5759751,111.632137 L99.5755719,111.29858 L99.8223061,111.29858 Z M52.0024808,111.29858 C52.3604872,111.29858 52.6277825,111.37481 52.8043667,111.52727 C52.980951,111.67973 53.0692431,111.92052 53.0692431,112.24964 C53.0692431,112.5594 52.9761131,112.79172 52.789853,112.9466 C52.6035929,113.10148 52.3411355,113.17892 52.0024808,113.17892 L51.7702604,113.17892 L51.7639106,112.726078 L51.7557466,111.29858 L52.0024808,111.29858 Z M77.0242564,109.94096 L77.6120642,111.79226 L76.4219348,111.79226 L77.0242564,109.94096 Z M56.1513509,109.94096 L56.7391587,111.79226 L55.5490293,111.79226 L56.1513509,109.94096 Z M99.8440767,109.25126 C100.400438,109.25126 100.678619,109.51504 100.678619,110.0426 C100.678619,110.32816 100.60605,110.54475 100.460912,110.69237 C100.315774,110.83999 100.088392,110.9138 99.7787647,110.9138 L99.5755719,110.9138 L99.5837359,109.660543 L99.5900857,109.25126 L99.8440767,109.25126 Z M52.0242514,109.25126 C52.5806127,109.25126 52.8587934,109.51504 52.8587934,110.0426 C52.8587934,110.32816 52.7862245,110.54475 52.6410868,110.69237 C52.4959491,110.83999 52.2685666,110.9138 51.9589394,110.9138 L51.7557466,110.9138 L51.7639106,109.660543 L51.7702604,109.25126 L52.0242514,109.25126 Z M68.400691,73.2278994 L68.2319726,73.2278994 C65.7462571,73.5659691 63.2520943,74.3511081 60.9324678,75.6666274 L60.4709239,75.9368277 C52.9035871,80.2501996 49.1049341,88.5638251 50.1790985,96.5924062 L50.1790985,96.6770602 L50.4321762,96.8463682 C56.7951652,101.686118 65.8037594,102.503141 73.2935261,98.2008324 C78.7455024,95.0186519 82.2469081,89.760586 83.3322738,84.0636127 L81.6450893,84.0636127 C80.5352975,89.2344372 77.28432,93.908857 72.4499338,96.6770602 L72.1968561,96.8463682 C65.7410924,100.47924 57.8593087,100.021679 51.9506423,95.9151741 L51.7819238,95.7458661 L51.7819238,95.6612121 C51.0691496,88.3848047 54.7028623,81.1644682 61.3145162,77.3759459 C63.761294,75.9257819 66.4610455,75.0975219 69.1599241,74.8363255 C68.9112662,74.3241296 68.6648589,73.7811637 68.400691,73.2278994 Z M99.6136041,75.8521737 C94.2614745,72.7810812 88.1466201,72.3177681 82.7417592,74.0744395 L83.5853514,75.5982116 C88.5254637,74.0715463 94.0220772,74.5989927 98.7700118,77.3759459 L98.9387303,77.4605999 C105.380998,81.2937449 108.925725,88.4477143 108.218245,95.6612121 L108.218245,95.7458661 L108.049526,95.8305201 C102.094725,100.064387 94.124704,100.48796 87.6345942,96.6770602 L87.3815165,96.5924062 C85.0351468,95.1751757 83.0517103,93.3029378 81.5607301,91.1745495 C81.2263621,91.6612043 80.8980915,92.1694656 80.5484194,92.6983217 C82.1819535,94.8379763 84.270956,96.728997 86.791002,98.2008324 C94.3032903,102.548326 103.400352,101.66976 109.82107,96.6770602 L109.82107,96.5924062 C110.893424,88.5514418 107.102366,80.2295344 99.6136041,75.8521737 Z M98.2638565,78.222486 C93.8224719,75.6590185 88.7020478,75.1363112 84.0915068,76.5294058 L84.935099,78.0531779 C89.0373267,76.9123098 93.5312641,77.4474981 97.4202643,79.6616041 C102.483267,82.6382306 105.567626,88.0284571 105.604765,93.7776655 L105.603109,94.2220939 L105.51875,94.3067479 C100.522797,97.3067559 94.1620225,97.3869074 88.9843418,94.3914019 L88.7312641,94.2220939 L88.6469049,94.1374399 C86.2038479,92.6905038 84.2657105,90.6605746 82.9104776,88.2963132 C82.6613718,88.9361755 82.3781722,89.5496538 82.0668854,90.1587014 C83.5392332,92.3692143 85.5160933,94.2896004 87.8876719,95.7458661 L88.1407496,95.8305201 L88.309468,95.9151741 C94.2965054,99.3303792 101.568966,98.988001 107.121575,95.3225961 L107.290293,94.98398 C107.673959,88.2536761 104.261438,81.712934 98.2638565,78.222486 Z M69.6660794,75.8521737 L69.5817202,75.8521737 C66.8945927,76.0496325 64.2233009,76.8412294 61.7363123,78.222486 C55.7406824,81.7472456 52.3259621,88.2744459 52.7098753,94.98398 L52.8785937,95.3225961 L53.0473122,95.4072501 C58.5803048,98.9930073 65.7721216,99.2943677 71.6907008,95.9151741 L71.9437785,95.8305201 L72.2812154,95.6612121 C76.598457,92.9822872 79.5162943,88.7502691 80.5484194,84.0636127 L78.7768756,84.0636127 C77.8082237,88.1850471 75.1842341,91.8640473 71.4376231,94.1374399 L71.2689047,94.3067479 L71.015827,94.3914019 L70.9314678,94.476056 C65.7194433,97.3868736 59.4316454,97.2785343 54.481419,94.3067479 L54.3970598,94.2220939 L54.3970598,93.9681319 C54.3682944,88.1642727 57.4664542,82.702435 62.5799045,79.7462581 C65.1448733,78.2615365 67.9469186,77.5275182 70.7627493,77.5452539 C70.3598665,76.9708447 70.0107832,76.4189795 69.6660794,75.8521737 Z M71.5219823,78.476448 C68.6306902,78.3700463 65.7206067,79.0545993 63.0860599,80.5927983 C58.4381198,83.2771742 55.5652598,88.1790221 55.4093705,93.4602078 L55.4093705,93.6295158 L55.5780889,93.7141699 C60.1254624,96.2237833 65.7405311,96.2077332 70.4253124,93.5448618 L70.5096716,93.4602078 L70.7627493,93.3755538 L70.8471085,93.2908998 L71.015827,93.2062458 C74.4092558,91.0819897 76.7909424,87.7582015 77.7645649,83.9789587 L75.9930212,83.9789587 C75.0779496,87.1799448 73.0044396,89.9627493 70.0878755,91.7671276 L70.0035163,91.8517816 L69.6660794,92.0210897 L69.5817202,92.1057437 C65.7538203,94.2583418 61.1672779,94.455815 57.2652734,92.6983217 L57.1809142,92.6136677 L57.1809142,92.5290137 C57.6070186,88.1789595 60.1124989,84.2643486 63.9296521,82.0319164 C66.799269,80.3871858 70.0634673,79.8341509 73.1248076,80.3388362 C72.5950003,79.802747 72.0644489,79.2080936 71.6063416,78.561102 L71.5219823,78.476448 Z M96.9141089,80.5927983 C93.358165,78.5076362 89.250933,77.982399 85.4412544,78.899718 L86.2848466,80.5081442 C89.574679,79.7720029 93.0539289,80.2889107 96.0705167,82.0319164 C99.9356278,84.2868871 102.447812,88.2582143 102.819255,92.6136677 L102.734895,92.6983217 C98.8048892,94.4735667 94.1739535,94.254153 90.3340894,92.0210897 L89.9966525,91.8517816 L89.9122933,91.7671276 C87.1304091,90.0256756 85.1059988,87.37303 84.0915068,84.3175747 L84.0915068,84.4022287 C83.9398689,85.2988233 83.7047999,86.1812526 83.416633,87.026503 C84.6837273,89.5700472 86.648282,91.755786 89.1530603,93.2908998 L89.6592156,93.5448618 C94.3267716,96.2343865 99.9972059,96.2238399 104.590798,93.6295158 L104.590798,93.4602078 C104.435213,88.1790221 101.56795,83.2771742 96.9141089,80.5927983 Z M80.4640601,45.8 L80.3797009,45.8 C72.9207662,48.8982059 67.641458,56.3460257 67.641458,65.0164603 C67.641458,71.0558083 70.1610589,76.4684336 74.2214775,80.2541822 L75.0650698,78.815064 C71.4986372,75.2812743 69.3286425,70.3696734 69.3286425,65.0164603 C69.3286425,57.4491002 73.746677,50.6906138 80.3797009,47.6623882 L80.4640601,47.6623882 L80.6327786,47.7470422 C87.2481273,50.7943845 91.5994778,57.5066741 91.5994778,65.0164603 L91.5994778,65.2704224 C91.5685333,67.7374099 91.0772673,70.1024689 90.1653709,72.2967052 C90.7824504,72.3074484 91.3667849,72.3609856 91.9369147,72.4660133 C92.8134673,70.1426395 93.2866623,67.6502814 93.2866623,65.0164603 C93.2866623,56.3229623 87.9793255,48.8587256 80.4640601,45.8 Z M80.955025,49.0110538 L80.4640601,48.7628904 L80.2953417,48.8475444 C74.273,51.8435861 70.3409532,58.0663703 70.3409532,65.0164603 C70.3409532,69.9980465 72.3320654,74.5791243 75.6555843,77.8838699 L76.5835358,76.4447517 C73.7075377,73.4188741 72.0281377,69.3693194 72.0281377,65.0164603 C72.0281377,59.0253045 75.2624752,53.5601766 80.3797009,50.7099326 L80.4640601,50.6252786 L80.5484194,50.7099326 C85.651236,53.5334699 88.8999826,59.0124267 88.8999826,65.0164603 L88.8999826,65.4397304 C88.8389213,67.8744599 88.2487372,70.2164651 87.2127981,72.2967052 C87.8472098,72.2640712 88.4793816,72.2363647 89.1530603,72.2120512 C90.0375236,70.0816271 90.5562548,67.7193959 90.5871671,65.2704224 L90.5871671,64.8471523 C90.509409,58.052351 86.7191068,52.0108151 80.955025,49.0110538 L80.955025,49.0110538 Z M80.4640601,51.8104347 L80.3797009,51.8104347 L80.2953417,51.8950888 C75.828914,54.6758343 73.0404484,59.6156238 73.0404484,65.0164603 C73.0404484,69.0068367 74.5447341,72.7288251 77.0896912,75.5135576 L78.0176426,73.9897854 C75.936494,71.5698847 74.7276329,68.3921242 74.7276329,65.0164603 C74.7276329,60.5314206 76.8920416,56.3647906 80.4640601,53.842131 L80.5484194,53.926785 C84.0713128,56.4315588 86.2004874,60.5686481 86.2004874,65.0164603 L86.2004874,65.5243844 C86.1024794,68.2174778 85.2285357,70.7792198 83.7540699,72.8892833 C84.490349,72.7233044 85.2449589,72.5716129 86.0317689,72.4660133 C87.1601382,70.3393044 87.8250079,67.9299231 87.8876719,65.4397304 L87.8876719,64.8471523 C87.8303099,59.4475779 84.9826123,54.5211732 80.4640601,51.8104347 Z" id="baltic-assembly"></path>
                </g>
            </g>
        </g>
    </g>
</svg>