<?xml version="1.0" encoding="UTF-8"?>
<svg width="120px" height="52px" viewBox="0 0 120 52" version="1.1" xmlns="http://www.w3.org/2000/svg" xmlns:xlink="http://www.w3.org/1999/xlink">
    <title>partners-logo-nolikava</title>
    <g id="Design" stroke="none" stroke-width="1" fill="none" fill-rule="evenodd">
        <g id="Group-16" transform="translate(-500, -771)" fill="#292C33">
            <g id="Clients" transform="translate(0, 397)">
                <g id="Client-16" transform="translate(480, 320)">
                    <g id="nolikava" transform="translate(20, 54)">
                        <path d="M0.745341615,52 L0,52 L0,0 L0.745341615,0 L0.745341615,11.1428571 L11.9254658,11.1428571 L11.9254658,5.94285714 L12.6708075,5.94285714 L12.6708075,11.1428571 L23.8509317,11.1428571 L23.8509317,5.94285714 L24.5962733,5.94285714 L24.5962733,11.1428571 L35.7763975,11.1428571 L35.7763975,5.94285714 L36.5217391,5.94285714 L36.5217391,11.1428571 L47.7018634,11.1428571 L47.7018634,5.94285714 L48.447205,5.94285714 L48.447205,11.1428571 L59.6273292,11.1428571 L59.6273292,5.94285714 L60.3726708,5.94285714 L60.3726708,11.1428571 L71.552795,11.1428571 L71.552795,5.94285714 L72.2981366,5.94285714 L72.2981366,11.1428571 L83.4782609,11.1428571 L83.4782609,5.94285714 L84.2236025,5.94285714 L84.2236025,11.1428571 L95.4037267,11.1428571 L95.4037267,5.94285714 L96.1490683,5.94285714 L96.1490683,11.1428571 L107.329193,11.1428571 L107.329193,5.94285714 L108.074534,5.94285714 L108.074534,11.1428571 L119.254658,11.1428571 L119.254658,0 L120,0 L120,52 L119.254658,52 L119.254658,47.5428571 L108.074534,47.5428571 L108.074534,52 L107.329193,52 L107.329193,47.5428571 L96.1490683,47.5428571 L96.1490683,52 L95.4037267,52 L95.4037267,47.5428571 L84.2236025,47.5428571 L84.2236025,52 L83.4782609,52 L83.4782609,47.5428571 L72.2981366,47.5428571 L72.2981366,52 L71.552795,52 L71.552795,47.5428571 L60.3726708,47.5428571 L60.3726708,52 L59.6273292,52 L59.6273292,47.5428571 L48.447205,47.5428571 L48.447205,52 L47.7018634,52 L47.7018634,47.5428571 L36.5217391,47.5428571 L36.5217391,52 L35.7763975,52 L35.7763975,47.5428571 L24.5962733,47.5428571 L24.5962733,52 L23.8509317,52 L23.8509317,47.5428571 L12.6708075,47.5428571 L12.6708075,52 L11.9254658,52 L11.9254658,47.5428571 L0.745341615,47.5428571 L0.745341615,52 Z M0.745341615,46.8 L11.9254658,46.8 L11.9254658,35.6571429 L0.745341615,35.6571429 L0.745341615,46.8 Z M47.7018634,35.6571429 L36.5217391,35.6571429 L36.5217391,46.8 L47.7018634,46.8 L47.7018634,35.6571429 Z M23.8509317,35.6571429 L12.6708075,35.6571429 L12.6708075,46.8 L23.8509317,46.8 L23.8509317,35.6571429 Z M59.6273292,35.6571429 L48.447205,35.6571429 L48.447205,46.8 L59.6273292,46.8 L59.6273292,35.6571429 Z M35.7763975,35.6571429 L24.5962733,35.6571429 L24.5962733,46.8 L35.7763975,46.8 L35.7763975,35.6571429 Z M71.552795,35.6571429 L60.3726708,35.6571429 L60.3726708,46.8 L71.552795,46.8 L71.552795,35.6571429 Z M95.4037267,35.6571429 L84.2236025,35.6571429 L84.2236025,46.8 L95.4037267,46.8 L95.4037267,35.6571429 Z M83.4782609,35.6571429 L72.2981366,35.6571429 L72.2981366,46.8 L83.4782609,46.8 L83.4782609,35.6571429 Z M107.329193,35.6571429 L96.1490683,35.6571429 L96.1490683,46.8 L107.329193,46.8 L107.329193,35.6571429 Z M119.254658,35.6571429 L108.074534,35.6571429 L108.074534,46.8 L119.254658,46.8 L119.254658,35.6571429 Z M0.745341615,34.9142857 L11.9254658,34.9142857 L11.9254658,23.7714286 L0.745341615,23.7714286 L0.745341615,34.9142857 Z M47.7018634,23.7714286 L36.5217391,23.7714286 L36.5217391,34.9142857 L47.7018634,34.9142857 L47.7018634,23.7714286 Z M23.8509317,23.7714286 L12.6708075,23.7714286 L12.6708075,34.9142857 L23.8509317,34.9142857 L23.8509317,23.7714286 Z M35.7763975,23.7714286 L24.5962733,23.7714286 L24.5962733,34.9142857 L35.7763975,34.9142857 L35.7763975,23.7714286 Z M59.6273292,23.7714286 L48.447205,23.7714286 L48.447205,34.9142857 L59.6273292,34.9142857 L59.6273292,23.7714286 Z M71.552795,23.7714286 L60.3726708,23.7714286 L60.3726708,34.9142857 L71.552795,34.9142857 L71.552795,23.7714286 Z M83.4782609,23.7714286 L72.2981366,23.7714286 L72.2981366,34.9142857 L83.4782609,34.9142857 L83.4782609,23.7714286 Z M95.4037267,23.7714286 L84.2236025,23.7714286 L84.2236025,34.9142857 L95.4037267,34.9142857 L95.4037267,23.7714286 Z M107.329193,23.7714286 L96.1490683,23.7714286 L96.1490683,34.9142857 L107.329193,34.9142857 L107.329193,23.7714286 Z M119.254658,23.7714286 L108.074534,23.7714286 L108.074534,34.9142857 L119.254658,34.9142857 L119.254658,23.7714286 Z M0.745341615,23.0285714 L11.9254658,23.0285714 L11.9254658,11.8857143 L0.745341615,11.8857143 L0.745341615,23.0285714 Z M35.7763975,11.8857143 L24.5962733,11.8857143 L24.5962733,23.0285714 L35.7763975,23.0285714 L35.7763975,11.8857143 Z M47.7018634,11.8857143 L36.5217391,11.8857143 L36.5217391,23.0285714 L47.7018634,23.0285714 L47.7018634,11.8857143 Z M59.6273292,11.8857143 L48.447205,11.8857143 L48.447205,23.0285714 L59.6273292,23.0285714 L59.6273292,11.8857143 Z M71.552795,11.8857143 L60.3726708,11.8857143 L60.3726708,23.0285714 L71.552795,23.0285714 L71.552795,11.8857143 Z M83.4782609,11.8857143 L72.2981366,11.8857143 L72.2981366,23.0285714 L83.4782609,23.0285714 L83.4782609,11.8857143 Z M95.4037267,11.8857143 L84.2236025,11.8857143 L84.2236025,23.0285714 L95.4037267,23.0285714 L95.4037267,11.8857143 Z M107.329193,11.8857143 L96.1490683,11.8857143 L96.1490683,23.0285714 L107.329193,23.0285714 L107.329193,11.8857143 Z M119.254658,11.8857143 L108.074534,11.8857143 L108.074534,23.0285714 L119.254658,23.0285714 L119.254658,11.8857143 Z M23.8509317,11.8857143 L12.6708075,11.8857143 L12.6708075,23.0285714 L23.8509317,23.0285714 L23.8509317,11.8857143 Z" id="Shape"></path>
                        <path d="M59.6273292,35.6571429 L59.6273292,46.8 L48.447205,46.8 L48.447205,35.6571429 L59.6273292,35.6571429 Z M23.8509317,35.6571429 L23.8509317,46.8 L12.6708075,46.8 L12.6708075,35.6571429 L23.8509317,35.6571429 Z M119.254658,35.6571429 L119.254658,46.8 L108.074534,46.8 L108.074534,35.6571429 L119.254658,35.6571429 Z M11.9254658,23.7714286 L11.9254658,34.9142857 L0.745341615,34.9142857 L0.745341615,23.7714286 L11.9254658,23.7714286 Z M35.7763975,23.7714286 L35.7763975,34.9142857 L24.5962733,34.9142857 L24.5962733,23.7714286 L35.7763975,23.7714286 Z M71.552795,23.7714286 L71.552795,34.9142857 L60.3726708,34.9142857 L60.3726708,23.7714286 L71.552795,23.7714286 Z M107.329193,11.8857143 L107.329193,23.0285714 L96.1490683,23.0285714 L96.1490683,11.8857143 L107.329193,11.8857143 Z M83.4782609,11.8857143 L83.4782609,23.0285714 L72.2981366,23.0285714 L72.2981366,11.8857143 L83.4782609,11.8857143 Z" id="Shape" opacity="0.100000001"></path>
                        <path d="M23.1055901,36.4 L23.1055901,46.0571429 L13.4161491,46.0571429 L13.4161491,36.4 L23.1055901,36.4 Z M22.3602484,37.1428571 L14.1614907,37.1428571 L14.1614907,45.3142857 L22.3602484,45.3142857 L22.3602484,37.1428571 Z M69.3167702,42.3428571 L69.3167702,44.5714286 L67.0807453,44.5714286 L67.0807453,42.3428571 L69.3167702,42.3428571 Z M88.415362,37.8857143 L89.6908405,42.0195573 L89.7097364,42.0195573 L91.0041116,37.8857143 L92.9409503,37.8857143 L90.49392,44.5714286 L88.9161056,44.5714286 L86.4596273,37.8857143 L88.415362,37.8857143 Z M77.5778586,37.8764286 L77.5778586,42.9707545 L80.2421925,42.9707545 L80.2421925,44.5621429 L75.7732919,44.5621429 L75.7732919,37.8764286 L77.5778586,37.8764286 Z M18.2608696,38.6285714 L21.6149068,40.8571429 L20.1242236,40.8571429 L20.1242236,43.8285714 L16.3975155,43.8285714 L16.3975155,40.8571429 L14.9068323,40.8571429 L18.2608696,38.6285714 Z M18.0414348,26 C20.0235745,26 21.42759,27.3536056 21.42759,29.3474302 C21.42759,31.3321087 20.0235745,32.6857143 18.0414348,32.6857143 C16.0409419,32.6857143 14.6552795,31.3229627 14.6552795,29.3474302 C14.6552795,27.3718976 16.0409419,26 18.0414348,26 Z M29.8759951,26 L29.8759951,31.094326 L32.5403289,31.094326 L32.5403289,32.6857143 L28.0714286,32.6857143 L28.0714286,26 L29.8759951,26 Z M43.3110402,26 L43.3110402,32.6857143 L41.4875776,32.6857143 L41.4875776,26 L43.3110402,26 Z M52.9626891,26 L52.9626891,28.2505433 L52.9815852,28.2505433 L54.6160878,26 L56.883606,26 L54.5216079,28.8531992 L56.9780859,32.6857143 L54.7767037,32.6857143 L53.3406089,30.2750906 L52.9626891,30.736499 L52.9626891,32.6857143 L51.1770186,32.6857143 L51.1770186,26 L52.9626891,26 Z M68.2894322,26 L68.2894322,27.5913883 L66.5887936,27.5913883 L66.5887936,32.6857143 L64.8031231,32.6857143 L64.8031231,27.5913883 L63.1024845,27.5913883 L63.1024845,26 L68.2894322,26 Z M78.4397255,26 L80.8678591,32.6857143 L78.9971568,32.6857143 L78.6570291,31.6028169 L76.5028867,31.6028169 L76.162759,32.6857143 L74.2826087,32.6857143 L76.7201911,26 L78.4397255,26 Z M88.1638092,26 L89.4392877,30.133843 L89.4581836,30.133843 L90.7525588,26 L92.6893975,26 L90.2423672,32.6857143 L88.6645528,32.6857143 L86.2080745,26 L88.1638092,26 Z M102.290657,26 L104.718791,32.6857143 L102.848088,32.6857143 L102.507961,31.6028169 L100.353818,31.6028169 L100.013691,32.6857143 L98.1335404,32.6857143 L100.571123,26 L102.290657,26 Z M114.863835,26 L114.863835,32.6857143 L113.040373,32.6857143 L113.040373,26 L114.863835,26 Z M5.27972181,25.9907143 L7.51889598,29.7573139 L7.54723998,29.7573139 L7.54723998,25.9907143 L9.34235851,25.9907143 L9.34235851,32.6764286 L7.48110402,32.6764286 L5.27972181,29.0134105 L5.26082583,29.0134105 L5.26082583,32.6764286 L3.47515528,32.6764286 L3.47515528,25.9907143 L5.27972181,25.9907143 Z M18.0414348,27.6279852 C17.1237775,27.6279852 16.4722409,28.3871018 16.4722409,29.3474302 C16.4722409,30.3077584 17.1237775,31.0668751 18.0414348,31.0668751 C18.9682686,31.0668751 19.6014521,30.3077584 19.6014521,29.3474302 C19.6014521,28.3962478 18.9682686,27.6279852 18.0414348,27.6279852 Z M77.5894062,28.1752113 L77.5705103,28.1752113 L76.9658385,30.1055936 L78.1940773,30.1055936 L77.5894062,28.1752113 Z M101.440338,28.1752113 L101.421442,28.1752113 L100.81677,30.1055936 L102.045009,30.1055936 L101.440338,28.1752113 Z M106.583851,12.6285714 L106.583851,22.2857143 L96.8944099,22.2857143 L96.8944099,12.6285714 L106.583851,12.6285714 Z M105.838509,13.3714286 L97.6397516,13.3714286 L97.6397516,21.5428571 L105.838509,21.5428571 L105.838509,13.3714286 Z M101.73913,14.8571429 L105.093168,17.0857143 L103.602484,17.0857143 L103.602484,20.0571429 L99.8757764,20.0571429 L99.8757764,17.0857143 L98.3850932,17.0857143 L101.73913,14.8571429 Z" id="Shape"></path>
                    </g>
                </g>
            </g>
        </g>
    </g>
</svg>