<?xml version="1.0" encoding="UTF-8"?>
<svg width="120px" height="20px" viewBox="0 0 120 20" version="1.1" xmlns="http://www.w3.org/2000/svg" xmlns:xlink="http://www.w3.org/1999/xlink">
    <title>partners-logo-mebeles</title>
    <g id="Design" stroke="none" stroke-width="1" fill="none" fill-rule="evenodd">
        <g id="Group-16" transform="translate(-20, -627)" fill="#292C33">
            <g id="Clients" transform="translate(0, 397)">
                <g id="Client-7" transform="translate(0, 160)">
                    <path d="M45.3985009,76.32935 C45.7927417,76.32935 46.0254499,76.37985 46.3424578,76.47985 C46.6988395,76.59235 47.0042373,76.80485 47.2500701,77.11235 C47.3878777,77.28435 47.5125608,77.50935 47.6215954,77.78085 C47.6291673,77.80035 47.6468348,77.81485 47.6675312,77.81935 C47.6820018,77.8220166 47.6960238,77.8206833 47.7084005,77.8150537 L47.725582,77.80335 L48.004226,77.53835 C48.1198228,77.43735 48.2339053,77.34535 48.3454639,77.26235 C48.6781205,77.01635 48.998662,76.82485 49.3000216,76.69185 C49.6054193,76.55735 49.9027406,76.46685 50.1823942,76.42335 C51.2268044,76.25835 52.1369404,76.41335 52.8456654,76.87585 C53.2025518,77.11035 53.4973491,77.42935 53.7224853,77.82385 C53.7320764,77.84135 53.749744,77.85285 53.7704404,77.85485 C53.7956799,77.85485 53.8133474,77.84835 53.8259672,77.83485 C53.980433,77.66735 54.1394418,77.51735 54.2964315,77.39035 C54.6139441,77.13185 54.9425624,76.92435 55.2721901,76.77285 C55.6043418,76.62085 55.9420462,76.51285 56.2757124,76.45235 C56.6058449,76.39135 56.92992,76.36035 57.2398609,76.36035 C58.673055,76.36035 60.3763426,77.0378689 60.4346507,80.2347565 L60.4361903,80.40535 L60.4361903,87.1398499 C60.4361903,87.3116681 60.3072811,87.4545607 60.1404843,87.4791212 L60.0893995,87.4828499 L59.0288361,87.4828499 C58.854913,87.4828499 58.7101928,87.3555772 58.6853174,87.1904382 L58.6815408,87.1398499 L58.6815408,80.49735 C58.6815408,79.60135 58.5487811,78.96135 58.2878047,78.59435 C58.0505534,78.26035 57.616939,78.09785 56.9617217,78.09785 C56.4599606,78.09785 55.9819247,78.24885 55.5018695,78.55985 C55.0314055,78.86385 54.5649795,79.29435 54.1162214,79.83935 C54.1094908,79.8466833 54.1052282,79.85535 54.1031343,79.8647574 L54.1015825,79.87935 L54.1015825,87.1398499 C54.1015825,87.3116681 53.9726733,87.4545607 53.8058765,87.4791212 L53.7547919,87.4828499 L52.6947332,87.4828499 C52.5208101,87.4828499 52.376507,87.3555772 52.3517074,87.1904382 L52.3479426,87.1398499 L52.3479426,80.49735 C52.3479426,80.03735 52.3166456,79.63985 52.2545565,79.31385 C52.1980201,79.01635 52.1041291,78.77435 51.9754077,78.59685 C51.8547629,78.43135 51.6977734,78.31085 51.4968668,78.22935 C51.2787977,78.14185 50.999649,78.09785 50.6664877,78.09785 C50.177851,78.09785 49.7220258,78.24685 49.2737725,78.55485 C48.8300623,78.85935 48.3727226,79.29185 47.9143735,79.84035 L47.9030157,79.859475 L47.8992297,79.88085 L47.8992297,87.1398499 C47.8992297,87.3116681 47.7707378,87.4545607 47.6040168,87.4791212 L47.5529438,87.4828499 L46.4923804,87.4828499 C46.3189163,87.4828499 46.1742378,87.3555772 46.149366,87.1904382 L46.1455898,87.1398499 L46.1455898,78.98935 C46.1400371,78.68335 46.0098014,78.52035 45.9401404,78.43285 C45.85685,78.32835 45.7387292,78.26085 45.5787108,78.22485 C45.4157758,78.1890722 45.2876528,78.1687203 45.0744001,78.1614419 L44.7357118,78.15835 C44.7175393,78.15835 44.7003765,78.16035 44.6827089,78.16285 L44.617591,78.16535 C44.4969462,78.16535 44.4262756,78.13635 44.3455093,78.08485 C44.2708635,78.0389125 44.238344,77.8834906 44.2313805,77.7441947 L44.2299125,76.84535 C44.2299125,76.56385 44.3783207,76.40885 44.6852327,76.37085 C44.9699342,76.33635 45.0895696,76.32935 45.3985009,76.32935 Z M67.4953732,76.30205 C68.2207563,76.30205 68.8896029,76.43255 69.4837404,76.69005 C70.082926,76.94955 70.5998309,77.32805 71.0213304,77.81505 C71.4377819,78.29605 71.7608474,78.88755 71.9809358,79.57355 C72.1758352,80.18015 72.284052,80.86208 72.3037463,81.6043955 L72.30703,81.85405 L72.30703,82.08205 C72.30703,82.2809666 72.1577245,82.4454319 71.9640938,82.4714614 L71.9102652,82.47505 L64.543867,82.47505 C64.6049467,82.9255499 64.7053997,83.3280499 64.844217,83.6740499 C65.0198839,84.11355 65.2505729,84.4825499 65.5292168,84.7695499 C65.8043274,85.0525499 66.1248689,85.2660499 66.4817553,85.40455 C67.1071898,85.6470499 67.8759848,85.6835499 68.6190354,85.50855 C68.9214046,85.4375499 69.1970199,85.3305499 69.4383094,85.1910499 C69.6720271,85.0555499 69.8683903,84.88755 70.0243703,84.6910499 C70.1667212,84.5115499 70.2490018,84.31155 70.2747462,84.0795499 C70.2949377,83.8986409 70.4369463,83.7574012 70.6146809,83.7332164 L70.6689869,83.72955 L71.6795762,83.72955 C71.7982019,83.72955 71.9112748,83.78205 71.9864885,83.87355 C72.0617021,83.96455 72.0919897,84.08405 72.0687693,84.1995499 C71.9652873,84.7110499 71.7780102,85.1740499 71.5124908,85.5740499 C71.2474761,85.9725499 70.9163341,86.3140499 70.5291603,86.5900499 C70.1445104,86.8640499 69.7033241,87.0730499 69.2177163,87.2125499 C68.7396802,87.3485499 68.2247946,87.4185499 67.6871933,87.4185499 C66.9471716,87.4185499 66.2631812,87.2910499 65.6538999,87.0395499 C65.0385611,86.7855499 64.5024743,86.4110499 64.0592688,85.9255499 C63.6195968,85.4445499 63.2758349,84.8505499 63.038079,84.1605499 C62.8028469,83.4820499 62.6837165,82.7010499 62.6837165,81.84105 C62.6837165,81.00905 62.7983037,80.24455 63.0239448,79.56955 C63.2531195,78.88355 63.5852712,78.29255 64.010809,77.81155 C64.4388707,77.32705 64.9542612,76.95005 65.5428463,76.69105 C66.1289072,76.43305 66.7861436,76.30205 67.4953732,76.30205 Z M75.6850836,72.5001 C75.8859058,72.5001 76.0519466,72.6475687 76.0782256,72.8392921 L76.0818486,72.8926 L76.0818486,77.4921 C76.142928,77.4371 76.2050171,77.3836 76.2676111,77.3341 C76.5805809,77.0831 76.8985985,76.8796 77.2135873,76.7281 C77.5305952,76.5756 77.8445747,76.4651 78.1469437,76.4001 C79.1893347,76.1751 80.0818031,76.3291 80.8304066,76.7061 C81.3614454,76.9741 81.8137371,77.3596 82.174157,77.8521 C82.524986,78.3331 82.7955534,78.9156 82.9782873,79.5841 C83.1569828,80.2396 83.2478451,80.9736 83.2478451,81.7651 C83.2478451,82.6036 83.1383056,83.3746 82.9222555,84.0566 C82.7046912,84.7430999 82.4018173,85.3400999 82.0201961,85.8320999 C81.6320127,86.3325999 81.1665966,86.7250999 80.6355576,86.9995999 C80.0974516,87.2770999 79.5129051,87.4185999 78.8965566,87.4185999 C78.3700608,87.4185999 77.7935909,87.3150999 77.1843096,87.1125999 C76.859369,87.0041714 76.541846,86.8538653 76.2346012,86.6626262 L76.0818486,86.5635999 L76.0818486,86.7715999 C76.0818486,86.9705166 75.9325429,87.1349819 75.7389122,87.1610114 L75.6850836,87.1645999 L74.6613698,87.1645999 C74.4605476,87.1645999 74.2945068,87.0167111 74.268228,86.8249177 L74.2646051,86.7715999 L74.2646051,72.8926 C74.2646051,72.6936833 74.4139107,72.5296382 74.6075415,72.5036787 L74.6613698,72.5001 L75.6850836,72.5001 Z M89.2494429,76.30205 C89.974826,76.30205 90.6436724,76.43255 91.2378101,76.69005 C91.8369956,76.94955 92.3533957,77.32805 92.7748952,77.81505 C93.1918516,78.29605 93.5149171,78.88755 93.7350055,79.57355 C93.9294505,80.18015 94.0380308,80.86208 94.0578023,81.6043955 L94.0610997,81.85405 L94.0610997,82.08205 C94.0610997,82.2809666 93.911794,82.4454319 93.7181633,82.4714614 L93.6643349,82.47505 L86.2979367,82.47505 C86.3590164,82.9255499 86.4594694,83.3280499 86.5977818,83.6740499 C86.7739536,84.11355 87.0041377,84.4825499 87.2827816,84.7695499 C87.5578922,85.0525499 87.8784337,85.2660499 88.2353201,85.40455 C88.8607548,85.6470499 89.6300545,85.6835499 90.3731051,85.50855 C90.6754741,85.4375499 90.9510894,85.3305499 91.1918743,85.1910499 C91.4255919,85.0555499 91.6219553,84.88755 91.7779352,84.6910499 C91.9207907,84.5115499 92.0025668,84.31155 92.028311,84.0795499 C92.0489615,83.8986409 92.1910118,83.7574012 92.368371,83.7332164 L92.4225519,83.72955 L93.4336459,83.72955 C93.5522715,83.72955 93.6648396,83.78205 93.7400533,83.87355 C93.8157718,83.96455 93.8455545,84.08405 93.8228388,84.1995499 C93.7188521,84.7110499 93.5320799,85.1740499 93.2660556,85.5740499 C93.001041,85.9725499 92.6698989,86.3140499 92.2832298,86.5900499 C91.8985799,86.8640499 91.4568889,87.0730499 90.9712811,87.2125499 C90.4937499,87.3485499 89.9783594,87.4185499 89.4412631,87.4185499 C88.7012411,87.4185499 88.0172509,87.2910499 87.4079696,87.0395499 C86.7926308,86.7855499 86.2560391,86.4110499 85.8133385,85.9255499 C85.3736666,85.4445499 85.0299047,84.8505499 84.7916438,84.1605499 C84.5569165,83.4820499 84.4377862,82.7010499 84.4377862,81.84105 C84.4377862,81.00905 84.5518687,80.24455 84.7780145,79.56955 C85.0071892,78.88355 85.3393409,78.29255 85.7648787,77.81155 C86.1929404,77.32705 86.7083309,76.95005 87.2969158,76.69105 C87.8829769,76.43305 88.5402131,76.30205 89.2494429,76.30205 Z M104.579456,76.30205 C105.304839,76.30205 105.973686,76.43255 106.567823,76.69005 C107.167009,76.94955 107.683914,77.32805 108.104908,77.81505 C108.521865,78.29605 108.84493,78.88755 109.065019,79.57355 C109.259464,80.18015 109.368044,80.86208 109.387816,81.6043955 L109.391113,81.85405 L109.391113,82.08205 C109.391113,82.2809666 109.241807,82.4454319 109.048176,82.4714614 L108.994348,82.47505 L101.62795,82.47505 C101.689029,82.9255499 101.789483,83.3280499 101.9283,83.6740499 C102.104471,84.11355 102.334656,84.4825499 102.612795,84.7695499 C102.887905,85.0525499 103.208952,85.2660499 103.565333,85.40455 C104.191273,85.6470499 104.960068,85.6835499 105.703118,85.50855 C106.005487,85.4375499 106.281103,85.3305499 106.522392,85.1910499 C106.75611,85.0555499 106.952473,84.88755 107.108453,84.6910499 C107.250804,84.5115499 107.33258,84.31155 107.358829,84.0795499 C107.379021,83.8986409 107.521029,83.7574012 107.698385,83.7332164 L107.752565,83.72955 L108.763659,83.72955 C108.882285,83.72955 108.995358,83.78205 109.070066,83.87355 C109.145785,83.96455 109.175568,84.08405 109.152852,84.1995499 C109.04937,84.7110499 108.862093,85.1740499 108.596069,85.5740499 C108.331559,85.9725499 107.999912,86.3140499 107.613243,86.5900499 C107.228593,86.8640499 106.786902,87.0730499 106.301799,87.2125499 C105.823763,87.3485499 105.308877,87.4185499 104.771276,87.4185499 C104.031254,87.4185499 103.347264,87.2910499 102.737983,87.0395499 C102.122644,86.7855499 101.586052,86.4110499 101.143352,85.9255499 C100.70368,85.4445499 100.359918,84.8505499 100.122162,84.1605499 C99.8869296,83.4820499 99.7677994,82.7010499 99.7677994,81.84105 C99.7677994,81.00905 99.8818819,80.24455 100.108028,79.56955 C100.337202,78.88355 100.669354,78.29255 101.094892,77.81155 C101.522954,77.32705 102.038344,76.95005 102.626929,76.69105 C103.21299,76.43305 103.870226,76.30205 104.579456,76.30205 Z M114.624824,76.30205 C115.875189,76.30205 116.849433,76.52205 117.521813,76.95505 C118.237605,77.41605 118.639923,78.14105 118.718165,79.11005 C118.726242,79.21905 118.688887,79.32705 118.614179,79.40755 C118.5515,79.4746333 118.467439,79.5177583 118.377184,79.5302699 L118.32241,79.53405 L117.286076,79.53405 C117.088199,79.53405 116.920104,79.38905 116.892845,79.19505 C116.841861,78.82305 116.677805,78.57005 116.377455,78.39755 C116.034702,78.20105 115.492558,78.10155 114.765661,78.10155 C114.420384,78.10155 114.099843,78.13255 113.812617,78.19455 C113.539021,78.25305 113.305304,78.33805 113.117017,78.44705 C112.943369,78.54805 112.813638,78.66705 112.720252,78.81355 C112.632419,78.94905 112.590521,79.10155 112.590521,79.28055 C112.590521,79.38355 112.608189,79.48805 112.646048,79.59905 L112.660612,79.6320047 C112.686631,79.680803 112.749362,79.7654944 112.902481,79.88255 C113.082691,80.02055 113.366383,80.16655 113.746995,80.31605 C114.073273,80.4449136 114.507008,80.5801367 115.040183,80.7195285 L115.410277,80.81305 C116.000377,80.96205 116.515767,81.11705 116.945848,81.27705 C117.404702,81.44655 117.793895,81.65405 118.100807,81.89305 C118.425387,82.1455499 118.672229,82.44655 118.834772,82.7890499 C118.996304,83.1300499 119.078585,83.5270499 119.078585,83.97005 C119.078585,84.4560499 118.977122,84.9185499 118.779245,85.3450499 C118.581367,85.7710499 118.297675,86.1420499 117.934731,86.4490499 C117.57835,86.7505499 117.140697,86.9900499 116.634393,87.1625499 C116.133641,87.3320499 115.568781,87.4185499 114.956976,87.4185499 C111.650603,87.4185499 110.753591,85.6505499 110.582972,84.1670499 C110.570857,84.05555 110.606192,83.94455 110.681911,83.8610499 C110.744168,83.7914666 110.829211,83.7465361 110.921558,83.7334921 L110.977718,83.72955 L112.014051,83.72955 C112.214453,83.72955 112.382548,83.87655 112.407787,84.0725499 C112.470381,84.5550499 112.686431,84.9210499 113.069567,85.1905499 C113.472389,85.4745499 114.102872,85.6180499 114.944356,85.6180499 C115.35677,85.6180499 115.720723,85.5740499 116.025616,85.4875499 C116.319909,85.4035499 116.564227,85.2920499 116.750494,85.1560499 C116.925152,85.0285499 117.05034,84.8835499 117.13363,84.7125499 C117.218939,84.5370499 117.260332,84.3525499 117.260332,84.1480499 C117.260332,83.9460499 117.228026,83.7775499 117.164927,83.64555 C117.106876,83.52605 116.991279,83.40855 116.819651,83.29805 C116.612182,83.16405 116.318394,83.03055 115.946364,82.9025499 C115.657699,82.8032907 115.301729,82.6960753 114.884198,82.5831393 L114.423413,82.46255 C113.878745,82.32505 113.385565,82.18155 112.959523,82.0350499 C112.505717,81.87905 112.114504,81.6805499 111.796487,81.44605 C111.460297,81.19705 111.201844,80.89105 111.029206,80.53455 C110.859092,80.18305 110.772268,79.74855 110.772268,79.24255 C110.772268,78.79305 110.871712,78.37605 111.066561,78.00355 C111.261915,77.63255 111.536015,77.31755 111.880787,77.06405 C112.215967,76.81705 112.624847,76.62505 113.09733,76.49405 C113.556689,76.36655 114.07107,76.30205 114.624824,76.30205 Z M132.194136,76.55555 C132.340861,76.55555 132.474425,76.6357475 132.543065,76.7617283 L132.565661,76.81105 L135.381379,84.2585499 L138.208202,76.81005 C138.259803,76.67405 138.382398,76.5787413 138.52529,76.5592407 L138.579727,76.55555 L139.603441,76.55555 C139.733677,76.55555 139.855836,76.61905 139.929535,76.72555 C139.993139,76.8164071 140.014464,76.9289377 139.990331,77.0354334 L139.974462,77.08805 L136.211758,86.9110499 C136.160157,87.0466055 136.037562,87.1414697 135.895024,87.1608771 L135.840738,87.1645499 L134.919496,87.1645499 C134.773219,87.1645499 134.640104,87.0847475 134.571204,86.959908 L134.548476,86.9110499 L130.786782,77.08805 C130.740341,76.96705 130.756999,76.83155 130.831708,76.72555 C130.894879,76.6342643 130.993282,76.5745704 131.102122,76.559378 L131.157297,76.55555 L132.194136,76.55555 Z M97.4645947,72.5 C97.6654169,72.5 97.8314577,72.6478889 97.8577367,72.8392971 L97.8613596,72.8925 L97.8613596,86.7714999 C97.8613596,86.9708749 97.7120539,87.1349583 97.5184232,87.1609209 L97.4645947,87.1644999 L96.4413858,87.1644999 C96.2405634,87.1644999 96.0745228,87.0170312 96.0482438,86.8249227 L96.0446208,86.7714999 L96.0446208,72.8925 C96.0446208,72.6940417 96.1939265,72.5296146 96.3875572,72.5035882 L96.4413858,72.5 L97.4645947,72.5 Z M123.850717,84.5282999 C124.051539,84.5282999 124.21758,84.6761888 124.243859,84.8679822 L124.247482,84.9212999 L124.247482,86.7712999 C124.247482,86.9706749 124.098176,87.1347583 123.904545,87.1607209 L123.850717,87.1642999 L121.98249,87.1642999 C121.781668,87.1642999 121.615627,87.0168312 121.589348,86.8247227 L121.585725,86.7712999 L121.585725,84.9212999 C121.585725,84.7223833 121.73503,84.557918 121.928661,84.5318885 L121.98249,84.5282999 L123.850717,84.5282999 Z M128.815779,72.5 C129.017064,72.5 129.182719,72.6478889 129.208931,72.8392971 L129.212544,72.8925 L129.212544,86.7714999 C129.212544,86.9708749 129.063663,87.1349583 128.869714,87.1609209 L128.815779,87.1644999 L127.79257,87.1644999 C127.591285,87.1644999 127.42563,87.0170312 127.399419,86.8249227 L127.395806,86.7714999 L127.395806,72.8925 C127.395806,72.6940417 127.544687,72.5296146 127.738636,72.5035882 L127.79257,72.5 L128.815779,72.5 Z M78.8713171,78.1016 C78.3372495,78.1016 77.8576992,78.2561 77.4059122,78.5741 C76.999304,78.8603 76.5980113,79.253825 76.2104978,79.747385 L76.0818486,79.9156 L76.0818486,84.2681 C76.481642,84.6690999 76.8985985,84.9961 77.3241363,85.2405999 C77.7592652,85.4910999 78.2499208,85.6180999 78.7814645,85.6180999 C79.5800421,85.6180999 80.2004289,85.3165999 80.6809888,84.6945999 C81.1782068,84.0501 81.4306016,83.0651 81.4306016,81.7651 C81.4306016,80.5236 81.1948647,79.5841 80.7299533,78.9721 C80.2847287,78.3866 79.6764569,78.1016 78.8713171,78.1016 Z M67.4953732,78.10155 C67.1087043,78.10155 66.7452556,78.16205 66.415123,78.28105 C66.0940768,78.39655 65.802813,78.57655 65.5494085,78.81705 C65.2919655,79.06055 65.0708677,79.37555 64.8916672,79.75205 C64.7886902,79.96925 64.7015432,80.21045 64.631002,80.473346 L64.5812216,80.67455 L70.3969053,80.67455 C70.2146761,79.86905 69.8951442,79.25055 69.4443668,78.83255 C68.9143374,78.34105 68.276788,78.10155 67.4953732,78.10155 Z M89.2494429,78.10155 C88.8627739,78.10155 88.4993252,78.16205 88.1691927,78.28105 C87.8481463,78.39655 87.5563778,78.57655 87.303478,78.81705 C87.0460353,79.06055 86.8244325,79.37555 86.6457369,79.75205 C86.5427599,79.96925 86.455613,80.21045 86.3850715,80.473346 L86.3352911,80.67455 L92.1504701,80.67455 C91.9687458,79.86905 91.6492138,79.25055 91.1984365,78.83255 C90.6684072,78.34105 90.0308575,78.10155 89.2494429,78.10155 Z M104.579456,78.10155 C104.192787,78.10155 103.829338,78.16205 103.499206,78.28105 C103.178664,78.39655 102.886896,78.57655 102.633491,78.81705 C102.376048,79.06055 102.15495,79.37555 101.97575,79.75205 C101.872773,79.96925 101.785626,80.21045 101.715085,80.473346 L101.665304,80.67455 L107.480988,80.67455 C107.298759,79.86905 106.979732,79.25055 106.52845,78.83255 C105.99842,78.34105 105.360871,78.10155 104.579456,78.10155 Z M30.0955413,70 C35.6712936,70 40.1915937,74.4772946 40.1915937,80 C40.1915937,85.5227053 35.6712936,90 30.0955413,90 C24.5197889,90 20,85.5227053 20,80 C20,74.4772946 24.5197889,70 30.0955413,70 Z M29.3776323,77.3035 C28.8869766,76.5105 27.8400425,76.2615 27.038941,76.748 C26.2383443,77.2345 25.986959,78.2715 26.4776147,79.0645 L28.5598728,82.4875 C29.0510333,83.281 30.0979674,83.5294999 30.8985641,83.0439999 C31.6996656,82.5575 31.9505461,81.5205 31.4598904,80.727 L29.3776323,77.3035 Z M34.6969057,77.3035 C34.20625,76.5105 33.1593159,76.2615 32.3582144,76.748 C31.5576177,77.2345 31.3062324,78.2715 31.7973929,79.0645 L33.8791462,82.4875 C34.3703067,83.281 35.4172409,83.5294999 36.2183423,83.0439999 C37.018939,82.5575 37.2703244,81.5205 36.7791638,80.727 L34.6969057,77.3035 Z M24.6365957,79.87545 C23.6840572,79.87545 22.9117288,80.63995 22.9117288,81.58395 C22.9117288,82.52745 23.6840572,83.29245 24.6365957,83.29245 C25.5891341,83.29245 26.3614625,82.52745 26.3614625,81.58395 C26.3614625,80.63995 25.5891341,79.87545 24.6365957,79.87545 Z" id="mebeles"></path>
                </g>
            </g>
        </g>
    </g>
</svg>