<?xml version="1.0" encoding="UTF-8"?>
<svg width="102.625491px" height="59.9992418px" viewBox="0 0 102.625491 59.9992418" version="1.1" xmlns="http://www.w3.org/2000/svg" xmlns:xlink="http://www.w3.org/1999/xlink">
    <title>partners-logo-bwt</title>
    <g id="Design" stroke="none" stroke-width="1" fill="none" fill-rule="evenodd">
        <g id="Group-16" transform="translate(-189, -607)" fill="#292C33">
            <g id="Clients" transform="translate(0, 397)">
                <g id="Client-8" transform="translate(160, 160)">
                    <path d="M107.457598,50.5356147 L107.589095,51.0406719 C107.704848,51.4506462 107.794799,51.5036848 108.220183,51.5094187 L108.333726,51.5100459 C108.87128,51.5100459 108.955273,51.5604415 108.955273,51.9132111 C108.955273,52.4339662 108.182539,53.4586778 107.880165,53.3410879 C107.477,53.189901 107.443403,53.525872 107.796173,54.0970228 C108.159812,54.6820076 108.47881,54.7015381 108.571101,54.1696193 L108.585705,54.0634257 C108.652899,53.4922749 108.837683,53.4922749 109.10646,54.0466271 L109.308042,54.500188 L110.097574,53.7442532 L110.504675,54.5287623 C110.683082,54.8538876 110.74086,54.7936686 111.391063,54.5169865 L111.609789,54.435782 C111.855615,54.3519045 112.057405,54.3098044 112.096602,54.349001 C112.264587,54.5169865 111.491854,55.9448634 111.088689,56.2136402 C110.468435,56.6168055 109.705045,56.6907588 108.851369,56.4355004 L108.6361,56.3648272 C107.493799,55.9616619 107.24182,56.1968417 108.031352,56.969575 C108.501712,57.4242558 108.737937,57.5423683 109.573156,57.6380429 L110.113203,57.6970494 C110.74453,57.7574346 110.9709,57.7124592 111.26536,57.5105182 L111.340667,57.456733 C111.876121,57.0787656 112.012937,57.0551427 111.917215,57.3997057 L111.895019,57.4735316 C111.811026,57.7591069 111.861422,57.8095026 112.34858,57.8095026 C112.650954,57.8095026 113.054119,57.6919127 113.222105,57.5575243 C113.62527,57.2551504 113.843651,57.2383518 114.230018,57.5239272 L114.333307,57.6075771 C114.500509,57.7577356 114.424401,57.8215016 113.97804,58.095078 C113.658867,58.279862 113.087716,58.4814446 112.70135,58.5486388 C112.355779,58.5918351 111.862108,58.7461075 111.516538,58.8950906 L111.357466,58.9686026 C111.034093,59.137988 110.202565,59.3779507 109.419265,59.5332206 L108.809244,59.6504832 C107.769323,59.8631138 107.458433,60.0339844 107.443403,60.379681 C107.443403,60.5541992 108.327453,60.518943 109.359677,60.2880637 L110.020566,60.1328678 C110.895922,59.934554 110.971099,59.9879693 110.971099,60.379681 C110.971099,60.6316592 110.705341,60.8984018 109.910834,61.4152156 L109.592111,61.6190424 L109.129536,61.9046254 L108.565649,62.2380885 L108.098547,62.4962984 C107.644986,62.7146795 107.275418,63.3026289 107.275418,63.7897869 C107.275418,63.904977 107.386494,64.0942178 107.534595,64.2411439 L107.742474,64.4307698 C107.920782,64.6025019 107.897232,64.6488374 107.656531,64.837391 L107.191425,65.2008652 L107.762576,65.2008652 C108.046284,65.2008652 108.635271,65.2672299 109.140195,65.3645646 L109.636901,65.4654909 C110.190461,65.5695971 110.345516,65.54039 110.549308,65.3520671 L110.601531,65.3016565 C110.870308,65.0328797 110.870308,64.9992826 110.483941,64.6801101 C110.248761,64.495326 109.845596,64.3609376 109.442431,64.3609376 C108.75369,64.3609376 108.619302,64.2097506 109.039266,63.8569811 C109.151256,63.7589895 109.25158,63.591004 109.281911,63.4502383 L109.291244,63.3698231 C109.291244,63.2018375 109.459229,62.9162622 109.67761,62.7314782 C110.047179,62.4123057 111.743832,61.3371983 111.895019,61.3371983 C111.938215,61.3371983 111.96907,61.4729581 111.977004,61.6598481 L111.979012,61.7571622 C111.979012,62.1956928 112.026662,62.2649344 112.60348,61.9548556 L112.986925,61.7403636 C113.62527,61.3875941 113.776457,61.3539969 114.112428,61.5219824 C114.384564,61.6731694 114.57506,61.6746812 114.977822,61.5142719 L115.450538,61.3196234 C116.123476,61.0544601 116.514621,60.9709899 116.514621,61.1020187 C116.514621,61.1617468 116.368619,61.407296 116.170999,61.673492 L116.094657,61.7739607 C115.70829,62.2779173 115.271528,62.4962984 114.112428,62.7482767 C113.888447,62.8080049 113.4521,63.0800999 113.098339,63.3993876 L112.74088,63.7429301 C112.312594,64.1721219 112.311623,64.3060623 112.398976,64.9320883 L112.440905,65.1801693 C112.498423,65.4898003 112.560242,65.7048217 112.600558,65.7048217 C112.631101,65.7048217 112.953189,65.4826921 113.327023,65.2025059 L113.696151,64.9269728 C114.277533,64.5090829 114.448025,64.5150453 114.713138,64.8865318 L114.767572,64.9656855 C114.960754,65.2393618 114.860809,65.3896155 113.728484,66.4070422 L113.574874,66.5447493 C113.188508,66.8891196 112.835738,67.220891 112.57746,67.4749691 L112.402421,67.649943 C112.247001,67.8083153 112.153297,67.9138312 112.146997,67.939029 C112.146997,68.0153861 112.424659,67.9112629 112.778047,67.7150063 L113.184078,67.4831586 C113.754134,67.1662957 113.878368,67.1808544 114.4316,67.3846769 L114.885161,67.5694609 L114.314011,68.1574102 C113.586732,68.9163095 112.785052,69.3924815 111.194711,69.9640631 L110.33785,70.2709378 C109.14175,70.7118651 108.991558,70.8478662 109.257647,71.1139553 C109.526423,71.382732 111.475055,71.4331277 111.475055,71.1811494 C111.475055,71.0635596 111.575847,70.8451784 111.693437,70.6771929 C111.895019,70.4084161 111.995811,70.4084161 112.919731,70.5932002 C113.944442,70.7947828 114.381205,70.7275886 115.725089,70.1564378 C115.893074,70.0892436 116.010665,70.1060422 116.010665,70.2068334 C116.010665,70.2921184 115.649843,70.5578138 115.172449,70.8410877 L114.90196,70.9963654 C114.011637,71.5003219 113.810054,71.685106 113.86045,71.9706814 C113.923691,72.4608038 114.522626,72.5342756 115.293124,72.1490817 L115.697712,71.935517 C116.071639,71.7459823 116.189669,71.7401053 116.443607,71.8933982 L117.085771,72.3066524 L116.615412,72.6930191 C116.363434,72.9114002 115.977067,73.0961843 115.741888,73.0961843 C115.439513,73.0961843 115.237931,73.2473712 115.036349,73.6169394 L114.868359,73.918595 C114.429928,74.6915079 114.282962,74.7850346 113.723437,74.6002015 L112.785342,74.2720829 L112.869335,74.7424423 C112.953328,75.1624061 112.902932,75.2631974 112.432573,75.46478 C112.089136,75.6141005 111.918247,75.7899668 111.837319,76.0867643 L111.776613,76.3657299 C111.696572,76.6759929 111.556808,76.7381102 110.887106,76.8254627 L110.342709,76.878347 C109.944521,76.9131885 109.504025,76.9430525 109.190452,76.9430525 C108.686496,76.9598511 108.249734,77.0606424 108.132144,77.1950309 C108.021804,77.3308339 107.945772,84.083818 107.92355,91.0358344 L107.916984,95.7694598 L107.938693,101.586736 C107.956265,103.749603 107.984811,105.347963 108.0257,105.93133 L108.074628,106.421131 C108.175452,107.297772 108.28753,107.545813 108.669697,107.986775 C109.15982,108.55595 109.902909,108.96144 110.072665,108.783094 L110.097574,108.74271 C110.112846,108.666353 110.447428,108.659412 110.886765,108.721886 L111.021495,108.74271 C112.919731,109.028286 115.237931,109.145875 118.480051,109.078681 L121.873359,109.011487 L122.041344,108.557926 L122.054387,108.495677 C122.133305,107.982723 122.222867,104.98545 122.25701,100.904383 L122.283008,96.5076317 L122.281498,95.0706861 C122.270372,93.4574336 122.219256,93.0906212 122.089644,92.9917364 L122.06381,92.975799 L122.021316,92.9608582 L121.97415,92.9520719 C121.294302,92.8413991 121.150149,92.715846 121.597709,92.6174276 L121.688574,92.5993024 C122.370783,92.47238 122.393699,92.2106026 121.757324,92.1253021 L121.638179,92.1121444 C120.922031,92.0484867 120.869261,91.7737536 121.508439,91.7450107 L121.62138,91.7425763 C122.430511,91.7425763 122.760156,91.2930595 122.511257,90.5638433 L122.461308,90.4322892 C122.326919,90.1131167 122.259725,89.7099515 122.310121,89.5587646 C122.444509,89.1555994 119.672748,88.7692327 117.505735,88.9204196 L117.275582,88.9279056 C116.825879,88.928035 116.657968,88.8028298 116.06106,88.1476863 L115.841606,87.8961497 C115.552433,87.5586137 115.288301,87.2259241 115.18491,87.0596298 L115.153938,87.0053848 C114.998875,86.7262704 115.015574,86.6904865 115.389011,86.7659079 L115.674649,86.8255723 C116.053148,86.8937375 116.067748,86.8010634 115.80289,86.3786685 L115.473111,85.8798819 L116.380232,85.9806731 C116.813261,86.0254693 117.325928,86.1764489 117.599683,86.3274285 L117.69052,86.3838384 C117.925699,86.5518239 118.429655,86.7702051 118.832821,86.8709963 C119.269583,86.9885862 119.639152,87.2069674 119.823935,87.4757442 C120.109511,87.9293051 120.529475,87.7781182 120.277496,87.3245573 C120.056151,86.960918 118.808059,85.9871833 118.4099,85.8738845 L118.345663,85.8630833 C118.211274,85.8630833 117.942497,85.7454935 117.757714,85.611105 L117.630166,85.5107681 C117.497595,85.4004101 117.514457,85.3772884 117.674289,85.3638597 L117.740915,85.3591268 C117.892102,85.3591268 118.026491,85.3087311 118.026491,85.2583355 C118.026491,85.0889501 117.546565,84.7642947 117.246612,84.6984227 L117.169764,84.6871847 C116.800196,84.6871847 116.010665,84.0488398 116.010665,83.7464658 C116.010665,83.5952789 116.212247,83.5112861 116.632211,83.5112861 C116.968181,83.5112861 117.371347,83.3936963 117.539333,83.2425093 L117.664432,83.1380579 C117.804979,83.0312338 117.850213,83.0568796 117.916448,83.2473053 L117.942497,83.3265021 C117.985694,83.4992872 118.090599,83.6350469 118.183163,83.6703092 L118.228073,83.6792717 C118.314465,83.6792717 118.499593,83.7780059 118.65651,83.9014239 L118.73203,83.964847 C119.017605,84.2168253 119.068001,84.2168253 119.202389,84.0152427 C119.274383,83.9000526 119.494478,83.7848625 119.714573,83.7437232 L119.823935,83.7296673 C120.075914,83.7128687 120.479079,83.5448832 120.731057,83.3600992 L121.184618,83.0241281 L121.285409,83.3936963 C121.335805,83.5952789 121.386201,83.964847 121.386201,84.2000267 C121.386201,84.7543789 122.142136,85.5103137 122.427711,85.2247384 C122.565154,85.0872957 122.549882,84.9359699 122.318792,84.6066879 L122.242927,84.5024006 C121.937498,84.0900726 121.881966,83.9415234 122.000604,83.6528811 L122.041344,83.5616818 C122.158934,83.3265021 122.20933,83.1081209 122.192531,83.0913223 L118.827342,81.3574199 C116.344389,80.0628587 115.855302,79.7570903 116.505767,79.8745846 L116.632211,79.8995975 C117.119369,80.0003889 117.169764,79.9667918 117.270556,79.4628353 C117.379746,79.0104743 117.430999,78.9491938 117.82781,79.0099967 L117.925699,79.0260729 C118.211274,79.0764686 118.580843,79.1772599 118.748828,79.2276555 C118.998407,79.3368461 119.045203,79.2867076 119.010265,78.8216925 L119.000807,78.7069004 C118.954011,78.1609475 118.979637,78.0640131 119.265984,78.0664006 L119.517435,78.0728758 C119.712375,78.0689376 119.722162,78.0068082 119.529866,77.6537226 L119.148876,76.9834019 C118.980537,76.6808008 118.875581,76.4558945 118.916813,76.4558945 L119.034135,76.4939937 C119.186766,76.5511423 119.467806,76.6675563 119.77354,76.8086641 C120.210302,76.9934482 120.764654,77.1278366 121.016633,77.0942395 L121.132304,77.0799609 C121.337084,77.0430677 121.237339,76.962836 120.705365,76.7491221 L120.146141,76.5309436 C119.697013,76.3485705 119.370375,76.1759187 119.370375,76.1199235 C119.370375,76.0623285 119.493793,75.9306827 119.655999,75.8096156 L120.109511,75.4983772 L119.571957,75.1960032 C119.034403,74.8768307 118.866418,74.6080539 119.219188,74.6080539 C119.336777,74.6080539 119.370375,74.4400684 119.30318,74.1712916 C119.202389,73.7681263 119.65595,71.9202857 119.857533,71.9202857 C119.924727,71.9202857 120.2271,72.2562568 120.546273,72.6762205 C120.865445,73.0793857 121.235014,73.4153567 121.352603,73.4321553 C121.453395,73.4321553 121.65292,73.5432314 121.834815,73.6913329 L121.923755,73.7681263 C122.125337,73.9529104 122.427711,74.1040973 122.595696,74.1040973 C123.116452,74.1040973 122.931667,73.6169394 122.276524,73.2977669 C121.705373,73.0457886 121.638179,72.9449974 121.688574,72.4746379 C121.722172,72.1050698 121.587784,71.7187031 121.285409,71.2483437 C120.803364,70.5252756 120.905362,70.0173814 121.400286,70.5038311 L121.470193,70.5764016 C121.914422,71.0682259 122.148875,70.9906622 122.428281,70.2163475 L122.570398,69.810858 C122.807459,69.1816515 122.973563,69.0985994 123.103113,69.5445002 L123.150048,69.7364741 C123.225642,70.084204 123.328449,70.2142249 123.580931,70.2367517 L123.670804,70.2404306 C124.17476,70.2404306 124.17476,70.3748189 123.654005,71.1475523 C123.166847,71.8530915 123.13325,72.172264 123.48602,72.3234509 C123.633007,72.3822458 123.715687,72.3252883 123.734061,72.1638319 L123.737998,72.0882713 C123.737998,71.7471314 123.967015,71.6493221 124.094736,71.9005434 L124.124364,71.9706814 C124.17476,72.1218683 124.241954,72.1218683 124.460336,71.9538828 C124.678717,71.7690988 124.745911,71.7858973 124.930695,72.1050698 L125.132278,72.4914365 L125.619436,71.9034871 L126.106594,71.3323364 L126.005802,72.0042785 C125.813382,73.222937 125.268922,73.722208 124.065603,73.7650783 L123.889185,73.7681263 C123.418825,73.7681263 123.234041,73.8353206 123.267639,73.9865075 C123.442157,74.4624665 124.635579,74.7586187 125.305399,74.4928749 L125.417853,74.4400684 C125.636234,74.3224786 125.770623,74.3392771 125.921809,74.5072626 C126.072996,74.6920467 126.224183,74.7088452 126.61055,74.5744568 C126.980118,74.4568669 127.181701,74.4568669 127.299291,74.5744568 C127.41688,74.6920467 127.418718,74.7710523 127.304803,74.8227276 L126.722296,75.0333816 C126.509759,75.1085397 126.25778,75.1960032 126.005802,75.2799959 C125.520744,75.4563807 124.842765,75.6842111 124.388253,75.8171887 L124.208357,75.8679453 C123.301235,76.1199235 123.066056,76.2375134 123.066056,76.4726931 C123.066056,76.6406786 124.208357,76.5566859 124.964292,76.3383047 C125.619436,76.1703192 125.199472,76.8086641 124.17476,77.5478004 C123.102852,78.2997355 122.7166,78.9450132 123.132093,79.2514539 L123.200444,79.2948497 C123.394561,79.4143061 123.429402,79.4806707 123.304969,79.6473197 L123.25084,79.7148135 C122.982063,80.033986 123.150048,80.1347773 124.157962,80.2019715 C124.729112,80.2355686 124.829903,80.1851729 124.829903,79.8995975 C124.829903,79.6905489 124.72372,79.5744108 124.475959,79.5275868 L124.376343,79.5132309 C123.939581,79.4628353 123.687602,79.1436628 124.090768,79.1436628 C124.191559,79.1436628 124.225156,79.0092743 124.157962,78.8244903 C124.095936,78.591895 124.219987,78.3879267 124.728302,77.9879729 L124.863501,77.8837715 C125.45929,77.4290907 125.659976,77.3402449 125.711402,77.4943138 L125.720227,77.5310019 C125.777822,77.818977 125.884784,77.8601163 126.284423,77.6755771 L126.509759,77.564599 C126.862529,77.3798149 127.064111,77.3630164 127.366485,77.4974047 C127.904039,77.749383 127.870441,77.8669728 127.164902,78.4213251 L126.520732,78.9247086 C126.031024,79.3216774 125.96846,79.4434106 126.006856,79.6859866 L126.0394,79.8492019 C126.100485,80.2004443 126.175453,80.2879079 126.441,80.2378025 L126.526558,80.21877 C127.131305,80.0596259 127.208364,80.5035543 126.700602,81.1649064 L126.61055,81.2770788 C126.101289,81.8818266 126.134793,82.1398077 126.653929,81.8939057 L126.744939,81.8482295 C127.148104,81.6298484 127.601664,81.6130499 127.601664,81.8146325 C127.601664,82.2177977 126.627348,83.0409267 125.384256,83.6960702 L124.948924,83.9245841 C124.148487,84.3509693 124.079233,84.4399242 124.362362,84.522898 L124.40994,84.5359978 C125.065084,84.7231816 125.343631,84.707583 125.46078,84.4488522 L125.485047,84.3848108 C125.56904,84.1328325 125.804219,84.0656383 126.84573,84.0488398 L128.105621,83.9984441 L127.904039,84.4352064 C127.618463,85.0735514 127.904039,85.2919325 128.659973,85.0063571 C129.147131,84.8383716 129.315117,84.8383716 129.5167,85.0063571 C130.054253,85.4599181 129.701483,85.9470761 128.979146,85.7454935 C128.743967,85.6950978 128.508786,85.8126876 128.240009,86.1150616 L128.00656,86.3883791 C127.554596,86.9075511 127.416402,86.9702251 126.885851,86.9294648 L126.61055,86.9045935 C126.0394,86.8541978 125.753824,86.887795 125.753824,87.0221833 C125.753824,87.1061761 125.835484,87.1785032 125.940475,87.2002791 L126.005802,87.2069674 C126.358572,87.2069674 126.324975,87.4253486 125.921809,87.6773268 C125.737025,87.7949167 125.585838,88.0300964 125.585838,88.2148805 C125.585838,88.4769379 125.497515,88.537114 124.960007,88.5485022 L124.678717,88.5508515 C124.17476,88.5508515 123.654005,88.6012472 123.502818,88.6516428 C122.998862,88.8532254 123.200444,89.6091603 123.973178,90.4490878 L124.200546,90.682806 C124.772368,91.2449527 125.102292,91.3265265 126.007398,91.1253471 L127.148104,90.8522531 L126.375371,90.2811023 L127.738136,89.303813 C128.386224,88.8468503 128.527836,88.7895883 128.75827,88.9406808 L128.911952,89.054808 C129.186837,89.2686078 129.433956,89.3296934 129.994076,89.288549 L130.171843,89.2731893 C130.826987,89.2227935 131.129361,89.2563906 131.381339,89.4579733 L131.512301,89.5660284 C131.707767,89.7382804 131.655284,89.7874833 131.314145,90.029124 C131.144293,90.1467139 130.761036,90.3456005 130.377781,90.5151299 L130.054253,90.6506705 C129.223285,90.9799221 128.831318,91.4262409 128.78275,92.1125476 L128.777563,92.2633313 C128.777563,93.0528633 128.441592,93.1536545 126.879327,92.8680792 L126.449885,92.7847554 C125.934203,92.6874853 125.385745,92.5933074 124.999315,92.5368537 L124.493862,92.4705116 C123.900477,92.3858169 123.841314,92.2670354 123.681655,91.3630807 L123.654005,91.2050226 C123.559513,90.5750769 123.346906,90.3880618 123.237651,90.7823931 L123.217243,90.8690516 C123.205026,90.9240287 123.197251,91.4899038 123.194727,92.4148212 L123.194979,94.052497 L123.218789,98.178227 L123.318034,108.356344 L123.790809,108.827729 C124.035098,109.049415 124.300136,109.113492 125.230327,109.162406 L126.545035,109.218397 C127.345211,109.25899 127.937636,109.325719 127.937636,109.381055 L127.933965,109.399071 C127.844621,109.611589 126.079468,109.692997 117.771335,109.781306 L103.06743,109.892096 C97.9487512,109.917865 91.8952487,109.941015 85.8761855,109.959202 L69.3226062,109.996012 C68.1450952,109.997494 67.0209021,109.99858 65.9624043,109.999242 L57.2421443,109.985197 C56.8579085,109.981635 56.6176353,109.977392 56.5387145,109.972424 L56.4558773,109.963323 C56.0001118,109.936858 52.7271913,109.894628 48.2716686,109.855 L33.1184232,109.693399 C31.3567644,109.665526 30.1863657,109.639657 29.915783,109.619017 L29.4976126,109.567078 C27.2371251,109.236599 32.7936823,109.018919 43.8138094,109.005732 L47.5906106,109.008778 L61.3463783,109.092984 C66.0290461,109.150623 67.8621545,109.237785 68.1179945,109.381055 C68.3027785,109.465048 69.0587134,109.549041 69.7978496,109.549041 L70.1562952,109.546449 C70.9199403,109.533817 71.1900295,109.471347 71.2929207,109.280264 C71.3825129,109.116011 71.6048345,109.044669 72.0188762,109.042642 L73.2494269,109.054008 L98.2148214,108.982158 C104.072488,108.943728 105.97743,108.87912 106.267805,108.762136 L106.297422,108.746013 C106.43213,108.611681 106.501838,107.479069 106.566026,104.021557 L106.855454,85.913479 L106.916004,82.9067559 C106.980374,78.9457554 106.868198,78.8076917 106.284303,78.8076917 C106.149915,78.8076917 105.803159,78.6484166 105.48,78.4478479 L105.360383,78.3709294 C105.002014,78.1170846 104.457824,77.9163315 103.833996,77.8040647 L103.596535,77.7661816 C102.991787,77.6821888 102.252651,77.4806062 101.950277,77.3462177 C101.45136,77.1043186 101.088511,77.0937356 99.8085623,77.3634531 L99.0086693,77.5362912 C98.4112677,77.6523628 98.2281978,77.5885969 97.4650637,77.2286279 C96.9877048,76.9976478 96.6232695,76.7525523 96.6046628,76.6486113 L96.6083375,76.6238801 C96.6587332,76.5398873 96.3059636,76.0695279 95.8356041,75.5823699 L94.9620795,74.6920467 L96.5915389,74.5240612 L96.0371867,73.8857162 C95.7180143,73.5329466 95.5164317,73.2137741 95.5668273,73.1633785 C95.6130234,73.1171825 96.0403365,73.1980255 96.5641052,73.3541509 L96.7091288,73.3985582 C97.5154593,73.6505365 97.8682289,73.6841336 98.1538043,73.5497452 C98.4729767,73.4153567 98.6241636,73.4489539 98.9265376,73.7177307 C99.3860273,74.147576 99.7147326,74.3158521 100.73198,74.5802934 L101.177543,74.6920467 C102.371125,74.9785062 102.795788,75.234812 102.69435,75.6323639 L102.672615,75.6999598 C102.60542,75.8847438 102.689413,75.951938 102.991787,75.951938 C103.669329,75.951938 103.499943,75.5002436 102.522448,74.6356724 L102.235852,74.3896727 C101.295133,73.5900617 100.954384,73.3904203 100.120977,73.2034611 L99.47774,73.0699366 C99.049377,72.9848939 98.724955,72.9281987 98.6745593,72.9281987 C98.5905665,72.9281987 98.5401709,72.8106089 98.5401709,72.6762205 C98.5401709,72.5292332 98.6687848,72.4465528 98.9260126,72.4281794 L99.2245609,72.4210614 C99.5040499,72.4079407 99.5106103,72.3467104 99.396897,72.1050698 C99.1617173,71.685106 98.3385883,71.4163292 97.6330492,71.533919 C97.1156537,71.6123123 97.0372605,71.5882717 96.8105821,71.0930354 L96.5971384,70.6305303 C96.4963471,70.4177486 96.4179539,70.2572291 96.4067549,70.2236321 C96.3731578,70.1564378 96.5747404,70.0220494 96.8603158,69.9212581 C97.2802795,69.7868697 97.5154593,69.8036682 97.9690202,69.9884523 L98.5569695,70.2236321 L98.8257463,69.6524813 L98.9298558,69.4495621 C99.0532526,69.2271254 99.1766494,69.064532 99.2289115,69.064532 C99.2961057,69.064532 99.4472927,69.3333088 99.5816811,69.6692798 C99.7356678,70.1158413 99.8331928,70.223632 100.081282,70.1867394 L100.152832,70.1732363 C100.391745,70.1135082 100.55102,70.1732363 100.725043,70.3996135 L100.791177,70.4924088 C101.143946,71.0299625 101.513514,71.0299625 101.765493,70.4924088 L101.841164,70.3294784 C101.955876,70.1074421 102.02587,70.1284402 102.235852,70.3244233 C102.447514,70.5058477 102.591142,70.5375969 102.960643,70.4196711 L103.092578,70.3748189 C103.411751,70.2740277 103.848513,70.0556465 104.066894,69.8708624 C104.285275,69.702877 104.554052,69.5684885 104.671642,69.5684885 C105.051092,69.5684885 105.222216,70.5357131 104.974939,71.1396814 L104.92362,71.2483437 C104.789232,71.5003219 104.839628,71.5675161 105.192397,71.6515089 C105.39398,71.7091039 105.694297,71.8901169 105.924089,72.0993396 L106.032325,72.2058611 C106.469087,72.6762205 106.939447,72.6258249 106.939447,72.1218683 C106.939447,71.8272476 106.524353,71.332237 106.23588,71.2578249 L106.166713,71.2483437 C106.08272,71.2483437 105.914735,71.1811494 105.780346,71.0971567 C105.444375,70.8787755 105.881138,69.7364741 106.3179,69.7364741 C106.913485,69.7364741 106.537253,69.3755134 105.719286,69.1079482 L105.461174,69.0309349 C104.890023,68.8797479 103.730923,68.3757914 102.874197,67.9222305 L102.500074,67.7237333 C101.742523,67.3349668 100.956762,67.0079094 100.63999,66.964713 C99.9512492,66.8303247 99.0441275,66.3935623 99.0441275,66.1919797 C99.0441275,66.1247855 98.6913579,65.9400014 98.2545955,65.8056131 C97.448265,65.5368362 96.2555679,64.7137072 96.6587332,64.6969086 C96.7763231,64.6969086 97.1458912,64.8144985 97.4818622,64.9488869 C98.1521244,65.2361421 98.2766016,65.1747014 98.4169976,64.3180824 L98.4393796,64.1761535 C98.5233724,63.6218014 98.6073651,63.52101 98.9433361,63.52101 C99.1617173,63.52101 99.4304941,63.6218014 99.5312855,63.7561898 C99.7160695,63.9745709 100.942364,64.310542 101.261536,64.2265492 C101.321264,64.2116171 101.434084,64.409052 101.529207,64.6772758 L101.56391,64.7809014 C101.715097,65.2344623 101.849485,65.3688507 102.151859,65.3688507 C102.974988,65.3688507 102.790204,64.4785275 101.899881,64.1257579 C101.412723,63.9409739 101.227939,63.7561898 101.143946,63.3698231 C100.975961,62.5634927 101.32873,61.8243563 101.647903,62.3451114 C101.782291,62.5802912 102.235852,62.5634927 102.235852,62.3283129 C102.235852,62.2419204 101.951991,61.7729322 101.574685,61.2387089 L101.186457,60.6994901 C100.820317,60.176727 100.577595,59.7509352 100.606393,59.7077389 C100.652207,59.6771961 100.975683,59.8687829 101.362264,60.1436683 L101.479917,60.228494 C101.912947,60.571931 102.345976,60.7826388 102.649226,60.8252227 L102.756607,60.8332418 C102.986987,60.8332418 103.390153,60.9196344 103.712215,61.0289474 L103.865312,61.0852201 C104.184484,61.2196085 104.654844,61.3371983 104.906822,61.3371983 L105.071198,61.3296593 C105.319231,61.3144358 105.277682,61.2816339 105.007613,61.0684216 C104.705239,60.8500403 104.285275,60.715652 103.042183,60.4300766 C102.790204,60.379681 102.387039,60.1445012 102.118262,59.9261201 L101.664701,59.5397534 L102.202255,59.254178 C102.8406,58.918207 102.807003,58.8006171 101.91668,58.4142504 C101.195106,58.0775158 100.856184,57.4652711 101.41128,57.5564121 L101.650415,57.6074822 C101.962697,57.6566796 101.950922,57.5015061 101.622993,56.9917888 L101.317332,56.5281489 C101.049128,56.1110571 101.087951,56.0994101 101.379126,56.0120576 L101.520065,55.9727166 C101.741696,55.899241 101.76398,55.8010728 101.633289,55.3933433 L101.547112,55.1385329 C101.44632,54.836159 101.395925,54.5673822 101.44632,54.5169865 C101.479917,54.4665909 101.832687,54.5673822 102.219054,54.7185691 C102.60542,54.8697561 103.092578,54.9369503 103.327758,54.8865547 C103.666529,54.7941626 103.779452,54.8570405 103.977069,55.2563367 L104.033297,55.3737127 C104.251678,55.8440721 104.402865,55.9616619 104.738836,55.9280648 C105.095483,55.8815458 105.165858,55.9352216 105.214212,56.3137051 L105.225994,56.4152228 C105.309987,57.2215533 105.612361,57.3895388 106.469087,57.120762 C106.989842,56.9527765 107.208223,56.784791 107.24182,56.5328127 C107.288856,56.250597 107.160291,56.1439822 106.487364,55.9124957 L106.334699,55.8608706 C105.225994,55.4913025 104.604448,54.836159 105.225994,54.6681735 L105.357508,54.6324049 C105.556001,54.569072 105.523199,54.500188 105.309987,54.1306199 C105.1588,53.8954401 104.890023,53.525872 104.705239,53.3242894 C104.35247,52.9211242 104.033297,51.5940386 104.23488,51.3756574 C104.318873,51.2916647 104.520455,51.4932473 104.705239,51.8124198 C104.92362,52.1483908 105.242793,52.4339662 105.51157,52.5011604 C106.065922,52.6355488 106.267504,52.4171676 106.267504,51.6444343 C106.267504,51.2748661 106.368296,51.0396864 106.603476,50.9220966 C106.78826,50.8213052 106.989842,50.5525284 107.040238,50.3173487 C107.159694,49.8395232 107.279151,49.892615 107.457598,50.5356147 L107.457598,50.5356147 Z M51.5042272,82.3353875 L53.9400172,82.3353875 L56.1304297,88.660817 L57.8588381,93.5741722 C58.6262217,95.732688 59.2473726,97.4457832 59.4686495,98.0063891 L59.7523159,98.7139751 L61.1465957,94.8503082 L62.5278694,91.007266 C63.1041647,89.4129516 63.6027092,88.0472772 64.0248778,86.9057249 L64.957625,84.4233494 C65.4804803,83.0639512 65.7585098,82.4216106 65.7997943,82.469776 L65.8170609,82.5023936 C65.9329366,82.760657 66.536237,84.484394 67.3432531,86.8672742 L69.6089516,93.5945308 C70.4797336,96.1485963 71.1105364,97.9484411 71.1585323,98.0084359 C71.2038883,98.0689107 71.5485946,97.2721554 71.9477282,96.1937388 L72.5436742,94.5597905 C72.9323746,93.5087447 73.4648305,92.0916695 74.0289443,90.6062665 L75.0389976,87.9629022 L77.1724136,82.4193803 L78.3819093,82.3689846 L78.8534458,82.3577268 C79.3844211,82.353642 79.541563,82.3962126 79.5303913,82.5208729 L79.5242108,82.5537687 C79.4175595,83.0413173 72.6917975,100.843575 71.3787501,104.151404 L71.196135,104.600468 C71.1742247,104.651193 71.1614622,104.677461 71.1585323,104.677461 L71.1438561,104.654845 C71.136448,104.639861 71.1265561,104.617524 71.1142767,104.588113 L70.9619642,104.193887 C70.6204209,103.277995 69.8699622,101.147101 68.9679417,98.5461775 L67.0930415,93.1074313 C66.295168,90.8207459 65.917353,89.8360015 65.7155116,89.5069544 L65.6774173,89.4496961 C65.5996499,89.3437491 65.5518709,89.3528375 65.514219,89.4243761 L65.2719962,90.0335651 C64.9425205,90.881262 64.3141218,92.5267641 63.5628764,94.522894 L61.8410955,99.1040848 C60.6739578,102.18421 59.7773089,104.504149 59.7355174,104.559871 C59.6779223,104.631865 59.5833019,104.580441 59.5257069,104.458492 L51.6890113,82.805747 L51.5042272,82.3353875 Z M80.4817283,82.3353875 L96.0371867,82.3353875 L95.9363955,84.2672209 L92.6270808,84.3176165 L89.3009677,84.3512137 L89.3009677,104.34149 L86.9491705,104.34149 L86.9491705,84.3512137 L83.7406472,84.3176165 L80.5321239,84.2672209 L80.4985268,83.2929049 L80.4817283,82.3353875 Z M35.0416469,104.34149 L35.0416469,82.1506035 L42.4584089,82.2288175 C45.0220022,82.2675214 45.2182093,82.3320278 45.8767125,82.65456 C48.8668547,84.1328325 49.8747677,87.8789094 48.0101285,90.6506705 C47.6741575,91.154627 47.1534024,91.7425763 46.8510285,91.9609574 L46.3134749,92.3473241 L46.8846256,92.5657053 C47.6741575,92.8344821 49.0516387,94.4135459 49.3876097,95.3878619 C49.8243721,96.6477533 49.8915663,98.0588315 49.5891923,99.3691186 C49.2442621,100.811554 48.6798308,101.873521 47.7320042,102.800861 L47.3482173,103.156346 C46.1330466,104.246741 45.6386545,104.335565 40.7300997,104.341157 L35.0416469,104.34149 Z M37.3934441,93.4056329 L37.3934441,102.325664 L41.8698401,102.323354 C43.9758534,102.311913 44.318705,102.250148 44.9023966,101.972894 C45.6919284,101.586527 46.5990503,100.62901 47.0862082,99.654694 C47.5397691,98.7643707 47.506172,96.5973576 47.019014,95.6902358 C46.6410466,94.9796571 46.0725836,94.3915398 45.3626097,93.9626224 L45.1207777,93.8255966 C44.6168212,93.5400213 44.062469,93.5064241 40.9715356,93.4560285 L37.3934441,93.4056329 Z M37.3934441,84.1664297 L37.3934441,91.4402023 L41.4096195,91.3560657 C43.3904626,91.3064782 44.0048739,91.2320203 44.3648429,91.0370371 C45.0199864,90.6842675 45.8431154,89.7939443 46.2294821,89.054808 C46.9350213,87.6773268 46.380669,85.5775079 45.0703821,84.7207818 L44.909096,84.6138314 L44.7605255,84.5249705 C44.3348363,84.2925569 43.8752451,84.2627602 41.7083742,84.2289908 L37.3934441,84.1664297 Z M123.553214,85.6950978 C123.435624,85.6950978 123.066056,86.6022196 123.066056,86.887795 C123.066056,86.9597887 123.177132,87.0194407 123.314655,87.0350149 L123.385229,87.0389819 C123.539215,87.0389819 123.704867,87.0973102 123.784972,87.1653599 L123.821991,87.2069674 C123.989976,87.4757442 125.182673,87.4085501 125.417853,87.1229747 C125.700069,86.7937231 125.587182,86.6986059 125.065537,86.8239654 L124.750189,86.908482 C124.468268,86.9769206 124.40994,86.9325911 124.40994,86.736608 C124.40994,86.4678311 123.788393,85.6950978 123.553214,85.6950978 Z M121.641455,86.2812875 L121.537388,86.3670398 C121.100626,86.7198095 121.285409,86.8038022 121.97415,86.5350253 C122.20933,86.4510326 122.360517,86.2998456 122.310121,86.1990543 C122.171533,85.9680742 122.004714,85.9911722 121.641455,86.2812875 Z M123.60361,81.1594889 C123.452423,81.1594889 122.898071,82.2345962 122.898071,82.5033731 C122.898071,82.8393441 123.234041,82.65456 123.48602,82.167402 C123.754797,81.6298484 123.821991,81.1594889 123.60361,81.1594889 Z M120.210302,79.6140222 L120.210302,80.1011802 C120.210302,80.369957 120.260698,80.6555324 120.327892,80.705928 C120.437642,80.8313572 121.454664,80.6933851 122.081462,80.4968794 L122.20933,80.4539498 C122.595696,80.3195614 122.595696,80.2859643 122.343718,80.033986 C122.192531,79.8660005 121.688574,79.731612 121.151021,79.6812164 L120.210302,79.6140222 Z M119.370375,79.8324034 C119.555159,80.1515759 119.874331,80.2691657 119.874331,80.0171874 C119.874331,79.9331947 119.723144,79.731612 119.53836,79.5636265 C119.168792,79.2276555 119.101598,79.3284468 119.370375,79.8324034 Z M106.166713,77.6317931 C105.797145,77.6317931 105.713152,77.9677642 106.032325,78.3205337 C106.274224,78.5775516 106.339234,78.6168602 106.509017,78.4629519 L106.569878,78.4045265 C106.763995,78.2253419 106.785564,78.125795 106.65818,77.9643077 L106.603476,77.90057 C106.485886,77.749383 106.301102,77.6317931 106.166713,77.6317931 Z M105.125203,77.0102467 C105.091606,77.2118294 105.175599,77.2958221 105.461174,77.2958221 C105.679555,77.2958221 105.965131,77.2286279 106.099519,77.1278366 C106.418691,76.926254 106.250706,76.7918656 105.662757,76.7414699 C105.326786,76.7246714 105.175599,76.7918656 105.125203,77.0102467 Z M107.779374,74.1712916 C107.779374,74.6752481 108.048151,74.8768307 108.367323,74.6080539 C108.516644,74.4736655 108.5996,74.4852793 108.675182,74.6782898 L108.703294,74.7592409 C108.75369,74.9440249 108.938474,75.128809 109.089661,75.1792047 C109.576819,75.313593 111.458257,75.1960032 111.659839,74.9944206 C111.760631,74.8936293 111.794228,74.6584496 111.743832,74.4736655 L111.706283,74.3630191 C111.639378,74.1913752 111.565847,74.1913752 111.200823,74.3630191 L110.971099,74.4736655 C110.584732,74.6752481 110.181567,74.7592409 109.979984,74.6920467 C109.660812,74.5912553 109.644013,74.5576583 109.895992,74.1712916 L109.994285,74.027304 C110.156198,73.7804681 110.104774,73.7681263 109.744805,73.7681263 C109.528823,73.7681263 109.275816,73.6447084 109.080992,73.450766 L108.98887,73.3481626 C108.468115,72.6930191 107.779374,73.1633785 107.779374,74.1712916 Z M105.913335,73.4124792 L105.679555,73.5329466 C105.343584,73.7009321 104.974016,73.9529104 104.873225,74.0872988 L104.820266,74.1583156 C104.73809,74.2918678 104.878824,74.2967208 105.461174,74.2384858 C105.914735,74.1880901 106.385094,74.0537017 106.519483,73.9361118 C106.754662,73.7345292 106.754662,73.6841336 106.536281,73.4657525 C106.340298,73.2697693 106.249306,73.2487711 105.913335,73.4124792 L105.913335,73.4124792 Z M107.678583,71.6683074 C107.611389,71.9202857 107.661784,72.2058611 107.796173,72.357048 L107.879638,72.4469054 C107.992219,72.5524678 108.055874,72.5211569 108.176507,72.2805103 L108.364092,71.8750016 C108.478249,71.6025015 108.448262,71.5262833 108.283331,71.4163292 C107.896964,71.1643509 107.796173,71.2147465 107.678583,71.6683074 Z M108.148942,68.9973377 C107.82977,69.1149276 107.678583,69.2829131 107.644986,69.6188842 C107.577792,70.2068334 107.762576,70.1900349 108.367323,69.5684885 C108.921676,68.9973377 108.820884,68.7621581 108.148942,68.9973377 Z M108.232935,66.7127348 C107.994022,66.7127348 107.940931,66.7525536 108.038265,66.8675856 L108.081748,66.9143174 C108.204937,67.0375068 108.158741,67.2030425 107.865525,67.5661946 L107.779374,67.6702523 C107.292216,68.2246044 107.174626,68.5605755 107.376209,68.7789566 C107.499398,68.902146 107.890781,68.7147954 108.213939,68.372175 L108.300129,68.2750001 C108.837683,67.6870508 108.98887,67.2166913 108.770489,66.9479145 C108.669697,66.8135261 108.417719,66.7127348 108.232935,66.7127348 Z M105.259591,68.1574102 C104.890023,68.241403 104.789232,68.3085971 104.957218,68.426187 C105.27639,68.6277696 106.485886,68.5101797 106.569878,68.2750001 C106.637073,68.0398204 106.133116,67.9894247 105.259591,68.1574102 Z M102.95819,64.4281318 C102.857399,64.5289231 103.243765,66.2087783 103.344557,66.2087783 C103.363455,66.2087783 103.415425,66.1922422 103.490724,66.1644852 L104.016499,65.9567999 C104.419664,65.7925474 104.637008,65.7610242 104.904494,65.8622303 L105.007613,65.9064043 C105.326786,66.0575913 105.494771,66.0239942 105.830742,65.8224116 C106.20031,65.5704333 106.250706,65.5704333 106.452289,65.8056131 C106.637073,66.0407927 106.687468,66.0239942 106.821857,65.7720159 C107.12773,65.2407617 106.415367,64.8329303 104.817831,64.5928764 L104.604448,64.5625202 C103.730923,64.4449304 102.991787,64.3777361 102.95819,64.4281318 Z M105.62916,63.2690318 C105.578764,63.3194274 105.679555,63.4706144 105.864339,63.6050028 C106.250706,63.9073767 106.989842,63.9409739 106.905849,63.6553985 C106.821857,63.4370173 105.780346,63.1010463 105.62916,63.2690318 Z" id="bwt"></path>
                </g>
            </g>
        </g>
    </g>
</svg>