<?xml version="1.0" encoding="UTF-8"?>
<svg width="100px" height="44px" viewBox="0 0 100 44" version="1.1" xmlns="http://www.w3.org/2000/svg" xmlns:xlink="http://www.w3.org/1999/xlink">
    <title>partners-logo-cenu-banka</title>
    <g id="Design" stroke="none" stroke-width="1" fill="none" fill-rule="evenodd">
        <g id="Group-16" transform="translate(-670, -615)" fill="#292C33">
            <g id="Clients" transform="translate(0, 397)">
                <g id="Client-11" transform="translate(640, 160)">
                    <path d="M76.6684823,58 C79.0115996,58 80.9110715,59.8761401 80.9110715,62.1904762 L80.9110715,66.3809524 L77.7291296,66.3809524 L77.7291296,62.1904762 C77.7291296,61.6532196 77.319677,61.2104211 76.7921761,61.1499052 L76.6684823,61.1428571 L34.2425893,61.1428571 C33.6986513,61.1428571 33.2503461,61.5472802 33.1890777,62.0683017 L33.181942,62.1904762 L33.181942,97.8095238 C33.181942,98.3467804 33.5913945,98.7895789 34.1188954,98.8500948 L34.2425893,98.8571429 L76.6684823,98.8571429 C77.2124202,98.8571429 77.6607254,98.4527198 77.7219938,97.9316983 L77.7291296,97.8095238 L77.7291296,93.6190476 L80.9110715,93.6190476 L80.9110715,97.8095238 C80.9110715,100.12386 79.0115996,102 76.6684823,102 L34.2425893,102 C31.8994719,102 30,100.12386 30,97.8095238 L30,62.1904762 C30,59.8761401 31.8994719,58 34.2425893,58 L76.6684823,58 Z M79.6775765,81.2421878 L79.9492086,81.2475763 C81.014971,81.2906844 81.8315391,81.5924408 82.3989133,82.1528457 C82.8182669,82.5670482 83.0489113,83.0684976 83.0908466,83.6571938 L83.0978358,83.8860333 L83.0927798,84.0696337 C83.0792971,84.308559 83.0388488,84.5239835 82.971435,84.7159071 C82.8871677,84.9558116 82.778116,85.1663401 82.6442797,85.3474925 C82.5104435,85.5286449 82.3518228,85.6877652 82.1684176,85.8248535 C81.9850123,85.9619418 81.7991287,86.079446 81.6107666,86.1773663 C81.9180942,86.2850784 82.1981589,86.4099267 82.4509607,86.551911 C82.7037625,86.6938953 82.9218659,86.8628077 83.1052712,87.0586481 C83.2886764,87.2544885 83.429948,87.484601 83.529086,87.7489855 C83.6083963,87.9604932 83.6559825,88.2002019 83.6718445,88.4681116 L83.6777928,88.7037076 L83.6701509,88.9293321 C83.644678,89.2978928 83.5555227,89.6290535 83.4026851,89.9228142 C83.2192798,90.2753269 82.9590427,90.5690875 82.6219736,90.804096 C82.2849046,91.0391045 81.8784391,91.2178089 81.4025769,91.3402091 C80.9267147,91.4626094 80.4012836,91.5238096 79.8262835,91.5238096 L75.0081791,91.5238096 L75.0081791,81.2421878 L79.6775765,81.2421878 Z M91.1280099,81.1687476 L95.7081832,91.5238096 L93.7749931,91.5238096 L92.7191739,89.0415323 L87.7969747,89.0415323 L86.7262849,91.5238096 L84.8525776,91.5238096 L89.4327509,81.1687476 L91.1280099,81.1687476 Z M99.1879253,81.2421878 L104.764435,88.3511948 L104.764435,81.2421878 L106.563789,81.2421878 L106.563789,91.5238096 L105.032108,91.5238096 L99.2920201,84.20917 L99.2920201,91.5238096 L97.4926663,91.5238096 L97.4926663,81.2421878 L99.1879253,81.2421878 Z M111.069609,81.2421878 L111.069609,86.4123747 L116.021549,81.2421878 L118.281895,81.2421878 L113.939652,85.6632851 L118.475214,91.5238096 L116.24461,91.5238096 L112.690514,86.8970798 L111.069609,88.5421392 L111.069609,91.5238096 L109.240513,91.5238096 L109.240513,81.2421878 L111.069609,81.2421878 Z M125.419827,81.1687476 L130,91.5238096 L128.06681,91.5238096 L127.010991,89.0415323 L122.088792,89.0415323 L121.018102,91.5238096 L119.144394,91.5238096 L123.724568,81.1687476 L125.419827,81.1687476 Z M79.7073179,87.1027122 L76.8075329,87.1027122 L76.8075329,89.9228142 L79.8411542,89.9228142 C80.4657233,89.9228142 80.9564561,89.8053099 81.3133528,89.5703014 C81.6305942,89.361405 81.8068394,89.0596657 81.8420884,88.6650835 L81.8486976,88.4833871 L81.8421802,88.3402241 C81.8074208,87.9683691 81.6336234,87.6758174 81.3207881,87.4625689 C80.9688484,87.2226644 80.431025,87.1027122 79.7073179,87.1027122 Z M55.4555358,71.6190476 C56.0413151,71.6190476 56.5161831,72.0880826 56.5161831,72.6666667 L56.5170389,73.8013364 C57.4837201,73.961657 58.3764804,74.3372381 59.1430646,74.8764662 L59.9554812,74.0737718 C60.3696898,73.664651 61.0412546,73.664651 61.4554631,74.0737718 C61.8696716,74.4828924 61.8696716,75.1462081 61.4554631,75.5553288 L60.6427862,76.3577663 C61.1889196,77.1152108 61.5692498,77.9973725 61.7314641,78.9525816 L62.880067,78.952381 C63.4658464,78.952381 63.9407144,79.421416 63.9407144,80 C63.9407144,80.5785841 63.4658464,81.047619 62.880067,81.047619 L61.7312864,81.0484644 C61.5689721,82.0032714 61.1887202,82.8850657 60.6427862,83.6422337 L61.4554631,84.4446712 C61.8696716,84.8537919 61.8696716,85.5171076 61.4554631,85.9262282 C61.0412546,86.335349 60.3696898,86.335349 59.9554812,85.9262282 L59.1430646,85.1235338 C58.3764804,85.6627619 57.4837201,86.038343 56.5170389,86.1986636 L56.5161831,87.3333333 C56.5161831,87.9119174 56.0413151,88.3809524 55.4555358,88.3809524 C54.8697564,88.3809524 54.3948885,87.9119174 54.3948885,87.3333333 L54.3950916,86.1988391 C53.4280035,86.0386173 52.5348711,85.6629588 51.7680069,85.1235338 L50.9555903,85.9262282 C50.5413817,86.335349 49.869817,86.335349 49.4556085,85.9262282 C49.0413999,85.5171076 49.0413999,84.8537919 49.4556085,84.4446712 L50.2682853,83.6422337 C49.7223513,82.8850657 49.3420995,82.0032714 49.1797851,81.0484644 L48.0310045,81.047619 C47.4452252,81.047619 46.9703571,80.5785841 46.9703571,80 C46.9703571,79.421416 47.4452252,78.952381 48.0310045,78.952381 L49.1796074,78.9525816 C49.3418217,77.9973725 49.722152,77.1152108 50.2682853,76.3577663 L49.4556085,75.5553288 C49.0413999,75.1462081 49.0413999,74.4828924 49.4556085,74.0737718 C49.869817,73.664651 50.5413817,73.664651 50.9555903,74.0737718 L51.7680069,74.8764662 C52.5348711,74.3370412 53.4280035,73.9613827 54.3950916,73.8011609 L54.3948885,72.6666667 C54.3948885,72.0880826 54.8697564,71.6190476 55.4555358,71.6190476 Z M124.542456,83.3278882 L122.757973,87.4405369 L126.34181,87.4405369 L124.542456,83.3278882 Z M90.250639,83.3278882 L88.4661559,87.4405369 L92.0499928,87.4405369 L90.250639,83.3278882 Z M79.4396455,82.8431831 L76.8075329,82.8431831 L76.8075329,85.575157 L79.3058092,85.575157 C79.9006369,85.575157 80.3764991,85.4601007 80.7333957,85.2299882 C81.0506372,85.0254438 81.2268824,84.7261222 81.2621315,84.3320236 L81.2687407,84.1504179 L81.2614215,84.0004394 C81.2272654,83.6603961 81.0735628,83.3897003 80.8003139,83.1883519 C80.4880293,82.9582394 80.0344732,82.8431831 79.4396455,82.8431831 Z M56.5174414,74.8669381 L56.5161831,75.8095238 C56.5161831,76.3881078 56.0413151,76.8571429 55.4555358,76.8571429 C54.8697564,76.8571429 54.3948885,76.3881078 54.3948885,75.8095238 L54.394689,74.8667256 C53.7176494,75.0024962 53.0874501,75.2656627 52.5308561,75.6297889 L53.205563,76.2961073 C53.6197715,76.705228 53.6197715,77.3685437 53.205563,77.7776644 C52.7913545,78.1867851 52.1197897,78.1867851 51.7055812,77.7776644 L51.0309764,77.1112451 C50.6623219,77.6610023 50.3958826,78.2834607 50.2584236,78.952184 L51.2129465,78.952381 C51.7987258,78.952381 52.2735938,79.421416 52.2735938,80 C52.2735938,80.5785841 51.7987258,81.047619 51.2129465,81.047619 L50.2586387,81.0488619 C50.3961604,81.7171884 50.662514,82.3392844 51.0309764,82.8887549 L51.7055812,82.2223356 C52.1197897,81.8132149 52.7913545,81.8132149 53.205563,82.2223356 C53.6197715,82.6314563 53.6197715,83.294772 53.205563,83.7038927 L52.5308561,84.3702111 C53.0874501,84.7343373 53.7176494,84.9975038 54.394689,85.1332744 L54.3948885,84.1904762 C54.3948885,83.6118922 54.8697564,83.1428571 55.4555358,83.1428571 C56.0413151,83.1428571 56.5161831,83.6118922 56.5161831,84.1904762 L56.5174414,85.1330619 C57.1940792,84.9972294 57.8239116,84.7341475 58.3802154,84.3702111 L57.7055085,83.7038927 C57.2913,83.294772 57.2913,82.6314563 57.7055085,82.2223356 C58.1197171,81.8132149 58.7912818,81.8132149 59.2054903,82.2223356 L59.8800951,82.8887549 C60.2485575,82.3392844 60.5149111,81.7171884 60.6524329,81.0488619 L59.698125,81.047619 C59.1123457,81.047619 58.6374777,80.5785841 58.6374777,80 C58.6374777,79.421416 59.1123457,78.952381 59.698125,78.952381 L60.652648,78.952184 C60.5151889,78.2834607 60.2487497,77.6610023 59.8800951,77.1112451 L59.2054903,77.7776644 C58.7912818,78.1867851 58.1197171,78.1867851 57.7055085,77.7776644 C57.2913,77.3685437 57.2913,76.705228 57.7055085,76.2961073 L58.3802154,75.6297889 C57.8239116,75.2658525 57.1940792,75.0027706 56.5174414,74.8669381 Z M39.0155022,75.8095238 C40.4799506,75.8095238 41.6671206,76.9821113 41.6671206,78.4285714 L41.6671206,81.5714286 C41.6671206,83.0178887 40.4799506,84.1904762 39.0155022,84.1904762 C37.5510539,84.1904762 36.3638839,83.0178887 36.3638839,81.5714286 L36.3638839,78.4285714 C36.3638839,76.9821113 37.5510539,75.8095238 39.0155022,75.8095238 Z M79.9155076,68.4761905 C80.3913698,68.4761905 80.8250983,68.5153585 81.2166932,68.5936947 C81.6082881,68.6720309 81.9676632,68.7821911 82.2948185,68.9241754 C82.6219736,69.0661597 82.9243444,69.235072 83.2019307,69.4309125 C83.4795169,69.6267529 83.7422326,69.8421774 83.9900774,70.0771858 L82.8152927,71.4137967 L82.5624909,71.1934762 C82.2214564,70.911466 81.8645597,70.6764575 81.4918011,70.4884507 C81.0258527,70.2534422 80.4954646,70.135938 79.9006369,70.135938 C79.4049472,70.135938 78.9464341,70.2314102 78.5250978,70.4223546 C78.1037615,70.613299 77.7419081,70.8727876 77.4395373,71.2008202 C77.1371666,71.5288529 76.8992355,71.9131897 76.7257441,72.3538307 C76.5811679,72.7210315 76.4968318,73.1086323 76.4727357,73.5166331 L76.4655069,73.7932577 L76.4725292,74.0407102 C76.4959367,74.4493911 76.5778633,74.8393719 76.7183087,75.2106527 C76.8868432,75.6561897 77.1247743,76.0429745 77.432102,76.3710072 C77.7394296,76.6990399 78.1037615,76.9585284 78.5250978,77.1494728 C78.9464341,77.3404173 79.4049472,77.4358895 79.9006369,77.4358895 C80.5351198,77.4358895 81.0803785,77.3183852 81.5364131,77.0833767 C81.9924477,76.8483682 82.4435254,76.5252315 82.8896462,76.1139667 L84.0644308,77.2890091 L83.861353,77.4960186 C83.6559515,77.697061 83.4435795,77.8802024 83.2242367,78.0454427 C82.9317798,78.2657632 82.6170168,78.4567076 82.2799477,78.6182759 C81.9428787,78.7798443 81.5735899,78.9022446 81.1720811,78.9854767 C80.7705725,79.0687089 80.3269301,79.110325 79.8411542,79.110325 C79.0777919,79.110325 78.3739125,78.9732367 77.7295158,78.6990601 C77.0851191,78.4248835 76.5274681,78.0503387 76.0565629,77.5754257 C75.5856576,77.1005128 75.2163688,76.5399195 74.9486963,75.8936462 C74.7192627,75.3396975 74.5881579,74.7533753 74.5553816,74.1346795 L74.5471876,73.7932577 L74.5552299,73.4813619 C74.5873992,72.8632655 74.7160762,72.2793414 74.9412609,71.7295893 C75.2039765,71.088212 75.5732654,70.5251708 76.0491275,70.0404658 C76.5249897,69.5557608 77.090076,69.173872 77.7443865,68.8947994 C78.398697,68.6157268 79.122404,68.4761905 79.9155076,68.4761905 Z M109.359479,68.6524468 L109.359479,74.4982832 L109.364333,74.7333427 C109.399926,75.5774625 109.631282,76.2261669 110.058401,76.6794559 C110.52435,77.1739529 111.168746,77.4212014 111.991592,77.4212014 C112.804523,77.4212014 113.443963,77.1837449 113.909911,76.7088319 C114.375859,76.2339189 114.608834,75.5215494 114.608834,74.5717234 L114.608834,68.6524468 L116.437929,68.6524468 L116.437929,74.4835952 L116.431404,74.8052331 C116.405304,75.4371182 116.300906,76.000659 116.118209,76.4958555 C115.905062,77.0735847 115.60517,77.5558417 115.218532,77.9426265 C114.831894,78.3294113 114.363467,78.6182759 113.813251,78.8092203 C113.263036,79.0001647 112.645902,79.095637 111.96185,79.095637 C111.287712,79.095637 110.678014,79.0001647 110.132755,78.8092203 C109.587496,78.6182759 109.121548,78.3318594 108.73491,77.9499705 C108.348272,77.5680817 108.050858,77.0956167 107.842668,76.5325755 C107.634479,75.9695343 107.530384,75.315917 107.530384,74.5717234 L107.530384,68.6524468 L109.359479,68.6524468 Z M97.6413733,68.6524468 L103.217883,75.7614539 L103.217883,68.6524468 L105.017237,68.6524468 L105.017237,78.9340686 L103.485555,78.9340686 L97.7454681,71.6194291 L97.7454681,78.9340686 L95.9461143,78.9340686 L95.9461143,68.6524468 L97.6413733,68.6524468 Z M93.7006397,68.6524468 L93.7006397,70.2681303 L87.8118454,70.2681303 L87.8118454,72.9413519 L93.0314585,72.9413519 L93.0314585,74.5570353 L87.8118454,74.5570353 L87.8118454,77.3183852 L93.7749931,77.3183852 L93.7749931,78.9340686 L85.9827502,78.9340686 L85.9827502,68.6524468 L93.7006397,68.6524468 Z" id="cenu-banka"></path>
                </g>
            </g>
        </g>
    </g>
</svg>