<?xml version="1.0" encoding="UTF-8"?>
<svg width="120px" height="36px" viewBox="0 0 120 36" version="1.1" xmlns="http://www.w3.org/2000/svg" xmlns:xlink="http://www.w3.org/1999/xlink">
    <title>partners-logo-fortuna-travel</title>
    <g id="Design" stroke="none" stroke-width="1" fill="none" fill-rule="evenodd">
        <g id="Group-16" transform="translate(-823, -779)" fill="#292C33">
            <g id="Clients" transform="translate(0, 397)">
                <g id="Client-18" transform="translate(800, 320)">
                    <path d="M131.241084,92.0119712 L131.553875,96.7974343 C129.555076,97.574134 127.382863,98 125.111801,98 C124.609758,98 124.112546,97.9791888 123.62083,97.938377 L123.62083,93.4175748 C124.110364,93.4720391 124.607838,93.5 125.111801,93.5 C127.32014,93.5 129.403861,92.96311 131.241084,92.0119712 Z M136.608446,86.9628525 L139.568451,90.6032478 C137.750234,93.1091053 135.304028,95.1244249 132.462812,96.4147737 L132.141372,91.5007231 C133.916785,90.3995906 135.41795,88.8938382 136.517903,87.1112238 L136.608446,86.9628525 Z M126.225899,84.5026548 L129.80115,89.4015096 C128.204677,90.3384724 126.347836,90.875 124.36646,90.875 C124.115922,90.875 123.867376,90.8664217 123.621091,90.849541 L123.621091,84.8176597 C123.864058,84.8554125 124.112986,84.875 124.36646,84.875 C125.008619,84.875 125.621598,84.7492816 126.182415,84.52097 L126.225899,84.5026548 Z M138.526239,80.1774028 L142.915498,81.7616507 C142.631127,84.7065925 141.641636,87.4436507 140.119016,89.7997715 L137.093433,86.0788325 C137.979946,84.3144953 138.492249,82.3273818 138.526153,80.2232472 L138.526239,80.1774028 Z M128.544609,82.4692092 L133.658127,85.5564958 C132.878311,86.8749034 131.829006,88.0129631 130.586851,88.8942049 L127.055533,84.0555732 C127.651817,83.6545966 128.154644,83.1239263 128.524293,82.5036964 L128.544609,82.4692092 Z M135.17037,79.7187759 C135.172727,79.8122344 135.173913,79.9059779 135.173913,80 C135.173913,81.6953674 134.788374,83.3001246 134.100706,84.7303405 L128.939419,81.6142727 C129.11543,81.1088619 129.21118,80.5656827 129.21118,80 C129.21118,79.905608 129.208514,79.8118427 129.203254,79.7187759 L135.17037,79.7187759 Z M141.299482,72.330179 C142.390169,74.6569411 143,77.2568086 143,80 C143,80.264718 142.994321,80.5281013 142.983079,80.7900333 L138.502584,79.1728784 C138.367073,76.9065417 137.67525,74.7909713 136.563021,72.9624207 L141.299482,72.330179 Z M133.184224,73.7107847 C134.216988,75.17406 134.898937,76.9056171 135.106804,78.7812497 L129.058578,78.781357 C128.881702,78.089788 128.557809,77.4576062 128.122421,76.9205573 L133.184224,73.7107847 Z M128.678596,70.0255888 C130.204664,70.694104 131.54722,71.7070616 132.609719,72.9667132 L127.449363,76.2390141 C126.939591,75.8156218 126.342302,75.4949666 125.688863,75.3088237 L128.678596,70.0255888 Z M124.36646,69.125 C125.566457,69.125 126.720776,69.3217972 127.799279,69.6850675 L124.713668,75.13735 C124.59903,75.1291568 124.483227,75.125 124.36646,75.125 C124.112986,75.125 123.864058,75.1445875 123.621091,75.1823403 L123.621091,69.150459 C123.867376,69.1335783 124.115922,69.125 124.36646,69.125 Z M135.220566,65.1476382 C137.559133,66.7623759 139.497081,68.9217307 140.853832,71.4439595 L135.987417,72.093394 C134.873869,70.5451931 133.441833,69.2441488 131.788018,68.2875743 L135.220566,65.1476382 Z M126.995294,62.0994524 C129.69071,62.3824584 132.207678,63.2684522 134.411285,64.6204987 L130.911081,67.8228435 C129.246251,67.0186872 127.391141,66.5499644 125.432155,66.5037731 L126.995294,62.0994524 Z M125.111801,62 C125.420658,62 125.727686,62.0078764 126.032699,62.0234405 L124.43807,66.5170442 C124.163469,66.5303905 123.890941,66.5523734 123.62083,66.5824252 L123.62083,62.061623 C124.112546,62.0208112 124.609758,62 125.111801,62 Z M26.2511671,65.87 L26.2511671,70.07 L32.8236703,70.07 L32.8236703,73.046 L26.2511671,73.046 L26.2511671,79.982 L23,79.982 L23,62.894 L33.9697652,62.894 L33.9697652,65.87 L26.2511671,65.87 Z M46.7943364,70.2368148 L46.7946252,72.518 C46.7946252,72.8451111 46.7884649,73.1406173 46.7761444,73.4045185 L46.7712355,73.502 C46.7400492,74.206 46.6776767,74.806 46.584118,75.302 C46.3658142,76.486 45.8824272,77.47 45.1339571,78.254 C43.9176932,79.502 42.4207529,80.126 40.6431364,80.126 C38.8499268,80.126 37.34519,79.502 36.128926,78.254 C35.3804559,77.486 34.897069,76.502 34.6787652,75.302 C34.5852064,74.806 34.5306305,74.206 34.5150373,73.502 L34.5073052,73.3480826 L34.5011195,73.1830579 C34.4948049,72.9840496 34.4916476,72.7623636 34.4916476,72.518 L34.4916476,70.358 L34.4924209,70.1540992 L34.4947405,69.9613058 C34.4983488,69.7428595 34.5051144,69.5470909 34.5150373,69.374 C34.5306305,68.67 34.5852064,68.07 34.6787652,67.574 C34.897069,66.374 35.3804559,65.39 36.128926,64.622 C37.34519,63.374 38.8499268,62.75 40.6431364,62.75 C42.4207529,62.75 43.9176932,63.374 45.1339571,64.622 C45.8824272,65.406 46.3658142,66.39 46.584118,67.574 C46.6718293,68.039 46.7321309,68.5954063 46.7650226,69.2432188 L46.7712355,69.374 C46.7850961,69.63 46.7927964,69.9176049 46.7943364,70.2368148 Z M43.5433607,71.5542165 L43.5425815,71.0944902 L43.5397542,70.7486246 C43.5258063,69.511948 43.472465,68.6217398 43.3797303,68.078 C43.276036,67.5156 43.0738321,67.05428 42.7731186,66.69404 L42.7248189,66.638 C42.2102457,66.03 41.5163515,65.726 40.6431364,65.726 C39.7812617,65.726 39.0953359,66.0118549 38.5853591,66.5835647 L38.5380642,66.638 C38.2262017,66.9884762 38.0204148,67.4405397 37.9207037,67.9941905 L37.8916662,68.1682888 C37.7924319,68.8072591 37.7428147,69.8971628 37.7428147,71.438 L37.7442315,71.8761006 L37.7476022,72.2234915 C37.7621562,73.3513034 37.8098932,74.1775394 37.8908132,74.7021996 L37.9065425,74.798 C37.9956461,75.3618095 38.1908254,75.8240317 38.4920804,76.1846667 L38.5380642,76.238 C39.0526374,76.846 39.7543281,77.15 40.6431364,77.15 C41.4898905,77.15 42.1680269,76.8641451 42.6775455,76.2924353 L42.7248189,76.238 C43.0522746,75.87 43.2705784,75.39 43.3797303,74.798 L43.3957035,74.6983355 C43.4838958,74.1131442 43.5326078,73.180719 43.5418392,71.90106 L43.5433607,71.5542165 Z M57.6781409,79.982 L54.4269738,73.166 L52.0880047,73.166 L52.0880047,79.982 L48.8368376,79.982 L48.8368376,62.894 L55.3625614,62.894 C57.0154329,62.894 58.3408488,63.406 59.3388089,64.43 C60.2899897,65.406 60.7655801,66.638 60.7655801,68.126 C60.7655801,69.262 60.4615141,70.238 59.8533821,71.054 C59.3076227,71.774 58.5981354,72.294 57.7249202,72.614 L61.4438811,79.982 L57.6781409,79.982 Z M57.514413,68.126 C57.514413,66.622 56.7269601,65.87 55.1520542,65.87 L52.0880047,65.87 L52.0880047,70.382 L55.1520542,70.382 C56.7269601,70.382 57.514413,69.63 57.514413,68.126 Z M69.2165679,65.87 L69.2165679,79.982 L65.9654008,79.982 L65.9654008,65.87 L61.6149182,65.87 L61.6149182,62.894 L73.5670504,62.894 L73.5670504,65.87 L69.2165679,65.87 Z M86.9298734,74.126 C86.9298734,75.902 86.3373345,77.358 85.1522568,78.494 C83.9983654,79.582 82.5482046,80.126 80.8017743,80.126 C79.055344,80.126 77.6051832,79.582 76.4512917,78.494 C75.266214,77.358 74.6736752,75.902 74.6736752,74.126 L74.6736752,62.894 L77.9248423,62.894 L77.9248423,74.006 C77.9248423,76.102 78.8838196,77.15 80.8017743,77.15 C82.7353221,77.15 83.702096,76.102 83.702096,74.006 L83.702096,62.894 L86.9298734,62.894 L86.9298734,74.126 Z M99.1232117,79.982 L92.5273188,69.494 L92.5273188,79.982 L89.2761518,79.982 L89.2761518,62.894 L92.1764735,62.894 L98.7723664,73.358 L98.7723664,62.894 L102.023533,62.894 L102.023533,79.982 L99.1232117,79.982 Z M114.099923,79.982 L113.117556,76.958 L107.199964,76.958 L106.194208,79.982 L102.802703,79.982 L108.860633,62.894 L111.410109,62.894 L117.491429,79.982 L114.099923,79.982 Z M110.217235,67.934 L108.112162,74.15 L112.252138,74.15 L110.217235,67.934 Z M66.488219,97.3955 L65.5212015,97.3955 L65.5212015,85.1945 L61.7247622,85.1945 L61.7247622,84.3125 L70.302566,84.3125 L70.302566,85.1945 L66.488219,85.1945 L66.488219,97.3955 Z M76.0640317,91.3685 L72.5541161,91.3685 L72.5541161,97.3955 L71.5870986,97.3955 L71.5870986,84.3125 L76.440094,84.3125 C77.514558,84.3125 78.3860676,84.612625 79.054623,85.212875 C79.7470553,85.849875 80.0932714,86.719625 80.0932714,87.822125 C80.0932714,89.831125 79.1143154,91.007125 77.1564033,91.350125 L80.2365333,97.3955 L79.1083461,97.3955 L76.0640317,91.3685 Z M79.1262539,87.8405 C79.1262539,86.0765 78.1890826,85.1945 76.3147399,85.1945 L72.5541161,85.1945 L72.5541161,90.4865 L76.3147399,90.4865 C78.1890826,90.4865 79.1262539,89.6045 79.1262539,87.8405 Z M85.9800912,84.3125 L90.6719171,97.3955 L89.6332686,97.3955 L88.5229892,94.216625 L82.5776221,94.216625 L81.4673427,97.3955 L80.4286942,97.3955 L85.1205201,84.3125 L85.9800912,84.3125 Z M90.2910306,84.3125 L93.872577,95.649875 L97.4541235,84.3125 L98.4748642,84.3125 L94.2844549,97.3955 L93.4606992,97.3955 L89.2702898,84.3125 L90.2910306,84.3125 Z M85.5503057,85.6355 L82.8820535,93.334625 L88.2185578,93.334625 L85.5503057,85.6355 Z M99.4012422,84.3125 L107.137383,84.3125 L107.137383,85.1945 L100.36826,85.1945 L100.36826,90.357875 L106.13455,90.357875 L106.13455,91.239875 L100.36826,91.239875 L100.36826,96.5135 L107.137383,96.5135 L107.137383,97.3955 L99.4012422,97.3955 L99.4012422,84.3125 Z M108.887516,84.3125 L109.854534,84.3125 L109.854534,96.5135 L116.623657,96.5135 L116.623657,97.3955 L108.887516,97.3955 L108.887516,84.3125 Z" id="fortuna-travel"></path>
                </g>
            </g>
        </g>
    </g>
</svg>