<?xml version="1.0" encoding="UTF-8"?>
<svg width="100px" height="32.559571px" viewBox="0 0 100 32.559571" version="1.1" xmlns="http://www.w3.org/2000/svg" xmlns:xlink="http://www.w3.org/1999/xlink">
    <title>partners-logo-adoria</title>
    <g id="Design" stroke="none" stroke-width="1" fill="none" fill-rule="evenodd">
        <g id="Group-16" transform="translate(-830, -461)" fill="#292C33">
            <g id="Clients" transform="translate(0, 397)">
                <g id="Client-6" transform="translate(800, 0)">
                    <path d="M88.7005661,64 C92.4615727,64 92.6406682,67.0804435 92.1033816,67.6177301 C90.6706172,67.6177301 87.0887062,66.9013479 81.6083823,67.6177301 C73.0117959,68.4415696 69.6447996,73.778617 68.5344072,78.7932924 C67.4240148,83.8079679 68.2478543,93.6582231 77.4175465,93.6582231 C86.5872386,93.6582231 88.5572897,82.554299 88.342375,79.3305791 C88.1274604,76.1068592 86.0857711,72.0234806 82.5396792,72.2742144 C78.9935873,72.5249482 78.4563007,73.8144362 77.4175465,78.3634631 C75.9370232,76.8113017 75.7340483,75.2352608 76.8086216,73.6353406 C82.8620512,64.1790956 98.4433641,71.8802042 93.536146,83.0915857 C87.5543546,94.3746053 77.3817274,96.559571 74.7311132,96.559571 C72.0804991,96.559571 62.5884349,95.1268066 62.5884349,84.6676265 C62.5884349,74.2084464 73.1550724,68.4773888 77.4533656,66.5073377 C81.7516588,64.5372867 84.9395596,64 88.7005661,64 Z M58.9062304,68.0833785 C59.0566707,68.0833785 59.1139812,68.305457 59.2214386,69.2439177 L59.2268973,69.2950224 L59.2339232,69.368753 C59.2633273,69.6985262 59.2791881,70.1628003 59.2811863,70.7982641 L59.2813602,71.0016348 C59.2800877,71.9704761 59.249879,73.3037303 59.1897754,75.1116476 L59.1687674,75.7368489 L59.1587455,76.0800722 C59.1347409,77.0080584 59.174077,77.0572087 59.5140654,77.2081126 L60.1527354,77.4894768 L60.1674746,77.4979843 L60.1865104,77.5101068 C60.3065672,77.5893889 60.5808867,77.8159148 60.8261347,78.048255 L60.8951581,78.1144769 L60.94362,78.1620667 L60.9740533,78.1925218 C61.3644982,78.5864367 61.3654162,78.7165113 60.9674429,78.5874277 L60.9192644,78.571214 C60.7518572,78.5084363 60.3399473,78.459242 59.9348292,78.4500833 L59.7806242,78.447226 C59.2234295,78.4393761 59.1853851,78.4902204 59.1441231,79.2978771 L59.1312396,79.5659772 C59.1092463,80.0811585 59.0802788,81.2979861 59.0556639,82.6189709 L59.0403223,83.4904295 L59.0351792,83.8079679 L59.0259294,84.4776062 L59.0203235,84.9523489 C58.9897989,87.8257258 59.0573799,88.2095634 59.4220256,88.593401 L59.4529868,88.6250576 C59.6578389,88.8324107 59.7310695,88.8584624 60.0452781,88.8584624 C60.5053116,88.8584624 61.0060361,88.6956987 61.428678,88.4031639 L61.538565,88.3256257 C61.8091207,88.1358418 61.8272437,88.1467156 62.0583121,88.2853566 L62.0891781,88.3052927 C62.2103207,88.385311 62.301882,88.4672075 62.301882,88.5002713 C62.301882,88.6262894 61.5561156,89.0533509 60.6797311,89.4404495 L60.6183839,89.4673872 C60.2241266,89.6403071 58.5209258,90.2072457 57.7913727,90.4073392 L57.6274761,90.4519438 C57.0839557,90.6032371 57.1228786,90.6114553 56.9934899,89.4673872 L56.986639,89.4088066 C56.9043379,88.6788056 56.8604403,87.3235098 56.8574766,85.8945147 L56.857336,85.6840294 C56.8573917,85.6080704 56.8575625,85.5319806 56.8578488,85.4558418 L56.8585753,85.3035231 L56.8600585,85.0964217 C56.8668399,84.303053 56.8862348,83.5183562 56.9186688,82.8350862 L56.9462519,82.285257 C57.0664348,79.8299921 57.0734382,78.504877 56.9791623,78.3634631 L56.9640735,78.3446364 L56.9565584,78.33586 C56.8689009,78.2364478 56.7759871,78.2410058 56.0575489,78.3171722 L56.0263739,78.3204802 C53.4760533,78.5927054 51.5418214,79.4308726 49.8798147,80.985422 C48.8840434,81.9167188 48.2607909,82.8336881 47.9025998,83.8939337 L47.868133,83.9988265 L47.8457078,84.0692789 C47.7204844,84.4692423 47.6917323,84.6852342 47.6881089,85.1730543 L47.6876851,85.2980428 C47.6876851,86.1433738 47.8166339,86.659169 48.2392994,87.5618106 C48.5401799,88.1922269 48.9556816,88.6650392 49.4213301,88.9014453 C49.9084699,89.1450152 50.6749989,89.1450152 51.2481047,88.8871177 C52.1937292,88.471616 53.1393537,87.5403191 53.8485721,86.3296332 C54.2640737,85.6204148 54.493316,85.0473091 54.7583774,84.0945207 L54.7939961,83.9570982 C54.8265505,83.8286114 54.8526195,83.7154631 54.8737942,83.600799 L54.8855425,83.5339766 C54.944402,83.1813253 54.9607861,82.7844473 54.9795461,81.8683249 L54.9853094,81.5740121 C55.001859,80.8321013 55.0341404,80.261876 55.0664218,80.261876 C55.1581187,80.261876 55.6317957,80.9494401 55.8173048,81.3535376 L55.8257869,81.3722684 C56.828722,83.5715617 55.8759337,86.0860633 53.1393537,88.4572883 L53.0484504,88.5352179 L52.9579743,88.612114 C51.6714863,89.700575 50.8253533,90.2017005 49.8941423,90.4345032 L49.8108346,90.4549739 C49.7694392,90.4650465 49.7295082,90.4746026 49.6909232,90.4836477 L49.6155126,90.5010581 L49.5361633,90.5187104 C48.942885,90.6477532 48.6878085,90.6324693 48.1963165,90.4989776 C47.5444087,90.3198821 47.2005452,90.0834759 46.8423541,89.5748446 C45.5743576,87.7552338 45.9898593,84.5888245 47.8094701,82.1602888 C49.1924459,80.3234132 50.9545699,79.0131322 53.3530309,78.0417676 L53.4259066,78.0124358 C54.1846928,77.7075031 56.2351276,77.1919754 56.7142552,77.1815918 L56.7284285,77.1814325 C56.8430497,77.1814325 56.950507,77.1312857 56.9934899,77.0524837 C57.0506572,76.9463159 57.0985144,75.6600924 57.1145078,74.3891609 L57.1160726,74.2554867 C57.1184813,74.0329627 57.1198849,73.8122003 57.1201617,73.5996541 L57.1197605,73.2981967 C57.1176214,72.7810214 57.1077945,72.3373294 57.0882692,72.0736871 L57.0776742,71.942758 L57.0711354,71.8692452 C56.9912892,71.003327 56.8598298,70.7168253 56.4705309,70.4617675 L56.4430473,70.4428768 L56.4156882,70.4245613 C56.2058113,70.2863537 56.093674,70.2704994 55.6205919,70.2812291 L55.5078036,70.2840518 C55.1815563,70.2942442 54.8614263,70.3350229 54.7798689,70.3758016 C54.6580839,70.440276 54.5864457,70.4259483 54.3858587,70.3041634 L54.354872,70.2839762 C54.2327903,70.2019623 54.1351249,70.1063317 54.1351249,70.0534296 C54.1351249,69.9760869 54.701003,69.7400222 54.9048367,69.7313056 L54.9159815,69.7310576 L54.9228181,69.7304238 C55.0064017,69.717809 55.5417958,69.5187364 56.1042282,69.2990998 L56.309141,69.2186381 L56.5974496,69.1038867 C56.9032596,68.981136 57.177785,68.8674126 57.3445172,68.7925969 L57.4067209,68.7636417 L57.4901412,68.7257989 C57.6669165,68.6468224 57.8137413,68.5891126 57.8496088,68.5850725 L57.8531486,68.5848461 C57.8849878,68.5848461 58.0696552,68.4942812 58.2813663,68.3785595 L58.4242949,68.2996443 L58.4861061,68.2664755 C58.6833858,68.1620695 58.8587445,68.0833785 58.9062304,68.0833785 Z M111.825384,76.837569 C112.033134,77.2745622 112.154919,77.92647 112.197902,78.8291116 L112.201059,78.9039681 L112.203071,78.9639127 C112.22532,79.7006544 112.179593,81.0587572 112.094643,82.4689026 L112.0853,82.6216385 C112.020435,83.6663566 111.934699,84.7282969 111.839711,85.5774319 L111.830487,85.6667822 C111.77865,86.1851251 111.734825,86.8981873 111.732363,87.3112412 L111.732451,87.5538248 L111.732895,87.6393716 C111.736705,88.1366247 111.763184,88.1771342 111.947169,88.3856501 C112.068954,88.5217627 112.283868,88.672203 112.419981,88.7151859 C112.735189,88.8226433 113.315459,88.751005 113.723796,88.5575818 L113.800733,88.5210254 L113.855411,88.4957829 C114.02395,88.4199911 114.062223,88.4275982 114.179658,88.5156122 L114.252532,88.5712128 L114.277871,88.5912838 C114.533757,88.7983782 114.468406,88.8927846 114.010349,89.0948685 L113.884757,89.1479127 L113.806295,89.1802078 C113.654815,89.2418626 113.538944,89.2847503 113.511808,89.2880827 L113.508882,89.2882917 C113.473063,89.2882917 113.250984,89.3814214 113.007414,89.4960425 L112.80658,89.5851351 L112.648942,89.6540138 C111.988661,89.9406896 111.29521,90.2192348 110.944233,90.3342097 L110.902771,90.3469358 L110.841493,90.3667536 C110.666775,90.4249241 110.515791,90.4892718 110.485749,90.5133053 C110.3568,90.6279264 110.156213,90.5777797 110.091739,90.4130117 L110.074367,90.3654343 L110.06007,90.3243626 C109.945859,89.9908321 109.728718,89.2383208 109.611763,88.751005 C109.404012,87.8841826 109.482814,85.412664 109.798022,82.7978689 C109.841005,82.4826608 109.86966,81.952538 109.876824,81.6158383 C109.876824,81.3137638 109.900902,80.8250817 109.926987,80.486388 L109.934135,80.3979886 C109.961802,80.0659825 109.962756,79.607089 109.936997,79.350156 L109.928388,79.2717556 L109.922258,79.2213423 C109.881839,78.9056353 109.827947,78.8180105 109.62609,78.6356884 C109.404012,78.4279375 109.318046,78.3992822 108.995674,78.3992822 C108.644647,78.3992822 107.992739,78.5855416 107.476944,78.8362754 L107.434193,78.8549754 L107.40807,78.8657929 C107.279287,78.9172013 107.242312,78.8977686 107.109977,78.7436884 L107.097261,78.728818 C107.004131,78.6213607 106.939657,78.4924119 106.953985,78.449429 C106.959357,78.4333104 106.988013,78.4113712 107.049689,78.3800295 L107.090369,78.3602389 C107.30094,78.2615848 107.785857,78.0835523 108.759268,77.7473744 L108.876416,77.7062845 L109.000149,77.6623458 C109.679941,77.4194255 110.343884,77.1571066 110.811389,76.941922 L111.003884,76.8531292 L111.08016,76.8185031 C111.650867,76.5613923 111.703866,76.5881381 111.825384,76.837569 Z M44.0914465,76.9306987 C44.2991973,76.9450264 44.5714226,77.0166646 44.7003713,77.0883028 L44.7337849,77.1086595 C44.9133913,77.2202917 44.9309415,77.2770466 44.963499,77.7073035 L44.9790643,77.919928 L44.984813,78.0107352 C45.0105378,78.4599844 44.9621621,78.4840602 44.6542548,78.4501163 L44.4959711,78.4317344 L44.4028348,78.4215304 C42.9253002,78.2651061 40.5988228,78.2702446 39.6576498,78.436946 L39.6283854,78.4422652 C37.7084811,78.7932924 36.6052525,79.2016303 35.3659113,80.018306 C33.0090138,81.5656916 31.3899901,84.2592886 31.7051982,86.1147185 L31.7206631,86.2025242 C31.9768983,87.6016965 32.6534543,88.723227 33.4674984,89.1091961 C34.0119489,89.3670937 34.3844677,89.3456023 34.9719011,89.0375579 C35.7527577,88.6292201 36.7556927,87.6907594 37.3359623,86.8167731 C38.7827678,84.6323805 39.3800006,82.1390524 38.9816887,79.9554321 L38.9693137,79.8893572 L38.9566299,79.8183259 C38.9011649,79.4985663 38.8776494,79.2354956 38.8976755,79.2087941 C39.0481158,79.0655177 40.043887,79.9538316 40.3089485,80.4767906 C40.5525184,80.9567667 40.7387778,81.6803127 40.7387778,82.1602888 C40.7387778,82.6474287 40.4808802,83.6288723 40.2444741,84.0228825 L40.1678905,84.1626565 C40.1246602,84.2425554 40.0940338,84.3025471 40.0940338,84.3165992 C40.0940338,84.3309269 40.287457,84.3452545 40.5238631,84.3452545 C40.9797892,84.3452545 41.4290541,84.2586581 41.9166211,84.0790421 L41.9709552,84.0587016 C42.178706,83.9798996 42.3291463,83.9584081 42.3578016,83.9942272 C42.3776812,84.0339864 42.366913,84.2882797 42.331167,84.5813424 L42.3219824,84.6532988 L42.3138421,84.7208917 C42.2763831,85.0458654 42.2463971,85.5016394 42.2266016,85.9719065 L42.2231756,86.0560123 L42.2173994,86.2125242 C42.2075191,86.4993953 42.2015765,86.7843121 42.2001825,87.0411346 L42.1998834,87.1834269 L42.200471,87.3060191 C42.2033917,87.6543998 42.2169498,87.9191384 42.2431804,88.0131314 C42.2861633,88.1635716 42.4007845,88.3713225 42.4939142,88.4787798 L42.5108871,88.4995172 L42.528292,88.5200437 C42.6479628,88.6580027 42.7271554,88.6773146 43.0787133,88.6791935 L43.1529858,88.6793668 L43.2351408,88.6789607 C43.6168862,88.6747163 43.7209092,88.6333355 44.1702485,88.3784863 L44.3263318,88.287875 L44.407218,88.242143 C44.6945206,88.0829341 44.7321464,88.1065846 44.9367775,88.2352099 L44.9662349,88.2553938 L44.9949098,88.2761255 C45.0982814,88.352883 45.1803474,88.4363479 45.1803474,88.4787798 C45.1803474,88.5413752 44.9246773,88.756078 44.6352115,88.9510446 L44.5926351,88.9794155 C44.4714645,89.0592874 44.3463444,89.134325 44.2330909,89.1922786 L44.2132315,89.2023258 C43.3177537,89.6536466 42.1070678,90.0978036 41.2402453,90.2912268 L41.1850118,90.3025322 L41.073182,90.3266731 C40.8920166,90.3668798 40.6985721,90.4145431 40.5955013,90.441667 L40.5664263,90.4484843 L40.5382344,90.4544391 C40.2721492,90.5070706 40.1899567,90.4139819 40.0511727,89.9400327 L40.0245873,89.8479507 L40.0139829,89.8078216 C39.9418454,89.521833 39.9215669,89.148924 39.9205896,88.0184022 L39.9205753,87.8555328 L39.9221021,87.2322748 L39.9229635,87.0492123 L39.9234653,86.7299808 L39.9225384,86.400409 C39.9182174,85.5762916 39.8992445,84.9899985 39.8719553,84.9899985 C39.8361362,84.9899985 39.7573342,85.0759643 39.6928598,85.1905855 C38.7192312,86.7780233 37.5371513,88.0597324 36.0097578,89.1588885 L35.8450312,89.276394 L35.7505178,89.3427993 C34.7860762,90.015599 34.192749,90.2764613 33.3209085,90.4147164 L33.1211666,90.4452371 L33.0420192,90.456742 C32.6498293,90.5120747 32.5053592,90.5039163 32.0633893,90.441667 C31.6550515,90.3843565 31.0747819,90.0118377 30.8312119,89.6608104 C30.0861745,88.593401 29.8139492,87.0173601 30.1291574,85.6275786 C30.6736079,83.2205344 32.2568125,81.1143708 34.6853482,79.5813129 L34.7425987,79.5455361 L34.8097204,79.5045612 C35.1094002,79.3236471 35.5210698,79.1004176 35.9411982,78.8862547 L36.0317798,78.8402866 L36.1853255,78.7633026 C36.7088194,78.5028453 37.2142855,78.2719892 37.5005676,78.1705674 L37.5910036,78.1391539 C37.7584119,78.0798894 37.9418532,78.0082483 38.0207205,77.9676492 L38.0308531,77.9622891 C38.1096551,77.9193062 38.4678462,77.8118488 38.8260373,77.7187191 L39.0940146,77.6492658 C39.3669719,77.5774329 39.6133588,77.5093958 39.7000236,77.482313 C39.9957462,77.3860313 40.8642077,77.2468353 41.7619169,77.1320675 L41.9304474,77.1108512 L42.1264264,77.0870071 C42.9756033,76.9856305 43.7849964,76.9143982 44.0914465,76.9306987 Z M129.57958,77.1158428 L129.610299,77.1371783 L129.636408,77.1562678 C129.773725,77.2601883 129.784439,77.3363351 129.785053,77.7730504 L129.784873,77.8720876 L129.783742,77.9413919 C129.77769,78.1993349 129.75188,78.4091761 129.720611,78.4279375 C129.684792,78.449429 129.305109,78.4351013 128.882444,78.3921184 L128.792255,78.3838649 L128.698837,78.3761651 C127.631681,78.2926068 125.778743,78.2903212 124.915837,78.3808395 L124.877867,78.3849546 C122.558723,78.6402732 120.471281,79.5415479 118.914435,80.9497578 L118.867421,80.9925858 C118.331346,81.4792848 117.427182,82.6466029 117.125959,83.2431413 L117.112284,83.2706812 C116.761257,83.9655719 116.460376,85.0616367 116.460376,85.6204148 C116.460376,86.3061623 116.906875,87.7453761 117.276632,88.2444093 L117.29138,88.2638651 C117.764192,88.8871177 118.408936,89.2882917 118.931895,89.2882917 C119.547984,89.2882917 120.780161,88.4644522 121.596837,87.5116638 C122.657082,86.257995 123.445103,84.5888245 123.731656,82.9698007 C123.882096,82.1316335 123.882096,80.7346882 123.731656,79.8750296 L123.715322,79.782772 C123.662483,79.4727199 123.640436,79.2212114 123.660018,79.2016303 C123.774639,79.0798453 124.784738,79.9251763 125.064127,80.3764971 C125.609745,81.2693274 125.615676,82.9822028 125.074986,83.9344566 L125.056963,83.9655719 C124.978161,84.1016846 124.913686,84.2377972 124.913686,84.2807801 C124.913686,84.3996305 125.698301,84.3479125 126.395289,84.1788927 L126.565288,84.136629 L126.656409,84.1148311 C126.953565,84.0450811 127.180086,84.0053385 127.191782,84.0228825 C127.211887,84.0429874 127.194376,84.2072857 127.150979,84.3926164 L127.141635,84.4312204 C127.088304,84.6512094 127.053584,85.3612666 127.043246,86.3016248 L127.037467,87.0192511 L127.036456,87.2864183 L127.036938,87.471561 C127.042098,88.2351512 127.090246,88.2806961 127.292075,88.471616 C127.682621,88.8272913 128.059588,88.8163467 128.832758,88.4255632 L129.067851,88.3056374 C129.48558,88.0945267 129.542781,88.0881433 129.707468,88.2129971 L129.763594,88.2567013 C129.892543,88.3569948 130,88.4644522 130,88.5002713 C130,88.672203 128.638874,89.438732 127.779215,89.7539401 L127.700842,89.7820146 C127.472812,89.8623854 127.192911,89.9503547 126.901822,90.0355154 L126.742945,90.081408 L126.642122,90.1099413 L126.483001,90.1540739 C125.800366,90.3410662 125.162239,90.4857916 125.085618,90.4559947 C124.811817,90.3506865 124.613697,88.4771837 124.700277,86.8447608 L124.726873,86.3670774 C124.750016,85.9343912 124.762564,85.6336539 124.763977,85.4263541 L124.764094,85.3745821 C124.763248,85.0626106 124.7327,84.9899985 124.670116,84.9899985 C124.612806,84.9899985 124.476693,85.1619302 124.354908,85.3696811 C123.509577,86.8669198 121.575345,88.7796603 119.949158,89.7324487 L119.857677,89.7849596 C119.242334,90.1338939 118.820106,90.2828967 118.143875,90.4058479 L118.061394,90.4198802 C117.501129,90.5137641 117.290077,90.5165615 116.811404,90.4345032 C116.001892,90.2983906 115.428786,89.6536466 115.027612,88.428633 C114.440179,86.6305137 114.819861,84.7321009 116.173824,82.7119031 C117.229373,81.1392054 118.859374,79.7766729 120.869852,78.79057 L120.937765,78.7574733 C121.164583,78.646379 121.440004,78.5218251 121.723202,78.4002393 L121.804292,78.3655954 C122.37291,78.1238524 122.957081,77.9002394 123.230188,77.8261765 L123.267598,77.8169771 C123.398834,77.7836894 123.66826,77.7074031 123.930089,77.6354005 L124.018209,77.6112618 C124.730853,77.4125436 125.391062,77.2793697 126.07407,77.199201 L126.525712,77.146725 L127.736232,77.0023369 L127.859891,76.9887895 L127.984789,76.9759625 C128.878824,76.8876099 129.296453,76.9253329 129.57958,77.1158428 Z M98.9806507,76.7516032 C99.0952719,76.7516032 99.3603333,77.2172516 99.4964459,77.6470809 C99.6447673,78.1414855 99.8348693,79.6525532 99.8401949,80.4158841 L99.8405142,80.5305088 L99.8411532,80.6093847 C99.8491165,81.3162878 99.9153193,81.4579627 100.118845,81.2136647 L100.16829,81.1526588 L100.231709,81.0709467 C100.366831,80.8944459 100.61304,80.5625037 100.870544,80.212672 L100.92921,80.1329272 C101.284691,79.6380426 101.911444,78.9193579 102.40696,78.4189746 L102.543566,78.2824315 L102.697377,78.1305575 C103.241993,77.5971327 103.470776,77.4271949 103.915136,77.2002365 L104.078477,77.1178246 C104.528176,76.89304 104.607344,76.8812092 105.183957,76.8805866 L105.284814,76.880552 L105.377258,76.8821505 C105.824927,76.8914376 106.055373,76.9204007 106.115817,76.9808455 C106.216111,77.0739752 106.280585,78.5067396 106.187456,78.5927054 C106.165964,78.6141969 106.022688,78.5998693 105.865084,78.5568863 C105.399435,78.4136099 104.274715,78.449429 103.744592,78.6213607 C102.476596,79.0296986 101.409186,80.1759101 100.750115,81.8379168 C100.314841,82.9541835 100.168533,84.104851 100.162855,86.6249404 L100.162962,87.0560971 L100.164952,87.5684589 C100.169573,88.3706148 100.180946,89.0847703 100.196278,89.3532225 L100.205397,89.5013799 L100.208817,89.5642039 C100.228666,89.9632928 100.185023,89.9756582 99.8044902,90.0834759 L99.6665553,90.1205627 L99.5060673,90.1627366 C99.3376189,90.2065498 99.1502632,90.2539239 98.9887672,90.2926499 L98.4209769,90.4274329 L98.1906217,90.4831975 L98.1829663,90.4845835 C98.0602432,90.5035221 98.0502413,90.3270809 98.0494262,87.8755667 L98.0493538,87.1678004 L98.046645,86.357885 L98.044054,85.9007976 C98.033952,84.410948 98.0095925,83.4684293 97.9513783,82.5859274 L97.9457959,82.5029889 C97.9401122,82.4201977 97.9341229,82.337803 97.9278116,82.255398 L97.9147547,82.0904536 C97.8945108,81.8426547 97.8712708,81.5923212 97.8445926,81.3284672 L97.8344392,81.2289919 C97.6481798,79.373562 97.0607464,78.8362754 95.8643881,79.4380364 L95.7630979,79.4893752 C95.5092879,79.6164949 95.46904,79.6166746 95.3153227,79.5054873 L95.2626271,79.4666917 C95.1408421,79.3807259 95.0405486,79.2589409 95.0405486,79.2087941 C95.0405486,79.1586474 95.2554633,79.0153709 95.5205247,78.9007498 L95.5763044,78.8749041 C96.506493,78.4380127 98.3569684,77.2888898 98.686934,76.9378625 C98.7872275,76.837569 98.9161763,76.7516032 98.9806507,76.7516032 Z M81.2501912,75.7486681 C82.0382117,75.7486681 84.9395596,76.3934121 84.7962831,80.2976951 C84.5813685,86.2436673 80.856181,89.5032063 77.6324611,89.3599299 C74.4087412,89.2166535 72.1163182,86.2436673 71.9730417,82.9124901 C71.6506697,80.5842479 73.2267106,78.3634631 74.659475,78.0769102 C75.7361615,77.8615729 76.5498896,78.3744283 77.2982659,78.9466536 L77.4057007,79.0294669 L77.4592771,79.0711656 L77.6775049,79.2421214 C77.7943635,79.3336166 77.9104174,79.4237088 78.0264713,79.5096746 C78.1936272,77.0023369 79.2682005,75.7486681 81.2501912,75.7486681 Z M112.040298,72.8115011 C112.649223,73.5350471 112.040298,74.3087399 111.030199,74.100989 C110.581903,74.0099289 110.243191,73.7750404 110.087726,73.4498978 L110.077411,73.4275898 C109.891152,73.0264157 109.905479,72.8688116 110.149049,72.6395693 C110.636189,72.1739209 111.581814,72.2598868 112.040298,72.8115011 Z" id="adoria"></path>
                </g>
            </g>
        </g>
    </g>
</svg>