<?xml version="1.0" encoding="UTF-8"?>
<svg width="100px" height="46px" viewBox="0 0 100 46" version="1.1" xmlns="http://www.w3.org/2000/svg" xmlns:xlink="http://www.w3.org/1999/xlink">
    <title>partners-logo-posthaul</title>
    <g id="Design" stroke="none" stroke-width="1" fill="none" fill-rule="evenodd">
        <g id="Group-16" transform="translate(-350, -614)" fill="#292C33">
            <g id="Clients" transform="translate(0, 397)">
                <g id="Client-9" transform="translate(320, 160)">
                    <path d="M38.0730868,83.7106372 C38.397084,83.762319 38.7025581,83.8333815 38.9895091,83.9238246 C39.5800505,84.1106984 40.1224004,84.3771433 40.6165589,84.7231592 C41.1744494,85.1142391 41.6788113,85.5962348 42.1296446,86.1691464 C42.9449747,87.2059336 43.3998894,88.3746039 43.4943886,89.6751574 C43.516993,89.9871389 43.5174639,90.3019567 43.4958013,90.6196106 C43.3887441,92.1971659 42.7704181,93.5701998 41.6408233,94.7387126 C40.851865,95.5549068 39.9407799,96.1248246 38.907568,96.4484661 C38.6184193,96.5392243 38.3123173,96.6082384 37.989262,96.6555084 C36.3730435,96.8915429 34.8495974,96.5893305 33.4189238,95.7488711 C33.4000867,95.7378414 33.3906682,95.7433562 33.3906682,95.7654155 L33.3906682,102.975419 C33.3906682,102.988995 33.3797045,103 33.3661801,103 L30.0263719,103 C30.0193776,103 30.0126698,102.997211 30.0077241,102.992247 C30.0027785,102.987283 30,102.980549 30,102.973529 L30,83.9375329 C30,83.9195194 30.014548,83.9049166 30.0324939,83.9049166 L33.3591162,83.9049166 C33.3674843,83.9049166 33.3755097,83.9082534 33.3814268,83.9141928 C33.387344,83.9201323 33.3906682,83.9281879 33.3906682,83.9365875 L33.3934938,84.5752043 C33.3934194,84.5839966 33.3981003,84.5921152 33.4057736,84.5965025 C33.413447,84.6008899 33.4229474,84.6008797 33.4306969,84.5964758 C34.8886843,83.7459321 36.4361476,83.4506526 38.0730868,83.7106372 Z M94.5404276,83.621297 C94.8710178,83.6175154 95.1866953,83.6313813 95.4874601,83.6628946 C95.8158526,83.6972441 96.1252511,83.7484532 96.4156555,83.8165219 C97.6793073,84.1136922 98.6850486,84.8142326 99.4328793,85.9181431 C100.030642,86.8011454 100.329837,87.7805784 100.330465,88.8564421 L100.332819,96.4049777 C100.332819,96.4195973 100.321012,96.4314489 100.306447,96.4314489 L97.5141002,96.4327346 L97.3786995,96.4394848 C97.324072,96.4420058 97.2697586,96.4394848 97.215759,96.4319216 C97.2023695,96.4302544 97.1922906,96.4185189 97.1922127,96.404505 L97.1865616,95.6098975 C97.1862476,95.5818506 97.1762012,95.5775963 97.1564223,95.5971346 C96.6964845,96.0408417 96.1739134,96.3476235 95.5887092,96.5174802 C95.3384904,96.5899607 95.0300338,96.6477876 94.6633393,96.6909608 C93.7773703,96.7949547 92.9162034,96.7242073 92.0798385,96.4787188 C91.3489612,96.2644285 90.7072458,95.8687791 90.1546925,95.2917708 C89.6175227,94.7308343 89.2870895,94.0775638 89.1633929,93.3319594 C89.1109632,93.0184022 89.0924401,92.7043722 89.1078237,92.3898696 C89.1448698,91.6184243 89.4136117,90.9470337 89.9140492,90.3756978 C90.1115242,90.1500626 90.348714,89.9455414 90.6256186,89.762134 C91.3395426,89.2884893 92.1303846,89.0456794 92.9981445,89.0337044 L94.3816209,89.0196985 L95.5189598,89.0196985 L95.7648356,89.0218869 C95.9739268,89.0240928 96.1436172,89.0170023 96.2739067,89.0006154 C96.7222284,88.9438915 96.9763716,88.6949365 97.0363362,88.2537505 C97.0724405,87.9887237 97.0069818,87.7465441 96.83996,87.5272116 C96.5194162,87.1061941 96.1061001,86.8362827 95.6000114,86.7174777 C95.213852,86.6267194 94.8096404,86.5952061 94.3873766,86.6229378 C93.379889,86.6891157 92.6252942,87.1384847 92.1235923,87.9710449 L92.0266239,88.1426661 C92.006845,88.1801669 91.981258,88.2206615 91.9498629,88.2641499 C91.9416676,88.275084 91.9264317,88.2777707 91.9150144,88.270295 L89.5354246,86.7354402 C89.5165594,86.723321 89.5096851,86.6989674 89.5194131,86.6787163 C89.730388,86.2432027 89.9900253,85.8473958 90.2983249,85.4912956 C90.4976837,85.2612486 90.7257689,85.0455401 90.9825806,84.8441702 C92.0022927,84.0446781 93.1882417,83.6370537 94.5404276,83.621297 Z M112.667788,83.9190976 C112.681128,83.9193552 112.691807,83.9302851 112.691805,83.943678 C112.695394,86.2665225 112.6962,88.5895246 112.69463,90.9126842 C112.694316,91.628351 112.598404,92.313765 112.406894,92.9689263 C112.314279,93.28595 112.202513,93.5802841 112.071595,93.8519286 C111.60632,94.8159201 110.906053,95.5539614 109.970794,96.0660523 C109.702052,96.2132194 109.41306,96.3347031 109.103819,96.4305035 C108.685008,96.5603382 108.257093,96.6460544 107.820074,96.6876519 C107.527158,96.7153836 107.213364,96.7284616 106.878693,96.7272961 C106.220338,96.7240498 105.584587,96.6373882 104.971442,96.4669013 C104.581201,96.3584956 104.204146,96.1982506 103.840277,95.9861661 C103.570279,95.8289148 103.317235,95.6436167 103.081144,95.4302717 C102.391708,94.8063086 101.899433,94.0403781 101.60432,93.1324803 C101.453623,92.6701803 101.353473,92.198584 101.303869,91.7176912 L101.285974,91.474146 C101.28116,91.3811117 101.277497,91.276225 101.274985,91.1594858 L101.270904,90.7737106 C101.267765,88.4946696 101.268078,86.2157861 101.271846,83.9370602 C101.271846,83.9307918 101.274327,83.9247802 101.278742,83.9203477 C101.283158,83.9159153 101.289147,83.9134252 101.295392,83.9134252 L104.638026,83.9049166 C104.653111,83.9049166 104.66534,83.9171914 104.66534,83.9323332 L104.66534,91.1253989 C104.66534,91.7462107 104.853553,92.2888695 105.22998,92.7533754 C105.3857,92.9452913 105.56057,93.1008094 105.754592,93.2199296 C105.96745,93.3507098 106.1891,93.4364259 106.41954,93.4770781 C106.668816,93.5211967 106.97068,93.5260812 107.32513,93.4917318 C107.715057,93.4536007 108.058206,93.3256567 108.354575,93.1078999 C108.595061,92.9311103 108.798187,92.694288 108.963953,92.3974328 C109.190626,91.992487 109.303962,91.5487799 109.303962,91.0663115 L109.30548,84.6695866 L109.321205,84.0525912 L109.302692,84.011274 C109.280778,83.9783516 109.287429,83.9525933 109.322644,83.9339991 L109.325625,83.9167341 C110.439836,83.8956202 111.55389,83.896408 112.667788,83.9190976 Z M51.7666772,83.7271817 C53.2256063,83.9606952 54.4575491,84.5941123 55.4625055,85.627433 C55.6844687,85.8552741 55.88681,86.0957205 56.0695293,86.3487722 C56.9253591,87.5314659 57.3283149,88.8912643 57.2783967,90.4281674 C57.2215716,92.1799911 56.5699668,93.657019 55.3235823,94.8592509 C54.2963354,95.850659 53.0799332,96.4456299 51.6743756,96.6441636 C50.8248249,96.7642292 49.9715067,96.7535147 49.1144211,96.61202 C48.7847728,96.557502 48.4797697,96.4845488 48.1994116,96.3931602 C47.2613268,96.0865359 46.4094214,95.5723966 45.6436955,94.8507423 C44.6114254,93.8782422 43.9814832,92.6985423 43.7538689,91.3116424 C43.6524628,90.6927215 43.6403757,90.0437053 43.7176076,89.3645939 C43.8591994,88.1204493 44.3276139,87.0195325 45.1228512,86.0618437 C46.2185393,84.7420671 47.6145214,83.9570711 49.3107973,83.7068556 C50.1201624,83.5877354 50.938789,83.5945107 51.7666772,83.7271817 Z M116.995599,76.8065484 C117.013025,76.8065484 117.027151,76.8209397 117.027151,76.8386921 L117.026712,84.6758696 L115.128261,90.3374877 L117.026712,88.9212742 L117.027151,91.7162731 C117.027151,91.9308786 117.047401,92.1300425 117.0879,92.313765 C117.135307,92.5305764 117.214893,92.7105173 117.32666,92.8535877 C117.474217,93.0426674 117.668709,93.1794351 117.910137,93.2638907 C118.071665,93.3206146 118.226835,93.3592578 118.375648,93.3798202 L118.522341,93.3943557 C118.62312,93.4003432 118.704904,93.4110577 118.767694,93.4264992 C118.781011,93.4297808 118.790355,93.4420909 118.790298,93.4562793 L118.793595,94.9617085 L118.793124,96.4669013 C118.793124,96.4709981 118.794851,96.4943179 118.798304,96.5368608 C118.803955,96.6096565 118.770205,96.6430606 118.697055,96.6370731 L118.629713,96.6323461 C118.366308,96.6304553 118.102903,96.6255707 117.839498,96.6176924 C117.376735,96.6038266 116.921035,96.5400122 116.4724,96.4262492 C115.910742,96.2838091 115.412816,96.021461 114.978622,95.6392048 C114.505812,95.2225991 114.169257,94.7215378 113.968956,94.1360209 C113.83333,93.7386384 113.739615,93.3253416 113.687814,92.8961306 C113.66636,92.7188683 113.652647,92.47092 113.646673,92.1522857 L113.644017,91.9526227 C113.627273,90.0748509 113.620087,88.1971491 113.622459,86.3195173 L113.633605,82.8825205 L113.631302,82.5572508 C113.621734,81.5750867 113.619303,80.5928525 113.624186,79.6105483 L113.634599,78.0155557 L113.625651,77.7560437 C113.621256,77.6362932 113.625023,76.9532424 113.636954,76.8334919 C113.638397,76.8197632 113.649581,76.8093538 113.662854,76.8093846 L116.995599,76.8065484 Z M80.121611,76.7155012 C80.1392968,76.7155012 80.153634,76.7301038 80.153634,76.7481172 L80.1564596,84.6981061 C80.1564596,84.7084005 80.1590409,84.7129524 80.1642037,84.7117619 L80.1738838,84.7056693 C80.50416,84.4097595 80.8684999,84.1741977 81.2669034,83.9989838 C81.5296802,83.88333 81.8293462,83.7920991 82.1659014,83.7252909 C82.7793612,83.6033345 83.380106,83.5804873 83.9681358,83.6567495 C85.4044605,83.842993 86.5382937,84.5244679 87.3696353,85.7011741 C87.7677248,86.2646317 88.0221819,86.8722079 88.1330065,87.5239027 C88.1907735,87.8645614 88.2195,88.2496537 88.2192511,88.6791799 L88.2182442,96.3983599 C88.2182442,96.4166345 88.2034853,96.4314489 88.1852793,96.4314489 L84.8421747,96.4286127 C84.8359721,96.4286167 84.8300303,96.426063 84.825689,96.4215275 L84.8190993,96.404505 C84.8289364,94.8586732 84.8322155,93.3127713 84.8289364,91.7667994 L84.8190993,89.447789 L84.8117951,89.1025834 C84.8016398,88.8403478 84.7813131,88.6417016 84.750815,88.5066446 C84.6735831,88.1653557 84.5334041,87.8574709 84.330278,87.5829901 C84.0084784,87.1490521 83.5654939,86.8873343 83.0013244,86.7978365 C82.0462862,86.6462576 81.2937462,86.9049817 80.7437045,87.5740088 C80.5459155,87.8144552 80.3980447,88.0897238 80.300092,88.3998146 C80.2421681,88.5825129 80.201021,88.7689337 80.1766505,88.959077 L80.1578723,89.1504611 C80.1559886,89.1788231 80.1547328,89.3007445 80.1541049,89.5162253 L80.153634,96.4078139 C80.153634,96.4208672 80.143092,96.4314489 80.1300877,96.4314489 L76.7921632,96.4314489 C76.7760379,96.4314489 76.7629658,96.4181159 76.7629658,96.4016688 L76.7601402,76.7448088 C76.7601402,76.7317556 76.7706823,76.7211737 76.7836865,76.7211737 L80.121611,76.7155012 Z M71.9938968,80.9150936 C72.0123628,80.9150936 72.0273325,80.9297307 72.0273325,80.9477864 L72.0301581,83.8378307 C72.0301581,83.8551126 72.0440736,83.8691224 72.0612392,83.8691224 L75.5578658,83.8691224 C75.5682692,83.8691224 75.5767028,83.8772773 75.5767028,83.887337 L75.5856504,86.7218035 C75.5856504,86.7390854 75.5713133,86.7530952 75.5536275,86.7530952 L72.0631229,86.7558975 C72.0449169,86.7558975 72.0301581,86.7707436 72.0301581,86.7890573 L72.0301581,91.4935525 C72.030472,91.7018524 72.0521346,91.9076615 72.0951459,92.1109796 C72.2257494,92.7249817 72.5965253,93.1107568 73.2074734,93.268305 C73.2481301,93.2787356 73.2984407,93.2885045 73.3584053,93.2976118 L73.567261,93.3229487 L73.7979102,93.3383092 C73.8402586,93.3400043 73.8845606,93.3412671 73.930816,93.3420974 C74.4576254,93.3520609 74.9951091,93.3545518 75.5432671,93.34957 C75.5544643,93.3494452 75.5652463,93.3537694 75.5732085,93.3615782 C75.5811708,93.369387 75.5856504,93.380031 75.5856504,93.3911366 L75.5828249,96.3727208 C75.5828249,96.3925821 75.5665901,96.4086829 75.5465636,96.4086829 C74.5993741,96.413976 73.6783996,96.4102397 72.7836399,96.3974739 C72.5101888,96.3934262 72.1525989,96.3446984 71.7108702,96.2512903 C70.7627389,96.0507744 70.0083152,95.5851354 69.4475991,94.8543733 C69.2642519,94.6152488 69.1122997,94.3445212 68.9917426,94.0421905 C68.8245638,93.6228923 68.7164688,93.1900801 68.6674576,92.7437541 L68.645141,92.4743368 C68.6429433,92.4360395 68.6401178,92.1246794 68.6366643,91.5402565 L68.6266571,89.159753 L68.6230988,86.770313 L68.6179946,86.7627371 C68.6135788,86.7583577 68.6075897,86.7558975 68.6013448,86.7558975 L66.5466941,86.750293 C66.5336898,86.750293 66.5231478,86.7396288 66.5231478,86.7264739 C66.5250315,86.0620315 66.5193804,85.3975891 66.5061944,84.7331466 C66.5030549,84.5818256 66.5080781,84.4309717 66.5212641,84.2805848 C66.5222422,84.2675552 66.5332781,84.2574211 66.5466941,84.2572328 C67.3425593,84.2450897 68.0037396,83.9472738 68.530235,83.363785 C69.1367879,82.6918699 69.4320586,81.8862257 69.4160471,80.9468523 C69.4157922,80.9385165 69.418954,80.930434 69.4248107,80.9244496 C69.4306674,80.9184653 69.4387192,80.9150936 69.4471282,80.9150936 L71.9938968,80.9150936 Z M93.9282236,91.4785015 C93.5919824,91.4781902 93.3103685,91.5544523 93.0833821,91.7072918 C92.7035017,91.9634948 92.5396194,92.3405513 92.5917352,92.8384613 C92.625014,93.1576909 92.7677046,93.4143666 93.0198071,93.6084885 C93.2515028,93.7871688 93.504861,93.9042407 93.7798819,93.9597041 C93.9119296,93.9863643 94.0627955,94.0016231 94.2324796,94.0054803 L94.4084364,94.005537 L94.5969388,93.9979927 C94.8094834,93.9853874 95.0192025,93.9527712 95.2260961,93.900144 C95.4361291,93.8468865 95.6326623,93.7706244 95.8156956,93.6713575 C96.6297699,93.2298563 97.0327257,92.5094625 97.024563,91.5101762 C97.024563,91.493468 97.0108584,91.4799234 96.9939528,91.4799234 L93.9282236,91.4785015 Z M36.5778963,86.8327681 C35.742877,86.8504026 35.0233019,87.1502677 34.4191709,87.7323631 C34.1833939,87.9598891 33.991413,88.2075835 33.8432282,88.4754465 C33.56444,88.9796591 33.4253598,89.5439045 33.4259793,90.1681828 C33.4266156,91.0470884 33.69159,91.7912747 34.220911,92.4007417 C34.4300022,92.6415032 34.667035,92.8463396 34.9320095,93.0152508 C35.4329354,93.3348656 35.9911631,93.5013491 36.6066926,93.5147014 L36.8402022,93.5125305 C37.4357668,93.4888956 37.9746633,93.3275475 38.4568916,93.0284864 C38.7165289,92.8674535 38.9534048,92.6630898 39.1675192,92.4153954 C39.8390599,91.6389079 40.0977553,90.7035935 39.9436055,89.6094522 C39.8588388,89.0078635 39.627928,88.4781251 39.2508731,88.020237 C38.6725758,87.3187512 37.9239602,86.9278289 37.0050263,86.84747 C36.9322346,86.8410998 36.8602446,86.8366895 36.7890563,86.8342392 L36.5778963,86.8327681 Z M50.56714,86.8308664 C50.4088107,86.8270454 50.2477834,86.8338405 50.0840581,86.8512516 C49.7123404,86.8909583 49.3643259,86.9891222 49.0400148,87.1457432 C48.5194844,87.3978496 48.0981625,87.7553678 47.776049,88.218298 C47.5983529,88.4735557 47.4606855,88.755442 47.3630468,89.0639571 C47.1944553,89.5974771 47.151444,90.1508505 47.2340131,90.7240772 C47.3495469,91.5273509 47.7110612,92.1929116 48.318556,92.7207591 C48.9398645,93.2605818 49.6660326,93.524348 50.4970603,93.5120578 L50.713912,93.5030897 C51.4986384,93.4491669 52.1690051,93.1638097 52.7250119,92.6470181 C52.9614168,92.4270553 53.1571651,92.1823546 53.3122568,91.912916 C53.5690685,91.4663727 53.7137998,90.9714565 53.7464507,90.4281674 C53.814264,89.2987311 53.4645229,88.3823247 52.6972272,87.6789481 C52.4592525,87.4611913 52.1999292,87.2855047 51.9192572,87.1518883 C51.5639042,86.9830953 51.1916886,86.8806525 50.8026104,86.8445599 L50.56714,86.8308664 Z M60.1887961,92.5686419 C60.1941098,92.604125 60.2089701,92.628005 60.2334582,92.6479634 C60.3734803,92.9593147 60.5742518,93.2049608 60.8357728,93.3849017 C61.0662126,93.5434135 61.3533206,93.6455166 61.6970967,93.6912109 C62.0079079,93.7321781 62.3212308,93.7230393 62.6370653,93.6637943 C62.931865,93.6083309 63.1657584,93.478181 63.3387452,93.2733447 C63.4247677,93.1712416 63.4771975,93.0340012 63.4960346,92.8616235 C63.5415574,92.4447027 63.3905471,92.1276791 63.0430036,91.9105525 C62.7824245,91.7479439 62.5000258,91.6420593 62.1958075,91.5928985 C61.6432541,91.5034008 61.0999623,91.3741963 60.5659321,91.2052851 C60.0705178,91.048664 59.5999056,90.8368947 59.1540955,90.5699772 C58.4872641,90.1703887 58.0347041,89.614967 57.7964155,88.9037121 C57.6686375,88.521771 57.5965858,88.116195 57.5802604,87.686984 C57.5677023,87.3538885 57.5896789,87.0400162 57.64619,86.7453669 C57.8053631,85.917828 58.2182083,85.2245356 58.8847258,84.6654899 C59.4372791,84.2022445 60.0675353,83.8981413 60.7754942,83.7531802 C61.2373158,83.6583252 61.7041606,83.6143641 62.1760286,83.621297 C62.600804,83.6272846 62.9933994,83.6677791 63.3538149,83.7427808 C63.6621145,83.8064376 63.9597398,83.9038137 64.2466908,84.034909 C65.3131816,84.5214741 66.043431,85.3442861 66.4374392,86.5033449 C66.4461766,86.5294443 66.4322968,86.5577307 66.4063581,86.5666866 L63.64626,87.4941227 C63.6191988,87.503013 63.5900958,87.488722 63.5808013,87.4619791 C63.4046749,86.9549303 63.0541489,86.6476757 62.5292232,86.5402154 C62.3606316,86.5055508 62.1683368,86.4921576 61.9523387,86.500036 C61.6540854,86.5104353 61.3920935,86.599618 61.1663629,86.7675838 C61.0024806,86.8898553 60.8988769,87.0447432 60.8555517,87.2322472 C60.8156799,87.4065157 60.8323193,87.5806266 60.9054699,87.75458 C60.9905505,87.9568953 61.1363806,88.1105226 61.3429602,88.2154618 C61.6405856,88.3660953 61.9729024,88.4699316 62.3399109,88.5269707 L62.670501,88.5784949 C63.2877282,88.692573 63.8636709,88.8570724 64.398329,89.071993 C64.6196643,89.1611756 64.8661157,89.2872288 65.1376831,89.4501525 C66.1737206,90.0712794 66.7405587,90.9920977 66.8381974,92.2126074 C66.9377198,93.4576974 66.572909,94.5075626 65.743765,95.362203 C65.5243134,95.5884684 65.2811586,95.7865294 65.0143004,95.9563861 C64.5044444,96.2803427 63.946083,96.4974692 63.3392161,96.6077657 C62.6099085,96.7398064 61.8650604,96.7637565 61.1046716,96.679616 C60.8437785,96.6506238 60.5935598,96.6061901 60.3540153,96.5463148 C60.1091337,96.485179 59.8702172,96.401984 59.6372658,96.2967296 C58.4630899,95.7657307 57.652626,94.8603539 57.2058741,93.5805992 C57.2009177,93.5651584 57.2086047,93.5486838 57.2232984,93.543256 L60.0158904,92.4839368 C60.0190299,92.4826763 60.0432041,92.4708588 60.088413,92.4484843 C60.1371382,92.42403 60.1681816,92.4368874 60.1815434,92.4870566 L60.1878514,92.5385992 C60.2642013,92.5609868 60.2944792,92.5997481 60.2806018,92.6479634 C60.2444461,92.633297 60.2187363,92.6165129 60.2034724,92.5976111 L60.1887961,92.5686419 Z M117.404409,73.0942881 L106.608187,65.047144 L117.404409,57 L114.705353,65.047144 L117.404409,73.0942881 Z M119.203779,84.7179406 L130,76.6707966 L119.203779,68.6236525 L121.902834,76.6707966 L119.203779,84.7179406 Z" id="posthaul"></path>
                </g>
            </g>
        </g>
    </g>
</svg>