<?xml version="1.0" encoding="UTF-8"?>
<svg width="120px" height="48px" viewBox="0 0 120 48" version="1.1" xmlns="http://www.w3.org/2000/svg" xmlns:xlink="http://www.w3.org/1999/xlink">
    <title>partners-logo-loguvirs</title>
    <g id="Design" stroke="none" stroke-width="1" fill="none" fill-rule="evenodd">
        <g id="Group-16" transform="translate(-180, -773)" fill="#292C33">
            <g id="Clients" transform="translate(0, 397)">
                <g id="Client-14" transform="translate(160, 320)">
                    <path d="M56.201686,56.4968661 L56.2867016,56.5187532 C56.7405626,56.633518 57.1950002,56.7158828 57.3362973,56.7207692 L57.3486169,56.7209989 C57.5061059,56.7209989 58.2156107,56.9044971 58.98092,57.1302389 L59.0810187,57.1599115 C59.3987416,57.2545596 59.7223043,57.355367 60.0167403,57.4523797 L60.1097112,57.4840377 C60.1891273,57.5108077 60.2838291,57.5421661 60.3847603,57.5751632 L60.6323163,57.6553496 C60.7324252,57.6874832 60.8316649,57.7189797 60.9222121,57.7472912 C61.224036,57.841663 61.7190272,58.0422028 62.0208511,58.2073533 C62.3235374,58.3552304 62.6486757,58.4811697 62.7689394,58.4899767 L62.7814474,58.4904684 C62.8743163,58.4904684 63.1457792,58.6104399 63.3811799,58.7664866 L63.4092412,58.78538 C63.6410419,58.9439245 63.9173484,59.0698541 64.0458959,59.0796748 L64.0611808,59.0802916 C64.1638009,59.0802916 64.3418025,59.174991 64.4629689,59.2948266 L64.4837343,59.3162209 C64.5969183,59.4378719 64.7843792,59.5595229 64.9267434,59.613134 L65.0101158,59.6421875 C65.2776474,59.7413109 65.5574485,59.9459998 66.9466175,61.0385045 C68.4984672,62.2748799 70.0149073,64.041767 70.2588588,64.8909491 L70.2666805,64.9195409 C70.420923,65.5107878 70.8083701,65.7602388 71.7498796,65.8582389 L71.9085982,65.8742462 C72.3712886,65.9235772 72.9487853,66.0158983 73.2715769,66.1008305 L73.3090656,66.1109837 C73.6591814,66.2053554 74.9026959,66.3351165 76.0858456,66.3940988 L76.2930975,66.4037165 C77.5209107,66.4641649 78.4609325,66.5730962 78.830604,66.682909 L78.8505527,66.6890104 C79.1447751,66.781416 79.9785999,66.8916943 80.8664527,66.9576219 L81.0370012,66.969688 C81.1129817,66.9747955 81.1891291,66.9795529 81.2651441,66.9839219 C81.3950401,66.9900386 81.526762,66.9977411 81.6584426,67.0067211 L81.771258,67.0147238 C82.6166445,67.0769829 83.4382762,67.188394 83.7401002,67.2670371 C84.0854429,67.3682672 84.946658,67.4909466 85.6853502,67.5532687 L85.7925028,67.5619486 C85.9340091,67.5729221 86.0801121,67.5859371 86.2263803,67.60031 L86.4487583,67.6231672 C86.9731761,67.6793858 87.4704292,67.7487713 87.7321408,67.7991757 L87.8918741,67.8314203 C88.2647988,67.9029162 89.0093823,68.0132118 89.6633934,68.0977862 L89.920937,68.1316974 C90.6251776,68.2263528 91.5271572,68.3608909 92.0100755,68.4466834 L92.1073552,68.4655915 C92.613036,68.5612142 93.1581039,68.6243453 93.3622466,68.6354268 C93.5389813,68.6354268 94.0290446,68.7141518 94.5163725,68.8113432 L94.610575,68.8303688 C94.6575743,68.8399807 94.704357,68.8497292 94.7506366,68.8595596 C95.3059926,68.9893207 96.2114644,69.1308783 96.7788934,69.1780641 L96.8769001,69.1849222 C97.4194499,69.2268966 98.0113698,69.3374849 98.2276482,69.4375863 C98.4570343,69.531958 99.2417765,69.6499226 99.954081,69.6971085 L100.124516,69.7108214 C100.913884,69.7771741 101.349133,69.856552 101.568942,69.9941235 L101.664767,70.0566835 C101.907406,70.2168353 101.882461,70.2236597 101.608076,70.2987281 C101.065635,70.4369936 98.438445,70.2826507 97.2815348,70.0445559 L97.2014468,70.0274095 C96.597799,69.8976484 95.3180656,69.7442943 94.3039372,69.6971085 C94.035817,69.6811341 93.7482144,69.6599681 93.4607964,69.6354851 L93.1961127,69.611998 C92.537399,69.5511981 91.9118938,69.4758062 91.5612921,69.4088623 L91.5271572,69.4021969 C91.1619503,69.3292063 90.4600682,69.2450643 89.7314375,69.1804372 L89.4658539,69.1578512 L89.3332127,69.1473057 C89.1346368,69.131892 88.9382626,69.1183445 88.7503772,69.1072853 L88.6026128,69.0998043 C87.6241951,69.0475241 86.3119344,68.9257349 85.6114084,68.8359667 L85.4738353,68.8166543 C84.9401753,68.7446272 84.0951026,68.6601375 83.2707332,68.592987 L83.1168872,68.5806384 C82.8538408,68.5598406 82.5950503,68.5410158 82.351459,68.5251462 L82.2309806,68.5174622 C82.0064236,68.5033064 81.7746228,68.4877351 81.5436913,68.4714088 L81.0611168,68.4361134 C80.3168444,68.3798543 79.6439954,68.320432 79.333471,68.2815329 L79.2664277,68.2720479 C78.7936349,68.2100896 77.546509,68.1325327 76.2927203,68.0685068 L74.3814776,67.9727592 C73.5812526,67.9310739 72.8866402,67.8920488 72.5289556,67.867099 L72.3915209,67.8568602 C71.9568945,67.8214708 71.534341,67.8450638 71.4498303,67.9040461 C71.3458459,67.9751681 71.3045548,70.0852874 71.302815,78.0256602 L71.3037675,81.0269391 C71.3040888,81.4487684 71.3044853,81.8833793 71.3049548,82.3311206 L71.303913,88.163413 C71.2985552,96.4911636 71.2656453,96.7713694 71.0634957,97.3244254 C70.9356118,97.6879312 70.8301183,98.1717642 70.8224794,98.4283125 L70.8220365,98.4568858 C70.8220365,98.7400009 70.7254529,99.0349125 70.5805774,99.2236559 C70.454415,99.3805489 70.3500443,99.5693808 70.3399226,99.6687837 L70.3391183,99.683718 C70.3391183,99.9121574 69.7279146,100.737803 68.9767557,101.507449 L68.9024364,101.582949 C68.2277712,102.276858 67.2746064,102.959429 66.7369156,103.130439 L66.7051583,103.140082 C66.5594205,103.183897 66.3408137,103.27857 66.2039986,103.357985 L66.1739482,103.376011 C65.4978627,103.788887 62.4796235,104.142781 61.2844008,103.942241 C61.1117575,103.914126 60.9322159,103.882443 60.7529921,103.848936 L60.6553086,103.830489 C59.8910474,103.684734 59.1565422,103.511474 59.0146849,103.44679 L58.9737214,103.425356 C58.826709,103.350295 58.4714019,103.182549 58.1454321,103.033914 C57.3969087,102.703613 56.1171753,101.795285 55.936081,101.488577 C55.8515703,101.323426 56.0085187,101.099294 56.769115,100.332523 L57.2415446,99.8621983 C57.7190161,99.389791 57.8755074,99.2525482 58.0327332,99.1839042 L58.0506991,99.1763527 L58.0687777,99.1693089 L58.101006,99.1579389 L58.1344746,99.1473819 L58.1855678,99.132775 L58.2420157,99.1174878 C58.4401787,99.0605393 58.6158323,99.1245572 58.8776426,99.3626302 L58.9060283,99.3888064 C59.5677291,100.000717 60.2872533,100.307531 61.3702036,100.464083 L61.4413492,100.474081 C62.8176663,100.674621 64.3630047,100.485877 65.0873821,100.037612 C66.0049268,99.4595852 66.7775961,98.4922752 66.8983256,97.772691 C66.9444224,97.4911844 67.0455209,97.1451874 67.1281188,96.9706766 L67.1397848,96.9469385 C67.2242955,96.781788 67.3208791,96.0150179 67.345025,95.201062 L67.3581565,94.908365 C67.4003604,93.8966552 67.3663594,93.730544 67.2001495,93.6439288 C66.9707634,93.5259642 66.4516262,93.7972828 65.7755407,94.3635131 C65.56692,94.5447068 65.2915407,94.6932856 65.1523489,94.704882 L65.135674,94.7056105 C65.0028714,94.7056105 64.6648286,94.8235751 64.3871506,94.9651327 C64.3305121,94.9942598 64.2775537,95.0203303 64.2251406,95.043655 L64.1937331,95.0573229 L64.1443161,95.0774916 C63.8078983,95.2089388 63.4279938,95.234927 62.1881863,95.2363841 L61.8286466,95.2361425 C60.7180018,95.2330628 60.3277744,95.2055671 60.0122961,95.0926024 L59.9804097,95.0808036 C59.9117727,95.0545892 59.8457068,95.024115 59.7752812,94.9887256 C59.5096762,94.8471681 59.1474875,94.7056105 58.9663931,94.6584247 C58.447256,94.54046 57.602149,93.9270439 57.0105741,93.2546455 L56.9461055,93.1791212 C56.3786727,92.5039104 55.8707172,91.6237868 55.8520987,91.268776 L55.8515703,91.2492468 C55.8515703,91.1194857 55.7308407,90.8245741 55.5859652,90.5886449 L55.5356986,90.510175 C55.3322048,90.1801503 55.3108027,89.9089224 55.3085518,86.9137967 L55.3091233,84.1039085 C55.3140772,81.3463112 55.3483839,81.2332851 55.5859652,80.8093768 C55.7250457,80.5489109 55.8418733,80.2232153 55.850997,80.0723353 L55.8515703,80.0544032 C55.8515703,79.8066775 56.4672911,78.674217 56.8053339,78.2849337 C57.7832434,77.1996591 58.4714019,76.7749864 60.0167403,76.3149244 C61.2602549,75.949234 63.0711984,75.9728269 64.3509318,76.3621102 L64.4683772,76.4003698 C65.4049027,76.7092872 65.799368,76.9386816 66.5295057,77.610589 L66.6206476,77.6951106 C66.9224715,77.9782257 67.2363684,78.1787655 67.3088062,78.1433762 C67.4034581,78.0855735 67.4401358,76.6002761 67.441565,73.2100663 L67.4415397,70.9007124 C67.4352332,67.4521081 67.357365,67.6134625 66.5856928,67.5293926 L66.5602828,67.5265593 C65.7393218,67.4321875 57.7108056,67.2788335 53.0747903,67.2788335 L52.5637532,67.2794951 C46.9729272,67.2936758 38.7887399,67.5332832 36.715934,67.7506921 L36.4562158,67.7796027 C35.572196,67.8756761 34.5285338,67.967318 34.0236647,68.0102142 L33.8446915,68.02389 C33.1978926,68.0768076 32.992225,68.1382464 32.8683158,68.3061997 L32.8525879,68.3287188 C32.7049308,68.5173867 32.6748178,69.9589871 32.6717699,77.9186432 L32.672456,83.8070407 C32.6774717,90.0900615 32.7086235,90.509703 32.9021053,91.0180368 L32.9370986,91.1076892 C33.10612,91.5559548 33.3355061,91.8744593 33.6131841,92.0867957 L33.6687496,92.1268829 C33.9883574,92.3532012 34.1882888,92.4101747 35.0524912,92.4525495 L35.558853,92.4759984 C36.5618491,92.5288494 36.5941309,92.624957 36.5951699,93.9767155 L36.5948236,94.377973 C36.5890422,95.6260996 36.4954863,95.7032296 34.9815532,95.7079959 L34.4135822,95.7081135 C33.2584527,95.7060893 32.8389563,95.6866332 32.4377191,95.5695166 L32.3969034,95.5572522 C32.2919669,95.5248313 32.1866131,95.48553 32.0679697,95.4379089 L32.0074809,95.4133983 C30.9209148,94.9769292 29.8947135,94.1629732 29.7015462,93.5849465 C29.6677419,93.4638362 29.5603194,93.2810696 29.4676206,93.1709204 L29.4480141,93.1484774 C28.9650958,92.6058401 28.9288769,91.7211053 28.9288769,79.971828 L28.93159,76.7472655 L28.9296474,74.1560018 C28.9209649,69.8498361 28.8821691,68.67595 28.7840015,68.6236303 C28.5908342,68.5056657 27.6732895,68.5882409 26.0555133,68.8831525 C25.9735896,68.8971959 25.8902972,68.9110722 25.8066544,68.924622 L25.6028117,68.9568893 C25.0524274,69.0419762 24.5227212,69.1072853 24.3049345,69.1072853 C23.7978704,69.1190818 22.5422829,69.3668075 22.3008237,69.5083651 C22.0593646,69.6617191 20.7796312,69.8150731 20.3812236,69.7442943 C19.7655028,69.6263297 19.9224513,69.3196217 20.6589016,69.1662676 C20.9969444,69.1072853 21.395352,68.9539313 21.5643734,68.8359667 C21.7120896,68.7360437 21.923972,68.6465702 22.0490413,68.6363896 L22.0714376,68.6354268 C22.1800942,68.6354268 22.5664288,68.5410551 22.9165445,68.411294 L23.0726132,68.3585234 C23.9958072,68.0506645 25.5477784,67.6019255 26.1520969,67.4793734 C26.4539208,67.4085946 26.9126932,67.2788335 27.1782982,67.1726654 C27.4439033,67.0782937 27.9147486,66.9957184 28.2165725,66.9839219 C28.7840015,66.9839219 29.1703361,66.7361962 29.1703361,66.3823023 C29.1703361,66.2879306 29.3031386,66.0048155 29.47216,65.7452933 C29.6228305,65.496152 29.7623746,65.1926526 29.773297,65.0435302 L29.7739839,65.0257091 C29.7739839,64.895948 29.8826405,64.6836116 30.015443,64.565647 C30.141256,64.453891 30.2453978,64.2997854 30.2560115,64.2236923 L30.2569022,64.2117531 C30.2569022,64.0660321 30.8136785,63.3362841 31.4215088,62.6550089 L31.4868058,62.5822294 C31.5958829,62.4613355 31.7060121,62.3427076 31.8143136,62.2299473 C32.5024721,61.5221595 33.8667162,60.4250884 34.6393854,59.9532299 C34.9653553,59.7644865 35.3758358,59.4931678 35.5690031,59.3516102 C35.7414739,59.2055588 35.9905984,59.0916066 36.1286533,59.0810852 L36.148505,59.0802916 C36.2813076,59.0802916 36.5589856,58.9505305 36.7521529,58.78538 C36.9484696,58.62741 37.1889702,58.5018189 37.3151692,58.4911966 L37.3316548,58.4904684 C37.4644573,58.4904684 37.7783542,58.3607073 38.0439592,58.1955568 C38.2989401,58.048337 38.6095531,57.9119887 38.7621707,57.9013164 L38.7804096,57.9006453 C38.9201109,57.9006453 39.2618803,57.7799873 39.5675661,57.6232887 L39.6013706,57.6057337 C39.9036417,57.4466999 40.2618889,57.3204826 40.4281587,57.3113513 L40.4464776,57.3108221 C40.5830745,57.3108221 41.0523823,57.1954671 41.500225,57.0438578 L41.6624461,56.9879633 C42.0967177,56.8409481 42.5511734,56.7280234 42.7028688,56.7213145 L42.7161934,56.7209989 C42.8731419,56.7209989 43.2956954,56.6384237 43.6578841,56.544052 L43.7081133,56.5307352 C44.2375517,56.3969913 45.573062,56.2466477 46.9671167,56.1403971 L47.1860491,56.1241091 L47.4017461,56.1088407 C48.2643392,56.0493324 49.1197181,56.0090021 49.7923432,56.002102 L49.8754567,56.0014147 C49.9415956,56.0006454 50.0090181,56 50.0776072,56 L50.216306,56 L50.4248685,56.0014449 C52.4455201,56.0225757 55.2308717,56.2597209 56.201686,56.4968661 Z M88.5934287,76.2205526 L88.873613,76.2322538 C89.6678214,76.268019 90.3127843,76.3198056 90.3560804,76.3621102 C90.5130288,76.5036678 90.5251018,95.4251948 90.3681534,95.6021417 C90.2611185,95.7299661 89.8377716,95.7662148 88.5672541,95.7672684 L88.1791053,95.7668753 C86.5685688,95.7616742 86.4870132,95.6955606 86.5376293,94.9322335 L86.5410261,94.8825575 C86.588575,94.1740437 86.3201067,93.9344178 85.8969611,94.3100641 L85.8770135,94.3281237 C85.7275388,94.4629404 85.556163,94.5763577 85.477606,94.5868536 L85.466533,94.5876459 C85.3940952,94.5876459 85.1405631,94.7527964 84.887031,94.9415398 C84.6425537,95.1349175 84.3868503,95.2844196 84.2931221,95.2948517 L84.2833832,95.2954337 C84.1988725,95.2954337 83.8849756,95.4016018 83.5710788,95.5313629 C82.943285,95.8144781 80.6977151,95.9442392 79.5145653,95.7790887 C78.3280851,95.6051925 77.3165084,95.0439278 76.170437,93.9161462 L76.1099916,93.8562652 C75.4819742,93.2310526 75.063296,92.7194761 75.0480048,92.5669052 L75.0475714,92.5586542 C75.0475714,92.4170967 74.9026959,92.0160169 74.7216015,91.6503265 L74.6766034,91.5616583 C74.4050723,91.0171064 74.3851381,90.6996143 74.3836747,85.1260163 L74.3841946,82.1807026 C74.3887851,77.3571271 74.4205406,76.3901834 74.5525802,76.3149244 C74.6517884,76.2556856 75.3800341,76.2284077 76.1560867,76.2286011 L76.3786148,76.2294 L76.6228053,76.2319778 C77.3873798,76.2428754 78.0848123,76.2798427 78.1503212,76.3385173 C78.1966814,76.3951403 78.2652944,79.2131549 78.3027534,82.6947733 L78.3332406,85.864207 C78.3762883,89.8454488 78.4217213,89.9072811 78.7056772,90.2937333 L78.7425926,90.3475223 C78.9000108,90.5807004 79.0222927,90.8109358 79.0311347,90.8767066 L79.0316471,90.8835564 C79.0316471,91.0958928 79.8043163,91.7211053 80.4804019,92.0632028 L80.6059524,92.1235339 C81.0754189,92.3443674 81.3067125,92.3874752 82.1293832,92.3928618 L82.3517102,92.3935037 C83.4262033,92.3935037 83.6314436,92.3463179 84.1867996,92.0749992 C85.1164172,91.6031407 85.9132324,90.6594236 86.2512752,89.6803172 L86.3051628,89.5114096 C86.4963295,88.8880029 86.5148854,88.4276646 86.5166866,84.2055496 L86.5173891,81.4944729 C86.5215852,77.0985515 86.554345,76.5251137 86.7100475,76.3621102 L86.7309188,76.344326 C86.9031375,76.2069631 87.2142142,76.1865788 88.5934287,76.2205526 Z M45.3413567,76.7776561 C50.613944,76.7776561 54.8882205,80.9540437 54.8882205,86.1058788 C54.8882205,91.2577139 50.613944,95.4341014 45.3413567,95.4341014 C40.0687694,95.4341014 35.7944929,91.2577139 35.7944929,86.1058788 C35.7944929,80.9540437 40.0687694,76.7776561 45.3413567,76.7776561 Z M93.6157787,77.7187035 L93.6664949,77.8312751 C93.8443847,78.2325004 93.9928622,78.6352793 94.0016975,78.7579204 L94.0021133,78.7685887 C94.0021133,78.8983498 94.1107699,79.1814649 94.2314995,79.3938013 C94.3573124,79.594962 94.4939609,79.9549338 94.5490575,80.2129323 L94.5574693,80.2549431 C94.6057612,80.5144653 94.7385637,80.8565627 94.8592932,81.0217132 C94.9679499,81.1868637 95.1007524,81.5407576 95.1369712,81.8238727 C95.1832509,82.0838864 95.3071454,82.3980696 95.4342739,82.5380076 L95.4508681,82.5552534 C95.5891584,82.6903765 95.6834471,82.9222355 95.6917331,83.1687515 L95.6923273,83.2040589 C95.6923273,83.4287534 95.8018325,83.7497456 95.9686977,84.0039918 L95.9941512,84.0416078 C96.166622,84.2887718 96.2843402,84.6108339 96.2951603,84.8549408 L96.2959751,84.8909531 C96.2959751,85.1493518 96.3835793,85.3863511 96.5275005,85.5509997 L96.5495072,85.575148 C96.6877974,85.7215314 96.837088,86.0183928 96.8923755,86.2605349 L96.8996229,86.2947322 C96.9479147,86.542458 97.1048632,87.0143165 97.2376657,87.332821 L97.2912126,87.4673309 C97.3704543,87.6681268 97.4562361,87.8923536 97.5267578,88.0782388 L97.6240003,88.3355204 C97.708511,88.5596532 97.8533865,88.9843259 97.9620431,89.2792374 L98.0059255,89.3963726 C98.1150301,89.6834506 98.2668853,90.0563294 98.3725236,90.2937333 C98.4932532,90.5532555 98.5898369,90.9071494 98.5898369,91.0722998 C98.5898369,91.2287582 98.6873569,91.4805032 98.8208054,91.6570219 L98.8433689,91.6857159 C98.9816592,91.8546198 99.108949,92.1847502 99.1517362,92.4401301 L99.1572658,92.476079 C99.2900683,93.3962031 100.485291,93.8916546 100.654312,93.1012915 C100.690531,92.8889552 100.835407,92.5704507 100.968209,92.3935037 C101.094975,92.2133396 101.232742,91.8612005 101.276505,91.5935832 L101.282106,91.5559548 C101.318325,91.2846362 101.451128,90.9071494 101.58393,90.7302024 C101.698623,90.5621028 101.835108,90.2343086 101.889874,89.9794416 L101.907724,89.892195 C101.997971,89.475117 102.206805,88.9450043 102.706715,87.9226442 C102.833744,87.6744055 102.927634,87.372202 102.935558,87.222508 L102.936101,87.2030599 C102.936101,87.066558 103.059587,86.7326158 103.219959,86.4339307 L103.237925,86.4009004 C103.400687,86.1055519 103.529862,85.7336316 103.539207,85.5484817 L103.539749,85.5279621 C103.539749,85.3510152 103.684625,84.9971213 103.841573,84.7375991 C104.003552,84.4888903 104.132267,84.1318425 104.142712,83.926018 L104.143397,83.9000502 C104.143397,83.6753557 104.241952,83.4613609 104.418203,83.2886365 L104.445221,83.2630412 C104.666415,83.0582883 104.74167,82.8754732 104.746764,82.5347842 L104.747045,82.4962711 C104.747045,82.1659701 104.831555,81.882855 105.000577,81.6941116 C105.128067,81.5242425 105.277811,81.1478127 105.332312,80.8361777 L105.349861,80.7267156 C105.400293,80.4314816 105.494036,80.1416214 105.570935,80.0418576 L105.580079,80.0308103 C105.658955,79.94273 105.81145,79.597749 105.92959,79.2452322 L105.99442,79.0485431 C106.641234,77.1031735 106.910519,76.7683804 107.620408,77.0227121 C107.99467,77.1642697 107.982597,77.9546327 107.596263,78.6624205 C107.439314,78.9573321 107.282366,79.3820048 107.234074,79.6179341 C107.187882,79.8548891 107.08646,80.0918441 107.003768,80.1739433 L106.992615,80.1841643 C106.896031,80.2667395 106.787374,80.5144653 106.739083,80.762191 C106.702864,80.9981203 106.557988,81.3756071 106.425186,81.5879434 C106.310205,81.7901685 106.206175,82.0672918 106.196528,82.2155086 L106.1958,82.2367489 C106.1958,82.3783064 106.062997,82.7793862 105.893976,83.1214836 L105.86174,83.1899064 C105.71366,83.5085324 105.600211,83.8128781 105.592563,83.9030176 L105.592152,83.9118467 C105.592152,83.9944219 105.459349,84.3483158 105.290328,84.7022097 C105.127135,85.0325107 104.997706,85.4177963 104.988974,85.5713879 L104.988504,85.5869444 C104.988504,85.728502 104.855701,85.9998207 104.68668,86.1885641 C104.491213,86.4132586 104.394301,86.6593526 104.385514,86.9268461 L104.384856,86.9671306 C104.384856,87.2384493 104.264126,87.5687503 104.083032,87.8400689 C103.921359,88.0657404 103.792825,88.4101347 103.781953,88.6151587 L103.781208,88.6422284 C103.781208,88.8444535 103.693604,89.0680781 103.570541,89.1908194 L103.551822,89.2084587 C103.41902,89.3264233 103.286217,89.6567243 103.237925,89.9988217 C103.191491,90.305076 103.066921,90.6658628 102.960812,90.8190068 L102.948174,90.8363706 C102.833194,90.982422 102.707263,91.2889696 102.653814,91.5420184 L102.64635,91.5795478 C102.598058,91.83907 102.453183,92.2283532 102.32038,92.4406896 L102.290505,92.494627 C102.187215,92.6859406 102.099329,92.8990808 102.091553,92.9838961 L102.090994,92.9951233 C102.090994,93.2782385 101.342471,94.5876459 101.185523,94.5876459 C101.101012,94.5876459 100.944063,94.6938141 100.823334,94.8235751 C100.666385,94.9887256 100.449072,95.0595044 100.074811,95.0595044 L100.014131,95.0590336 C99.6216914,95.0525415 99.4623665,94.9747035 99.0100615,94.5684966 L98.9399526,94.5050706 C98.6139828,94.2101591 98.3121588,93.8326722 98.27594,93.6793182 L98.2599261,93.6339819 C98.2024619,93.4757022 98.0833476,93.1849902 97.9741161,92.9715304 L97.929597,92.8784259 C97.8327619,92.6718342 97.7526947,92.4724105 97.7452888,92.3825546 L97.7447299,92.3699108 C97.7447299,92.2906386 97.644592,92.0374204 97.5297671,91.8085547 L97.5153437,91.7800876 C97.3825412,91.5323619 97.2376657,91.1194857 97.1893739,90.87176 C97.1433817,90.624596 97.0207358,90.3132335 96.9048687,90.1516675 L96.88755,90.1285828 C96.7788934,89.9870252 96.6460908,89.6095384 96.597799,89.2910339 C96.5512958,88.9616067 96.426426,88.6431184 96.2986537,88.5146417 L96.2839021,88.5006709 C96.169209,88.3998111 96.0654118,88.181842 96.0553188,88.0085873 L96.054516,87.9816265 C96.054516,87.8112331 95.9313685,87.4439408 95.7713182,87.1430917 L95.752692,87.1086882 C95.5897071,86.812934 95.4604002,86.4513664 95.4513719,86.2884143 L95.4508681,86.2711393 C95.4508681,86.1295818 95.3180656,85.7638914 95.1490442,85.4925727 C94.9865236,85.2203467 94.8574894,84.8499622 94.8478042,84.6645685 L94.8472203,84.6432274 C94.8472203,84.454484 94.7506366,84.1595724 94.6178341,83.9944219 C94.5201007,83.8511791 94.3274261,83.3987139 94.1422866,82.9061233 L94.0935255,82.7749794 L94.0376458,82.6210889 L93.9811637,82.4626895 L93.8942251,82.2245094 C93.7034207,81.7096941 93.4978087,81.2040528 93.3984655,81.0099167 C93.2719869,80.7852222 93.1674094,80.4535302 93.1577364,80.2594064 L93.1570064,80.2313501 C93.1570064,80.051186 93.0360024,79.7420406 92.8779972,79.5193713 L92.8551824,79.488173 C92.6499422,79.2168543 92.5533585,78.9337392 92.5533585,78.6034382 C92.5533585,78.2259514 92.4809208,78.0608009 92.2394617,77.8484646 C92.0221484,77.6715176 91.9497107,77.4945707 91.9738566,77.2704379 L91.978584,77.2342417 C92.0142921,76.9792914 92.0790413,76.9515701 92.5789589,76.9187896 L92.7200779,76.910519 C93.2189274,76.8844263 93.2422716,76.9335014 93.6157787,77.7187035 Z M43.8872702,79.7830845 C42.9093608,80.1133855 42.3298588,80.5734476 41.7020651,81.5171646 C41.2493292,82.2272807 41.0082254,83.6956095 41.0135616,85.8881403 L41.0148462,86.2086384 C41.0310969,88.2035262 41.2571543,89.690366 41.6175544,90.2583439 C42.1097049,91.0369105 42.6587216,91.5821091 43.2866818,91.9370835 L43.4651058,92.0362269 C44.1649817,92.4205931 44.405772,92.4500026 45.4809005,92.4053002 C46.2052779,92.3817073 46.5433207,92.299132 47.1228226,92.0160169 C47.9317107,91.6149372 48.5836504,90.9543352 49.0544957,90.0460075 C49.7185083,88.7719895 49.7185083,83.2748377 49.0424227,81.8474656 C48.5232856,80.7385981 47.7747623,80.1133855 46.5071018,79.7358987 L46.3824293,79.6992643 C45.4069561,79.4188853 44.9419637,79.4433464 43.8872702,79.7830845 Z M61.8035379,79.7358987 L61.7039941,79.765108 C61.0613199,79.9573126 60.8277842,80.1044127 60.4105735,80.5292616 L60.378929,80.5616511 C60.0862513,80.859065 59.8503353,81.1897559 59.8363061,81.2955745 L59.835646,81.3048283 C59.835646,81.3992 59.7028435,81.7412974 59.5217491,82.0480055 L59.4814387,82.1239656 L59.4473974,82.1899059 L59.4174152,82.2513506 C59.2841681,82.5352149 59.2430121,82.7971928 59.2399968,83.8100874 L59.2399968,84.0304583 C59.2403604,84.2265416 59.2417816,84.4472707 59.2439713,84.6967919 L59.2642489,86.5364463 C59.2909704,88.6481448 59.3160667,89.0523984 59.4726326,89.3323838 L59.4912249,89.3641238 L59.5110214,89.3953033 L59.5296655,89.4229804 L59.5700409,89.4797773 C59.7149164,89.6803172 59.835646,89.9398394 59.835646,90.0696005 C59.8477189,90.1875651 60.0529592,90.5060696 60.2944183,90.7773883 C61.224036,91.8036806 63.3247305,92.1339815 64.9425067,91.508769 C65.9324891,91.1312822 66.7775961,90.0106182 66.8983256,88.9135471 C66.9345445,88.5596532 67.0552741,88.0288123 67.1518577,87.7221043 C67.5019735,86.6722191 67.2001495,82.7439968 66.6930854,81.6705187 C66.1256564,80.4672794 65.7513947,80.125182 64.556172,79.7358987 C63.5661896,79.4173942 62.902177,79.4173942 61.8035379,79.7358987 Z M50.1169159,59.6111324 L49.3921582,59.612578 C48.1328385,59.618466 47.5096325,59.6445119 46.9259273,59.7292123 L46.8655051,59.7382089 L46.8052184,59.7476357 C46.5842343,59.7830009 46.362997,59.8272336 46.1086943,59.8824511 C46.0472319,59.89532 45.985171,59.9079938 45.9229558,59.9204018 L45.8295729,59.9388056 L45.6380058,59.9752132 C45.132136,60.068997 44.6616556,60.1375751 44.4721528,60.1417697 L44.4546992,60.1419733 C44.2132401,60.1419733 43.7061759,60.2481414 43.3319142,60.3661061 L43.2442367,60.3950881 C42.8719826,60.5162561 42.4215239,60.6400462 42.2091293,60.6728141 C41.9797431,60.72 41.5813355,60.8615575 41.3398764,60.9795222 C41.0978685,61.103385 40.8118591,61.1950026 40.6603542,61.2030756 L40.6396449,61.203655 C40.5068424,61.203655 40.1446537,61.3334161 39.8307568,61.4867701 L39.6613617,61.571434 C39.3190492,61.7407082 38.8184858,61.9794993 38.4302938,62.1591685 L38.3540142,62.1957693 L38.2785725,62.2326475 C37.8915837,62.4235826 37.5527624,62.6182194 37.4886032,62.7018058 C37.4209947,62.778876 37.3008017,62.8456702 37.2163661,62.8542336 L37.1988523,62.8551598 C36.993612,62.8551598 36.2209428,63.444983 35.1947415,64.3769036 L35.1192832,64.4466652 C34.4073164,65.1112465 34.2011371,65.4936354 34.4462181,65.7217004 C34.5615466,65.8446319 35.6510975,65.8252217 36.7660463,65.6943728 L36.8674488,65.6821713 C37.0026751,65.6654956 37.1378521,65.6471964 37.27129,65.6273287 L37.6069769,65.5734642 C38.1333723,65.4870688 38.5492253,65.4089686 38.5993152,65.3796029 C38.6992793,65.3253392 42.7129482,65.1612457 47.0021093,65.0342946 L47.7032861,65.0139488 L48.329246,64.9963487 C49.8674954,64.9559342 52.2506421,64.9568741 53.8145558,64.9991683 L56.3538954,65.0723454 C63.9428864,65.2884269 65.4714229,65.299269 65.5703004,65.202656 C65.6427381,65.1318772 65.6427381,65.0139126 65.5582274,64.8841515 C65.413352,64.6600187 64.1939833,63.6573193 63.5178978,63.2090537 L63.4285977,63.1476439 C63.1962308,62.9870843 62.9035973,62.7795237 62.7331556,62.6546199 C62.5599349,62.5079335 62.3204385,62.393626 62.2048489,62.3839635 L62.1898725,62.3833013 C62.0812159,62.3833013 61.8276838,62.2535402 61.6224436,62.0883897 C61.4373249,61.9301205 61.2078549,61.804353 61.104047,61.7941471 L61.0912335,61.7934781 C61.0013108,61.7934781 60.7020852,61.6809979 60.4079118,61.5321997 L60.3427102,61.4985665 C60.0400239,61.3393143 59.7036596,61.2129688 59.5717689,61.2041472 L59.557968,61.203655 C59.4372384,61.203655 59.1474875,61.1092833 58.8939554,60.9795222 C58.6524962,60.8615575 58.2299428,60.72 57.9643377,60.6846106 C57.6987327,60.6374247 57.1675226,60.4958672 56.7932609,60.3661061 C56.420724,60.2523545 55.969605,60.1495718 55.7538311,60.1423752 L55.7308407,60.1419733 C55.5349296,60.1419733 54.866003,60.034489 54.217577,59.9015993 L54.1251375,59.8824511 C53.9865609,59.8532164 53.8568166,59.8271928 53.7306266,59.8040139 L53.6062132,59.7819046 C52.8179921,59.6467397 52.1022661,59.6208806 50.1169159,59.6111324 Z M111.145712,94.8589645 C110.97669,94.8353716 110.77145,94.717407 110.699012,94.6112388 C110.493772,94.3635131 110.469626,77.6007388 110.662794,77.2350485 C110.759377,77.069898 110.916326,77.0109157 111.266441,77.0109157 C111.519973,77.0109157 111.773506,77.0581015 111.809724,77.1288803 C111.844495,77.1855033 111.879265,80.862376 111.881991,85.4146315 L111.881622,88.1458648 C111.877153,94.7673379 111.837492,95.0038251 111.5079,94.9179469 L111.491505,94.9167009 C111.436655,94.9102282 111.295953,94.879936 111.145712,94.8589645 Z M114.52614,94.7056105 L114.505054,94.684375 C114.321031,94.4912141 114.290676,94.1883048 114.28567,89.3496455 L114.28567,82.4848453 C114.290862,77.4669764 114.323314,77.3270609 114.52614,77.1288803 C114.840037,76.8221723 115.190152,76.8339687 115.504049,77.1406768 C115.709289,77.3412167 115.745508,77.5063671 115.721362,78.2259514 L115.71621,78.346551 C115.701622,78.7719688 115.726536,79.1531534 115.781727,79.2286508 C115.830019,79.2994295 116.047332,79.3702083 116.252572,79.3702083 C116.578542,79.3702083 116.783783,79.2286508 117.423649,78.6034382 L117.481387,78.5460645 C117.876501,78.1578414 118.278763,77.8515599 118.404899,77.8371952 L118.413632,77.8366681 C118.517349,77.8366681 118.731071,77.7184354 118.89729,77.5640488 L118.920696,77.5417565 C119.089717,77.376606 119.343249,77.2468449 119.500198,77.2468449 C119.657146,77.2350485 120.0797,77.1406768 120.441888,77.0109157 C121.241799,76.7350599 122.248022,76.7167874 123.12552,76.9451861 L123.194523,76.9637298 C124.112067,77.2114556 124.256943,77.3648096 124.112067,77.860261 L124.097898,77.9070174 C123.998355,78.227932 123.935802,78.2479715 123.520492,78.2141549 L122.405241,78.1421596 C120.647461,78.0324894 120.707493,78.0826244 119.886532,78.4736771 L119.738309,78.5491098 C119.320976,78.7647655 118.937217,78.9908589 118.872404,79.0752967 C118.793527,79.163377 118.6831,79.2411812 118.619648,79.2511637 L118.606799,79.2522437 C118.45312,79.2522437 117.813285,79.8856073 117.786692,80.0559651 L117.785838,80.0661997 C117.785838,80.125182 117.689254,80.2549431 117.568525,80.3375183 C117.444022,80.4149326 117.298298,80.5856588 117.210934,80.733057 L117.194263,80.762191 C117.109752,80.915545 116.940731,81.1396778 116.807928,81.2694389 C116.693235,81.3815053 116.589438,81.6106811 116.579345,81.7951424 L116.578542,81.8238727 C116.578542,81.9927766 116.468539,82.3014101 116.332534,82.5240561 L116.289435,82.5924191 C115.923652,83.1871466 115.856196,84.1061605 115.766186,89.1219803 L115.727685,91.2483227 C115.666463,94.435455 115.632747,94.6327084 115.443684,94.7763893 C115.117715,95.0005221 114.815891,94.9887256 114.52614,94.7056105 Z M129.322995,94.7663188 L129.28809,94.7580734 C129.19047,94.7327093 128.920985,94.6495773 128.651499,94.5758494 C128.362798,94.4968644 127.886315,94.2775706 127.549588,94.0728239 L127.504568,94.0450086 C126.358587,93.3335095 126.215876,92.9218649 126.959729,92.5592026 L126.985431,92.5468577 C127.468349,92.3109285 127.709808,92.3699108 128.228945,92.8299729 C128.82052,93.3490172 130.764266,93.7618935 132.623502,93.7618935 C134.156767,93.750097 135.219187,93.6203359 136.29368,93.2782385 L136.366188,93.2535812 C136.716586,93.1366932 137.060508,93.0541057 137.15086,93.0541057 C137.235371,93.0541057 137.549268,92.8063799 137.851092,92.4996719 L137.912644,92.4324228 C138.288391,92.0176766 138.401065,91.8052575 138.509975,91.2360071 L138.527177,91.1430786 C138.804855,89.6921136 138.261572,88.4062992 137.054277,87.6513255 C136.450629,87.2738387 135.376136,86.8137766 134.808707,86.6840155 C134.579321,86.6368297 134.048111,86.4834757 133.63763,86.3419181 L133.560052,86.317752 C133.182583,86.2018682 132.775369,86.1011224 132.625954,86.0945347 L132.611429,86.0941924 C132.45448,86.0941924 132.044,85.9644313 131.693884,85.7992808 C131.34511,85.640247 130.873188,85.5140297 130.612317,85.5048984 L130.583172,85.5043692 C130.269275,85.5043692 130.00367,85.4099975 129.762211,85.2094576 C129.556971,85.0443071 129.26722,84.914546 129.110271,84.914546 C128.791825,84.914546 128.484093,84.705178 127.601699,83.8722574 L127.43213,83.7113068 C127.033723,83.33382 126.719826,82.9445367 126.719826,82.8383685 C126.719826,82.7204039 126.599096,82.3901029 126.466294,82.1069878 L126.434278,82.0415115 C126.24552,81.6474686 126.215857,81.4224905 126.273126,80.762191 L126.282434,80.6730661 C126.333214,80.2177772 126.425319,79.8467139 126.538732,79.7358987 C126.629279,79.6253068 126.709215,79.4421391 126.718853,79.3030353 L126.719826,79.2758366 C126.719826,78.7747747 128.133461,77.5715722 129.122143,77.2353069 L129.158563,77.223252 C129.372485,77.1462437 130.720408,77.0794948 132.487506,77.0517092 L133.45375,77.038428 C136.943115,76.9952264 137.400167,77.0893622 138.696199,77.9074469 L138.864823,78.0120131 C139.301635,78.2858075 139.627158,78.5129987 139.637889,78.5444559 C139.637889,78.5798453 139.444722,78.7567922 139.203263,78.9455357 C138.684126,79.3466154 138.33401,79.3702083 137.863165,79.0399074 C137.676896,78.9147806 137.23243,78.7019026 136.843692,78.5705079 L136.686196,78.5180361 C136.168198,78.3514509 135.753663,78.3157037 133.882479,78.3096186 L132.888932,78.3085427 C130.177332,78.3090976 129.990631,78.3255135 129.35173,78.5798453 L129.188456,78.6459622 C128.459295,78.9448223 128.368675,79.0476427 127.951267,79.8302704 C127.456276,80.762191 127.480422,81.552554 128.023705,82.3193241 C128.591134,83.1214836 129.013688,83.4517846 130.039889,83.9590325 L130.062012,83.9683247 C130.230154,84.0359369 130.80451,84.2146226 131.367914,84.3719087 L131.640334,84.4525097 C132.175476,84.612226 132.740325,84.7886014 132.997763,84.8791567 C133.299587,84.9735284 133.818724,85.1032895 134.16884,85.1504753 C134.503733,85.2068932 134.960132,85.3388619 135.221066,85.4637918 L135.255406,85.4807763 C135.494853,85.6033284 135.874294,85.7364027 136.139467,85.7806233 L136.185024,85.7874843 C136.438556,85.8228737 136.752453,85.9526348 136.885255,86.0941924 C136.999278,86.2167445 137.188682,86.3182523 137.32125,86.3291527 L137.344028,86.3301216 C137.459508,86.3301216 137.696494,86.4488444 137.875369,86.6037003 L137.899384,86.6250332 C138.080478,86.7901837 138.297791,86.9199448 138.382302,86.9199448 C138.472849,86.9199448 138.542174,86.9614167 138.550486,87.0249206 L138.551323,87.0379094 C138.551323,87.0968917 138.720345,87.3092281 138.913512,87.509768 C139.111151,87.7028804 139.264009,87.9069317 139.27506,87.9744502 L139.275701,87.9816265 C139.275701,88.1537911 139.652864,88.5493043 139.828935,88.5705577 L139.84313,88.5714496 C139.96064,88.5714496 139.998086,88.9737751 140,90.2896774 L139.99968,90.6551916 C139.995424,91.9362035 139.955954,92.2283532 139.831057,92.2283532 C139.734473,92.2283532 139.505087,92.4288931 139.31192,92.6766188 C138.837625,93.3138385 138.048898,93.973816 137.757814,93.9971834 L137.742435,93.9978227 C137.615957,93.9978227 137.369022,94.1048201 137.189355,94.2372931 L137.162933,94.2573449 C136.64766,94.6578348 135.405381,94.803041 132.488494,94.811393 L131.774941,94.8111269 C130.484967,94.807282 129.438814,94.7870222 129.322995,94.7663188 L129.322995,94.7663188 Z M113.285016,71.7398246 C113.285016,72.7870012 112.416214,73.6359056 111.344493,73.6359056 C110.272772,73.6359056 109.403971,72.7870012 109.403971,71.7398246 C109.403971,70.692648 110.272772,69.8437437 111.344493,69.8437437 C112.416214,69.8437437 113.285016,70.692648 113.285016,71.7398246 Z" id="loguvirs"></path>
                </g>
            </g>
        </g>
    </g>
</svg>