<?xml version="1.0" encoding="UTF-8"?>
<svg width="100px" height="62px" viewBox="0 0 100 62" version="1.1" xmlns="http://www.w3.org/2000/svg" xmlns:xlink="http://www.w3.org/1999/xlink">
    <title>partners-logo-linneja</title>
    <g id="Design" stroke="none" stroke-width="1" fill="none" fill-rule="evenodd">
        <g id="Group-16" transform="translate(-350, -766)" fill="#292C33">
            <g id="Clients" transform="translate(0, 397)">
                <g id="Client-15" transform="translate(320, 320)">
                    <path d="M35.0890658,106.279702 L37.0962557,106.279702 L37.6654589,106.269848 L37.6754449,107.196169 L35.5683947,109.906152 L36.7966751,109.906152 L37.6854309,109.837171 L37.765319,109.935716 L37.6654589,110.921164 L36.3972344,110.891601 L34.6396949,110.891601 L33.9107155,110.931019 L33.9107155,110.014552 L36.0377376,107.265151 L34.8793594,107.265151 L34.0005897,107.334132 L33.9107155,107.235587 L34.0205617,106.259993 L35.0890658,106.279702 Z M42.4359231,109.009394 L42.3859929,106.378247 L43.953798,106.259993 L43.8838959,108.851723 L43.943812,110.891601 L42.3660209,110.891601 L42.4359231,109.009394 Z M43.1948605,103.914626 C43.4411824,103.914626 43.6325811,103.983608 43.7690566,104.12157 C43.9055323,104.259533 43.9737701,104.450053 43.9737701,104.69313 C43.9737701,104.955917 43.8972106,105.164503 43.7440916,105.31889 C43.5909726,105.473277 43.3879236,105.550471 43.1349444,105.550471 C42.8819652,105.550471 42.6889022,105.481489 42.5557553,105.343526 C42.4226084,105.205564 42.3560349,105.011759 42.3560349,104.762112 C42.3560349,104.505895 42.43093,104.300594 42.5807204,104.146207 C42.7305106,103.99182 42.935224,103.914626 43.1948605,103.914626 Z M52.6687399,108.841868 L50.0524029,108.861577 C50.0990043,109.203199 50.2188365,109.456131 50.4118995,109.620372 C50.6049626,109.784614 50.8779138,109.866734 51.2307531,109.866734 C51.5835925,109.866734 52.0496067,109.764905 52.6287959,109.561245 L52.7486281,109.640081 L52.5089636,110.753638 C51.9763759,110.917879 51.4937183,111 51.0609908,111 C50.295396,111 49.6945704,110.786486 49.2585143,110.359459 C48.8224581,109.932431 48.60443,109.344447 48.60443,108.595506 C48.60443,107.846565 48.8141364,107.256939 49.2335492,106.826626 C49.6529621,106.396314 50.2221651,106.181157 50.9411586,106.181157 C51.5602918,106.181157 52.0412851,106.345399 52.3841384,106.673882 C52.7269917,107.002364 52.8984184,107.458956 52.8984184,108.043655 C52.8984184,108.234175 52.8784464,108.434549 52.8385023,108.644778 L52.6687399,108.841868 Z M51.5303337,107.876129 C51.5303337,107.422822 51.3306134,107.196169 50.9311726,107.196169 C50.7048228,107.196169 50.5184171,107.270078 50.3719554,107.417895 C50.2254939,107.565712 50.1256336,107.777584 50.0723749,108.053509 L51.5103617,108.014091 L51.5303337,107.876129 Z M61.6832625,103.973753 L61.6033744,108.851723 L61.6233464,109.580954 C61.6233464,109.679499 61.6366611,109.748481 61.6632904,109.787899 C61.6899199,109.827316 61.7365213,109.847025 61.8030947,109.847025 C61.8630109,109.847025 61.9362416,109.833886 62.0227871,109.807607 L62.1326334,109.896298 L61.9928291,110.71422 C61.7731366,110.865322 61.5035141,110.954012 61.1839615,110.980291 C60.9709264,110.960582 60.7895137,110.891601 60.6397234,110.773347 C60.4899331,110.655093 60.3817513,110.494137 60.3151778,110.290477 L60.2352896,110.290477 C59.9623384,110.559833 59.6394571,110.786486 59.2666457,110.970437 C58.6208831,110.970437 58.1182535,110.763492 57.7587568,110.349604 C57.3992601,109.935716 57.2195117,109.364156 57.2195117,108.634924 C57.2195117,107.846565 57.4308825,107.243799 57.853624,106.826626 C58.2763655,106.409453 58.8605476,106.200866 59.6061704,106.200866 C59.7992334,106.200866 59.9756531,106.217291 60.1354294,106.250139 L60.1154574,104.082152 L61.6832625,103.973753 Z M59.5362683,107.245442 C59.2566597,107.245442 59.0469533,107.329205 58.9071491,107.496731 C58.7673448,107.664257 58.6974426,107.941825 58.6974426,108.329435 C58.6974426,108.828729 58.7640161,109.196629 58.897163,109.433137 C59.0303099,109.669645 59.2300304,109.787899 59.4963242,109.787899 C59.7293313,109.787899 59.9523524,109.679499 60.1653875,109.462701 L60.1753735,108.99954 L60.1554015,107.393259 C59.9357091,107.294714 59.7293313,107.245442 59.5362683,107.245442 Z M71.2570021,109.896298 L71.1171979,110.71422 C70.8375893,110.891601 70.5513234,110.980291 70.2584001,110.980291 C69.8722741,110.901455 69.6059802,110.641954 69.4595186,110.201787 L69.3596584,110.201787 C68.9735323,110.582827 68.5840775,110.832474 68.1912941,110.950728 C67.6919931,110.950728 67.3091957,110.837401 67.0429019,110.610748 C66.776608,110.384095 66.6434611,110.060539 66.6434611,109.640081 L66.6734191,108.536379 L66.623489,106.378247 L68.141364,106.259993 L68.1213919,109.068521 C68.1147346,109.495549 68.2878256,109.709063 68.640665,109.709063 C68.7604972,109.709063 68.8736721,109.686069 68.9801896,109.640081 C69.0867072,109.594094 69.2032107,109.518543 69.3297004,109.413428 L69.3297004,106.378247 L70.8276033,106.259993 L70.7377291,109.590809 C70.7377291,109.682784 70.7527081,109.748481 70.7826661,109.787899 C70.8126242,109.827316 70.86089,109.847025 70.9274634,109.847025 C70.9873796,109.847025 71.0606104,109.833886 71.1471559,109.807607 L71.2570021,109.896298 Z M82.7851484,106.191012 C83.2644774,106.191012 83.7171769,106.269848 84.1432471,106.42752 L83.9435267,107.541076 L83.7537923,107.600203 C83.5407572,107.46881 83.3327151,107.36698 83.1296661,107.294714 C82.926617,107.222448 82.7518617,107.186315 82.6054001,107.186315 C82.4722531,107.186315 82.3690643,107.217521 82.2958334,107.279932 C82.2226026,107.342344 82.1859872,107.416253 82.1859872,107.501658 C82.1859872,107.619912 82.2459034,107.716815 82.3657356,107.792366 C82.4855679,107.867917 82.6686449,107.95168 82.9149666,108.043655 C83.1945752,108.155339 83.420925,108.260454 83.594016,108.358998 C83.767107,108.457543 83.9185616,108.595506 84.0483799,108.772887 C84.1781981,108.950267 84.2431073,109.173636 84.2431073,109.442992 C84.2431073,109.718917 84.1732051,109.975134 84.0334009,110.211641 C83.8935966,110.448149 83.6755685,110.638669 83.3793166,110.783201 C83.0830646,110.927734 82.7152463,111 82.2758614,111 C81.7832178,111 81.2606161,110.908025 80.7080564,110.724074 L80.8977907,109.541536 L81.037595,109.442992 C81.2572874,109.620372 81.5019449,109.76162 81.7715674,109.866734 C82.0411899,109.971849 82.2725327,110.024406 82.4655958,110.024406 C82.6120574,110.024406 82.7235679,109.991558 82.8001274,109.925861 C82.8766869,109.860165 82.9149666,109.778044 82.9149666,109.679499 C82.9149666,109.567815 82.8567149,109.474197 82.7402114,109.398646 C82.6554814,109.3437 82.5346589,109.282673 82.3777436,109.215565 L82.1859872,109.137503 C81.913036,109.032388 81.6866863,108.930558 81.5069379,108.832014 C81.3271896,108.733469 81.1724063,108.593864 81.042588,108.413198 C80.9127697,108.232532 80.8478606,108.004237 80.8478606,107.728311 C80.8478606,107.275005 81.0209516,106.905462 81.3671336,106.619682 C81.7133156,106.333902 82.1859872,106.191012 82.7851484,106.191012 Z M90.821041,106.181157 C91.3736008,106.181157 91.8029996,106.297769 92.1092376,106.530992 C92.4154755,106.764214 92.5685944,107.097624 92.5685944,107.531222 L92.5670534,107.662463 L92.5486224,108.053509 C92.5353077,108.250599 92.5253217,108.437834 92.5186644,108.615215 L92.4896392,109.060815 L92.4714986,109.441048 L92.4687342,109.590809 C92.4687342,109.682784 92.4837133,109.748481 92.5136714,109.787899 C92.5436294,109.827316 92.5952239,109.847025 92.6684546,109.847025 C92.7283708,109.847025 92.8016016,109.833886 92.8881471,109.807607 L92.9979933,109.896298 L92.858189,110.71422 C92.6384966,110.865322 92.3688741,110.954012 92.0493214,110.980291 C91.849601,110.960582 91.6798387,110.891601 91.5400344,110.773347 C91.4002301,110.655093 91.3003699,110.487567 91.2404539,110.270768 L91.1705517,110.270768 C90.8376844,110.61896 90.4981597,110.858752 90.1519777,110.990146 C89.6593341,110.983576 89.2715436,110.852183 88.9886064,110.595966 C88.7056692,110.33975 88.5642006,109.991558 88.5642006,109.551391 C88.5642006,108.874716 88.9236973,108.477252 89.6426907,108.358998 L91.1206216,108.112636 L91.1206216,107.826856 C91.1206216,107.623197 91.0756845,107.477022 90.9858104,107.388332 C90.8959361,107.299641 90.7511389,107.255296 90.5514185,107.255296 C90.3516981,107.255296 90.1369986,107.297999 89.9073202,107.383405 C89.6776418,107.46881 89.4130123,107.603488 89.1134316,107.787438 L89.0135715,107.718457 L88.8338231,106.703445 C89.1334037,106.539204 89.456285,106.411095 89.802467,106.31912 C90.148649,106.227145 90.4881737,106.181157 90.821041,106.181157 Z M90.2618239,109.009394 C90.1619637,109.029103 90.0870686,109.068521 90.0371385,109.127648 C89.9872084,109.186775 89.9622434,109.275465 89.9622434,109.393719 C89.9622434,109.551391 90.0038518,109.67293 90.0870686,109.758335 C90.1702854,109.843741 90.2851246,109.886443 90.4315863,109.886443 C90.6446214,109.886443 90.8709711,109.774759 91.1106356,109.551391 L91.1206216,108.841868 L90.2618239,109.009394 Z M99.1365421,108.851723 L99.2064443,110.891601 L97.6286532,110.891601 L97.7085414,108.99954 L97.6486253,104.082152 L99.2164304,103.973753 L99.1365421,108.851723 Z M106.173833,106.181157 C106.879511,106.181157 107.417092,106.378247 107.786575,106.772427 C108.156058,107.166606 108.340799,107.741451 108.340799,108.496961 C108.340799,109.311598 108.142743,109.932431 107.746631,110.359459 C107.350519,110.786486 106.776323,111 106.024043,111 C105.318364,111 104.780783,110.80291 104.411301,110.408731 C104.041818,110.014552 103.857076,109.442992 103.857076,108.694051 C103.857076,107.879413 104.055132,107.256939 104.451244,106.826626 C104.847356,106.396314 105.421553,106.181157 106.173833,106.181157 Z M106.063986,107.235587 C105.797693,107.235587 105.609623,107.322635 105.499776,107.496731 C105.38993,107.670827 105.335007,107.974674 105.335007,108.408271 C105.335007,108.80902 105.359972,109.122721 105.409902,109.349374 C105.459832,109.576027 105.543049,109.736984 105.659553,109.832244 C105.776056,109.927504 105.934169,109.975134 106.133889,109.975134 C106.393525,109.975134 106.578266,109.888086 106.688113,109.71399 C106.797959,109.539894 106.852882,109.232763 106.852882,108.792596 C106.852882,108.207896 106.794631,107.80222 106.678127,107.575567 C106.561624,107.348914 106.35691,107.235587 106.063986,107.235587 Z M115.747572,108.1422 C115.760887,107.688893 115.574481,107.46224 115.188355,107.46224 C114.955349,107.46224 114.702369,107.560785 114.429418,107.757875 L114.429418,108.851723 L114.49932,110.891601 L112.921529,110.891601 L112.991431,109.009394 L112.931515,106.378247 L114.439404,106.259993 L114.439404,106.939953 L114.49932,106.939953 C114.858816,106.6049 115.258257,106.365108 115.697642,106.220575 C116.196944,106.220575 116.578076,106.333902 116.841041,106.560555 C117.104006,106.787208 117.232161,107.110764 117.225504,107.531222 L117.185559,108.851723 L117.245476,110.891601 L115.667684,110.891601 L115.747572,108.1422 Z M123.813423,106.191012 C124.292752,106.191012 124.745451,106.269848 125.171521,106.42752 L124.971801,107.541076 L124.782067,107.600203 C124.569032,107.46881 124.36099,107.36698 124.157941,107.294714 C123.954891,107.222448 123.780136,107.186315 123.633675,107.186315 C123.500528,107.186315 123.397339,107.217521 123.324108,107.279932 C123.250877,107.342344 123.214262,107.416253 123.214262,107.501658 C123.214262,107.619912 123.274178,107.716815 123.39401,107.792366 C123.513843,107.867917 123.696919,107.95168 123.943241,108.043655 C124.22285,108.155339 124.4492,108.260454 124.622291,108.358998 C124.795381,108.457543 124.946836,108.595506 125.076654,108.772887 C125.206473,108.950267 125.271382,109.173636 125.271382,109.442992 C125.271382,109.718917 125.20148,109.975134 125.061676,110.211641 C124.921871,110.448149 124.703843,110.638669 124.407591,110.783201 C124.111339,110.927734 123.743521,111 123.304136,111 C122.811492,111 122.288891,110.908025 121.736331,110.724074 L121.926066,109.541536 L122.06587,109.442992 C122.285562,109.620372 122.530219,109.76162 122.799842,109.866734 C123.069465,109.971849 123.300807,110.024406 123.493871,110.024406 C123.640332,110.024406 123.751843,109.991558 123.828402,109.925861 C123.904961,109.860165 123.943241,109.778044 123.943241,109.679499 C123.943241,109.567815 123.884989,109.474197 123.768486,109.398646 C123.683756,109.3437 123.562934,109.282673 123.406019,109.215565 L123.214262,109.137503 C122.941311,109.032388 122.714961,108.930558 122.535213,108.832014 C122.355464,108.733469 122.200681,108.593864 122.070863,108.413198 C121.941044,108.232532 121.876135,108.004237 121.876135,107.728311 C121.876135,107.275005 122.049226,106.905462 122.395409,106.619682 C122.74159,106.333902 123.214262,106.191012 123.813423,106.191012 Z M40.6308311,97.9259157 L40.6233099,97.9621265 L40.5631406,98.1114682 L40.1686211,98.9268497 C40.0487889,99.171804 39.9289566,99.3998649 39.8091244,99.6110324 L39.6816243,99.8375976 L39.5780194,100.029144 C39.5266626,100.130504 39.4667466,100.214971 39.398271,100.282545 C39.3297954,100.350119 39.2270821,100.383905 39.0901309,100.383905 C38.9018231,100.383905 38.7220748,100.354342 38.5508859,100.295215 L38.0116409,100.105164 C37.8404519,100.037591 37.6221861,100.003804 37.3568433,100.003804 L36.6763674,100.003804 C36.111444,100.003804 35.5422409,100.012251 34.968758,100.029144 C34.3952752,100.046037 33.8260721,100.071378 33.2611487,100.105164 C32.9187709,100.138951 32.5806728,100.164291 32.2468544,100.181185 C31.913036,100.198078 31.5749379,100.248758 31.2325601,100.333225 C31.1298468,100.367012 31.0442523,100.383905 30.9757768,100.383905 C30.8901823,100.383905 30.8045879,100.320555 30.7189934,100.193855 C30.633399,100.067154 30.5478045,99.9235603 30.46221,99.763073 C30.3766156,99.6025857 30.30814,99.4420984 30.2567834,99.2816111 C30.2054267,99.1211238 30.1797484,99.0070933 30.1797484,98.9395198 C30.1797484,98.931073 30.1861679,98.9131238 30.1990071,98.885672 L30.2567834,98.7748091 L30.4365317,98.4580578 C30.5050073,98.339804 30.5692031,98.2215502 30.6291192,98.1032964 C30.6890354,97.9850426 30.7275529,97.8836822 30.7446717,97.7992152 C30.8302662,97.3599868 30.8773432,96.9080883 30.8859026,96.4435198 C30.8916089,96.1338074 30.8954131,95.8297262 30.8973152,95.5312762 L30.8987418,95.0878244 C30.8987418,93.9221798 30.894462,92.7480884 30.8859026,91.5655504 C30.8773432,90.3830123 30.7789095,89.2173677 30.5906017,88.0686165 L30.5488744,87.8944032 L30.4750492,87.6251647 L30.2824617,86.9789921 L30.1201889,86.4739498 L30.0399441,86.2328669 L30,86.0920886 C30,85.9738348 30.0898742,85.8175708 30.2696225,85.6232967 C30.4493709,85.4290226 30.663357,85.2431951 30.9115809,85.0658145 C31.1598048,84.8884338 31.403749,84.7363931 31.6434135,84.6096927 C31.883078,84.4829922 32.0628263,84.4196419 32.1826586,84.4196419 C32.268253,84.4196419 32.3966447,84.457652 32.5678336,84.5336724 C32.7390225,84.6096927 32.9059317,84.698383 33.0685612,84.7997434 C33.2311906,84.9011038 33.3767012,85.0109109 33.5050929,85.1291647 C33.6334845,85.2474185 33.6976804,85.3487789 33.6976804,85.4332459 C33.6976804,85.5683931 33.6805615,85.7077637 33.6463237,85.8513576 L33.5436104,86.2694692 C33.4580159,86.7086977 33.3980998,87.1521494 33.363862,87.5998246 C33.3296242,88.0474997 33.3125054,88.4993982 33.3125054,88.95552 L33.3139319,89.5130022 L33.3253445,90.6279667 C33.333904,91.1854488 33.3381837,91.742931 33.3381837,92.3004133 L33.3381837,94.0488803 C33.3381837,94.7415097 33.3296242,95.4256924 33.3125054,96.1014284 C33.2953865,96.7771644 33.2697081,97.4613472 33.2354703,98.1539766 L33.4152187,98.1539766 C34.2540443,98.1539766 35.09287,98.1286365 35.9316956,98.0779563 C36.7705213,98.0272761 37.6007875,97.9597025 38.4224942,97.8752355 C38.5423264,97.8583421 38.6749979,97.8245553 38.8205084,97.7738751 C38.9175155,97.7400883 39.0126204,97.7044244 39.1058233,97.6668836 L39.6165369,97.4571238 C39.7278096,97.4148903 39.8091244,97.3937736 39.8604811,97.3937736 C39.9803133,97.3937736 40.138663,97.4486771 40.3355303,97.5584843 C40.5323975,97.6682913 40.6308311,97.7907685 40.6308311,97.9259157 Z M46.4398414,85.9653881 C46.4398414,86.3201494 46.4070747,86.6716774 46.3415415,87.0199718 L46.3114497,87.1690428 C46.2258552,87.5660378 46.1659391,87.967256 46.1317014,88.3726976 C46.0632258,89.0991139 46.0118691,89.8255301 45.9776313,90.5519463 L45.874918,92.7565351 C45.8406802,93.9390731 45.8321207,95.1173879 45.8492396,96.2914792 C45.8663585,97.4655705 45.874918,98.6438852 45.874918,99.8264233 C45.874918,100.096718 45.7978829,100.269875 45.6438129,100.345895 C45.5090017,100.412413 45.3479771,100.46923 45.1607393,100.516347 L45.0788896,100.535946 C44.8734629,100.586626 44.6594767,100.637306 44.4369311,100.687987 C44.2143856,100.738667 43.99184,100.764007 43.7692944,100.764007 C43.6323433,100.764007 43.5510286,100.725997 43.5253502,100.649977 C43.4996719,100.573956 43.4868327,100.485266 43.4868327,100.383905 L43.4868327,97.9259157 C43.4868327,97.1150324 43.4697139,96.2957025 43.4354761,95.4679259 C43.4012383,94.5725757 43.3541613,93.6814488 43.2942452,92.7945452 C43.2343291,91.9076417 43.1615738,91.0165148 43.0759794,90.1211646 C43.0417416,89.7664032 43.0032241,89.4327586 42.9604269,89.1202306 C42.926189,88.8702083 42.8453879,88.617483 42.7180233,88.3620548 L42.6137693,88.1699768 C42.5110559,88.0010428 42.4211818,87.7940987 42.3441468,87.5491444 C42.2671118,87.3041901 42.2285943,87.0887992 42.2285943,86.9029718 C42.2285943,86.8016114 42.3355873,86.6453474 42.5495734,86.4341799 C42.7635596,86.2230124 43.0117835,86.0118449 43.2942452,85.8006774 C43.5767069,85.5895099 43.8463294,85.4036825 44.1031128,85.2431951 C44.3598961,85.0827079 44.5396445,85.0024642 44.6423579,85.0024642 C44.7108334,85.0024642 44.8149163,85.0213848 44.9546064,85.0592261 L45.0660504,85.0911546 C45.2629176,85.1502815 45.4640646,85.2305251 45.6694913,85.3318855 C45.874918,85.4332459 46.0546664,85.5388297 46.2087364,85.6486368 C46.3628064,85.7584439 46.4398414,85.8640276 46.4398414,85.9653881 Z M68.5802734,99.3956416 C68.5802734,99.665936 68.4903991,99.8644334 68.3106508,99.9911339 C68.1309024,100.117834 67.9383149,100.240312 67.7328882,100.358565 L67.5649519,100.444848 L67.369283,100.551657 L67.0652515,100.725997 C66.7913493,100.886484 66.5602442,100.966728 66.3719364,100.966728 C66.2178664,100.966728 66.0980342,100.920271 66.0124397,100.827357 C65.9268453,100.734444 65.8583697,100.620413 65.8070131,100.485266 C65.7556564,100.350119 65.7085794,100.210748 65.6657822,100.067154 C65.6290989,99.9440738 65.5766941,99.8365076 65.5085679,99.7444558 L65.4731946,99.6997227 C65.3704814,99.5645756 65.2463694,99.4547684 65.1008588,99.3703015 C64.9553482,99.2858344 64.8141174,99.2013675 64.6771663,99.1169004 C63.9210819,98.6804876 63.1531094,98.2558063 62.3732489,97.8428565 L61.9039059,97.5964944 C60.962367,97.1065858 60.0293874,96.5955604 59.1049674,96.0634183 C58.1805472,95.5312762 57.2860852,94.9653472 56.4215812,94.3656315 C55.5570772,93.7659158 54.7482096,93.0944031 53.9949784,92.3510935 C54.0120974,92.4862407 54.0206568,92.6256112 54.0206568,92.7692051 L54.0206568,93.1873168 C54.0206568,94.1840275 53.9778596,95.1765147 53.8922651,96.1647787 C53.8066706,97.1530426 53.7039573,98.1455299 53.5841251,99.1422405 L53.5410109,99.4475731 L53.4942509,99.7377329 C53.4685726,99.8813268 53.4257754,100.003804 53.3658592,100.105164 C53.3059431,100.206525 53.2203486,100.303662 53.1090759,100.396576 L52.823761,100.621821 L52.4157608,100.928718 C52.3387258,100.987845 52.2574111,101.017408 52.1718166,101.017408 C52.0691033,101.017408 51.9278724,100.992068 51.7481241,100.941388 C51.5683757,100.890708 51.3886274,100.818911 51.208879,100.725997 C51.0291306,100.633083 50.8707809,100.531723 50.7338298,100.421916 C50.5968786,100.312109 50.5284031,100.198078 50.5284031,100.079824 C50.5284031,99.9277837 50.5540814,99.7461796 50.6054381,99.5350121 C50.6567948,99.3238446 50.7167109,99.100007 50.7851864,98.8634994 L50.9278439,98.3961153 L51.0034523,98.1666466 C51.0483894,98.0336111 51.086045,97.9106354 51.1164192,97.7977194 L51.1703615,97.5711543 C51.3586693,96.7264843 51.5041799,95.902931 51.6068932,95.1004944 C51.7096066,94.2980579 51.7609632,93.4660579 51.7609632,92.6044945 L51.7567709,92.2859332 L51.7481241,92.0090021 C51.7395646,91.7809412 51.7224457,91.5571037 51.6967674,91.3374894 C51.6710891,91.1178752 51.6197324,90.9109311 51.5426974,90.716657 C51.4656624,90.5223828 51.3672287,90.3576722 51.2473965,90.222525 L49.9876174,89.0026526 L49.5911439,88.6134286 C49.2573254,88.2840073 48.9663043,87.9630327 48.7180804,87.6505048 C48.4698565,87.3379768 48.3457445,87.0972459 48.3457445,86.9283119 C48.3457445,86.8100581 48.4142201,86.6791342 48.5511712,86.5355403 C48.6881224,86.3919464 48.8550315,86.2567992 49.0518988,86.1300987 C49.248766,86.0033982 49.4413535,85.8978145 49.6296614,85.8133474 C49.8179691,85.7288805 49.9634797,85.6866469 50.0661931,85.6866469 C50.1860253,85.6866469 50.2972981,85.7077637 50.4000114,85.7499972 C50.5027248,85.7922307 50.6054381,85.8386875 50.7081514,85.8893677 C50.8209347,85.9450166 50.9536209,86.0268532 51.1062101,86.1348774 L51.350021,86.3165545 L51.6967674,86.5988906 C52.1161802,86.953652 52.5527119,87.3422002 53.0063625,87.7645352 L53.7175954,88.4330634 C53.8336995,88.5432835 53.9485863,88.6529029 54.0622557,88.7619216 L54.479386,89.1634214 L54.9176296,89.5756204 L55.0463636,89.6931984 L55.3302519,89.9437839 C55.9807698,90.5350529 56.6441268,91.1136519 57.320323,91.6795808 C57.9965191,92.2455097 58.6941139,92.7987686 59.4131074,93.3393574 C60.4231219,94.0995605 61.4673742,94.8090833 62.5458644,95.4679259 C63.6243545,96.1267685 64.7456418,96.7180376 65.9097264,97.241733 C65.9953209,96.5659969 66.0595166,95.8902609 66.1023139,95.2145249 C66.1451111,94.5387888 66.1665097,93.8630528 66.1665097,93.1873168 C66.1665097,92.4946874 66.1451111,91.8062813 66.1023139,91.1220986 C66.0595166,90.4379159 65.9782019,89.7579565 65.8583697,89.0822205 C65.8241319,88.9132865 65.7513766,88.6978956 65.6401039,88.4360479 L65.4175583,87.9179836 L64.9549916,86.8660175 L64.9196839,86.7762713 L64.8922223,86.6970835 C64.8686839,86.6231749 64.8569146,86.5651038 64.8569146,86.5228703 C64.8569146,86.3708297 64.9981454,86.2356825 65.2806071,86.1174287 C65.5630689,85.9991749 65.8840481,85.9020378 66.2435448,85.8260175 C66.6030414,85.7499972 66.9539787,85.6908703 67.2963565,85.6486368 L67.6238864,85.611467 L67.829313,85.5933669 L68.0153499,85.5852866 C68.32349,85.5852866 68.47756,85.7457738 68.47756,86.0667485 C68.47756,86.5059768 68.4561614,86.9494287 68.4133641,87.3971038 C68.3705669,87.8447788 68.3320494,88.2882307 68.2978116,88.727459 C68.2635739,89.6059159 68.2336158,90.4801494 68.2079374,91.3501595 C68.1822591,92.2201696 68.1694199,93.0944031 68.1694199,93.97286 C68.1694199,95.7128802 68.2978116,97.4275603 68.554595,99.1169004 C68.5717139,99.1844741 68.5802734,99.2773878 68.5802734,99.3956416 Z M90.5923136,99.3956416 C90.5923136,99.665936 90.5024394,99.8644334 90.3226911,99.9911339 C90.1429427,100.117834 89.9503552,100.240312 89.7449285,100.358565 L89.5769922,100.444848 L89.3813233,100.551657 L89.0772918,100.725997 C88.8033896,100.886484 88.5722845,100.966728 88.3839767,100.966728 C88.2299067,100.966728 88.1100745,100.920271 88.02448,100.827357 C87.9388856,100.734444 87.87041,100.620413 87.8190534,100.485266 C87.7676966,100.350119 87.7206197,100.210748 87.6778225,100.067154 C87.6411391,99.9440738 87.5887344,99.8365076 87.5206081,99.7444558 L87.4852349,99.6997227 C87.3825216,99.5645756 87.2584096,99.4547684 87.1128991,99.3703015 C86.9673885,99.2858344 86.8261576,99.2013675 86.6892066,99.1169004 C85.9331222,98.6804876 85.1651497,98.2558063 84.3852891,97.8428565 L83.9159462,97.5964944 C82.9744073,97.1065858 82.0414277,96.5955604 81.1170076,96.0634183 C80.1925875,95.5312762 79.2981255,94.9653472 78.4336215,94.3656315 C77.5691175,93.7659158 76.7602499,93.0944031 76.0070187,92.3510935 C76.0241376,92.4862407 76.0326971,92.6256112 76.0326971,92.7692051 L76.0326971,93.1873168 C76.0326971,94.1840275 75.9898999,95.1765147 75.9043054,96.1647787 C75.8187109,97.1530426 75.7159976,98.1455299 75.5961654,99.1422405 L75.5530511,99.4475731 L75.5062912,99.7377329 C75.4806129,99.8813268 75.4378156,100.003804 75.3778995,100.105164 C75.3179834,100.206525 75.2323889,100.303662 75.1211161,100.396576 L74.8358013,100.621821 L74.4278011,100.928718 C74.3507661,100.987845 74.2694514,101.017408 74.1838569,101.017408 C74.0811436,101.017408 73.9399127,100.992068 73.7601644,100.941388 C73.580416,100.890708 73.4006676,100.818911 73.2209193,100.725997 C73.0411709,100.633083 72.8828212,100.531723 72.7458701,100.421916 C72.6089189,100.312109 72.5404434,100.198078 72.5404434,100.079824 C72.5404434,99.9277837 72.5661217,99.7461796 72.6174784,99.5350121 C72.6688351,99.3238446 72.7287511,99.100007 72.7972267,98.8634994 L72.9398841,98.3961153 L73.0154926,98.1666466 C73.0604297,98.0336111 73.0980853,97.9106354 73.1284595,97.7977194 L73.1824018,97.5711543 C73.3707096,96.7264843 73.5162201,95.902931 73.6189335,95.1004944 C73.7216469,94.2980579 73.7730035,93.4660579 73.7730035,92.6044945 L73.7601644,92.0090021 C73.7516049,91.7809412 73.734486,91.5571037 73.7088076,91.3374894 C73.6831294,91.1178752 73.6317726,90.9109311 73.5547376,90.716657 C73.4777026,90.5223828 73.379269,90.3576722 73.2594368,90.222525 L71.9996576,89.0026526 L71.6031841,88.6134286 C71.2693657,88.2840073 70.9783446,87.9630327 70.7301207,87.6505048 C70.4818968,87.3379768 70.3577848,87.0972459 70.3577848,86.9283119 C70.3577848,86.8100581 70.4262604,86.6791342 70.5632115,86.5355403 C70.7001626,86.3919464 70.8670718,86.2567992 71.0639391,86.1300987 C71.2608063,86.0033982 71.4533938,85.8978145 71.6417016,85.8133474 C71.8300094,85.7288805 71.97552,85.6866469 72.0782334,85.6866469 C72.1980656,85.6866469 72.3093384,85.7077637 72.4120517,85.7499972 C72.5147651,85.7922307 72.6174784,85.8386875 72.7201917,85.8893677 C72.832975,85.9450166 72.9656612,86.0268532 73.1182504,86.1348774 L73.3620613,86.3165545 L73.7088076,86.5988906 C74.1282205,86.953652 74.5647522,87.3422002 75.0184028,87.7645352 L75.7296357,88.4330634 C75.8457398,88.5432835 75.9606266,88.6529029 76.074296,88.7619216 L76.4914263,89.1634214 L76.9296699,89.5756204 L77.0584039,89.6931984 L77.3422922,89.9437839 C77.9928101,90.5350529 78.6561671,91.1136519 79.3323633,91.6795808 C80.0085594,92.2455097 80.7061542,92.7987686 81.4251476,93.3393574 C82.4351622,94.0995605 83.4794145,94.8090833 84.5579046,95.4679259 C85.6363948,96.1267685 86.7576821,96.7180376 87.9217666,97.241733 C88.0073611,96.5659969 88.0715569,95.8902609 88.1143542,95.2145249 C88.1571514,94.5387888 88.17855,93.8630528 88.17855,93.1873168 C88.17855,92.4946874 88.1571514,91.8062813 88.1143542,91.1220986 C88.0715569,90.4379159 87.9902422,89.7579565 87.87041,89.0822205 C87.8361722,88.9132865 87.7634169,88.6978956 87.6521441,88.4360479 L87.4295986,87.9179836 L86.9670319,86.8660175 L86.9317241,86.7762713 L86.9042626,86.6970835 C86.8807241,86.6231749 86.8689549,86.5651038 86.8689549,86.5228703 C86.8689549,86.3708297 87.0101857,86.2356825 87.2926474,86.1174287 C87.5751091,85.9991749 87.8960884,85.9020378 88.2555851,85.8260175 C88.6150817,85.7499972 88.966019,85.6908703 89.3083968,85.6486368 L89.6359266,85.611467 L89.8413533,85.5933669 L90.0273902,85.5852866 C90.3355303,85.5852866 90.4896003,85.7457738 90.4896003,86.0667485 C90.4896003,86.5059768 90.4682016,86.9494287 90.4254044,87.3971038 C90.3826072,87.8447788 90.3440897,88.2882307 90.3098519,88.727459 C90.2756141,89.6059159 90.2456561,90.4801494 90.2199777,91.3501595 C90.1942994,92.2201696 90.1814602,93.0944031 90.1814602,93.97286 C90.1814602,95.7128802 90.3098519,97.4275603 90.5666353,99.1169004 C90.5837541,99.1844741 90.5923136,99.2773878 90.5923136,99.3956416 Z M103.103369,99.2436009 C103.103369,99.328068 103.090531,99.3998649 103.064852,99.4589918 C103.039174,99.5181187 103.009216,99.5814689 102.974978,99.6490425 L102.743873,100.282545 C102.658279,100.519053 102.564124,100.662647 102.461411,100.713327 C102.358698,100.764007 102.187509,100.814687 101.947844,100.865367 C101.622586,100.932941 101.297327,100.979398 100.972068,101.004738 C100.646809,101.030078 100.32155,101.042748 99.9962909,101.042748 C98.8664441,101.042748 97.9163457,100.903378 97.1459956,100.624636 C96.3756455,100.345895 95.750806,99.932007 95.2714771,99.3829715 C94.7921481,98.833936 94.4497704,98.1539766 94.2443436,97.3430934 C94.0389169,96.5322102 93.9362036,95.5946264 93.9362036,94.5303422 C93.9362036,93.7363524 93.9618819,92.912799 94.0132386,92.0596824 C94.0645953,91.2065656 94.1887072,90.3703423 94.3855745,89.5510124 C94.5824417,88.7316824 94.8734629,87.9630327 95.2586379,87.2450631 C95.6438129,86.5270936 96.1787783,85.8978145 96.8635339,85.3572256 C97.3086251,85.0193576 97.8435904,84.8208602 98.4684299,84.7617332 C99.0932694,84.7026064 99.671032,84.6730429 100.201718,84.6730429 C100.509858,84.6730429 100.800879,84.6857129 101.074781,84.711053 C101.348683,84.7363931 101.592627,84.7997434 101.806614,84.9011038 C102.0206,85.0024642 102.187509,85.1587282 102.307341,85.3698957 C102.427174,85.5810632 102.487089,85.8724744 102.487089,86.2441291 C102.487089,86.4299566 102.414334,86.5482104 102.268824,86.5988906 C102.123313,86.6495708 101.973523,86.6749108 101.819453,86.6749108 C101.716739,86.6749108 101.616434,86.6701596 101.518535,86.660657 L101.421439,86.6495708 C101.293047,86.6326774 101.160376,86.6242307 101.023424,86.6242307 C100.681047,86.6242307 100.31299,86.6326774 99.9192559,86.6495708 C99.5255214,86.6664642 99.1745841,86.7255911 98.8664441,86.8269515 C98.5069474,86.9452053 98.1945276,87.2028296 97.9291849,87.5998246 C97.6638421,87.9968195 97.4412965,88.4444946 97.2615481,88.9428499 C97.0817998,89.4412052 96.9491284,89.9480072 96.8635339,90.463256 C96.7779394,90.9785047 96.7351422,91.3966164 96.7351422,91.7175909 C97.3343034,91.6500174 97.9206254,91.6077839 98.4941082,91.5908905 C98.9528945,91.5773758 99.4198979,91.5692669 99.8951183,91.5665639 L100.676767,91.5655504 C100.890753,91.5655504 101.109019,91.5782204 101.331564,91.6035605 C101.55411,91.6289006 101.750977,91.6753575 101.922166,91.742931 C102.093355,91.8105046 102.178949,91.9034184 102.178949,92.0216722 C102.178949,92.1568194 102.123313,92.2835199 102.01204,92.4017737 C101.923022,92.4963767 101.842221,92.5855739 101.769637,92.6693651 L101.510097,92.9735004 L101.292819,93.2122821 L101.151816,93.3520275 C101.014865,93.478728 100.749522,93.5674184 100.355788,93.6180985 C99.7223886,93.7025655 99.0889897,93.7532457 98.4555907,93.7701391 C97.8221918,93.7870325 97.1887929,93.7954792 96.5553939,93.7954792 C96.5553939,94.2347077 96.5853519,94.6654894 96.6452681,95.0878244 C96.7051841,95.5101594 96.8121772,95.915601 96.9662473,96.3041492 C97.1203173,96.6926975 97.3257439,97.0516822 97.5825273,97.3811035 C97.8393107,97.7105248 98.1645696,98.001936 98.5583041,98.255337 C99.1574653,98.6269918 99.7994236,98.821266 100.484179,98.8381593 C101.168935,98.8550527 101.836571,98.8634994 102.487089,98.8634994 C102.624041,98.8634994 102.760991,98.8846162 102.897943,98.9268497 C103.034894,98.9690832 103.103369,99.0746669 103.103369,99.2436009 Z M110.735541,85.4079058 C110.735541,85.8020852 110.717709,86.1962645 110.682045,86.5904439 L110.658506,86.8269515 C110.60715,87.2999667 110.581471,87.7729819 110.581471,88.2459971 L110.581471,91.8949717 C110.581471,92.8916823 110.572912,93.8799463 110.555794,94.8597635 C110.538674,95.8395807 110.431681,96.7856111 110.234814,97.6978548 C110.037947,98.6100984 109.716968,99.4843319 109.271876,100.320555 C108.826786,101.156779 108.176268,101.912758 107.320323,102.588494 C107.183372,102.689855 107.016463,102.799662 106.819596,102.917916 C106.622728,103.036169 106.417301,103.145976 106.203316,103.247337 C105.989329,103.348697 105.775343,103.433164 105.561357,103.500738 C105.347371,103.568312 105.154784,103.602098 104.983594,103.602098 C104.74393,103.602098 104.521384,103.551418 104.315958,103.450058 C104.110531,103.348697 103.926503,103.21355 103.763874,103.044616 C103.601244,102.875682 103.472852,102.681408 103.378699,102.461794 C103.284544,102.24218 103.237468,102.022565 103.237468,101.802951 C103.237468,101.532657 103.284544,101.296149 103.378699,101.093428 C103.472852,100.890708 103.682559,100.789347 104.007818,100.789347 C104.262461,100.789347 104.517104,100.821682 104.771748,100.886352 L104.880881,100.916048 C105.171902,101.000515 105.462924,101.042748 105.753944,101.042748 C105.959371,101.042748 106.13484,101.025855 106.280351,100.992068 C106.425861,100.958281 106.567092,100.848474 106.704043,100.662647 C107.200491,99.9362303 107.51719,99.1802507 107.654141,98.3947076 C107.791092,97.6091644 107.859568,96.7940579 107.859568,95.9493878 C107.859568,94.7668498 107.851009,93.5843117 107.83389,92.4017737 C107.816771,91.2192356 107.773974,90.0366976 107.705498,88.8541596 L107.67982,88.4455505 L107.654141,88.1319667 C107.637022,87.954586 107.598505,87.8025454 107.538589,87.6758448 C107.478673,87.5491444 107.384519,87.4266672 107.256127,87.3084134 L107.125553,87.1928625 L106.904719,87.0104138 L106.704043,86.8522916 C106.618449,86.784718 106.545693,86.7213677 106.485777,86.6622409 C106.425861,86.6031139 106.395903,86.5144236 106.395903,86.3961698 C106.395903,86.2103424 106.460099,86.0540784 106.588491,85.9273779 C106.716882,85.8006774 106.849554,85.6950936 106.986504,85.6106267 L107.107064,85.5384074 L107.253046,85.4433819 L107.487232,85.2812053 C107.701219,85.1291647 107.928044,84.9813474 108.167708,84.8377535 C108.407373,84.6941596 108.638478,84.5674591 108.861023,84.457652 C109.083569,84.347845 109.254758,84.2929414 109.37459,84.2929414 C109.494422,84.2929414 109.631374,84.3267282 109.785444,84.3943018 C109.939514,84.4618754 110.085024,84.5505657 110.221975,84.6603729 C110.358926,84.77018 110.478759,84.8926571 110.581471,85.0278043 C110.684185,85.1629515 110.735541,85.289652 110.735541,85.4079058 Z M130,99.3196212 C130,99.5054486 129.940084,99.6954994 129.820251,99.8897735 C129.700419,100.084048 129.529231,100.181185 129.306685,100.181185 L129.148284,100.173688 L128.728922,100.130504 C128.540615,100.10798 128.346601,100.081701 128.14688,100.051669 L127.396859,99.9277837 L127.11725,99.8771035 L126.826957,99.8191832 L126.739441,99.7974631 L126.603713,99.754023 C126.567204,99.7395429 126.53943,99.7250629 126.520389,99.7105828 L126.507746,99.6997227 C126.405033,99.6152558 126.340837,99.5350121 126.315159,99.4589918 L126.225284,99.1929207 C126.019858,98.6016517 125.780194,98.0061594 125.506291,97.4064436 C125.232389,96.8067279 124.915689,96.2450224 124.556193,95.7213269 C123.854319,95.6199665 123.156724,95.5354995 122.463409,95.4679259 C121.770094,95.4003523 121.063939,95.3665655 120.344946,95.3665655 C120.019686,95.3665655 119.698708,95.3750122 119.382008,95.3919056 C119.065309,95.408799 118.744329,95.4425858 118.419071,95.493266 L118.364604,95.5822038 L118.272323,95.7409754 L117.982539,96.2661391 C117.777112,96.6462406 117.563126,97.0516822 117.34058,97.482464 L117.063234,98.0284639 L116.749979,98.6734487 L116.597508,99.0059389 L116.527848,99.1697289 L116.476758,99.3093624 L116.467517,99.3449614 C116.381922,99.5814689 116.304887,99.763073 116.236412,99.8897735 C116.167936,100.016474 116.082342,100.105164 115.979629,100.155845 C115.876915,100.206525 115.748524,100.236088 115.594454,100.244535 L115.296794,100.254878 L115.02953,100.257205 C114.744215,100.257205 114.455929,100.271869 114.164669,100.301198 L113.989557,100.320555 C113.63862,100.362789 113.291963,100.383905 112.949585,100.383905 C112.761277,100.383905 112.658564,100.307885 112.641445,100.155845 C112.624326,100.003804 112.615766,99.8602101 112.615766,99.7250629 C112.615766,99.4716619 112.645724,99.2942811 112.705641,99.1929207 C112.765557,99.0915603 112.846871,99.0155401 112.949585,98.9648599 C113.031756,98.9243157 113.122144,98.8891774 113.220748,98.859445 L113.296242,98.8381593 C113.424634,98.8043725 113.565865,98.7367989 113.719935,98.6354385 C113.874005,98.5340781 114.045194,98.3440274 114.233501,98.0652863 C114.421809,97.7865451 114.610117,97.4909106 114.798425,97.1783827 C114.949071,96.9283604 115.091501,96.678338 115.225713,96.4283157 L115.663849,95.6009091 L115.722845,95.493266 L115.890868,95.1713433 L116.055943,94.8672621 L116.300608,94.4289818 C116.548831,93.9897533 116.809895,93.4998447 117.083797,92.9592559 C117.357699,92.4186671 117.635881,91.8611848 117.918343,91.2868092 C118.200804,90.7124336 118.453309,90.1633981 118.675854,89.6397027 C118.898399,89.1160073 119.082427,88.6345453 119.227938,88.1953169 C119.373449,87.7560885 119.446204,87.4097738 119.446204,87.1563728 C119.446204,86.9494287 119.413437,86.7554185 119.347904,86.5743423 L119.317812,86.4975302 C119.232218,86.2948093 119.189421,86.0836419 119.189421,85.8640276 C119.189421,85.7626672 119.292134,85.6570835 119.497561,85.5472764 C119.702987,85.4374693 119.942651,85.3445556 120.216554,85.2685353 C120.490456,85.1925149 120.751519,85.1291647 120.999744,85.0784845 L121.241671,85.0332493 L121.385236,85.0125165 L121.462909,85.0049773 L121.526149,85.0024642 C121.697338,85.0024642 121.872806,85.108048 122.052555,85.3192155 C122.232304,85.530383 122.399213,85.7753373 122.553283,86.0540784 C122.655996,86.2399058 122.753003,86.4276103 122.844304,86.6171918 L123.193814,87.375987 L123.272276,87.5364743 C123.751605,88.4993982 124.230934,89.4707687 124.710263,90.4505859 C125.189591,91.4304031 125.686039,92.3975504 126.199606,93.3520275 C126.713173,94.3065046 127.260977,95.239865 127.84302,96.1521086 C128.425062,97.0643523 129.049901,97.9512558 129.717539,98.8128192 L129.910126,99.0535502 C129.970042,99.1295705 130,99.2182608 130,99.3196212 Z M123.580416,93.5420783 C123.295101,92.9789649 123.024646,92.4129186 122.769052,91.8439395 L122.617479,91.5022001 C122.392793,90.9890631 122.146442,90.4878042 121.878424,89.9984235 L121.58553,89.4805352 L121.474792,89.2976113 C121.406317,89.1878042 121.35496,89.1329007 121.320722,89.1329007 C121.252247,89.1329007 121.20089,89.1751342 121.166652,89.2596012 C121.132414,89.3440682 121.098177,89.4116418 121.063939,89.462322 L119.574596,92.731195 L119.369169,93.1366366 C119.300694,93.2717838 119.240777,93.406931 119.189421,93.5420783 L119.266456,93.5927585 L122.450569,93.5927585 C122.576108,93.5927585 122.699744,93.5908814 122.821479,93.5871273 L123.002654,93.5800884 C123.182401,93.5716417 123.36643,93.5674184 123.554738,93.5674184 L123.580416,93.5420783 Z M90.4962576,49.1837623 C90.8556772,49.5384476 90.8556772,50.4769699 90.4962576,51.999329 C91.2692087,51.6736002 91.9032417,51.6736002 92.3983566,51.999329 C93.1410289,52.4879222 93.901073,53.3319732 93.3494061,53.8763735 C92.9816281,54.2393071 92.0305786,54.2393071 90.4962576,53.8763735 L90.4962576,75.4623855 L91.4473071,75.4623855 L91.9579639,75.2545467 C93.1762753,74.7674243 93.9571059,74.5238632 94.3004556,74.5238632 C94.88415,74.5238632 94.9744384,74.6421342 95.2515051,75.4623855 C95.5285716,76.2826367 96.9620956,76.6642065 95.2515051,77.33943 C94.1111113,77.789579 92.5260288,77.789579 90.4962576,77.33943 C90.834174,78.0905949 90.834174,78.7162764 90.4962576,79.2164745 C89.989383,79.9667716 89.1342904,80.6880138 88.5941586,80.1549968 C88.2340709,79.7996521 88.2340709,78.8611298 88.5941586,77.33943 L71.7919674,77.33943 C72.2575114,78.2116734 72.4689614,78.8373549 72.4263174,79.2164745 L72.4015405,79.4087415 C72.3381944,79.8113916 72.2102802,79.9132199 71.4752679,80.1549968 C70.6352539,80.4313132 70.1379721,80.991042 69.573169,80.1549968 C69.1966336,79.5976333 69.1966336,78.659111 69.573169,77.33943 C67.9386952,77.60353 66.9876457,77.60353 66.7200206,77.33943 C66.3185827,76.9432799 66.9903239,75.9102383 67.67107,75.4623855 C68.1249008,75.1638169 68.7589338,75.1638169 69.573169,75.4623855 L69.573169,53.8763735 L68.6401278,53.9315343 C66.4801642,54.0479848 65.2060955,54.0295979 64.8179216,53.8763735 C64.1562615,53.6151957 64.6187941,52.5888429 64.8179216,51.999329 C65.0170491,51.4098151 64.4487974,51.0608068 65.7689711,51.0608068 C66.6490868,51.0608068 67.6001363,51.3736475 68.6221195,51.999329 L69.573169,51.999329 C69.2338186,51.2502866 69.2338186,50.6246051 69.573169,50.1222845 C70.0821945,49.3688036 70.9372586,48.6528396 71.4752679,49.1837623 C71.8339409,49.5377107 71.8339409,50.476233 71.4752679,51.999329 L72.6454127,51.9996099 C72.8205961,51.9888583 72.9984156,51.9892437 73.1767584,51.9998741 L88.5941586,51.999329 C88.2555648,51.2491669 88.2555648,50.6234854 88.5941586,50.1222845 C89.1020495,49.3704832 89.9571282,48.6517343 90.4962576,49.1837623 Z M88.4241731,59.2168181 L88.2655159,59.7995345 L88.0818241,60.4040147 C88.0031993,60.6501034 87.918312,60.9013147 87.8268573,61.1575274 L87.6351009,61.6765858 C87.5347539,61.9394135 87.4276363,62.2071621 87.3134429,62.4797106 L87.0755313,63.0311716 C86.9930224,63.2171014 86.9072784,63.4051286 86.8182089,63.5952174 L86.5409333,64.171633 L86.3946437,64.4644122 L86.0864219,65.0589792 L85.7568914,65.6653782 L85.4055102,66.2833944 L85.031736,66.9128127 C84.7749684,67.3361778 84.5029106,67.7670009 84.2148397,68.2049953 L83.7706332,68.8673296 C83.2915791,68.8017895 82.7638594,68.5050077 82.1882671,67.9776667 C82.4012033,68.6985609 82.3652631,69.524561 82.0804468,70.4556669 C81.9482345,70.8878877 81.4117673,71.4446237 80.9078799,71.9198468 L80.4749724,72.3199762 C78.4152635,73.7152828 75.9924401,74.206033 73.2076164,73.7921023 C71.7473735,73.371076 72.4446829,71.930595 73.6633289,70.7994565 L73.897535,70.5913175 L74.1415631,70.3923752 L74.3930164,70.2045762 C74.6398209,70.028396 74.8937262,69.8707002 75.1448804,69.7394896 C73.6572019,69.8527861 72.5000969,70.5018531 71.4751151,71.6561563 L71.4751151,75.4623855 L77.6093159,75.4636195 C81.4912321,73.670117 85.4966797,68.8066808 88.4757546,61.5297128 L88.5941586,61.2343881 L88.5950288,58.4911768 L88.5337857,58.766597 L88.4241731,59.2168181 Z M88.5947527,62.7126869 C85.866479,68.989407 82.3582091,73.3964574 78.8217391,75.4641399 L80.7964792,75.4631735 L80.9310104,75.2767009 L81.2094565,74.9142691 L81.6000269,74.4156367 L81.9717799,73.9514593 L82.3258561,73.5210024 L82.6633966,73.1235316 L83.0638065,72.6719607 L83.4423898,72.2693482 C83.5897549,72.1179036 83.7324163,71.9778647 83.8710158,71.8488184 L84.1429889,71.6052602 C85.4331869,70.4977198 86.3837941,70.3916358 87.5744566,70.9138047 C88.0635205,71.1282854 87.7031539,71.7618264 86.9350159,72.527968 L86.6927829,72.761502 L86.4287336,73.0012733 L86.145518,73.2455631 L85.845786,73.4926526 L85.5321874,73.7408232 L85.2073724,73.9883559 L84.8739908,74.2335322 L84.5346925,74.4746331 L84.1921276,74.70994 L83.8489461,74.9377341 L83.3388141,75.261579 L83.0056843,75.4630714 L88.5941586,75.4623855 L88.5947527,62.7126869 Z M71.4752279,65.8432619 L71.475761,70.836331 C72.612806,69.7394546 73.9296745,69.167052 75.5925568,69.1593501 C74.110287,68.3749523 72.5289687,67.1634836 71.4752279,65.8432619 Z M71.4744261,59.4923902 L71.4748403,64.8735959 C72.7397649,66.8535921 75.5681011,68.7805377 77.4813521,69.3490587 L77.5776931,69.3523395 L78.0447979,69.3761993 C78.5601944,69.4096031 78.9721344,69.4624924 79.2806177,69.5348673 L78.5203436,68.743614 C75.2102059,65.254026 72.8615667,62.1702847 71.4744261,59.4923902 Z M85.776199,53.8763735 L85.0198255,53.8754238 C84.7300576,54.2879164 84.4016867,54.8440601 84.0647338,55.4781506 L83.7895075,56.0095127 L83.5140844,56.5673739 L83.3774192,56.8537901 L83.108422,57.4366902 L82.8481894,58.0264764 L82.6003061,58.6153033 L82.3683567,59.1953256 L82.1559256,59.758698 L81.9551726,60.3315783 C81.8620691,60.6094929 81.7804163,60.8734345 81.71265,61.1180722 L81.8277205,61.4021303 L82.0913744,60.7152641 L82.346281,60.0691949 L82.5927684,59.4625417 L82.8311644,58.8939232 L83.0617971,58.3619582 L83.2849946,57.8652657 L83.5010848,57.4024645 L83.7103957,56.9721736 L83.9630006,56.4779234 L84.3009325,55.8625509 L84.4864061,55.5484895 L84.6667405,55.2600327 L84.8422636,54.9957993 L85.0133033,54.7544083 L85.1801877,54.5344784 L85.3432448,54.3346285 L85.5028026,54.1534776 L85.659189,53.9896445 L85.776199,53.8763735 Z M84.3409749,53.8754484 L76.8410891,53.8763735 L77.3885469,54.3611582 L77.7386225,54.6848025 L77.8560074,54.7974797 L78.2106303,55.1545496 L78.4493806,55.4117833 L78.6902584,55.687467 L78.9334864,55.9842585 L79.1792868,56.3048151 C79.4264476,56.6381402 79.6778009,57.0110995 79.9343476,57.435652 L80.1926626,57.877845 C80.5724976,58.5499536 80.9641179,59.3405721 81.3706409,60.2869361 L81.4922309,59.9236371 L81.6912812,59.3711314 L81.9116434,58.7982391 L82.0287913,58.5064109 L82.2749702,57.9165158 L82.5342595,57.3243364 L82.6677954,57.029653 L82.9405992,56.4476242 L83.2881227,55.7431811 L83.636909,55.0775963 L83.9125415,54.5826101 C84.0101476,54.4124969 84.1064923,54.2502824 84.2009001,54.0974574 L84.3409749,53.8754484 Z" id="linneja"></path>
                </g>
            </g>
        </g>
    </g>
</svg>