<?xml version="1.0" encoding="UTF-8"?>
<svg width="120px" height="36px" viewBox="0 0 120 36" version="1.1" xmlns="http://www.w3.org/2000/svg" xmlns:xlink="http://www.w3.org/1999/xlink">
    <title>partners-logo-tourdecrafts</title>
    <g id="Design" stroke="none" stroke-width="1" fill="none" fill-rule="evenodd">
        <g id="Group-16" transform="translate(-660, -459)" fill="#292C33">
            <g id="Clients" transform="translate(0, 397)">
                <g id="Client-5" transform="translate(640, 0)">
                    <path d="M82.5140257,83.7048565 L84.0572673,83.7076529 L84.4820126,84.1998174 C84.4763494,84.2249849 84.4763494,84.247356 84.4763494,84.261338 C84.4650228,84.2837091 84.4508646,84.3312477 84.4452014,84.3927683 L84.0572673,84.842987 L82.5140257,84.842987 L82.0465585,84.3012784 C82.088389,84.4555848 82.1270068,84.8938022 81.3473917,85.323966 C81.4323408,85.2848166 81.5172899,85.2680382 81.6079022,85.2764274 C81.8485913,85.2987985 82.0156578,85.5057314 82.0156578,85.5057314 L82.0411425,85.5644555 L82.0701274,85.6441397 C82.1177343,85.791591 82.17888,86.0677636 82.1854724,86.5139479 L82.1233333,90.6764545 L82.2110406,85.9168006 C82.2110406,85.8874385 82.231747,85.8612224 82.2564353,85.8511292 L82.2818315,85.8468909 L82.2903265,85.8496873 L82.0411425,85.5616592 L82.029816,85.5364916 L82.5140257,84.9744173 L84.0629305,84.971621 L84.5074974,85.4861566 C84.4980586,85.4936137 84.4886198,85.5010707 84.483376,85.5101849 L84.4477184,85.6172762 C84.4414259,85.6371617 84.4348187,85.6595328 84.4282116,85.6847003 L84.2753032,85.8608728 C84.2639767,85.8496873 84.2469869,85.8440945 84.229997,85.8440945 C84.2002649,85.8461918 84.1769039,85.8640188 84.1670816,85.8893174 L84.1616667,85.9203636 L84.1675241,85.8945169 C84.1781427,85.8685629 84.2030965,85.8496873 84.2328287,85.8496873 C84.2469869,85.8468909 84.2639767,85.8552801 84.2781349,85.8664656 C84.292293,85.8776512 84.3036196,85.8972259 84.3036196,85.9168006 L84.3614471,88.8069737 L84.3291043,86.6690294 C84.3206094,86.1768649 84.3800737,85.8636692 84.4282116,85.6902931 C84.448033,85.6147906 84.4678545,85.5644555 84.479181,85.5364916 C84.4810688,85.5197133 84.486732,85.5091492 84.4944928,85.5006564 L84.533915,85.4604429 C84.5981097,85.3955308 84.729174,85.2904094 84.9039264,85.273631 C84.9945387,85.2652419 85.0823194,85.2848166 85.1672685,85.323966 C84.5074974,84.9604354 84.4310432,84.591312 84.4508646,84.3927683 C84.4565279,84.3312477 84.4735177,84.2837091 84.4820126,84.261338 L84.4876759,84.1998174 C84.4990025,84.1243149 84.5329821,84.0124593 84.6292577,83.9173821 C84.7263424,83.8235033 84.8609895,83.7667195 85.0311354,83.7480497 L85.1374662,83.7414297 L85.2522176,83.7440059 C85.9686215,83.7887482 87.6902561,85.1254224 89.1089057,87.8491058 C89.7686769,89.1158703 90.3406673,90.9530983 90.4652593,91.3725567 L90.3548255,91.5011906 L90.2192042,91.057419 C89.9952784,90.3494638 89.5194929,88.9400835 88.9843137,87.9134228 C88.1501471,86.3105981 87.1730074,85.1561246 86.3857607,84.5036238 L86.2458333,84.392 L86.4235153,84.5455463 C86.9188704,84.9912684 87.4662369,85.618465 87.9307838,86.289688 L88.1008433,86.5431919 C88.896533,87.7763997 89.9159219,89.845728 90.2075804,91.6745668 L90.0914834,91.8087935 L90.0858201,91.8004043 C89.8224779,89.9687691 88.7860992,87.8658842 87.9819146,86.6214908 C87.5288529,85.9205291 87.0019588,85.2991092 86.5265237,84.8397188 L86.3525,84.6767273 L86.4730066,84.8022452 C86.6820364,85.0230434 86.9195792,85.2894772 87.2003831,85.6064014 C88.8087523,87.4212582 89.8621208,91.2718867 90.0235241,91.8898888 L89.9130903,92.0157263 L89.7818141,91.5346542 C89.4500001,90.3675353 88.5084013,87.3675679 87.1692351,85.7881667 C87.916787,86.9151117 88.6020429,88.5146465 89.0239566,89.745058 L89.1693504,90.1783703 C89.511723,91.2211936 89.6970531,91.9525608 89.7545187,92.1918988 L89.6412532,92.3177364 L89.63559,92.3093472 L89.5766733,92.060949 C89.4798058,91.6757465 89.2599263,90.8653615 88.8908697,89.7898002 C88.6643389,89.1303183 88.3748827,88.4067525 88.0536363,87.7129631 L87.8625,87.3137273 L87.9570591,87.5401566 C87.9904095,87.621459 88.0237599,87.7045221 88.0567956,87.7898638 L88.1829608,88.1287448 L88.576205,89.2328846 C88.9778797,90.3855139 89.2635566,91.3351281 89.448702,92.5246692 L89.3326049,92.6505067 C89.3297733,92.644914 89.32411,92.6421176 89.32411,92.6365248 C89.0862526,91.0565647 88.6728338,89.9100449 88.0498739,88.173487 L88.0215575,88.0979845 C87.679187,87.147212 87.3134145,86.4367904 86.9646616,85.9036906 L86.8625,85.7526364 L86.985675,85.960685 C87.4428714,86.7602984 87.883069,87.8164949 88.2753891,89.0665917 L88.3811753,89.4122876 C88.8993646,91.1404564 89.0919159,92.4939089 89.1372221,92.8518468 L89.0154617,92.9776843 L89.0069668,92.960906 L88.9502179,92.548823 C88.861954,91.9695809 88.6573086,90.8294786 88.2452567,89.4486407 C88.0399631,88.7611949 87.8209046,88.1300653 87.5913586,87.561725 L87.4575,87.2433636 L87.5431438,87.4718117 C87.6032276,87.6386338 87.6624264,87.814719 87.7203865,88.0018149 L87.8063532,88.2909354 L87.9054747,88.6487166 C88.3674702,90.3753642 88.8125278,92.8313399 88.865385,93.1314857 L88.7662778,93.2321558 C88.7492879,93.2237666 88.7351298,93.2069883 88.7322981,93.1874135 L88.4806936,91.8577145 C88.2750916,90.8166735 87.9704164,89.3750024 87.6704347,88.3300848 C87.5005365,87.7356523 87.318156,87.2418898 87.1286428,86.8206215 L87.0408333,86.6346364 L87.1026387,86.7798194 C87.7684099,88.4334509 88.305426,92.0393923 88.4677072,93.2156295 L88.5057672,93.4978128 L88.3840069,93.6208539 L88.3783436,93.606872 L88.2441769,92.6661649 C88.0271856,91.2138128 87.5686275,88.4418104 87.0276533,86.9822251 L87.0163268,86.9934106 C87.2881638,87.7987708 87.4552303,88.6432805 87.5684958,89.2165403 L87.6227457,89.5085607 C87.8398073,90.7485547 88.1515862,93.279247 88.2141088,93.7886373 L88.0923484,93.908882 L88.0866851,93.8949001 L87.8085934,91.7193384 C87.6830951,90.7813399 87.5394071,89.7781062 87.4325772,89.2417078 L87.3425,88.8052727 L87.3985534,89.1239099 C87.436692,89.3546121 87.4718219,89.5923052 87.5035894,89.8369893 L87.5486743,90.2092586 L87.7191798,91.8164182 C87.838504,92.9832431 87.9117136,93.7972595 87.9337768,94.0626835 L87.8091848,94.1829282 L87.8035215,94.1689463 L87.612608,92.143843 C87.5570068,91.5893645 87.4893902,90.9407433 87.4099242,90.2232406 C87.3464955,89.6617256 87.2667566,89.1395837 87.1707076,88.651088 L87.1,88.3184545 L87.1239551,88.4513653 C87.1712802,88.7276382 87.2192607,89.049223 87.271174,89.4290659 C87.5005365,91.0985105 87.5713274,93.8361759 87.5826539,94.403843 L87.4495671,94.5296805 L87.4439038,94.5129022 L87.4136118,93.4360775 C87.3945668,92.8961636 87.3650564,92.2096422 87.3210703,91.511581 L87.2945466,91.1153803 C87.2607909,90.6406447 87.2199801,90.1723894 87.1708506,89.7531834 L87.1324238,89.4486407 C86.9306698,87.9689311 86.7774712,87.3876736 86.5927116,86.887302 L86.5683333,86.8244545 L86.6129609,86.95687 C86.8874706,87.804373 87.0432676,88.8103496 87.1817646,90.499589 L87.2425315,91.3095635 C87.3650506,93.102881 87.3672136,94.2621593 87.364618,94.6107758 L87.2286995,94.7366134 L87.2230362,94.719835 L87.2250523,94.544177 L87.2220939,93.9914063 C87.2137929,93.4209563 87.1867353,92.5300143 87.1076256,91.3702505 L87.0502015,90.5911212 L87.0241667,90.2919091 L87.0671343,90.9157955 C87.1599496,92.4126789 87.1770936,93.8920349 87.1800049,94.5456879 L87.1805616,94.784152 L87.0446431,94.9099895 L87.0389799,94.8960076 L87.0346172,94.0813098 C87.0170457,92.5730045 86.9327486,89.3549838 86.5377803,87.756825 L86.4294904,87.3380099 C86.4118507,87.2727597 86.3944039,87.209727 86.3771325,87.1488237 L86.3166667,86.9463636 L86.3581529,87.0904098 C86.5229381,87.6833123 86.6523816,88.3965982 86.7375673,89.2060538 L86.7643112,89.479401 C86.8094221,89.976194 86.8461188,90.5179554 86.8759148,91.0622507 L86.8997995,91.5284202 C86.9740172,93.0777891 86.9954312,94.5488696 86.999337,94.9519354 L86.8634184,95.0749765 L86.857492,95.0291382 C86.8543554,94.6721583 86.8206293,91.6537492 86.6227294,89.4933829 C86.4318561,87.387598 85.9390194,85.854885 85.3237441,85.4271145 L85.2844275,85.4040127 L85.3145136,85.4274325 C86.5749961,86.4805321 86.7438586,92.2542335 86.7627769,94.4428942 L86.7643112,95.164461 L86.6283926,95.2875021 C86.625561,95.2847057 86.6227294,95.2819093 86.6227294,95.2763165 L86.622528,94.5567185 C86.6059049,92.478529 86.4471238,86.5546026 85.2239012,85.5336953 C85.124794,85.4526 85.0228551,85.4162469 84.9209162,85.4218397 C85.1021409,85.4693783 85.3598198,85.6343653 85.6061721,86.1405118 C85.8987094,86.7372035 86.2677985,89.2421168 86.384658,91.3975311 L86.4541368,92.7690259 C86.5254153,94.0530838 86.5983527,94.9976502 86.6227294,95.2930949 L86.4924741,95.4105432 L86.3672795,93.6238362 C86.3422021,93.2255757 86.31564,92.7743746 86.2899027,92.2848234 L86.2574483,91.6354173 C86.1555095,89.4458443 85.7789019,86.8060525 85.4815801,86.2020324 C85.4022943,86.0387232 85.3230085,85.9165769 85.2480721,85.8241395 L85.1941667,85.7616364 L85.2750027,85.8868016 C85.6138895,86.4694585 85.7807863,87.5499255 85.8917681,88.4476778 L85.9856113,89.2249295 C86.1300247,90.3798384 86.3565556,94.7757628 86.3933669,95.5028241 L86.26028,95.6202725 L86.0994464,92.6828335 L86.0117863,91.2726334 C85.9590757,90.4741718 85.905456,89.7623884 85.8592675,89.3473769 L85.7471246,88.4141837 C85.7150328,88.1586247 85.6772776,87.8846562 85.6317355,87.6118529 L85.5866667,87.3595455 L85.6206707,87.6388283 C85.6890615,88.2174824 85.7504518,88.8965152 85.8071132,89.5988977 L85.9318102,91.2439228 L86.0279718,92.600469 L86.1218838,94.2122903 C86.1576332,94.8960076 86.18241,95.4538873 86.1923207,95.6789966 L86.0564022,95.796445 L85.9576967,93.7809665 C85.9384254,93.4358813 85.9168261,93.0722793 85.8933501,92.7124748 L85.7470625,90.6647134 L85.6586535,89.5127804 C85.5620511,88.3203084 85.4510194,87.2074898 85.311682,86.5571738 L85.3063726,86.5431919 L85.3586891,86.9249309 C85.478762,87.8865802 85.6143055,89.6084536 85.7100675,91.3441117 L85.8212798,93.5815953 C85.8894374,94.8282546 85.9549558,95.6059258 85.9771164,95.8663548 L85.8468611,95.9810067 L85.7857833,95.2624758 C85.7408269,94.668596 85.6784673,93.7184904 85.6231619,92.4435739 C85.586917,91.5957086 85.5361741,90.7138392 85.4796319,89.888166 L85.44,89.3469091 L85.6121973,93.3844881 L85.7590804,96.0565092 L85.6259935,96.1711612 L85.5115703,94.1576732 L85.4483084,92.7962685 L85.3444359,90.2950918 L85.2666977,88.6640129 C85.2239714,87.856802 85.1787478,87.1683388 85.1341173,86.8090368 L85.1173609,86.6816132 L85.1116667,86.6550909 L85.1333795,86.8922932 C85.1520003,87.1490017 85.159204,87.4298711 85.1635534,87.7288611 L85.1754488,88.6557089 L85.4787485,96.2942024 L85.34283,96.4088543 L85.1491667,91.7114545 L85.2918605,96.4535966 L85.1531103,96.5682485 L85.1041667,94.9424545 L85.1304573,96.5850269 L84.9917071,96.6996788 L84.9658501,95.1682084 C84.9105388,92.2503613 84.8126754,88.8493164 84.6877007,86.9885435 L84.6725,86.7835455 L84.9350744,96.7444211 L84.7963242,96.8562767 L84.5984637,89.1877892 L84.5883333,88.847 L84.6207986,90.8254527 C84.6307695,91.3474767 84.6419086,91.8860156 84.6538531,92.4298923 L84.7240695,95.3535272 C84.7377395,95.880407 84.7515626,96.3925062 84.7651762,96.8786478 L84.3659156,97.1974362 L84.1620378,86.0006923 L84.1110683,86.0538237 C84.0997418,86.0426382 84.082752,86.0370454 84.0629305,86.0370454 C84.0541007,86.0379174 84.0458215,86.0404208 84.0383506,86.0443014 L84.0572673,86.0398418 C84.0770887,86.0370454 84.1054051,86.0566201 84.1054051,86.0566201 C84.1195632,86.0706021 84.1308898,86.0873804 84.1308898,86.1097515 L84.3262727,97.2198073 L84.1875225,97.3288665 L84.0233333,88.0214545 L84.0969102,97.3987762 L83.9553284,97.5078354 L83.864716,86.1097515 L83.8194098,86.1069551 C83.8194098,86.077593 83.8018891,86.0529498 83.7764044,86.0424634 L83.7486189,86.0370454 L83.7185197,86.0447096 L83.7429557,86.0398418 L83.7707411,86.0452598 C83.7962258,86.0557462 83.8137466,86.0803894 83.8137466,86.1097515 L83.8788742,97.569356 L83.7372924,97.6756188 L83.6833333,87.7023636 L83.655175,97.7371394 L83.5135932,97.8434022 L83.5416667,87.1950909 L83.4512972,97.8881444 L83.2955572,98 L83.2757357,98 L83.0520365,97.8378094 L82.9608333,87.1950909 L82.9897405,97.7930672 L82.8481587,97.6868044 L82.8191667,87.7023636 L82.7660413,97.6252838 L82.6244595,97.5162246 L82.6867555,86.1097515 L82.6414493,86.1069551 C82.6414493,86.077593 82.6239286,86.0529498 82.5984438,86.0424634 L82.5706584,86.0370454 L82.5425518,86.043881 C82.5259815,86.0525809 82.5140257,86.0687378 82.5083624,86.0873804 C82.4998675,86.0650093 82.4828777,86.0482309 82.457393,86.0426382 L82.3526224,85.9168006 L82.3412959,85.9391717 L82.1374181,97.1582867 L81.7381575,96.8394983 L81.8194526,93.7150453 L81.8494806,92.4139973 C81.8703835,91.4689287 81.8888195,90.5406947 81.9028458,89.6879177 L81.9141667,88.865 L81.7098411,96.8143308 L81.5710909,96.7024752 L81.7991359,87.9612504 L81.8366667,86.6878182 L81.8228802,86.8760169 C81.7325143,88.1789263 81.6562375,90.3253673 81.5998552,92.5316206 L81.5556449,94.4626795 C81.540118,95.2255659 81.5272494,95.9676033 81.5172899,96.6549366 L81.3785397,96.5402846 L81.4041667,94.9424545 L81.3587182,96.5235063 L81.2199681,96.4088543 L81.356113,91.7909184 L81.1689986,96.3641121 L81.0330801,96.2494601 L81.3144089,89.2821587 L81.3335481,88.664098 L81.3417284,88.0420567 C81.3473917,87.5219282 81.353055,87.0521348 81.3983611,86.6522511 L81.3870346,86.7277536 C81.3101759,87.2419897 81.2307095,88.7953377 81.1645611,90.303481 L81.0191768,93.7369069 C80.96791,94.7745324 80.9002764,95.8760023 80.8858351,96.1208262 L80.7499165,96.0061742 L80.8092357,95.0143626 C80.8340222,94.5813482 80.8614509,94.077146 80.8844082,93.5954243 L81.0195668,90.3638215 L81.0666667,89.3264545 L81.0265334,89.89094 C80.9841268,90.5101278 80.9449823,91.1607246 80.9127696,91.8040732 L80.8369631,93.3867858 C80.7597486,94.8427208 80.683845,95.7134855 80.6649675,95.9278753 L80.5318806,95.8132233 L80.5946933,95.0342659 C80.6311957,94.5304164 80.6758375,93.8276995 80.7184444,92.9385741 L80.7672904,91.8918476 C80.8772564,89.7065704 81.0618321,87.4197525 81.2029783,86.5292099 L81.1944834,86.5571738 C81.0337094,87.3075384 80.9106206,88.673661 80.8039002,90.0674138 L80.6420924,92.2805838 L80.5982088,92.9476175 C80.5187418,94.2255452 80.4639213,95.4877236 80.4525948,95.7405172 L80.3166762,95.6202725 L80.3986383,93.932644 C80.4245821,93.4519107 80.4553995,92.9262853 80.4899978,92.4191922 L80.6356703,90.4140523 C80.7089084,89.4336639 80.7889675,88.4412721 80.8848564,87.6395237 L80.9208333,87.3513636 L80.8756097,87.613031 C80.8310114,87.8868053 80.7934923,88.1611622 80.7609284,88.4168765 L80.6593042,89.2445042 C80.5120591,90.4301734 80.2742017,95.0526054 80.248717,95.5671411 C80.2034108,95.5279916 80.1581046,95.4888422 80.1127985,95.4468963 L80.2872542,92.2941783 C80.3577796,91.1232322 80.437115,89.949554 80.5028135,89.352269 L80.612419,88.4468351 C80.7245796,87.5479185 80.8897331,86.4691732 81.2283621,85.8867708 L81.3083333,85.7616364 L81.2552616,85.8241395 C81.1990593,85.8934676 81.1404104,85.9795069 81.08115,86.0870896 L81.0217536,86.2020324 C80.7346843,86.7879242 80.3737029,89.2690034 80.257396,91.407685 L80.165846,93.1521874 C80.0962209,94.3307387 80.0300014,95.1600986 80.0136912,95.3574118 L79.8806043,95.2399635 L79.9644152,94.0952191 C79.9898287,93.7166959 80.0179525,93.2688891 80.0458678,92.7700847 L80.1043035,91.6298245 C80.2090741,89.4290659 80.5913449,86.7613103 80.89433,86.1433082 C81.1406823,85.6371617 81.3983611,85.4721747 81.5795858,85.4246361 C81.477647,85.4190433 81.3757081,85.4526 81.2766008,85.5364916 C80.0571132,86.5540483 79.8962736,92.4668676 79.8787879,94.5501102 L79.8777727,95.2343707 L79.7361909,95.1057368 L79.7365912,94.6105233 C79.7479003,92.5593375 79.8916016,86.5078793 81.1859885,85.4274325 L81.2157206,85.4054109 L81.2454528,85.3854866 C80.6246711,85.7296576 80.1164637,87.1933152 79.9020771,89.2444597 L79.8777727,89.4933829 C79.6823898,91.6354173 79.6455785,94.6247578 79.6427469,95.0190487 L79.5039967,94.8904148 L79.5268891,93.6797708 C79.5556596,92.5162943 79.6160486,90.8304566 79.7390225,89.479401 C79.9062239,87.6337838 80.296874,86.2497929 80.8131301,85.5931471 L80.89,85.5006364 L80.8434778,85.5479112 C80.5568554,85.8488352 80.2955135,86.4163241 79.9655534,87.756825 C79.5171117,89.5657947 79.4699073,93.4410484 79.4649384,94.5753564 L79.4643538,94.8540617 L79.322772,94.7226314 L79.3324246,93.7507882 C79.3437615,93.0381269 79.3688434,92.0707967 79.426286,91.0827053 L79.4721146,90.3717599 L79.4360375,90.8160752 C79.3315466,92.1727729 79.2954475,93.2153054 79.2838598,93.8799097 L79.2802975,94.6806856 L79.1387157,94.5464589 L79.1430296,93.8973991 C79.1537189,93.2714935 79.1864537,92.3065081 79.2781508,91.0582926 L79.2972873,90.8048896 C79.4341,89.0334504 79.5799803,87.976144 79.8403975,87.1081812 L79.9308333,86.8244545 L79.9074072,86.8872817 C79.7407311,87.3332084 79.6029055,87.8416356 79.4319747,88.9955148 L79.3680782,89.4458443 C79.1302208,91.1824022 79.0650932,94.0906474 79.0565983,94.46816 L78.9178481,94.3367297 L78.945654,93.3734977 C78.9826053,92.3300851 79.0584181,90.7729693 79.2006935,89.6245091 L79.2264964,89.4262696 C79.2576444,89.1983638 79.2873766,88.991431 79.3164009,88.8026747 L79.3958333,88.3184545 L79.326691,88.6472178 C79.2541785,89.0130527 79.1904327,89.3992229 79.1372886,89.8063325 L79.0877463,90.2204442 L78.9891168,91.1252032 C78.8136563,92.7741655 78.7162776,93.9098142 78.6969805,94.124204 L78.5667253,93.9983665 L78.6756331,92.816733 C78.7404159,92.1431867 78.8307445,91.2475095 78.9461645,90.2064622 C78.988639,89.8268524 79.0390775,89.4661181 79.0962854,89.1207203 L79.1458333,88.829 L79.0622615,89.2361151 L79.0075007,89.5324913 C78.9312041,89.9708727 78.8430465,90.5699243 78.7582351,91.1834575 L78.4138169,93.8473615 L78.2863933,93.7215239 L78.4806297,92.18721 C78.6094949,91.2035469 78.7724211,90.0269171 78.8957799,89.3541449 L78.9235114,89.2081512 C79.0241918,88.6985868 79.1673816,87.9747017 79.3888785,87.252535 L79.4708333,86.993 L79.4163287,87.1479433 C78.8895421,88.672598 78.4498592,91.3692251 78.2466127,92.7457464 L78.1306533,93.5677225 L78.0060613,93.441885 L78.1199711,92.6345586 C78.342679,91.1241259 78.8216064,88.2209601 79.4001266,86.783919 L79.4641667,86.6321818 L79.3746909,86.8234178 C79.1851776,87.2446862 79.0027972,87.7384487 78.832899,88.3328812 L78.7272113,88.7155531 C78.3753914,90.0374527 78.033896,91.779514 77.8706677,92.6486087 L77.7710356,93.1902099 L77.7653723,93.1985991 L77.6464436,93.075558 L77.9121551,91.680079 C78.1168021,90.6511381 78.4070412,89.2920429 78.6941489,88.2937318 C78.7790979,87.9980136 78.8672326,87.7274629 78.9573583,87.4773608 L79.0408333,87.2499091 L78.9103364,87.5673178 C78.7280105,88.02199 78.5513479,88.5168474 78.3828656,89.0485757 L78.2580769,89.4542334 C77.9318725,90.5498589 77.7351304,91.4924659 77.6238132,92.1238012 L77.5482916,92.5850248 C77.5231114,92.7528523 77.5085025,92.8689447 77.5020302,92.9245529 L77.3774382,92.7931226 L77.4529006,92.2977594 C77.5579792,91.6681332 77.7620965,90.6339809 78.1249901,89.415084 C78.5432009,88.0134475 79.0217306,86.8357869 79.5204903,85.9634814 L79.6383333,85.7616364 L79.542144,85.9064849 C79.2298174,86.3862558 78.900603,87.0094872 78.5901719,87.8205957 L78.4874394,88.0979845 L78.1916024,88.9271363 C77.7224119,90.2521807 77.3974774,91.2738226 77.1962135,92.5917826 L77.0744531,92.4603522 C77.277387,91.1973163 77.5924065,90.1983838 78.0424531,88.9246672 L78.3543526,88.0504459 C78.4185363,87.8696127 78.4839786,87.6999651 78.5506793,87.5373602 L78.6416667,87.3210909 L78.4543775,87.7101667 C78.1965937,88.2651982 77.9610436,88.8392867 77.7611511,89.3843755 L77.6181272,89.7870038 L77.4824382,90.1935114 C77.1187553,91.3050793 76.9303378,92.0663557 76.8847335,92.2590122 C76.8479223,92.21427 76.811111,92.1723241 76.7714681,92.1303783 L76.8607089,91.7871215 C76.9781775,91.3493117 77.1820553,90.6378053 77.487872,89.7422616 C77.8746262,88.6143844 78.4826611,87.1763411 79.1571197,86.0764651 L79.3408333,85.7878182 L79.2087635,85.949688 C77.707533,87.8636356 76.7367603,91.4870489 76.6157281,91.9570021 L76.5024627,91.8283682 L76.6182777,91.4107613 C76.9764962,90.1617637 77.9409337,87.1451148 79.3086139,85.603605 L79.7719403,85.0862729 C79.8190162,85.0345397 79.8647157,84.9846708 79.9091304,84.9366143 L80.1533333,84.6767273 L79.9853049,84.8342219 C79.5098698,85.2941034 78.9829757,85.9177328 78.529914,86.6186944 C77.7342243,87.8519022 76.7120037,89.9268233 76.4345034,91.7472729 L76.3155747,91.6102498 C76.6213914,89.795393 77.6266221,87.7624178 78.4138169,86.5431919 C78.9659859,85.6930895 79.6767265,84.8849329 80.2742017,84.3899719 C79.4615222,85.0135668 78.4166485,86.2104215 77.5303465,87.9134228 C76.8592488,89.2053548 76.2787634,91.1013069 76.1768246,91.4424664 L76.0692224,91.3138325 L76.1637389,91.0075031 C76.3888433,90.2940731 76.8666111,88.8802745 77.4057545,87.8463094 C78.8244041,85.1198296 80.5460387,83.7859518 81.2624426,83.7412095 C81.5427746,83.7244312 81.7523156,83.7831554 81.8854025,83.9145857 C82.0156578,84.046016 82.0326476,84.2054102 82.0354792,84.2585416 L82.5140257,83.7048565 Z M82.5706584,86.0426382 L82.5984438,86.0480562 C82.6239286,86.0585426 82.6414493,86.0831858 82.6414493,86.1125479 L82.5565002,97.4630932 L82.4149184,97.354034 L82.4875,88.0214545 L82.3243061,97.2841243 L82.1855559,97.1750651 L82.3781072,86.1153443 C82.3781072,86.0761948 82.4177501,86.0426382 82.4488981,86.0454345 L82.457393,86.0482309 C82.4800461,86.0510273 82.4998675,86.0678057 82.5083624,86.0929732 C82.519689,86.0650093 82.5395104,86.0426382 82.5706584,86.0426382 Z M22.8174777,75.1898502 L22.9277756,75.2607219 L23.0525035,75.346448 C23.1714322,75.4303397 23.2762027,75.4974531 23.3639834,75.5477881 L27.2574828,77.7960853 C27.3160033,77.829642 27.3833333,77.8656843 27.4611508,77.9042124 L27.7735201,78.053465 C27.8036487,78.0686773 27.8260753,78.0807577 27.8407998,78.0897062 C27.971055,78.1652087 28.0078663,78.2491004 27.9540652,78.3413813 C27.9002642,78.4336621 27.8039885,78.4392549 27.6652384,78.360956 L27.5471931,78.2854535 L27.4245493,78.2015618 C27.3084522,78.1204665 27.209345,78.0561495 27.1300592,78.0086109 L25.7425576,77.2060471 L22.4040589,82.8407721 C21.9821451,83.5538514 21.6055376,84.2249849 21.2742362,84.8485798 L21.1915535,84.8004655 L21.9258207,85.3388866 C24.621356,87.2767787 30.1796171,90.8714189 37.2135146,93.2433413 C43.0750009,95.2203888 48.7977371,95.9726176 54.2259831,95.4832494 C61.0077511,94.8708401 67.3449522,92.3065508 73.0648567,87.857495 L73.2036069,88.0308712 C67.4497227,92.5078909 61.0672154,95.0889584 54.2401413,95.7041642 C53.1641196,95.8020378 52.0767714,95.8495764 50.9780967,95.8495764 C46.504112,95.8495764 41.8630608,95.0470126 37.1342288,93.4502742 C27.1102377,90.0722355 20.0707909,84.2165958 20,84.1578716 L20.1472451,83.9872918 L20.1673822,84.0039351 L20.0707909,84.1522788 C20.5436741,83.4364031 20.9514297,82.7876407 21.2997209,82.2031953 L24.6358333,76.5701818 L23.2393915,75.7631101 C23.1865343,75.7332819 23.123609,75.6997252 23.0497767,75.6632686 L22.7173086,75.5026963 C22.7010267,75.4943071 22.6872225,75.4869666 22.6758959,75.4806747 C22.5371458,75.4023758 22.4975029,75.3156877 22.5513039,75.2234069 C22.605105,75.131126 22.6957174,75.1199405 22.8174777,75.1898502 Z M85.4447688,77.3878124 L85.427779,77.3822196 L85.7514998,77.3955127 C87.6762568,77.4930194 96.0108159,78.0817165 96.1002147,78.0869098 L96.105878,78.152625 L96.1087096,78.2183401 L96.0888882,78.2239329 C96.0718984,78.2211365 96.0464136,78.2239329 96.1087096,78.2295257 L96.1087096,78.6797444 L96.1002147,78.8754917 L90.9098261,78.4084946 L96.0945515,78.9649761 L96.0888882,79.1047956 L90.646484,78.5203502 L96.0888882,79.1551306 L96.0849947,79.2264386 L96.0772077,79.4403624 L96.0690667,79.5829782 C96.0180973,80.3687637 95.9161584,81.1126033 95.7632501,81.8340718 L92.5293088,81.2688548 C91.4948169,81.0907915 90.4241062,80.909399 89.4317122,80.7462763 L95.7490919,81.9011852 L95.7151122,82.0382083 L92.6456189,81.4705412 L95.7037857,82.0829505 L95.6698061,82.2199736 L92.240695,81.5348582 L95.6584795,82.2647158 L95.6244999,82.4045353 L95.5655061,82.4019672 C95.5508774,82.4035651 95.5589677,82.4097286 95.6188366,82.42411 L95.553709,82.6813779 L95.5200918,82.6802593 C95.509762,82.681266 95.5134998,82.6852928 95.5508774,82.6953598 L95.5112345,82.8295865 L91.1584457,81.8285707 C88.8714981,81.3128049 86.4061682,80.7761627 85.6967844,80.6931449 L86.1267135,80.7745788 C86.9466009,80.9356931 88.2555936,81.2172634 89.6398494,81.521795 L95.5084028,82.8379757 L95.3951374,83.2126919 L95.3162367,83.2030528 C95.2611727,83.1989616 95.2399637,83.2054213 95.3866425,83.2406558 L95.3441679,83.3832717 C95.3016934,83.3860681 95.2535556,83.4056428 95.3271781,83.4280139 L95.2337341,83.6936709 C95.1969229,83.6908745 95.1431218,83.6992637 95.2224076,83.7244312 L95.1742698,83.8586579 L92.2896611,83.0754582 C91.1424774,82.7695755 89.8153606,82.4227496 88.6190327,82.1276927 L89.9491242,82.4798397 C92.3636084,83.1256243 94.8949811,83.833196 95.15728,83.9061965 L95.1091422,84.0432196 C95.0666676,84.0432196 94.9987084,84.0599979 95.0921523,84.0907582 L95.0383513,84.2221885 L91.8012187,83.2643153 L90.2792139,82.8257157 L89.2292077,82.5294332 C89.0566699,82.481287 88.8859973,82.4339604 88.7181399,82.387757 L94.9845502,84.3564152 L94.9307491,84.4850492 L90.8093675,83.1842282 L88.4774509,82.4576667 L89.5571886,82.8166549 C91.9839495,83.6356071 94.6178533,84.5958009 94.8514633,84.6807964 L94.7976622,84.8094304 L92.2752023,83.9066041 C90.7877249,83.3816829 88.9299376,82.7398498 87.5240226,82.2998449 L87.3433333,82.2434545 L88.0942142,82.5009404 C90.7320181,83.4229296 94.4292921,84.8821365 94.7098815,84.9939921 L94.6504171,85.122626 L91.8017914,84.0180521 L93.1545793,84.6109903 C93.9535201,84.9678924 94.5078915,85.2270245 94.5852895,85.2624455 L94.5258252,85.388283 L93.1233151,84.7470211 C92.5786338,84.5038983 91.9173292,84.2144725 91.2154592,83.9196056 L91.0358333,83.8446364 L91.1518479,83.894546 C91.3371734,83.9750767 91.5429504,84.0672878 91.7587429,84.1657997 L92.5222694,84.520214 L94.136152,85.2939399 L94.4890139,85.4665819 L94.4267179,85.5924194 L93.490356,85.1381058 C92.6517603,84.7348788 91.4551601,84.1688643 90.7767392,83.8894182 C90.3328803,83.7090511 89.8985782,83.5381217 89.4786112,83.37781 L89.0716667,83.2236364 L89.3604346,83.3411947 C89.6610747,83.4640174 89.9732626,83.5950982 90.2981928,83.7356168 L90.7297822,83.9292332 C92.115565,84.5664241 94.220858,85.6561771 94.355927,85.7266461 L94.2907994,85.8496873 L92.8693517,85.123404 C92.0626816,84.7171632 91.0787982,84.232204 90.3778425,83.9212501 L89.8861897,83.7100997 L89.5408333,83.5656364 L90.1562387,83.8535736 C92.1994842,84.8279189 94.0604072,85.8923958 94.2200085,85.983914 L94.1548809,86.1097515 L93.4213034,85.6983842 C92.8115992,85.3621011 91.8825282,84.8617674 90.852847,84.3500156 L90.4783333,84.1653636 L91.0518118,84.4630597 C92.0785172,85.0044179 92.9790455,85.5284271 93.5341307,85.8597707 L94.1039114,86.2048288 L94.0359522,86.3278699 L93.5041967,86.0041221 C92.6134284,85.4709603 90.7464812,84.3911704 88.9248494,83.5706298 C88.7341859,83.4848738 88.5397469,83.4028464 88.3448884,83.3245475 L88.0625,83.2138182 L88.3995285,83.357172 L88.7526439,83.5137699 L89.1089057,83.679689 L89.5285362,83.8836968 C91.6968129,84.9547964 93.8269259,86.2596549 94.0104674,86.3726121 L93.9396765,86.4928569 L93.1534448,86.0213724 L92.2983333,85.5243636 L92.7597852,85.8245075 C93.3803731,86.2361243 93.772787,86.533055 93.8717173,86.6103052 L93.8009264,86.7333464 L93.5101085,86.5157086 C93.0637277,86.1906346 92.1385069,85.5497709 90.8857397,84.8543672 L90.5,84.644 L90.6701891,84.7408862 C91.7899898,85.3818038 92.7584093,86.0957677 93.2984571,86.5159817 L93.7273038,86.8591839 L93.6565129,86.9822251 L93.4241777,86.7922155 C92.8948136,86.3682329 91.5409869,85.3327485 90.0091718,84.5382964 L89.8441667,84.4541818 L90.0324356,84.552522 C91.8781192,85.5304104 93.1921479,86.6721315 93.5458575,86.9946002 L93.6112068,87.0549312 L93.5347526,87.1751759 L93.2459481,86.9160115 C92.6044696,86.3599219 90.9642102,85.0442448 88.8257421,84.1271113 L88.2358557,83.8767338 C87.4806018,83.5602272 86.8503929,83.3128027 86.3452291,83.1315966 L86.9216725,83.3751929 C88.226465,83.9408567 89.9994552,84.791508 90.5643665,85.1561827 C92.0424805,86.1125479 93.1638083,87.2199182 93.3733494,87.4324438 L93.2968952,87.5554849 L93.1158403,87.3766455 C92.7158904,86.9895056 91.7275154,86.0782383 90.4879124,85.2764274 C90.0817496,85.0116443 89.0409575,84.4937114 88.0048318,84.0152564 L87.8025,83.9223636 L88.061251,84.0609579 C89.1235479,84.6352369 90.2763415,85.3354268 91.0078571,85.8727249 L91.1816632,86.0034887 C92.1642408,86.7613103 92.9401091,87.6198019 93.1213338,87.8267347 L93.0392163,87.9469795 L92.8328166,87.7169764 C92.5120011,87.3693502 91.8690428,86.7102762 91.0938825,86.1125479 C90.303856,85.502935 88.834237,84.6164795 87.5939805,83.9705135 C89.4232173,85.0387343 90.9409741,86.2663493 91.7225056,87.0353565 L92.0853829,87.3985587 C92.5491995,87.871903 92.7610081,88.1282205 92.8438334,88.2350076 L92.7588844,88.3580487 L92.6044302,88.1673945 C92.4437008,87.9787944 92.1455853,87.6499042 91.6233984,87.1360265 L91.3475683,86.8740289 C90.5973887,86.1834761 89.4023626,85.2404714 87.9804342,84.3654345 L87.695,84.1923636 L88.0107067,84.4141998 C88.4384876,84.7218474 88.8829411,85.0717317 89.3382682,85.4609891 C90.9523007,86.845202 92.3114859,88.5426104 92.481384,88.7551361 L92.3992666,88.869788 L92.3879401,88.8641952 L91.9966717,88.3867472 C91.4577034,87.7463385 90.4195992,86.5736026 89.2476559,85.5700483 C88.3106418,84.769264 87.425112,84.1394986 86.6485077,83.7101656 L86.42,83.5877273 L86.8050876,83.8401243 C87.67424,84.4153081 88.6201211,85.1167812 90.0269982,86.7678889 L90.6360756,87.4999192 C91.6089177,88.6847258 91.9404327,89.1574935 92.0481438,89.3479706 L91.9575314,89.4682154 L91.8420636,89.2812716 C91.6646144,89.0186181 91.2203622,88.4158408 90.1141364,87.0884879 C89.0001376,85.7514847 88.1720849,85.0040262 87.4505613,84.463768 L87.3208333,84.3682727 L87.4896528,84.5075239 C87.8992145,84.851894 88.3476035,85.2774631 88.8428135,85.8197556 L89.0579362,86.0594165 C90.2840346,87.4492221 91.3713828,89.5101612 91.5922504,89.9436016 L91.4959748,90.0666428 L91.2952543,89.6820535 C90.8944408,88.9342418 89.9700715,87.3061187 88.9503341,86.148901 C88.5207345,85.6623292 88.1265014,85.2641005 87.7605021,84.931322 L87.585,84.7757273 L87.7632444,84.9586681 C87.9482295,85.1543706 88.1376999,85.3724219 88.3298207,85.616446 L88.5227571,85.869262 C89.4968398,87.1863615 90.9296476,89.9436016 91.1901581,90.4525445 L91.0938825,90.5727893 L90.6855101,89.7919368 C90.131176,88.7474241 89.1401422,86.9400171 88.4094916,85.9531537 C87.4857491,84.7003712 86.6515002,84.1148555 85.9047562,83.6565085 L85.8370041,83.6170433 C86.1925271,83.8402653 86.5876765,84.1166839 86.9749832,84.4412037 L87.2060464,84.641647 C88.2112771,85.5504736 89.2051813,87.0353565 90.1594426,89.0543497 L90.3990291,89.5718435 C90.7265732,90.2955306 90.8523606,90.6520751 90.9013312,90.8132788 L90.8503618,90.8803921 C90.833372,90.9055596 90.8135505,90.9279308 90.7937291,90.9503019 L90.7535559,90.8074285 C90.6848447,90.5949859 90.5037695,90.1132865 90.032019,89.1130739 C89.3326049,87.6329849 88.6136584,86.44947 87.8842479,85.5692463 L87.7291667,85.3885455 L87.8850602,85.5841875 C88.2789062,86.0939897 88.6649487,86.6994637 89.0605076,87.4190295 L89.230666,87.7344539 C90.2019172,89.5716818 90.5558716,90.7853149 90.646484,91.1292708 L90.5360502,91.2607011 L90.4811743,91.0519661 C90.3531957,90.6004176 89.9809552,89.4560045 89.1060741,87.7987708 C87.9960728,85.6958859 86.9766839,84.5214022 85.6996161,83.8642507 C85.0216238,83.5159751 84.6049342,83.2354702 84.5030609,83.0680339 L84.0685938,83.5734262 L82.5253522,83.5734262 L82.0383109,83.0085555 L82.0383109,83.0001663 L82.5253522,82.438092 L84.0685938,82.438092 L84.4791667,82.9119091 L84.4840708,82.8574728 C84.4963281,82.7557152 84.5325101,82.6170609 84.6434159,82.5191873 C84.7028802,82.4660559 84.7793344,82.4297028 84.8671151,82.4157209 L84.9329775,82.4037853 C84.9634568,82.3968065 84.9656693,82.39048 84.9311613,82.3769791 L84.8982631,82.3653859 C84.7453548,82.3150509 84.6320893,82.2367519 84.5584668,82.1332855 C84.4763494,82.0186336 84.4678545,81.9011852 84.4706861,81.8200899 L84.4757201,81.758155 C84.4769786,81.7501802 84.4782371,81.7436552 84.479181,81.7389946 L84.4837955,81.6928024 C84.4854735,81.6827561 84.4876759,81.6718812 84.4905075,81.6606957 C84.5018341,81.6047679 84.5301504,81.5320618 84.6009413,81.4593556 C84.7396915,81.314992 84.9716644,81.236999 85.2968601,81.2235031 L85.4419372,81.2216625 C85.5721925,81.2244589 85.3626514,81.160142 85.2267329,81.1489564 C84.9010948,81.1209925 84.6773955,81.0231189 84.5584668,80.8525391 C84.479181,80.7406835 84.4706861,80.6288279 84.4706861,80.550529 L84.4848443,80.4302843 C84.4848443,80.4190987 84.4876759,80.4051168 84.4905075,80.3883384 C84.5018341,80.3296142 84.5301504,80.2541117 84.603773,80.1758128 C84.7425231,80.0314492 84.9744961,79.9534562 85.2996917,79.9399603 L85.4447688,79.9381197 C85.7909835,79.9459496 85.5969976,79.8880084 85.2956293,79.8575124 L85.2295645,79.8514316 C84.9039264,79.8262641 84.6802272,79.7283905 84.5612984,79.5578107 C84.4933392,79.4599371 84.4735177,79.3620635 84.4735177,79.2837645 C84.4706861,79.2278368 84.4763494,79.1802981 84.4820126,79.1607234 L84.4848443,79.1131848 C84.4933392,79.0544606 84.5216555,78.9649761 84.603773,78.8782881 C84.7623446,78.7133011 85.0426765,78.6350022 85.4447688,78.6405949 L85.6378732,78.6529953 C85.7485629,78.6622242 85.8909538,78.676149 86.0592338,78.6937263 L85.3492454,78.607213 L85.2295645,78.5958527 C84.9039264,78.5706852 84.6802272,78.4728116 84.5612984,78.3022318 C84.4876759,78.195969 84.4735177,78.0897062 84.4735177,78.0114073 L84.4785518,77.929587 C84.4798103,77.9191264 84.4810688,77.9107373 84.4820126,77.9051445 L84.4836906,77.870345 C84.4845296,77.8628879 84.4857882,77.8548095 84.4876759,77.8464203 C84.4990025,77.7904925 84.5273188,77.7066008 84.603773,77.6255055 C84.7623446,77.4605185 85.0426765,77.3794232 85.4447688,77.3878124 Z M94.8542949,65.0753091 C96.8789146,67.6843406 96.9128942,71.498616 94.9307491,73.7636915 L94.7608509,73.6182793 C96.6778684,71.4315026 96.6382255,67.7402684 94.6759019,65.2123322 C92.6654404,62.6256718 88.6077061,61.0485081 85.0483398,63.2240992 C82.9377165,64.5145421 81.3418838,67.2210045 83.0665452,70.9981128 L84.0600989,70.9980622 L84.5046657,71.5153943 L84.4933392,71.5209871 L84.4848443,71.5433582 L84.4820126,71.5936932 L84.4961708,71.6272499 L84.0591667,72.1331818 L82.5140257,72.1333964 L82.0325,71.5743636 L82.0326476,71.5881004 L82.0011899,71.6565246 C81.9947745,71.6688462 81.9873414,71.6824786 81.9788465,71.6971596 C81.9618567,71.7754585 81.9250454,71.8817213 81.8372647,71.9823914 C81.7353258,72.0998397 81.5880808,72.1893242 81.4011928,72.2480484 C81.8882342,72.3543112 82.0326476,72.8101227 82.0326476,72.8157155 L82.5083624,72.2704195 L84.0544356,72.2704195 L84.4933392,72.7793624 L84.479181,72.8185118 C84.479181,72.8213082 84.4650228,72.8716432 84.4593596,72.941553 L84.0572673,73.4057537 L82.5083624,73.4057537 L82.0408333,72.8621818 L82.0449565,72.8809292 C82.058479,72.9691745 82.0678408,73.1349033 81.9731832,73.2883053 C81.8769076,73.4421067 81.7070095,73.5399804 81.4663204,73.5819262 L81.3728764,73.5931118 C81.6135655,73.623872 81.7947902,73.6965782 81.9080556,73.8168229 C82.0142824,73.9297971 82.0288091,74.047946 82.0297618,74.096605 L82.5111941,73.5399804 L84.0572673,73.5399804 L84.4848443,74.0349413 L84.4694276,74.1576717 C84.4684837,74.1707216 84.4678545,74.1850142 84.4678545,74.1999283 L84.0572673,74.6753145 L82.5083624,74.6753145 L82.0308333,74.1213636 L82.0347858,74.1445875 C82.0441475,74.2189894 82.0451877,74.359722 81.9505301,74.4963456 C81.8464675,74.643156 81.66219,74.7385828 81.3995945,74.7770059 L81.2822641,74.7899665 C81.2086415,74.7983557 81.0698914,74.8039484 80.8801718,74.8095412 L80.9821107,74.8095412 C81.3813713,74.8011521 81.6645349,74.8822473 81.8231065,75.0472343 L81.8655811,75.1031621 C81.9392036,75.1618863 81.9816781,75.2206105 82.0043312,75.2625563 C82.0156578,75.2737419 82.0241527,75.2849274 82.0269843,75.296113 L82.0269843,75.3380589 L82.0297111,75.3641585 L82.5111941,74.8123376 L84.0572673,74.8123376 L84.479181,75.3017058 L84.479181,75.3296697 L84.4749335,75.3765092 C84.4742256,75.3988803 84.4749335,75.4275433 84.479181,75.4611 L84.0572673,75.9476718 L82.5111941,75.9476718 L82.0291667,75.3903636 L82.0290911,75.4322189 C82.0243792,75.5001376 82.0026322,75.5891746 81.9392036,75.676422 C81.8967291,75.7351462 81.842928,75.7798884 81.7749687,75.8162415 C81.6447135,75.9280971 81.4521622,75.9980068 81.1944834,76.0175815 L80.9959149,76.0287671 C80.9084881,76.0322626 80.800886,76.0357581 80.676294,76.0399526 L81.0812179,76.0343599 C81.446499,76.0259707 81.7239993,76.1098624 81.8825709,76.2804421 C82.0099945,76.4174652 82.0269843,76.5656739 82.0269843,76.6271944 L82.5083624,76.0791021 L84.0544356,76.0791021 L84.479181,76.5712667 L84.4763494,76.6467692 L84.4667008,76.7002113 C84.4656521,76.7120183 84.4650228,76.7250681 84.4650228,76.73905 L84.0544356,77.2144363 L82.5083624,77.2144363 L82.027746,76.6591871 C82.0392409,76.7212536 82.0584746,76.8851691 81.9476985,77.0410601 L81.9646883,77.0494493 C81.8606257,77.1962597 81.6763482,77.2916865 81.4137526,77.3301096 L81.2964223,77.3430702 C81.1875756,77.3518684 80.920612,77.3708708 80.5388269,77.3972569 L81.0000803,77.3752416 L81.0529016,77.3738305 C81.4549939,77.3654413 81.7353258,77.4465366 81.8938974,77.6115236 C81.9859256,77.7093972 82.0091293,77.8111547 82.0143075,77.8682477 L82.0156578,77.91633 C82.0269843,77.980647 82.0411425,78.1372448 81.9335403,78.2910462 C81.8294777,78.4403035 81.6452002,78.5360362 81.3826046,78.5744975 L80.9167578,78.62542 C80.784071,78.6414235 80.6218637,78.6617232 80.4356049,78.6853372 L80.8569656,78.6434321 C80.9123104,78.6386872 80.95973,78.6352794 80.9984978,78.6335347 L81.0500699,78.6322058 C81.4521622,78.6238166 81.7324942,78.7049119 81.8910658,78.8698989 C81.983094,78.9677725 82.0062976,79.06953 82.0114759,79.126623 L82.0128261,79.1747054 L82.0153038,79.1844927 L82.0156578,79.1942801 C82.0241527,79.2669862 82.029816,79.4096021 81.9307087,79.5494216 C81.81178,79.7172049 81.5880808,79.817875 81.2624426,79.8430425 L81.1336003,79.8550748 C80.9105991,79.880239 80.7729757,79.9197398 80.9306722,79.9283618 L81.0472383,79.9297305 C81.4493306,79.9241378 81.7296625,80.0024367 81.8882342,80.1674237 C81.9652547,80.2479597 81.9933445,80.3284957 82.0043992,80.3846919 L82.0128261,80.4470626 L82.0128261,80.4582482 L82.0180931,80.4879975 C82.0285446,80.5606873 82.0330521,80.7079258 81.9335403,80.8469463 C81.8294777,80.9962036 81.6452002,81.0919363 81.3826046,81.1303975 L81.2652743,81.1433636 C81.1293557,81.1545492 80.9198147,81.2160697 81.0500699,81.2160697 C81.4521622,81.210477 81.7324942,81.2887759 81.8910658,81.4537629 C81.9930047,81.5628221 82.0099945,81.6746776 82.0128261,81.7222163 L82.0128261,81.7389946 L82.0180931,81.7669911 C82.0285446,81.8373819 82.0330521,81.9890717 81.9335403,82.1304891 C81.8701117,82.2222107 81.7758748,82.292456 81.6522796,82.3426568 L81.4989367,82.394489 C81.4817371,82.4023603 81.5031317,82.4036032 81.5597644,82.4073317 C81.6786931,82.4157209 81.7749687,82.4520739 81.8514229,82.5191873 C81.9852177,82.6366357 82.0122952,82.8122839 82.0150826,82.916362 L82.0128261,83.0281302 L82.000695,83.0598375 C81.9193066,83.2173401 81.492749,83.5068721 80.7923911,83.8670471 L80.7838962,83.8642507 C79.5068284,84.5214022 78.4874394,85.6958859 77.3774382,87.7987708 L77.1576519,88.2254525 C76.3239523,89.88314 76.0271835,90.9464299 75.9644519,91.2019769 L75.8540181,91.0677502 L75.9377863,90.783385 C76.1119378,90.2265074 76.4949527,89.1713118 77.2528462,87.7344539 C77.7084249,86.871923 78.1483423,86.1662662 78.598452,85.5840955 L78.7566667,85.3844545 L78.5992643,85.5692463 C77.9259624,86.3817605 77.2615764,87.4527003 76.6132391,88.7767826 L76.4514932,89.1130739 L76.1557002,89.7566944 C75.8444329,90.4540938 75.7403055,90.7667704 75.706773,90.8859849 L75.5991708,90.7517582 L75.6324094,90.6531254 C75.7238513,90.3924221 75.9177299,89.9103945 76.3240696,89.0515533 C77.2783309,87.0325601 78.2722351,85.5476772 79.2774659,84.6388506 C79.7337638,84.2265829 80.2191871,83.8821133 80.6463596,83.6142469 L80.8058333,83.5157273 L80.7172993,83.5691549 C79.9792406,84.0139688 79.1559143,84.5540364 78.2433429,85.723564 L78.071189,85.9503573 C77.0999379,87.2646604 75.6642985,90.0330861 75.4122829,90.5196579 L75.3160072,90.3994131 L75.7523722,89.5709555 C76.3217119,88.5066908 77.2594533,86.8158917 77.9579235,85.869262 C78.2269289,85.503401 78.4900351,85.1938562 78.747242,84.9260631 L78.895,84.7757273 L78.7201785,84.931322 C78.4151791,85.2086374 78.0905729,85.5314043 77.7422321,85.912871 L77.5303465,86.148901 C76.3042482,87.5387066 75.2197316,89.6052385 75.0101906,90.0135114 L74.9167466,89.8904702 L75.1057241,89.5338997 C75.5317552,88.7469393 76.4337106,87.1817754 77.425576,86.0566201 C78.0044882,85.3954293 78.5229922,84.897741 78.9930205,84.5026714 L79.1583333,84.365 L79.032951,84.4582026 C78.3565225,84.9649592 77.5864651,85.6556185 76.5749435,86.8394595 L76.3693758,87.0828951 C75.0045273,88.718783 74.6477412,89.2528934 74.5542972,89.4122876 L74.4636848,89.2920429 L74.5658073,89.1371151 C74.7826372,88.8219387 75.2518235,88.2028491 76.2617736,86.9934106 C77.7113534,85.2542714 78.6824705,84.5021915 79.5593921,83.9138258 L80.0731555,83.5762226 C79.2406546,84.0040702 78.2694035,84.678 77.238688,85.5616592 L76.9042,85.8557254 C75.4738998,87.1448151 74.3107765,88.5911478 74.1267202,88.8222494 L74.0417711,88.704801 L74.291417,88.3981756 C74.7992861,87.7865956 75.8975414,86.52631 77.1480757,85.4553963 C77.7172345,84.9688246 78.2694035,84.5437733 78.7932561,84.1858355 C77.0546317,85.223296 75.6161606,86.3893905 74.8629455,87.1304337 L74.6041281,87.3881158 C74.0876688,87.9091226 73.8522403,88.1913839 73.7614391,88.3077137 L73.6793217,88.1846726 L73.7874553,88.0532494 C73.9536725,87.8582512 74.2521212,87.5329141 74.7638382,87.0297637 L75.0528452,86.755661 C75.8407502,86.0324184 77.1080359,85.0401072 78.6066105,84.1347996 L78.89,83.9657273 L78.623455,84.106277 C77.5365773,84.6850807 76.3305234,85.4153297 75.5723467,85.9694796 L75.3924614,86.1041587 C74.4353685,86.8396092 73.6821533,87.6701369 73.4839388,87.8938481 L73.4018214,87.7736033 L73.5716089,87.5874621 C73.903599,87.2301845 74.5398059,86.5818479 75.3046807,85.9923031 C75.9624293,85.4865561 77.0841038,84.791796 78.1579295,84.1985864 L78.685,83.9133636 L78.0696224,84.1996611 C77.2501459,84.5866852 76.4806433,84.9740043 76.0884341,85.211793 L75.9984315,85.2680382 C74.5741186,86.1880504 73.4811072,87.2562712 73.2319232,87.5051499 L73.1554691,87.3821088 L73.3166417,87.2235757 L73.4899105,87.0591156 C73.9769076,86.6039482 74.8581832,85.8360867 75.9219773,85.1477935 C76.5760852,84.7255387 78.8527205,83.6489287 80.1439464,83.1232074 L79.741605,83.2718635 C79.173828,83.4870737 78.4806435,83.770292 77.6606018,84.1215185 C75.1376142,85.2037213 73.3083774,86.8396092 72.9940658,87.1304337 L72.9176116,87.010189 L73.0679175,86.8742629 C73.5521014,86.4456891 74.7894766,85.4261657 76.4579754,84.5434258 L76.6283333,84.4541818 L76.4795826,84.5300559 C75.1786826,85.2040703 74.0063166,86.0509776 73.3565962,86.5518365 L72.8723055,86.9374828 C72.8496524,86.895537 72.8269993,86.8563875 72.8015146,86.8144417 L73.1239132,86.5562227 C73.6497311,86.1441412 74.6470826,85.4018673 75.8065675,84.7375864 L75.9875,84.635 L75.7892817,84.7418232 L75.382375,84.9677654 C73.933145,85.7885739 72.962125,86.5117605 72.727892,86.6914005 L72.6571011,86.5683594 L72.984055,86.3264778 C73.2272537,86.1517646 73.5773776,85.9093511 74.0191046,85.6253259 L74.1825,85.5194545 L73.5540223,85.8855752 L72.5919735,86.4593002 L72.5211826,86.3390555 L73.0838152,86.0012384 C73.9787798,85.4701924 75.7008266,84.4765668 77.3746065,83.6768926 C77.612464,83.5631727 77.8503214,83.4556671 78.0848228,83.3543756 L78.4291667,83.2080909 L78.1413506,83.3205083 C77.9462824,83.3988072 77.7512141,83.4820774 77.5586629,83.5678334 L77.113239,83.7728568 C74.961101,84.7847255 72.858604,86.0693392 72.4956979,86.2943132 L72.4277386,86.1712721 L73.076871,85.7804154 C73.6714873,85.428226 74.5833375,84.9029244 75.6044662,84.3688042 L76.0091667,84.1588182 L75.2226599,84.5502635 C73.8050363,85.2680548 72.6503488,85.9223934 72.3796008,86.0761948 L72.3144732,85.9531537 L72.9583155,85.5929569 C73.785859,85.1365336 75.233511,84.3604203 76.7235006,83.6669855 L76.935,83.5689091 L76.5973225,83.7100997 L76.2419522,83.8614543 L75.9374257,83.9971536 C74.6516284,84.5815163 72.6202899,85.6281272 72.2465139,85.8217234 L72.1813863,85.6986822 L73.3405784,85.1044845 C74.2336689,84.6522865 75.4185996,84.0649454 76.1853195,83.7328204 L76.818544,83.4640174 C77.0241916,83.378378 77.2245298,83.2965836 77.4199127,83.2182847 C77.0100334,83.3692897 76.5842262,83.5328785 76.1472694,83.7078713 L75.706773,83.8866218 C74.6845524,84.3032838 72.4956979,85.3743011 72.1105954,85.5616592 L72.0482994,85.4358216 L73.6537845,84.6633592 C74.2235101,84.3934362 74.8375074,84.108072 75.3173566,83.8991877 L74.6266432,84.1917335 C74.080194,84.4271199 73.5764083,84.6501348 73.1568871,84.8385097 L72.0143198,85.3603191 L71.9548554,85.2344816 L73.000539,84.7560211 C73.3657029,84.5913898 73.8014759,84.3974542 74.2780159,84.1905713 L74.68,84.0164545 L71.8925594,85.0974585 L71.8330951,84.9688246 L73.7607602,84.2171409 C74.3211608,84.0011454 74.9585489,83.7576095 75.6176159,83.5098626 L76.6681999,83.1185849 L77.5657194,82.7912958 C77.8599192,82.6853126 78.1474239,82.5831689 78.4230677,82.4870436 L79.1391667,82.2418182 L78.7619539,82.3603153 C77.044919,82.9048969 74.7445097,83.7121863 73.2368636,84.2500546 L71.7453144,84.7870592 L71.6915133,84.6584253 L73.0176876,84.1792526 C73.6244071,83.9621336 74.3792401,83.6943905 75.1815521,83.415043 L76.5766532,82.934801 L77.5395402,82.6112701 C77.697218,82.5589633 77.8529814,82.5076628 78.0060613,82.4576667 L71.6122275,84.4654744 L71.5584264,84.3340441 L77.7653723,82.3849606 L76.0947527,82.8545329 C73.9958929,83.4540545 71.9285126,84.0748273 71.5046253,84.2026138 C71.4621508,84.0991474 71.4253395,83.9928846 71.3856966,83.8894182 L75.5372426,82.747091 C76.3468207,82.5280216 77.1803896,82.3051812 77.946597,82.1053216 L76.8226873,82.387266 L75.0809245,82.8390861 C73.3030592,83.3074011 71.7425568,83.7377003 71.3687068,83.8418796 L71.2157985,83.4112356 L73.8265668,82.7512876 L71.195977,83.3609006 C71.1789872,83.3161583 71.1676607,83.2686197 71.1535025,83.2238775 L71.2036329,83.207617 C71.21454,83.2005742 71.1855943,83.2005742 71.1478392,83.2043027 L71.0345738,82.8239938 L75.497892,81.8190666 L78.1694592,81.232166 C79.2921946,80.9895166 80.2546319,80.7884707 80.7838962,80.6931449 L80.6090092,80.7170244 C79.9107463,80.822966 78.332413,81.1576789 76.6487186,81.5307535 L72.8916663,82.3816888 C71.9778336,82.5921422 71.2826315,82.7543382 71.0317421,82.8128082 C70.977941,82.6254501 70.9298032,82.438092 70.8844971,82.2479375 L74.237154,81.5320618 L70.8731705,82.2031953 L70.8391909,82.0661722 L73.8350617,81.4677448 L70.8278643,82.0242263 L70.7938847,81.8872032 L76.05827,80.9187973 L77.0491667,80.7412727 L75.1912171,81.0529987 C73.6093398,81.321876 72.007443,81.602371 70.7797265,81.8200899 C70.6013335,80.9699875 70.4965629,80.083532 70.4540884,79.1467415 L75.8285333,78.5203502 L70.4512568,79.0964064 C70.4484251,79.0516642 70.4455935,79.0041256 70.4455935,78.956587 L75.5651912,78.4084946 L70.4427619,78.8671025 L70.4374525,78.7720253 L70.434267,78.676948 C70.4286037,78.4728116 70.434267,78.2742679 70.4427619,78.0757242 L70.8516954,78.04474 C70.6705388,78.0569034 70.5410199,78.0655691 70.4739099,78.0701315 C70.4852364,77.8715878 70.4993946,77.6730441 70.5220477,77.4800933 L74.6788892,77.2647713 L70.5277109,77.4297583 C70.5588589,77.1668976 70.6041651,76.9096298 70.6579662,76.6579547 L75.9361355,76.487375 L70.6664611,76.6104161 C70.6891142,76.5097461 70.7145989,76.4090761 70.7400836,76.3112024 L74.3957256,76.2440891 L70.7514102,76.272053 C71.1903137,74.6277759 72.0936056,73.2351739 73.2715661,72.2061025 L73.2857243,72.2061025 L73.2772294,72.2005097 L73.4301377,72.0718758 L73.4556225,72.0718758 L73.4386326,72.0634867 C73.716133,71.8313863 74.0106231,71.6216571 74.3136081,71.4315026 L74.3419245,71.4315026 C74.3362612,71.4287062 74.3334296,71.4231134 74.3277663,71.4231134 C74.3957256,71.3783712 74.4665165,71.3364254 74.5373074,71.2944795 L74.5854452,71.2944795 C74.5741186,71.2916831 74.5656237,71.2860904 74.5571288,71.2804976 C74.6902157,71.2021987 74.8289659,71.1294925 74.967716,71.0623792 L75.0045273,71.0623792 C74.998864,71.0567864 74.998864,71.0511936 74.998864,71.0456008 L75.1715938,70.9617092 L75.1829204,70.9617092 C75.2565429,70.9225597 75.3273338,70.8917994 75.4009563,70.8610391 C75.4094512,70.8638355 75.4179461,70.8638355 75.4292727,70.8638355 C75.4236094,70.8610391 75.4236094,70.85265 75.4236094,70.8498536 L75.6416454,70.7631655 L75.7995091,70.7743511 C75.7747323,70.7631655 75.7577424,70.7435908 75.7492475,70.7212197 L75.9531253,70.6485135 L76.0352428,70.6596991 C76.0267479,70.6485135 76.0267479,70.6345316 76.0267479,70.623346 L76.2079725,70.5646218 L76.3637125,70.5841966 C76.352386,70.5702146 76.3495543,70.5534363 76.352386,70.5338616 L76.3580493,70.522676 L76.4967994,70.4863229 L76.6355496,70.508694 C76.6213914,70.4947121 76.6128965,70.4751374 76.6128965,70.4555626 L76.8224375,70.4108204 L76.8705753,70.4192096 C76.8649121,70.4108204 76.8649121,70.4052276 76.8649121,70.3996349 L77.1056011,70.3548926 L77.4875382,70.4134628 C77.5134572,70.4163139 77.4920105,70.4106053 77.3972596,70.3912457 C77.3604484,70.3856529 77.3434585,70.3520962 77.3434585,70.3185396 C77.4284076,70.307354 77.5105251,70.2989648 77.5954741,70.2905757 L77.7370559,70.3213359 C77.7257294,70.307354 77.7257294,70.293372 77.7257294,70.2765937 C77.8361632,70.2682045 77.946597,70.2626118 78.0570308,70.2598154 L78.187286,70.2849829 L78.187286,70.257019 L78.5497354,70.2514262 L79.1795161,70.3993088 C79.4850143,70.4736874 79.8258593,70.561204 80.1326199,70.6513099 C80.9452994,70.889003 81.9958363,71.4958196 82.0071629,71.5014123 L82.0269843,71.5181907 L82.0322936,71.5391636 L82.0316667,71.5612727 L82.5140257,70.9980622 L82.8181932,70.9978156 C81.1012657,67.1399647 82.7525404,64.3660468 84.9294111,63.0339447 C87.6704347,61.3589073 92.0821234,61.5043196 94.8542949,65.0753091 Z M46.597556,81.2664048 C48.1379659,81.2552192 49.3612326,81.5963787 50.2645245,82.2954761 C51.1253418,82.9582205 51.5585821,83.8418796 51.5699086,84.9436571 C51.5840668,86.4844677 50.8025353,87.5806524 49.2253141,88.2322112 C49.8959647,89.4508483 50.6453991,90.0897265 51.4784326,90.1464681 L51.6180464,90.1505345 C51.8190926,90.1505345 51.9210315,90.1868875 51.9210315,90.2651864 C51.9210315,90.3518745 51.8332508,90.3966167 51.6576893,90.3966167 C51.1140152,90.4022095 50.6298055,90.2344261 50.2078917,89.8932666 C49.785978,89.5549035 49.3697275,89.0207931 48.961972,88.2965282 C48.6873033,88.3804198 48.401308,88.4251621 48.1096495,88.4279585 C47.7415369,88.4307549 47.4442151,88.3552523 47.2205159,88.1958581 C46.9968166,88.0392603 46.8835512,87.8491058 46.8835512,87.6253947 C46.8835512,87.4520185 46.9458472,87.312199 47.0732708,87.2059362 C47.2035261,87.0996734 47.3705926,87.0437456 47.5801336,87.0409492 C48.1153128,87.0353565 48.6136807,87.3513485 49.0695741,87.9833325 C50.556183,87.4156654 51.2924083,86.400576 51.2782501,84.9352679 C51.2697552,83.8922146 50.8648313,83.0644833 50.0634783,82.4520739 C49.275906,81.8570022 48.217,81.5445026 46.8890626,81.5168486 L46.3880149,81.5152834 L46.4446476,88.0448531 L46.4549835,88.6274315 C46.4681098,89.1371 46.4923809,89.7075064 46.5267651,90.3406889 L45.119442,90.3518745 L45.1468145,89.5279753 C45.1606581,88.9981112 45.1656921,88.5071895 45.1619166,88.0560387 L45.1222737,83.5762226 C45.1166104,82.8966999 45.088294,82.1332855 45.0401562,81.2803867 L46.597556,81.2664048 Z M36.7123151,80.5477326 L38.1139748,80.6931449 L38.0081559,81.4151678 C37.9267979,81.9932378 37.8623638,82.5119966 37.8138214,82.969406 L37.5306578,85.6847003 C37.3919077,87.0185781 37.4740251,88.0085 37.7770102,88.654466 C38.1026483,89.3367851 38.7171133,89.7226868 39.6260684,89.8149677 C40.5605082,89.9100449 41.3278816,89.6471843 41.93102,89.0263858 C42.5341585,88.4055874 42.9022711,87.4660005 43.0325264,86.2076251 L43.5365576,81.3698712 C43.5507158,81.2300517 43.6073485,81.1657347 43.7007925,81.1741239 C43.7810221,81.1811149 43.8219235,81.2327704 43.8251354,81.3258539 L43.8116793,81.4926886 L43.3921441,85.5308989 C43.2364042,87.0297637 42.9617355,88.0812062 42.5709697,88.6908191 C41.8573975,89.7981894 40.7927024,90.2819648 39.3768844,90.1365525 C37.0011419,89.896063 35.9562683,88.402791 36.2422635,85.6651256 L36.5367536,82.8379757 C36.6075445,82.1640458 36.6670089,81.4006315 36.7123151,80.5477326 Z M60.5546893,80.8693174 C61.4608128,81.1517528 62.18288,81.6187498 62.7237224,82.2759014 C63.2645649,82.9302566 63.5845397,83.7244312 63.6808153,84.6528325 C63.8648717,86.3977796 63.3013761,87.7708069 61.9931603,88.769118 C61.5570884,89.0962956 61.0643838,89.3423779 60.517878,89.5073648 C60.1101225,89.6248132 59.5579535,89.7198905 58.8670343,89.7898002 L56.9188688,89.9911402 C56.8678994,89.1382414 56.808435,88.3720307 56.7376441,87.6981008 L56.2675926,83.2434522 C56.1968017,82.5695223 56.0948628,81.8089043 55.9646075,80.9671911 L57.5899665,80.7994077 C58.954815,80.6595882 59.943056,80.6819593 60.5546893,80.8693174 Z M57.8929516,81.0175261 L57.329456,81.0762503 L58.2270846,89.6052385 L58.838718,89.5409215 C59.8552752,89.4374551 60.64247,89.2445042 61.2031339,88.9592725 C61.9790022,88.5621852 62.5623192,87.9889253 62.9559166,87.2366965 C63.3495139,86.4844677 63.4939274,85.6343653 63.3948201,84.6863892 C63.2985445,83.7719698 62.9785696,83.0001663 62.4320639,82.373775 C61.8855582,81.7473838 61.1493329,81.311147 60.2233879,81.0650647 C59.7023669,80.9280416 58.9264987,80.9112633 57.8929516,81.0175261 Z M68.9957959,79.3257104 C69.0127857,79.4167928 68.9632032,79.4791123 68.8506147,79.510908 L68.7890865,79.5242541 C68.7409487,79.5326432 68.6446731,79.5438288 68.5002596,79.5550143 C68.3586778,79.5661999 68.2425808,79.5801818 68.1519684,79.5969602 L65.4420929,80.06955 L65.9064812,82.6729887 L69.6810518,82.0186336 C69.8226336,81.993466 69.8990878,82.0242263 69.913246,82.108118 C69.9250444,82.1733671 69.8778505,82.2211388 69.7700255,82.251433 L69.6678224,82.2732616 L69.0439337,82.3793678 L65.9489557,82.919071 L66.9513548,88.5398141 L70.4314353,87.9357939 C70.5701855,87.9106264 70.6494713,87.9413867 70.6636295,88.0252784 C70.6777876,88.1035773 70.6154917,88.1539123 70.4739099,88.1790798 L65.6714554,89.0152003 C65.5638532,88.1650979 65.4477561,87.4072763 65.3288274,86.7361428 L64.538801,82.3122545 C64.4198723,81.641121 64.2641323,80.8888922 64.0715811,80.0555681 L68.1066622,79.3536743 L68.2125864,79.333271 L68.7437803,79.2054656 C68.8910254,79.1802981 68.9759745,79.2194476 68.9957959,79.3257104 Z M32.0740955,79.1970765 C33.3030254,79.5494216 34.1836642,80.248519 34.7188434,81.297165 C35.2511909,82.3458111 35.3304767,83.5119056 34.9538692,84.8010412 C34.5602718,86.1433082 33.835373,87.1500084 32.7763412,87.8155492 C31.720141,88.4810899 30.5789917,88.6404841 29.3585566,88.2909354 C28.0560041,87.9190156 27.1102377,87.2003434 26.5240891,86.1321226 C25.9351088,85.0639018 25.8303383,83.8838254 26.2097775,82.5863006 C26.6798291,80.981173 27.6595751,79.8877847 29.1433523,79.3033393 C30.0692972,78.9398086 31.0462116,78.9034556 32.0740955,79.1970765 Z M27.5774577,82.9610168 C27.1753654,84.3312477 27.1442174,85.4553963 27.4868453,86.3278699 C27.8266416,87.2031398 28.5090659,87.7847889 29.5312864,88.0784098 C30.6186346,88.388809 31.6550134,88.223822 32.6404226,87.5806524 C33.6258319,86.9374828 34.3054245,85.9811176 34.6792005,84.7059639 C35.0303233,83.5035164 34.9538692,82.3961461 34.4470063,81.3894459 C33.9571333,80.4107095 33.2010866,79.7759291 32.178866,79.4851046 C29.9758533,78.8531206 28.4439382,80.0108258 27.5774577,82.9610168 Z M47.5857969,87.2926243 C47.2828119,87.2954207 47.1327352,87.4072763 47.1355668,87.6309874 C47.1355668,87.7791961 47.2261791,87.9106264 47.4017406,88.0196856 C47.577302,88.1287448 47.817991,88.1846726 48.1181445,88.1818762 C48.3446753,88.1818762 48.5797011,88.1455231 48.8203902,88.0756134 C48.432456,87.5498921 48.0190372,87.2870315 47.5857969,87.2926243 Z M136.295286,65.2626672 C136.938068,65.1172549 137.283527,65.1340333 137.32317,65.3102058 C137.342992,65.3968939 137.309012,65.4528217 137.2184,65.4723964 C137.235389,65.4696 137.147609,65.4612109 136.955057,65.4500253 C136.762506,65.4388397 136.56146,65.4556181 136.349087,65.5031567 C135.768602,65.6317906 135.326867,65.8918549 135.026713,66.2833494 C134.72656,66.6748439 134.630284,67.1082843 134.740718,67.5836705 C134.829915,67.9762836 135.075078,68.2850889 135.476207,68.512125 L135.615694,68.584778 C135.754444,68.6658733 136.38873,68.8867881 137.521385,69.2531151 C138.254778,69.496401 138.789958,69.7508725 139.126922,70.0137331 C139.529014,70.3381143 139.795188,70.788333 139.928275,71.3615929 C140.103837,72.1110253 139.956591,72.8017335 139.492203,73.4337175 C139.00233,74.0964619 138.25761,74.5410878 137.260874,74.764799 C137.066306,74.808249 136.875452,74.8356962 136.688428,74.8473706 L136.1395,74.9079619 C128.869044,75.7595258 126.470396,77.210148 122.893672,79.7078157 L121.445783,80.7217595 C119.956802,81.7593827 118.239434,82.9199541 115.921666,84.2669308 C112.549188,86.2244035 109.694899,87.0381584 107.047319,87.0381584 C104.040122,87.0409492 101.299098,85.9867104 98.3796816,84.3676008 L95.8425359,82.969406 L95.9529697,82.7736587 L98.4901154,84.1718535 C103.907035,87.1779723 108.6925,88.2070437 115.808401,84.0767763 C117.830189,82.9022927 119.395369,81.8690073 120.749765,80.9355277 L123.177924,79.240852 C126.492305,76.9483948 128.95894,75.5733007 135.653629,74.7427595 L136.559295,74.6374829 C136.762318,74.6199522 137.033763,74.5611597 137.229726,74.5159203 C137.923477,74.3593225 138.438835,74.068498 138.772968,73.6406504 C139.107101,73.2128028 139.20904,72.712249 139.075953,72.1389892 C138.979677,71.7195307 138.747483,71.3811676 138.37937,71.1238998 C138.122635,70.9349881 137.718236,70.7460765 137.170149,70.5591288 L136.36966,70.2953827 C135.712692,70.0723146 135.282976,69.8996803 135.080514,69.7788364 C134.542504,69.4572516 134.197044,68.9706798 134.046967,68.3163246 C133.891227,67.6451911 134.029978,67.0132071 134.460386,66.4203725 C134.890795,65.8275379 135.502428,65.4416361 136.295286,65.2626672 Z M84.0572673,81.1629383 L84.4876759,81.6634921 L84.4773981,81.7227341 C84.476664,81.7306054 84.4763494,81.7371303 84.4763494,81.741791 L84.4694276,81.7888118 C84.4684837,81.7992723 84.4678545,81.8107686 84.4678545,81.8228863 L84.0572673,82.2982725 L82.5111941,82.2982725 L82.0241527,81.7334018 L82.5111941,81.1629383 L84.0572673,81.1629383 Z M102.805529,72.4745559 C103.218947,72.6898779 103.442647,72.8632541 103.479458,72.991888 C103.502111,73.0785761 103.473795,73.1345039 103.394509,73.1540786 C103.354866,73.1652641 103.298233,73.1373003 103.227442,73.0673905 C103.094355,72.9555349 102.983922,72.8716432 102.898973,72.8157155 C102.049482,72.2704195 101.134863,72.1278036 100.155117,72.3850715 C97.9379464,72.9695169 97.2272058,74.7396315 98.0228955,77.6982117 C98.3938398,79.0768317 98.9516721,80.0555681 99.6992239,80.6372171 C100.443944,81.2188661 101.31892,81.3782603 102.32415,81.1126033 C103.595555,80.7770366 104.447877,79.9856583 104.881118,78.7356722 C104.912974,78.6370995 104.940051,78.5196511 104.96235,78.3845068 L104.983057,78.2435076 C104.994383,78.1288557 105.025531,78.0645387 105.073669,78.0505567 C105.169944,78.0253892 105.23224,78.0589459 105.257725,78.1568195 C105.314358,78.3525668 105.220914,78.6965227 104.983057,79.1970765 C104.445046,80.3240215 103.536091,81.0538792 102.259023,81.3894459 C101.013103,81.7166235 99.8549639,81.5712112 98.7874372,80.9532091 C97.7199105,80.335207 97.0120015,79.3816382 96.6637103,78.095299 C96.2248067,76.4650039 96.4909805,75.0248632 97.4622316,73.7748771 C98.0738649,72.9890916 98.8893761,72.4633704 99.908765,72.194917 C100.962134,71.9180744 101.927721,72.0103553 102.805529,72.4745559 Z M84.0600989,79.8933775 L84.4876759,80.3911348 C84.4848443,80.4051168 84.4820126,80.4218951 84.4820126,80.4330807 L84.4770573,80.4456644 L84.4694276,80.5162474 C84.4684837,80.5278472 84.4678545,80.5402756 84.4678545,80.5533254 L84.0572673,81.0287116 L82.5168573,81.031508 L82.029816,80.4694337 L82.029816,80.4554518 L82.5140257,79.8933775 L84.0600989,79.8933775 Z M110.014874,70.85265 C111.011609,71.2916831 111.648727,72.0439119 111.929059,73.1121327 C112.319825,74.6054048 111.82712,75.8525945 110.456609,76.8620912 C111.403567,77.8846867 112.286991,78.3250135 113.109286,78.1830715 L113.24577,78.1540232 C113.441153,78.1036881 113.548755,78.1176701 113.568577,78.1931726 C113.59123,78.2770643 113.514775,78.3413813 113.344877,78.3833271 C112.818193,78.5175538 112.308499,78.4700152 111.815794,78.2407112 C111.323089,78.0114073 110.790742,77.5947452 110.21592,76.9879287 C109.969567,77.1361373 109.703394,77.2479929 109.42023,77.3179027 C109.063444,77.4073871 108.757627,77.4045907 108.50278,77.3039207 C108.247933,77.2032507 108.092193,77.0466529 108.03556,76.8313309 C107.993085,76.6635475 108.01857,76.5153389 108.117677,76.3783158 C108.216785,76.2440891 108.366861,76.1490118 108.570739,76.0986768 C109.088929,75.9672465 109.649592,76.1546046 110.247068,76.6579547 C111.552452,75.7547209 112.01684,74.5914228 111.648727,73.1736533 C111.385385,72.1641567 110.790742,71.4566701 109.861965,71.05399 C108.887882,70.6345316 107.6901,70.6065677 106.271451,70.9673019 L106.064741,71.0204333 L107.715585,77.3402738 L107.868213,77.903889 C108.005337,78.3958253 108.167433,78.943404 108.355535,79.5466252 L106.993518,79.8933775 C106.817957,79.057257 106.645227,78.310621 106.475329,77.6562658 L105.342674,73.3190656 C105.169944,72.661914 104.957572,71.9264636 104.702725,71.1099178 L106.211987,70.7268124 C107.698595,70.3520962 108.967168,70.3940421 110.014874,70.85265 Z M84.0572673,78.6210202 L84.4820126,79.1131848 L84.4770573,79.1401 L84.4694276,79.2313581 C84.4684837,79.2474115 84.4678545,79.2651219 84.4678545,79.2837645 L84.0572673,79.7591508 L82.5111941,79.7563544 L82.029816,79.1998729 L82.0269843,79.1802981 L82.5111941,78.6210202 L84.0572673,78.6210202 Z M84.0572673,77.3514593 L84.4848443,77.8464203 L84.4788664,77.870345 L84.4694276,77.9664579 C84.4684837,77.9803363 84.4678545,77.9955611 84.4678545,78.0114073 L84.0572673,78.4867935 L82.5111941,78.4867935 L82.0269843,77.9275156 L82.0269843,77.9135337 L82.5111941,77.3514593 L84.0572673,77.3514593 Z M116.100059,68.4561441 L120.554222,75.1171441 C120.882692,75.6009195 121.230983,76.0958804 121.599096,76.6048233 L120.183278,76.8844623 C120.13514,76.7670139 119.968074,76.4929677 119.682078,76.0595274 L118.314398,73.9901991 L114.667251,74.7116676 L114.078271,77.6283019 L114.013143,78.0589459 C113.99049,78.1652087 113.948016,78.2239329 113.882888,78.2379148 C113.766791,78.260286 113.701663,78.2239329 113.681842,78.1260593 L113.685439,78.0900169 C113.69607,78.0189679 113.729351,77.8464203 113.786613,77.5723741 L114.358603,74.7759845 L113.395847,74.9633426 C113.248602,74.9941029 113.166484,74.9633426 113.149494,74.879451 C113.132505,74.8011521 113.200464,74.7480206 113.347709,74.7200568 L114.420899,74.5103275 L115.630008,68.6015564 C115.666819,68.4086055 115.734778,68.3023427 115.833885,68.2827679 C115.924498,68.2659896 116.012278,68.3219174 116.100059,68.4561441 Z M87.9904095,70.2626118 L88.3500273,70.2682045 C88.3528589,70.2765937 88.3528589,70.2877793 88.3500273,70.2961684 L88.4916091,70.2682045 L88.5199254,70.2682045 C88.6190327,70.2710009 88.7153083,70.2793901 88.8144156,70.2849829 C88.8172472,70.3017612 88.8115839,70.3185396 88.803089,70.3325215 L88.9673239,70.2961684 L89.1966864,70.3213359 C89.2051813,70.357689 89.1796966,70.3940421 89.1428853,70.4024312 L89.0477077,70.4237099 C89.0090905,70.4351889 89.2326886,70.3978372 89.4685235,70.3604854 C89.5393144,70.371671 89.6072736,70.3800601 89.6752329,70.3940421 L89.674525,70.4097718 L89.6695696,70.4248024 L89.751687,70.408024 L89.9272485,70.4443771 C89.9300801,70.4695446 89.9215852,70.4947121 89.9017637,70.5114904 L90.0829884,70.4835265 L90.1679375,70.5058977 C90.1764324,70.5170832 90.187759,70.5254724 90.187759,70.5394543 C90.1905906,70.5590291 90.187759,70.5758074 90.1764324,70.5897893 L90.3803102,70.5646218 L90.5077338,70.6065677 L90.5133971,70.6177532 C90.5133971,70.6345316 90.5105655,70.6513099 90.5020706,70.6652919 L90.6294942,70.6457171 L90.7937291,70.7016449 C90.7937291,70.7352016 90.771076,70.7659619 90.7370963,70.7715547 L90.7125407,70.776492 C90.7222302,70.7781961 90.8262929,70.7708556 90.949469,70.7603691 L91.1221988,70.8274825 C91.1221988,70.8414644 91.1193672,70.8554464 91.1108723,70.8666319 L91.1958213,70.8582427 L91.3657195,70.9309489 C91.3628879,70.9421344 91.3628879,70.95332 91.354393,70.9617092 L91.4251839,70.9561164 L91.5441126,71.0148406 L91.5426967,71.0421054 L91.532786,71.0623792 L91.6290616,71.0567864 L91.8074547,71.1462709 C91.8017914,71.1490673 91.8017914,71.1574564 91.8017914,71.1574564 L91.8272762,71.1574564 C91.8867405,71.1882167 91.9462049,71.2217734 92.0056692,71.2553301 C91.9943427,71.2749048 91.9773529,71.2916831 91.9518681,71.2916831 L92.0651336,71.2916831 C92.1274296,71.3252398 92.1868939,71.3643893 92.2463583,71.4007423 C92.2322001,71.4175207 92.2152103,71.4287062 92.1953888,71.4287062 L92.2916644,71.4287062 C92.4077615,71.5014123 92.5210269,71.5769149 92.6342924,71.6552138 C92.6229658,71.6663993 92.6116393,71.6747885 92.5946495,71.6747885 L92.6626087,71.6747885 C92.7702109,71.7530874 92.8806447,71.8313863 92.9854152,71.915278 C92.9769203,71.9180744 92.9712571,71.9264636 92.9599305,71.9264636 L92.9995734,71.9264636 L93.1326603,72.0355228 C93.1213338,72.0523011 93.1015123,72.066283 93.0788592,72.066283 L93.1723032,72.066283 L93.2940635,72.1669531 C93.2855686,72.1837314 93.2714105,72.194917 93.251589,72.2005097 L93.3337065,72.2005097 C93.5743955,72.4130354 93.8009264,72.6395429 94.0189623,72.8800324 L94.1322278,73.0058699 L94.1322278,73.0198519 L94.1435543,73.0198519 C94.4153914,73.3386403 94.6645753,73.6797998 94.8882746,74.0405341 L95.0537483,74.3199109 C95.2146206,74.6038318 95.3611578,74.901123 95.4885814,75.2094249 L95.463621,75.2210248 L95.4574334,75.2653527 L95.5140661,75.2653527 L95.5820254,75.4359325 C95.5791937,75.4415253 95.5763621,75.447118 95.5706988,75.4499144 L95.5876886,75.4499144 C95.6867959,75.7099787 95.771745,75.9756357 95.8453675,76.2496819 C95.8340409,76.258071 95.8198828,76.2664602 95.8057246,76.2664602 L92.0934499,76.2384963 L95.8538624,76.308406 C95.8708522,76.3503519 95.8821788,76.3895013 95.8906737,76.4314472 L95.8719141,76.4440309 L95.8510308,76.4482255 C95.8113879,76.4482255 95.8510308,76.4678002 95.8906737,76.4678002 L95.9020002,76.473393 L95.9303166,76.5936378 L95.911203,76.6037747 L95.887842,76.6076197 C95.8397042,76.6076197 93.2062828,76.5433028 90.5983462,76.4845786 L95.9444747,76.6551583 L95.9897809,76.8760731 C95.9841177,76.8844623 95.9784544,76.8900551 95.9699595,76.8956478 L95.9841177,76.8956478 L95.9954442,76.9012406 L96.0322555,77.1221554 C96.0209289,77.1361373 96.0039391,77.1473229 95.981286,77.1473229 C95.9865953,77.1509932 96.0173894,77.1557121 96.0322555,77.1557121 L96.0407504,77.1613049 C96.0492453,77.2004543 96.0549085,77.2424002 96.0605718,77.2815496 L96.043582,77.2899388 L96.0634035,77.2983279 L96.0803933,77.4157763 L96.0464136,77.4297583 L91.8669191,77.2647713 L96.0860565,77.4828897 C96.0973831,77.5248355 96.1002147,77.5695777 96.105878,77.6115236 L96.0832249,77.6199127 C96.0464136,77.6199127 96.105878,77.6338947 96.105878,77.6338947 L96.0973831,77.7737142 L96.0843349,77.7817678 C96.0785357,77.786242 96.0741863,77.7916111 96.0799855,77.7951904 L96.0973831,77.7988817 C96.1087096,77.7988817 96.1143729,77.8044745 96.1228678,77.8100672 C96.1256994,77.8464203 96.1285311,77.8827734 96.1285311,77.9191264 C96.1228678,77.9247192 96.1172045,77.930312 96.1115413,77.930312 L96.1285311,77.930312 L96.1341944,78.0673351 L85.2437227,77.334681 C84.9180846,77.3095135 84.6943853,77.2116399 84.5754566,77.0410601 C84.4990025,76.9320009 84.4876759,76.8201453 84.4876759,76.7418464 L84.4927099,76.6695546 C84.4939684,76.6601297 84.4952269,76.652362 84.4961708,76.6467692 L84.5018341,76.5712667 C84.510329,76.4985605 84.541477,76.3867049 84.6405842,76.2804421 C84.7991559,76.1098624 85.0709929,76.0259707 85.4419372,76.0343599 L85.7403237,76.0396394 C85.7739182,76.0398408 85.8094835,76.0399526 85.8468611,76.0399526 L85.3792479,76.021569 L85.3286718,76.0175815 C85.0709929,75.9980068 84.8784417,75.9280971 84.7481864,75.8162415 C84.6830588,75.7798884 84.6264261,75.7351462 84.5839515,75.676422 C84.5273188,75.6009195 84.5046657,75.5226206 84.4961708,75.4583036 L84.492587,75.4114204 L84.4990025,75.2989094 C84.5046657,75.2849274 84.510329,75.2709455 84.5244872,75.2597599 C84.5471403,75.2150177 84.5896148,75.1590899 84.6604057,75.1003657 L84.7028802,75.0444379 C84.8416304,74.9000743 85.0736033,74.8220813 85.398799,74.8085854 L85.645815,74.8067448 L85.2437227,74.7871701 C84.9180846,74.7620026 84.6943853,74.664129 84.5754566,74.4935492 C84.4990025,74.38449 84.4876759,74.2754308 84.4876759,74.1971319 L84.4982945,74.0695466 L84.5046657,74.0321449 C84.5131606,73.9734207 84.541477,73.8923254 84.6179312,73.8140265 C84.7311966,73.6937818 84.9124213,73.6210756 85.1531103,73.5903154 L85.0596664,73.5791298 C84.8161457,73.537184 84.6462475,73.4393103 84.5528035,73.2855089 C84.4763494,73.1596714 84.4678545,73.0282411 84.4763494,72.9331638 L84.4961708,72.8101227 C84.4961708,72.8101227 84.5018341,72.7933443 84.510329,72.7709732 L84.5527582,72.68301 C84.6309567,72.5405507 84.8008548,72.3168395 85.124794,72.245252 C84.9350744,72.1865278 84.790661,72.0970433 84.6887221,71.979595 C84.6009413,71.8789249 84.5612984,71.7754585 84.5471403,71.6943632 L84.5074974,71.6216571 L84.4933392,71.585304 L84.4933392,71.548951 L84.4961708,71.5377654 L84.4961708,71.5209871 L84.5074974,71.5153943 L84.5131606,71.5070051 L84.5273188,71.5125979 L84.7288897,71.3997598 C85.0750874,71.2116723 85.8030453,70.8376378 86.4018618,70.6624955 C86.9568624,70.5031013 87.6222968,70.3465035 87.9904095,70.2626118 Z M108.630204,76.3419627 C108.338545,76.4174652 108.219616,76.5628775 108.276249,76.7781995 C108.31306,76.9208154 108.431989,77.0270782 108.630204,77.0913951 C108.828418,77.1557121 109.07477,77.1501193 109.366429,77.0774132 C109.584465,77.0214854 109.805332,76.9320009 110.023368,76.8089598 C109.516506,76.3895013 109.052117,76.2329035 108.630204,76.3419627 Z M125.792749,67.0215962 C125.806907,67.127859 125.736116,67.192176 125.577544,67.2145471 L125.369317,67.2319071 L125.092981,67.2502011 C125.063779,67.2526479 125.03626,67.2552695 125.010377,67.2581533 L122.213561,67.6451911 L122.587337,70.2626118 L125.944713,69.7954076 L126.305977,69.7468457 C126.3405,69.7417003 126.365872,69.7374498 126.381729,69.7340941 C126.523311,69.7145194 126.599765,69.7480761 126.611092,69.8319678 C126.62053,69.8972169 126.570977,69.9430466 126.462431,69.9694569 L126.358623,69.9873128 L122.621317,70.508694 L123.133843,74.1104438 L123.221087,74.6874132 C123.30166,75.1916193 123.401634,75.7543214 123.518945,76.3755194 L122.12578,76.5684703 C122.046494,75.7183678 121.958714,74.9577499 121.86527,74.2866164 L121.233815,69.8515425 C121.137539,69.180409 121.010116,68.4253838 120.848712,67.5864669 L124.903615,67.0215962 C124.969687,67.0122749 125.045826,66.9992251 125.132034,66.9816182 L125.546396,66.8929623 C125.696473,66.8733876 125.778591,66.9153334 125.792749,67.0215962 Z M133.132349,65.4416361 C133.143676,65.5478989 133.070053,65.6094195 132.911481,65.6261978 L132.770806,65.6338488 L132.622655,65.6373834 C132.516468,65.6373834 132.423024,65.6421023 132.344712,65.6480009 L130.671657,65.8163523 L131.342755,72.3095689 C131.427704,73.1317075 131.52398,73.8923254 131.62875,74.5886264 L130.241249,74.7284459 C130.195943,73.8755471 130.136478,73.1121327 130.068519,72.4382029 L129.396667,65.9477273 L127.783389,66.1099732 L127.684491,66.1218838 L127.20662,66.2043951 C127.188568,66.2071478 127.173171,66.2092451 127.160429,66.2106433 C127.001857,66.2274216 126.916908,66.179883 126.905582,66.0736202 C126.894255,65.9673574 126.959383,65.9058368 127.100965,65.8918549 L127.176581,65.8863068 L127.384128,65.8806693 C127.482291,65.8806693 127.570387,65.8769408 127.647575,65.8711409 L132.243215,65.4080795 C132.309287,65.4006224 132.386685,65.3906797 132.473731,65.3765942 L132.89166,65.304613 C133.041737,65.2906311 133.121022,65.3353733 133.132349,65.4416361 Z M115.635671,69.9661945 L114.726716,74.448807 L118.164322,73.7692843 L115.635671,69.9661945 Z" id="tourdecrafts"></path>
                </g>
            </g>
        </g>
    </g>
</svg>