<?xml version="1.0" encoding="UTF-8"?>
<svg width="112px" height="42px" viewBox="0 0 112 42" version="1.1" xmlns="http://www.w3.org/2000/svg" xmlns:xlink="http://www.w3.org/1999/xlink">
    <title>partners-logo-timbermarket</title>
    <g id="Design" stroke="none" stroke-width="1" fill="none" fill-rule="evenodd">
        <g id="Group-16" transform="translate(-504, -456)" fill="#292C33">
            <g id="Clients" transform="translate(0, 397)">
                <g id="Client-4" transform="translate(480, 0)">
                    <path d="M64.6864723,92.2541721 C67.0388282,92.2541721 68.6173829,93.8813029 68.6173829,96.1577214 C68.6173829,96.7913637 68.2614343,97.1512099 67.6346552,97.1512099 L62.8989913,97.1512099 L62.8989913,97.2529056 C62.8989913,98.4967219 63.6418405,99.3102873 64.7870665,99.3102873 C65.6150339,99.3102873 66.1566948,99.0286685 66.7679978,98.3011533 C67.0078762,98.0508255 67.2090645,97.9647753 67.503109,97.9647753 C67.9906038,97.9647753 68.3852425,98.2776851 68.3852425,98.8018089 C68.3852425,98.981732 68.3310764,99.1694779 68.2304822,99.3572237 C67.6810833,100.389826 66.3965732,101 64.7948045,101 C62.2025701,101 60.6781816,99.380692 60.6781816,96.6661998 C60.6781816,93.9673531 62.2335222,92.2541721 64.6864723,92.2541721 Z M35.2046428,92.2619949 C35.901064,92.2619949 36.3343927,92.715714 36.3343927,93.4588747 L36.3343927,99.7952974 C36.3343927,100.538458 35.901064,100.984355 35.2046428,100.984355 C34.5004836,100.984355 34.0748929,100.538458 34.0748929,99.7952974 L34.0748929,93.4588747 C34.0748929,92.715714 34.5004836,92.2619949 35.2046428,92.2619949 Z M38.9266271,92.2619949 C39.5688821,92.2619949 40.0176869,92.6609548 40.0176869,93.4275837 L40.0176869,93.9517076 L40.064115,93.9517076 C40.4123255,92.9425736 41.302197,92.2776404 42.4319469,92.2776404 C43.631339,92.2776404 44.4670444,92.9034599 44.7456128,93.9986441 L44.7920409,93.9986441 C45.1634655,92.9425736 46.1539312,92.2776404 47.3687992,92.2776404 C48.993782,92.2776404 50.0848418,93.4041155 50.0848418,95.0938282 L50.0848418,99.7952974 C50.0848418,100.569749 49.620561,100.984355 48.9473539,100.984355 C48.2818848,100.984355 47.825342,100.569749 47.825342,99.7952974 L47.825342,95.6648885 C47.825342,94.6948683 47.3455852,94.1629217 46.4711897,94.1629217 C45.6122703,94.1629217 45.0473953,94.796564 45.0473953,95.7274705 L45.0473953,99.7952974 C45.0473953,100.569749 44.6295426,100.984355 43.9563355,100.984355 C43.2908664,100.984355 42.8730137,100.569749 42.8730137,99.7952974 L42.8730137,95.5944838 C42.8730137,94.6948683 42.3700428,94.1629217 41.5343374,94.1629217 C40.675418,94.1629217 40.095067,94.8200322 40.095067,95.7587615 L40.095067,99.7952974 C40.095067,100.569749 39.6307862,100.984355 38.9653171,100.984355 C38.29211,100.984355 37.8355672,100.569749 37.8355672,99.7952974 L37.8355672,93.4275837 C37.8355672,92.6609548 38.284372,92.2619949 38.9266271,92.2619949 Z M52.7002902,89.3597568 C53.3657593,89.3597568 53.8300401,89.7743623 53.8300401,90.5566367 L53.8300401,93.8891256 L53.8764681,93.8891256 C54.3330109,92.8956371 55.2615725,92.3011086 56.4377504,92.3011086 C58.534752,92.3011086 59.8115241,93.9204166 59.8115241,96.6270861 C59.8115241,99.3259328 58.54249,100.953064 56.4454885,100.953064 C55.2306204,100.953064 54.3097969,100.358535 53.8455161,99.380692 L53.799088,99.380692 L53.799088,99.8265884 C53.799088,100.585395 53.3348072,100.984355 52.6770761,100.984355 C52.027083,100.984355 51.5705403,100.593217 51.5705403,99.8265884 L51.5705403,90.5566367 C51.5705403,89.7743623 52.0425591,89.3597568 52.7002902,89.3597568 Z M70.8691447,92.2619949 C71.5036617,92.2619949 71.9369905,92.6844231 71.9369905,93.4119383 L71.9369905,93.9595303 L71.9834185,93.9595303 C72.2000829,92.9191054 72.8810281,92.3011086 73.7089954,92.3011086 C74.0107779,92.3011086 74.2506563,92.3715133 74.4131546,92.5123227 C74.629819,92.6844231 74.7381512,92.9660418 74.7381512,93.357179 C74.7381512,93.7170253 74.629819,93.9908213 74.4131546,94.1785672 C74.2235733,94.3428448 73.9510502,94.4412402 73.5904013,94.4685129 L73.430427,94.4758314 C72.4012712,94.4914769 72.0375846,95.0781827 72.0375846,96.0716712 L72.0375846,99.7952974 C72.0375846,100.554104 71.5965179,100.984355 70.9078347,100.984355 C70.2268896,100.984355 69.7780848,100.554104 69.7780848,99.7952974 L69.7780848,93.4119383 C69.7780848,92.6844231 70.2191516,92.2619949 70.8691447,92.2619949 Z M102.4325,89.3910478 C102.827138,89.3910478 103.105707,89.6883121 103.105707,90.118563 L103.105707,96.2985308 L106.703883,92.7704732 C106.866381,92.6061956 106.997927,92.5436137 107.191378,92.5436137 C107.508636,92.5436137 107.763991,92.8017642 107.763991,93.1068512 C107.763991,93.2945971 107.709825,93.4119383 107.547326,93.5683931 L104.80807,96.1968351 L107.833633,99.9204613 C107.965179,100.084739 108.003869,100.209903 108.003869,100.382003 C108.003869,100.710558 107.733039,100.960886 107.384828,100.960886 C107.175902,100.960886 107.036617,100.898304 106.881857,100.710558 L103.856294,97.0338688 L103.105707,97.7535612 L103.105707,100.233371 C103.105707,100.663622 102.827138,100.960886 102.4325,100.960886 C102.037861,100.960886 101.759293,100.663622 101.759293,100.233371 L101.759293,90.118563 C101.759293,89.6883121 102.037861,89.3910478 102.4325,89.3910478 Z M135.334531,92.5436137 C135.736908,92.5436137 136,92.7939415 136,93.1694332 C136,93.2867743 135.976786,93.4041155 135.930358,93.5214567 L133.376814,100.272485 C133.198839,100.741849 132.912533,100.960886 132.479204,100.960886 C132.038137,100.960886 131.790521,100.765318 131.597071,100.272485 L129.035788,93.5214567 C128.98936,93.4041155 128.966146,93.2867743 128.966146,93.1694332 C128.966146,92.7939415 129.236977,92.5436137 129.639353,92.5436137 C129.941136,92.5436137 130.142324,92.7078913 130.266132,93.0599148 L132.471466,99.3728692 L132.502418,99.3728692 L134.71549,93.0599148 C134.839298,92.7078913 135.040486,92.5436137 135.334531,92.5436137 Z M127.039381,89.3910478 C127.43402,89.3910478 127.712588,89.6883121 127.712588,90.118563 L127.712588,100.233371 C127.712588,100.663622 127.43402,100.960886 127.039381,100.960886 C126.644742,100.960886 126.366174,100.663622 126.366174,100.233371 L126.366174,90.118563 C126.366174,89.6883121 126.644742,89.3910478 127.039381,89.3910478 Z M112.638939,92.5436137 C114.69725,92.5436137 116.144259,94.1003397 116.144259,96.3298218 C116.144259,96.8226547 115.86569,97.1199189 115.401409,97.1199189 L110.371701,97.1199189 C110.371701,98.7626952 111.261572,99.7796519 112.700843,99.7796519 C113.660357,99.7796519 114.248445,99.4354512 114.875225,98.5123674 C115.014509,98.3167988 115.169269,98.2385713 115.378195,98.2385713 C115.734144,98.2385713 115.974022,98.4732537 115.974022,98.8330999 C115.974022,98.9426183 115.935332,99.0834277 115.873428,99.2320598 C115.354981,100.335067 114.225231,100.960886 112.755009,100.960886 C110.379439,100.960886 108.986597,99.411983 108.986597,96.7835409 C108.986597,94.2176809 110.418129,92.5436137 112.638939,92.5436137 Z M99.9331215,92.5436137 C100.227166,92.5436137 100.436092,92.6140184 100.567639,92.7391823 C100.683709,92.8487007 100.737875,93.0051556 100.737875,93.1929014 C100.737875,93.4041155 100.668233,93.5605704 100.528948,93.6700888 C100.409562,93.7706669 100.23901,93.8252665 100.007546,93.8388138 L99.8866934,93.8421892 C98.6718253,93.8421892 98.1533785,94.7261593 98.1533785,95.7665842 L98.1533785,100.233371 C98.1533785,100.663622 97.87481,100.960886 97.4801713,100.960886 C97.0855327,100.960886 96.8069642,100.663622 96.8069642,100.233371 L96.8069642,93.2320151 C96.8069642,92.8252324 97.0700567,92.5436137 97.4414813,92.5436137 C97.8129059,92.5436137 98.0759983,92.8252324 98.0759983,93.2320151 L98.0759983,94.0142895 L98.1069504,94.0142895 C98.3390908,93.1694332 99.1283681,92.5436137 99.9331215,92.5436137 Z M92.0171342,92.5436137 C93.9052093,92.5436137 95.0968633,93.5762159 95.0968633,95.1955239 L95.0968633,100.272485 C95.0968633,100.679267 94.8337709,100.960886 94.4623463,100.960886 C94.0831836,100.960886 93.8200912,100.679267 93.8200912,100.272485 L93.8200912,99.4198057 L93.7891391,99.4198057 C93.3093823,100.350712 92.2802266,100.960886 91.1969048,100.960886 C89.5951361,100.960886 88.5195523,99.9830433 88.5195523,98.5201901 C88.5195523,97.1277417 89.5796601,96.2515943 91.4367832,96.1420759 L93.7504491,96.0090893 L93.7504491,95.3285105 C93.7504491,94.3350221 93.100456,93.7404935 91.9861821,93.7404935 C91.1117867,93.7404935 90.5159597,94.061226 90.0671549,94.8669686 C89.9433467,95.0938282 89.7653724,95.1955239 89.510018,95.1955239 C89.1618074,95.1955239 88.914191,94.9530188 88.914191,94.5853499 C88.914191,94.4132495 88.9683571,94.2176809 89.0766892,94.0221123 C89.533232,93.1303195 90.70941,92.5436137 92.0171342,92.5436137 Z M32.0165815,89.3047717 C32.6510985,89.3047717 33.0689512,89.6789793 33.0689512,90.3000045 C33.0689512,90.9210298 32.6433605,91.2952374 32.0165815,91.2952374 L29.7029156,91.2952374 L29.7029156,99.6950025 C29.7029156,100.483227 29.2695868,100.945015 28.5344756,100.945015 C27.7993644,100.945015 27.3660357,100.483227 27.3660357,99.6950025 L27.3660357,91.2952374 L25.0601078,91.2952374 C24.4255907,91.2952374 24,90.9210298 24,90.3000045 C24,89.6789793 24.4178527,89.3047717 25.0601078,89.3047717 L32.0165815,89.3047717 Z M86.0201741,89.4223388 C86.546359,89.4223388 86.8945696,89.7665395 86.8945696,90.2984861 L86.8945696,100.249017 C86.8945696,100.671445 86.6469532,100.929595 86.2445765,100.929595 C85.8421998,100.929595 85.5945834,100.671445 85.5945834,100.249017 L85.5945834,92.1211855 L85.5404173,92.1211855 L82.2285477,100.131675 C82.0505734,100.554104 81.795219,100.741849 81.3928423,100.741849 C80.9904657,100.741849 80.7273732,100.554104 80.5571369,100.147321 L77.2452674,92.1211855 L77.1911013,92.1211855 L77.1911013,100.249017 C77.1911013,100.671445 76.9434849,100.929595 76.5411082,100.929595 C76.1387315,100.929595 75.8911151,100.671445 75.8911151,100.249017 L75.8911151,90.2984861 C75.8911151,89.7743623 76.2470637,89.4223388 76.7809866,89.4223388 C77.2530054,89.4223388 77.5393119,89.6491984 77.7559762,90.1733222 L81.3618903,98.9504411 L81.4237944,98.9504411 L85.0219704,90.1733222 C85.2386348,89.6570211 85.5404173,89.4223388 86.0201741,89.4223388 Z M123.410253,99.1147187 C123.905486,99.1147187 124.292386,99.5058559 124.292386,100.006512 C124.292386,100.507167 123.905486,100.898304 123.410253,100.898304 C122.91502,100.898304 122.528119,100.507167 122.528119,100.006512 C122.528119,99.5058559 122.91502,99.1147187 123.410253,99.1147187 Z M118.604947,90.5644594 C118.999585,90.5644594 119.278154,90.8617237 119.278154,91.2919746 L119.278154,92.6844231 L120.315048,92.6844231 C120.701948,92.6844231 120.918613,92.8878144 120.918613,93.2398379 C120.918613,93.5996841 120.701948,93.8030755 120.315048,93.8030755 L119.278154,93.8030755 L119.278154,98.645354 C119.278154,99.3337555 119.518032,99.6623108 120.191239,99.7092472 L120.30731,99.71707 C120.748376,99.7483609 120.949565,99.9282841 120.949565,100.249017 C120.949565,100.635982 120.747345,100.852585 120.110127,100.879745 L119.881719,100.882659 C118.581733,100.882659 117.93174,100.241194 117.93174,98.9426183 L117.93174,93.8030755 L117.258533,93.8030755 C116.871632,93.8030755 116.654968,93.5996841 116.654968,93.2398379 C116.654968,92.8878144 116.871632,92.6844231 117.258533,92.6844231 L117.93174,92.6844231 L117.93174,91.2919746 C117.93174,90.8617237 118.210308,90.5644594 118.604947,90.5644594 Z M93.7504491,97.0651597 L91.5915435,97.1981464 C90.5082216,97.2685511 89.8891806,97.7535612 89.8891806,98.5201901 C89.8891806,99.2946418 90.5314357,99.8031202 91.4986873,99.8031202 C92.7677214,99.8031202 93.7504491,98.9035046 93.7504491,97.730093 L93.7504491,97.0651597 Z M55.6716872,94.1316307 C54.5728893,94.1316307 53.8223021,95.1251192 53.8223021,96.6270861 C53.8223021,98.1446984 54.5728893,99.1147187 55.6716872,99.1147187 C56.793699,99.1147187 57.4978582,98.1603439 57.4978582,96.6270861 C57.4978582,95.101651 56.793699,94.1316307 55.6716872,94.1316307 Z M112.615725,93.724848 C111.362167,93.724848 110.464557,94.6557546 110.379439,96.0560257 L114.751416,96.0560257 C114.720464,94.6479318 113.861545,93.724848 112.615725,93.724848 Z M64.7096863,93.9438848 C63.7192207,93.9438848 62.9995855,94.6792228 62.9222053,95.7509387 L66.4430012,95.7509387 C66.3965732,94.6557546 65.700152,93.9438848 64.7096863,93.9438848 Z M39.0050885,85.2888193 L38.9425348,85.3894736 L38.8785623,85.5006956 C38.6748965,85.8695093 38.4664222,86.3955469 38.4102079,87.062356 L38.3905572,87.2836247 L38.3607272,87.5263858 L38.3281792,87.7092672 L38.3025723,87.8216268 L38.2598626,87.9734249 L38.2343615,88.0498262 L38.2058151,88.126356 L38.1568242,88.2410527 L38.099795,88.3551673 C38.072557,88.405678 38.0427264,88.4558615 38.010022,88.505511 L37.9587749,88.5795592 C37.5488174,89.1437964 36.7402081,89.6237792 35.1052932,89.7054702 L34.8643381,90.1227122 C34.5551368,90.6726288 34.3785572,91.0738908 34.2832968,91.6623951 C34.269294,91.7489444 34.1445428,91.7504241 34.1298469,91.6641051 C33.9940291,90.866317 34.2062585,90.2394074 34.509261,89.6242329 L34.5867538,89.4705917 L34.7081306,89.2398378 C35.2647977,88.4264727 35.9412802,87.6848222 36.8543064,87.2941868 C36.282834,87.4078702 35.2911689,87.9476205 34.5014279,88.9324432 L34.4876693,88.6850069 L34.4845316,88.5537038 C34.4736525,87.6859143 34.657491,86.552652 35.5718338,85.9582161 C36.3991307,85.420396 37.3697079,85.1495533 38.1164749,85.0133456 L38.2982915,84.9820219 L38.550743,84.9445496 L38.7750425,84.9171145 C38.9778418,84.8948326 39.1158466,85.1170873 39.0050885,85.2888193 Z M87.8770686,59 C88.791015,59 89.5319149,59.7437688 89.5319149,60.661254 L89.5319149,77.2737942 C89.5319149,78.1912794 88.791015,78.9350482 87.8770686,78.9350482 L71.3286052,78.9350482 C70.4146588,78.9350482 69.6737589,78.1912794 69.6737589,77.2737942 L69.6737589,63.010622 C69.6737589,62.57003 69.8481082,62.1474836 70.1584521,61.835938 L72.4987583,59.48657 C72.8091022,59.1750245 73.2300188,59 73.6689113,59 L87.8770686,59 Z M74.9655157,73.5764598 C74.7705122,73.4045644 74.4733742,73.4120381 74.287252,73.598881 L72.610071,75.2840553 C72.4388385,75.4798139 72.4462834,75.7781025 72.6324056,75.9649454 L72.6562337,75.9873665 C72.8512372,76.159262 73.1483752,76.1517883 73.3344975,75.9649454 L74.6382979,74.6561562 L75.9659264,75.9873665 C76.1609298,76.159262 76.4580679,76.1517883 76.6441901,75.9649454 C76.8380674,75.7703174 76.8380674,75.454763 76.6441901,75.260135 L74.9655157,73.5764598 Z M79.9300547,73.5764598 C79.7350512,73.4045644 79.4379132,73.4120381 79.251791,73.598881 L77.57461,75.2840553 C77.4033775,75.4798139 77.4108224,75.7781025 77.5969446,75.9649454 L77.6207727,75.9873665 C77.8157762,76.159262 78.1129142,76.1517883 78.2990365,75.9649454 L79.6028369,74.6561562 L80.9304654,75.9873665 C81.1254688,76.159262 81.4226069,76.1517883 81.6087291,75.9649454 C81.8026064,75.7703174 81.8026064,75.454763 81.6087291,75.260135 L79.9300547,73.5764598 Z M84.8945937,63.6089357 C84.6995903,63.4370402 84.4024522,63.444514 84.21633,63.6313569 L82.539149,65.3165312 C82.3679165,65.5122898 82.3753614,65.8105784 82.5614836,65.9974213 L82.5853117,66.0198424 C82.7803152,66.1917379 83.0774533,66.1842642 83.2635755,65.9974213 L84.070922,65.1868422 L84.0717647,75.6418236 C84.0851869,75.8743707 84.2574394,76.0641419 84.4812427,76.1034424 L84.5673759,76.1109164 C84.8415598,76.1109164 85.0638298,75.8877858 85.0638298,75.6125402 L85.0638298,65.1868422 L85.8950044,66.0198424 C86.0900079,66.1917379 86.3871459,66.1842642 86.5732681,65.9974213 C86.7671454,65.8027932 86.7671454,65.4872389 86.5732681,65.2926109 L84.8945937,63.6089357 Z M74.9655157,70.2539518 C74.7705122,70.0820563 74.4733742,70.08953 74.287252,70.2763729 L72.610071,71.9615473 C72.4388385,72.1573058 72.4462834,72.4555944 72.6324056,72.6424373 L72.6562337,72.6648585 C72.8512372,72.8367539 73.1483752,72.8292802 73.3344975,72.6424373 L74.6382979,71.3336482 L75.9659264,72.6648585 C76.1609298,72.8367539 76.4580679,72.8292802 76.6441901,72.6424373 C76.8380674,72.4478093 76.8380674,72.132255 76.6441901,71.9376269 L74.9655157,70.2539518 Z M79.9300547,70.2539518 C79.7350512,70.0820563 79.4379132,70.08953 79.251791,70.2763729 L77.57461,71.9615473 C77.4033775,72.1573058 77.4108224,72.4555944 77.5969446,72.6424373 L77.6207727,72.6648585 C77.8157762,72.8367539 78.1129142,72.8292802 78.2990365,72.6424373 L79.6028369,71.3336482 L80.9304654,72.6648585 C81.1254688,72.8367539 81.4226069,72.8292802 81.6087291,72.6424373 C81.8026064,72.4478093 81.8026064,72.132255 81.6087291,71.9376269 L79.9300547,70.2539518 Z M79.9300547,66.9314437 C79.7350512,66.7595483 79.4379132,66.767022 79.251791,66.9538649 L77.57461,68.6390392 C77.4033775,68.8347978 77.4108224,69.1330864 77.5969446,69.3199293 L77.6207727,69.3423504 C77.8157762,69.5142459 78.1129142,69.5067722 78.2990365,69.3199293 L79.6028369,68.0111402 L80.9304654,69.3423504 C81.1254688,69.5142459 81.4226069,69.5067722 81.6087291,69.3199293 C81.8026064,69.1253013 81.8026064,68.8097469 81.6087291,68.6151189 L79.9300547,66.9314437 Z" id="timbermarket"></path>
                </g>
            </g>
        </g>
    </g>
</svg>