<?xml version="1.0" encoding="UTF-8"?>
<svg width="120px" height="36px" viewBox="0 0 120 36" version="1.1" xmlns="http://www.w3.org/2000/svg" xmlns:xlink="http://www.w3.org/1999/xlink">
    <title>partners-logo-justfly</title>
    <g id="Design" stroke="none" stroke-width="1" fill="none" fill-rule="evenodd">
        <g id="Group-16" transform="translate(-20, -779)" fill="#292C33">
            <g id="Clients" transform="translate(0, 397)">
                <g id="Client-13" transform="translate(0, 320)">
                    <path d="M22.1165804,68.395249 C22.9539089,68.4593491 23.6593582,68.6580594 24.1990164,68.99138 L24.3727155,69.1074724 C25.5880048,69.9126805 28.9726921,73.0718527 33.595174,77.7072397 L35.6668699,79.7910649 C41.5586651,85.6655939 45.267163,88.4848938 48.6552422,89.6907275 C51.4230781,90.6640994 55.7957936,90.4979139 58.4240748,89.2871342 C60.9793481,88.1330686 63.9303496,84.1515422 65.3747749,80.0042079 L65.6657061,79.1314109 C65.926712,78.3692512 66.1543134,77.8287172 66.1926226,77.8678197 C66.3786956,78.0577459 65.2389984,82.8296424 64.4947064,85.0375349 C63.2619728,88.6936148 61.819907,91.3288412 60.0056953,93.3230666 C57.4471915,96.1007377 55.0282425,97.1215912 50.8183408,97.145332 L50.1706236,97.1385214 C46.2603498,97.0473409 44.7627246,95.9312466 35.8859825,87.4116127 L34.6336461,86.2128888 C33.4034788,85.0501251 32.485338,84.2303484 32.3971137,84.2303484 C32.0017086,84.2303484 30.3503107,86.7468709 29.2803909,88.9785041 L29.0544276,89.4651877 C28.523113,90.6230689 27.7413735,92.4073191 27.1148495,93.9261587 L26.6560069,95.0477609 C25.9664308,96.7139715 25.3886741,98 25.3030805,98 C25.210044,98 24.9309345,97.7151107 24.6750842,97.3827398 C24.3959747,97.0266281 24.1866425,96.4805902 24.1866425,96.17196 L24.1953732,96.0459107 C24.2414846,95.5665961 24.4666166,93.965997 24.7839714,91.8244126 L26.6194001,79.6564928 C26.6998608,79.0931854 26.7451463,78.7517496 26.7451463,78.698747 C26.7451463,78.5260867 25.995472,77.4901255 25.0203712,76.3400087 L24.2818606,75.4767056 C21.8256978,72.5724537 20,69.9964326 20,69.3686209 C20,68.5139529 20.558219,68.2528043 22.1165804,68.395249 Z M76.8453019,91.138915 C77.5895939,91.7561752 77.612853,92.420917 76.8918201,93.0856588 L76.3336011,93.5842152 L77.0081158,94.0115492 C77.984999,94.6288094 77.9617399,95.6971445 76.9383384,96.3381455 C76.310342,96.717998 75.752123,96.8129611 74.0309477,96.8129611 L71.8678491,96.8129611 L71.8678491,90.6403586 L74.0542069,90.6403586 C75.8916778,90.6403586 76.310342,90.711581 76.8453019,91.138915 Z M82.4972693,90.7590625 L84.7534044,90.7590625 L86.818177,96.2793545 C86.9243734,96.571604 86.9862805,96.7489642 86.9862805,96.7654795 C86.9862805,96.8086446 86.6594994,96.8125687 86.2505861,96.7772518 L86.1256928,96.7654795 C85.4561623,96.7213895 85.2478982,96.6158884 85.184317,96.2588942 L85.1720687,96.17196 C85.1113927,95.7384328 85.0155423,95.6459829 84.0128019,95.6292412 L83.1397943,95.6268041 C82.0469385,95.6338286 81.9144989,95.6931464 81.7942939,96.1481763 L81.7762364,96.2194416 C81.6682476,96.6823868 81.5201487,96.7973358 80.9594885,96.8113951 L80.0085429,96.8129611 L80.6707557,95.1521331 C80.9577629,94.4480143 81.366518,93.4618588 81.706459,92.6583248 L82.4972693,90.7590625 Z M91.6613646,90.6403586 L91.3357369,95.6259221 L93.1149114,95.6269032 C94.0877405,95.6343589 94.1884266,95.6949372 94.1960632,96.14508 L94.1934992,96.3974595 C94.1717285,96.7645531 93.9975634,96.8073213 92.6042428,96.812304 L89.7773755,96.8129611 L89.7773755,90.6403586 L91.6613646,90.6403586 Z M98.3367335,90.6878402 L101.174347,90.6166178 L101.174347,91.2576189 C101.174347,91.7522184 101.142042,91.8511383 100.619789,91.8016784 L99.9791022,91.7227297 C99.3486491,91.6521261 99.2981107,91.7482616 99.174062,92.4446578 C99.1150196,92.8263365 99.0892832,93.7179502 99.1109437,94.5729532 L99.1973212,96.8129611 L97.4528868,96.8129611 L97.4528868,91.5899898 L96.382967,91.7561752 L95.9679651,91.8098178 C95.3483547,91.8781015 95.3277372,91.7886626 95.4060838,91.3288412 L95.4266343,91.1870922 C95.5071937,90.7584739 95.7782298,90.7525878 98.3367335,90.6878402 Z M105.779654,90.6403586 L105.756394,93.7266598 L105.709876,96.8129611 L103.965442,96.8129611 L103.965442,90.6403586 L105.779654,90.6403586 Z M74.4030937,94.2014754 L74.1516144,94.2031507 C73.58955,94.2137421 73.5089281,94.2889726 73.4977376,94.8026581 L73.496892,95.247918 C73.5054814,95.8633299 73.5956698,95.8633299 74.5426485,95.8633299 C75.3334588,95.8633299 75.6358274,95.744626 75.8219004,95.4122551 C76.1707873,94.7475133 75.5427909,94.2014754 74.4030937,94.2014754 Z M83.8695577,92.4446578 L83.5671891,91.7086937 L82.9439306,93.1865571 C82.7285684,93.6976433 82.5670467,94.1262963 82.5670467,94.2252162 C82.5670467,94.3340281 82.9188409,94.4228911 83.3895286,94.436946 L83.7920911,94.4372549 C84.4358169,94.4265732 84.4587889,94.3491958 84.3347402,93.821623 C84.2417037,93.4655113 84.0323716,92.848251 83.8695577,92.4446578 Z M74.1705025,91.5899898 C73.5817559,91.5899898 73.504074,91.6525875 73.4966636,92.2863898 L73.498942,92.6679893 C73.5162692,93.2148777 73.6273335,93.2518443 74.263539,93.2518443 C74.6822032,93.2518443 75.1473858,93.1331404 75.3101996,92.9669549 C76.0312325,92.2309908 75.4962726,91.5899898 74.1705025,91.5899898 Z M66.0530678,62.2701281 C67.2160241,62.8873884 67.7509839,64.4067982 67.5649109,66.5197275 C66.7275824,75.802372 64.1690787,82.9008648 60.3545821,86.5806855 C58.8520427,88.0466785 57.3285118,88.8056119 55.165794,89.142452 L54.8189104,89.1921711 C52.9143985,89.4603023 52.4521133,89.4760747 50.6203187,89.2394884 L49.7797712,89.1253876 C48.5563282,88.9393667 48.2692727,88.7557794 49.2315285,88.7419325 L49.3530159,88.7410963 C52.0743336,88.7410963 55.0049834,87.4590943 56.6331221,85.5835728 C58.0286696,83.9691998 60.0289544,79.7908228 60.9128012,76.6332992 L61.0797224,76.0142945 C61.8550542,73.0783023 62.564199,69.5522163 62.564199,68.4664714 L62.5584101,68.2095223 C62.5336004,67.7491411 62.4194756,67.5956807 62.0374057,67.4938802 L61.9362027,67.4693586 C60.9593194,67.2082101 58.098447,67.7305072 55.0049834,68.7038791 L52.6520209,69.4390101 C50.4850626,70.1022963 50.4320371,70.0271695 49.7949393,69.7484734 C49.3762751,69.5822879 48.9110926,69.1549539 48.7250196,68.7751015 C48.0272458,67.3981363 48.4691692,65.1190216 49.539089,64.5255021 C49.9247675,64.3183098 55.0227372,63.4239927 60.4576212,62.600032 L61.8208292,62.3959459 L63.5560811,62.1446475 C65.1920673,61.9187576 65.4769572,61.9551063 66.0530678,62.2701281 Z M79.8922473,73.8556281 C80.776094,74.615333 80.8691305,75.8261127 80.2411342,78.4138576 C79.9190847,79.7068169 79.6961274,81.4043529 79.5905562,83.3197377 L79.5041093,85.0465941 C79.4005624,86.8885745 79.3017656,87.2033065 78.8921049,87.6015389 C77.9927521,88.5424651 75.7458689,88.1079561 75.597076,87.0271405 L75.5893091,86.9130564 C75.5893091,86.4857224 75.2404223,86.5094631 74.8915354,86.9842787 C74.4263529,87.5303166 72.774955,88.4324662 71.9841447,88.5749109 C71.6119987,88.6461332 70.9840023,88.5986517 70.5885972,88.456207 C69.425641,88.028873 68.3557212,87.0792418 67.8905387,86.0346476 C67.2160241,84.4914969 67.3323197,82.7346793 68.3789803,78.6750062 L68.603536,77.8379015 C69.5133656,74.5238826 69.9716804,73.9500663 71.2532391,74.1471345 L71.3561483,74.1642582 C72.5191046,74.3541845 73.1703601,74.829 73.3564331,75.5412234 C73.4339635,75.8577671 73.2207549,76.9986434 72.7571876,78.7302914 L72.1127777,81.0519201 C71.1174059,84.7650064 71.3942087,85.1907708 73.1703601,83.3994211 C74.4854698,82.0343264 75.3733546,80.1459453 76.0591976,77.1492146 L76.2578998,76.2499507 C76.613864,74.670859 76.8579887,74.0174971 77.2174479,73.7369242 C77.9384808,73.1434047 79.1479553,73.1908863 79.8922473,73.8556281 Z M92.103288,76.0397797 C92.103288,77.8678197 91.0101091,78.8411916 89.7075981,78.1764498 C88.7772331,77.7016342 88.4283462,77.725375 87.451463,78.3188945 L86.6373936,78.8411916 L88.2190141,79.6008965 L88.5886511,79.7887463 C89.3254839,80.1716442 90.0232577,80.5844431 90.242558,80.7879355 C91.2892186,81.7375666 91.0333682,84.0404221 89.7541163,85.5360912 C88.1492367,87.3878719 84.1021489,88.5749109 82.450751,87.6727613 C80.9389079,86.841834 80.5667619,85.6547951 81.4738678,84.5627193 L81.6366012,84.3817037 C82.0241191,83.9778254 82.3029872,83.9273043 83.2880796,83.9691998 C83.9858533,83.9691998 85.0092548,83.8504959 85.5907329,83.6843105 L86.6373936,83.3756803 L85.0790322,82.6159754 C83.3345978,81.7613074 82.5903058,80.8828986 82.4042328,79.5059334 C82.1716415,77.725375 83.4741526,76.0635205 86.3815432,74.5203699 C89.0796017,73.0484416 92.103288,73.8556281 92.103288,76.0397797 Z M98.3599927,68.3240267 C100.081168,68.3240267 100.755683,69.9383996 100.150945,72.69233 L99.9416132,73.6182203 L100.732423,73.4520349 L101.202516,73.380759 C101.577563,73.3264995 102.054524,73.2626081 102.505062,73.2122013 L103.344845,73.1251051 C104.255658,73.041459 104.482615,73.12525 104.872548,73.5232572 C105.570321,74.2354806 105.500544,75.3275564 104.709734,76.1347429 C104.240675,76.6135152 103.634807,76.8728503 101.853034,77.3150497 L98.615843,78.1052275 L98.148984,79.7939643 C97.7486602,81.3282738 97.4882811,83.1000809 97.6157007,83.4469027 C97.9083155,84.2280509 99.2900672,83.3638964 100.812353,81.4784207 L101.254297,80.9199652 C102.022048,79.9666755 102.370356,79.7196004 102.849004,79.7196004 C103.825887,79.7196004 104.523661,80.5267869 104.337588,81.4764181 C103.918924,83.6843105 101.686048,86.6993894 99.8950949,87.4590943 C98.8949525,87.8626875 96.8714086,87.8864283 95.9410436,87.4590943 C93.7314268,86.4382408 92.9638756,83.6605697 93.9407589,80.0757121 L94.4059414,78.4138576 L93.591872,77.7491158 C92.9638756,77.2268187 92.8010617,76.8944478 92.8010617,76.2534467 C92.8010617,75.0901486 93.6616494,74.2592213 94.8246056,74.2592213 L95.1410023,74.2560308 C95.7195533,74.2358239 95.7697719,74.0876403 96.010821,73.0009601 L96.0934374,72.5679283 C96.1872182,72.046106 96.2673226,71.4893847 96.2858834,71.1420571 L96.2899305,71.0067347 C96.2899305,69.3211394 97.0574816,68.3240267 98.3599927,68.3240267 Z M44.910523,71.1729201 C45.3524464,71.1729201 46.7479939,71.7901804 46.7479939,71.9801066 C46.7479939,72.0144898 45.8698444,72.6215311 44.6081353,73.4586658 L41.2147231,75.6855932 C39.8522606,76.5890343 38.6082474,77.4366405 38.013336,77.883731 L37.0097969,78.6242788 C36.6878772,78.8571425 36.470368,79.0073771 36.4442015,79.0073771 L36.4128017,78.9830665 L36.2806608,78.8612229 L35.9075765,78.4997906 C35.5611977,78.1590218 35.079517,77.674241 34.5602123,77.1318556 L32.7460006,75.2800748 L34.0950298,74.7815185 L41.6141426,72.1730816 C43.962373,71.3737894 44.6619411,71.1729201 44.910523,71.1729201 Z M27.5824748,74.7340369 C26.9312193,74.7340369 26.512555,75.1613709 26.512555,75.8498535 C26.512555,76.5620769 27.5126974,76.6095584 28.0011391,75.8973351 C28.4198033,75.256334 28.2337303,74.7340369 27.5824748,74.7340369 Z M24.6285659,72.7398115 C24.093606,73.2383679 24.0703469,73.6182203 24.5355294,74.0218136 C24.7913798,74.2354806 24.9774528,74.2592213 25.1867849,74.0455543 L25.2838223,73.9808382 C25.4248688,73.901933 25.4641991,73.9735706 25.4272422,74.28227 L25.396117,74.4966291 C25.3030805,75.1138894 25.3728579,75.2088525 25.8612995,75.2088525 C26.1869273,75.2088525 26.6288507,74.9951855 26.8614419,74.7340369 C27.3227479,74.2183344 27.1824035,73.6179272 26.6363485,73.552807 L26.5358142,73.546998 C26.2670421,73.546998 26.0901578,73.3969328 26.0214972,73.1301503 L26.0008543,73.0247009 C25.9078178,72.3362183 25.210044,72.1937736 24.6285659,72.7398115 Z M113.501683,90.5453955 L113.774534,90.5936406 C114.341417,90.7036416 114.435996,90.8108013 114.39603,91.2333514 L114.38553,91.3288412 C114.320737,91.8138314 114.235888,91.9098846 113.833024,91.8450993 L113.734274,91.8273975 C112.548059,91.6137305 111.408362,91.7324344 110.989698,92.1360277 C110.733847,92.420917 110.594292,92.9194734 110.594292,93.6079559 C110.594292,95.306213 111.746214,96.0727236 113.608848,95.6072584 L113.804052,95.5546998 C114.315753,95.4122551 114.432048,95.4597367 114.432048,95.7921076 C114.432048,96.0295154 114.339012,96.3618863 114.245975,96.5280717 C113.990125,96.931665 111.943322,97.0978504 110.943179,96.7892203 C108.873117,96.1482193 108.059048,93.7741414 109.268522,91.8748791 C109.919778,90.8302848 111.757249,90.2605062 113.501683,90.5453955 Z M132.574166,75.3275564 C132.777683,75.9299786 132.767507,76.296106 132.496893,77.2211617 L132.364834,77.6541527 C131.760096,79.6008965 131.271655,82.0461967 131.480987,82.236123 C131.736837,82.5210123 133.318458,81.0965656 134.155786,79.8620451 C134.551191,79.2210441 135.179188,77.8203381 135.504816,76.7045215 C135.900221,75.4700011 136.295626,74.5915922 136.621254,74.3779252 C137.388805,73.8318873 138.481984,73.9505912 139.319312,74.6628146 L139.524463,74.8416648 C140.043695,75.3087479 140.051362,75.4887438 139.947308,76.65704 C139.807754,78.2239314 137.737692,84.5864601 136.621254,86.8893156 C135.360759,89.4395347 132.161601,92.3677288 129.469067,93.4361714 L129.201593,93.5367336 C127.899082,94.0115492 127.573454,94.03529 126.805903,93.7266598 C126.503534,93.5842152 126.108129,93.0856588 125.898797,92.6108432 L125.779382,92.2943226 C125.581239,91.7324344 125.629656,91.5492913 125.968574,90.8777664 C126.247684,90.3554693 126.666348,89.9756168 127.108271,89.8331721 L127.676701,89.6606242 C129.271603,89.1567974 129.922625,88.7529667 130.969286,87.7914652 L132.225279,86.628167 L131.062323,86.6044262 C129.783071,86.6044262 128.969001,86.1770922 128.108414,85.0612756 C127.294344,83.9929406 127.271085,81.3577142 128.015377,77.7016342 L128.23068,76.7018808 C128.57795,75.1656253 128.791302,74.6894043 129.201593,74.3304437 C130.387808,73.2621086 132.062465,73.7844058 132.574166,75.3275564 Z M122.782074,68.5376937 C123.41007,69.1786947 123.41007,70.2707705 122.735556,71.0542162 C122.316892,71.5527726 121.805191,71.7664396 120.130534,72.1225513 L119.272039,72.3005834 C116.703534,72.8537672 114.266908,73.5588684 113.827311,73.8793689 C113.501683,74.1405174 112.292209,77.3455226 112.455023,77.5354488 C112.501541,77.5829304 112.989982,77.4879672 113.524942,77.3217818 C114.083161,77.1793371 115.339154,77.0368924 116.316037,77.0131517 C118.932336,76.9901303 119.930193,77.8600587 119.2884,79.6229369 L119.223428,79.7908228 C118.864573,80.6836456 118.721992,80.781758 116.668474,81.0004961 L116.432333,81.0253433 C115.083304,81.1440472 111.780508,82.1649006 111.268807,82.5922347 C111.143942,82.6984434 110.851496,83.6979236 110.57473,84.8934634 L110.358276,85.8567021 C109.78746,88.3136635 109.315791,88.9785041 108.314898,88.9785041 C107.896234,88.9785041 107.384533,88.8598002 107.175201,88.7173555 C106.454168,88.2900215 106.244836,86.8655748 106.640241,84.6814232 L106.711063,84.2243204 C106.858296,83.2135753 106.878647,82.5981698 106.756537,82.4735308 C106.317198,82.0250938 106.479509,80.8354903 107.067125,80.044705 L107.175201,79.9095267 C107.645966,79.3634888 108.037984,78.3954727 108.659154,76.173579 L109.123975,74.5057675 C110.081674,71.1697302 110.717151,69.7456278 111.429856,69.2060059 L111.501398,69.1549539 C111.944872,68.8463238 112.178704,68.8051731 112.86909,68.9696844 L113.222574,69.0599908 C114.245975,69.3211394 114.594862,69.2973986 116.432333,68.7988423 C117.57203,68.4902121 119.362983,68.2053228 120.386384,68.1341004 L120.814922,68.1119293 C122.132356,68.0511058 122.380326,68.1276257 122.782074,68.5376937 Z M126.34072,66.89958 C127.178049,66.89958 128.271228,67.4693586 128.48056,67.967915 C128.500496,68.0221796 128.518178,68.0768077 128.533206,68.1340226 L128.55371,68.2220631 C128.707158,68.9765347 128.414936,70.3089254 126.898939,76.5620769 L126.416747,78.6087224 C125.68874,81.7434813 125.091568,84.5278064 125.01495,85.2512019 C124.898654,86.5569447 124.735841,87.0080195 124.247399,87.5540574 C123.503107,88.3612439 122.89837,88.5511701 122.107559,88.24254 C121.177194,87.8626875 120.712012,87.0792418 120.712012,85.8209805 C120.712012,85.2037203 121.433045,81.7613074 122.316892,78.1052275 L122.982321,75.4176972 C123.62231,72.7947121 124.154362,70.5022431 124.293917,69.7722142 C124.712581,67.754248 125.317319,66.89958 126.34072,66.89958 Z" id="justfly"></path>
                </g>
            </g>
        </g>
    </g>
</svg>