<?xml version="1.0" encoding="UTF-8"?>
<svg width="119.25704px" height="40px" viewBox="0 0 119.25704 40" version="1.1" xmlns="http://www.w3.org/2000/svg" xmlns:xlink="http://www.w3.org/1999/xlink">
    <title>partners-logo-mfd</title>
    <g id="Design" stroke="none" stroke-width="1" fill="none" fill-rule="evenodd">
        <g id="Group-16" transform="translate(-20, -457)" fill="#292C33">
            <g id="Client-1" transform="translate(0, 397)">
                <path d="M50,60 L50,70 L60,70 L60,90 L50,90 L50,100 L30,100 L30,90 L20,90 L20,70 L30,70 L30,60 L50,60 Z M98.8542103,69.6325234 L98.9419541,70.3719453 L96.938044,70.937276 C96.7134478,71.005004 96.5963785,71.1646651 96.5868361,71.4157939 L96.5689659,72.2028533 C96.5628564,72.5834668 96.5591907,73.0051301 96.5579688,73.467727 L96.5575106,85.3775311 C96.5575106,86.5182004 96.5672858,87.4798911 96.5868361,88.262603 C96.5963785,88.4851045 96.7281106,88.6349905 96.9817996,88.7122609 L98.8835358,89.2484988 L98.9419541,89.9732579 L97.3093028,89.9467758 C96.3668584,89.9355137 95.3653761,89.9299679 94.3047991,89.9299679 L92.4558395,89.9368273 C91.5957082,89.943709 90.8320998,89.9558023 90.1650142,89.9732579 L90.0919332,89.2484988 L91.7741935,88.7411209 C92.0083322,88.6736257 92.1300563,88.4995345 92.1398315,88.2190802 L92.1590764,87.6174635 C92.1728227,87.0859204 92.1808414,86.4788725 92.1831324,85.796206 L92.1858122,75.7124849 C92.190688,75.1629808 92.2045338,74.3299087 92.2275753,73.2134944 C91.9788321,73.8370107 91.7192228,74.4767607 91.4486491,75.1328427 L85.3523716,89.9299679 L84.0359819,90.0458735 L78.477168,76.3161802 C78.1455104,75.5332356 77.8045431,74.6585905 77.4533352,73.6920123 L77.4820622,76.1881008 L77.4820622,76.1881008 L77.4844572,86.1967326 C77.4880574,86.9796409 77.4970907,87.6536913 77.5117535,88.2190802 C77.5215287,88.4995345 77.6483731,88.6736257 77.8922869,88.7411209 L79.5012335,89.2484988 L79.5449891,89.9732579 L78.3142748,89.9467758 C77.6659743,89.9355137 77.0767002,89.9299679 76.546339,89.9299679 L75.4157855,89.9368273 C74.7885212,89.943709 74.0682866,89.9558023 73.255132,89.9732579 L73.1818182,89.2484988 L75.1419727,88.7122609 C75.3954289,88.6349905 75.527161,88.4851045 75.5369362,88.262603 L75.5547041,87.3065454 C75.5623524,86.7334542 75.5662617,86.0904494 75.5662617,85.3775311 L75.5643961,73.1284562 C75.5606759,72.465272 75.5514244,71.8942536 75.5369362,71.4157939 C75.527161,71.1646651 75.4100917,71.005004 75.185961,70.937276 L73.2258065,70.3719453 L73.1818182,69.6325234 L75.4448281,69.6782113 C75.8998666,69.6850442 76.2950669,69.6890062 76.6304291,69.6901371 L76.8244659,69.6904762 C77.9360425,69.6904762 79.072057,69.6713913 80.2325094,69.6325234 L85.3379416,82.4054136 C85.5620723,82.9563143 85.7619979,83.478355 85.9377182,83.9710701 L86.5521575,82.4054136 L86.5521575,82.4054136 L91.8035191,69.6325234 L92.9247745,69.6610102 C93.6507943,69.6767933 94.3338322,69.6861817 94.9738012,69.6893057 L95.4457013,69.6904762 C96.4113485,69.6904762 97.547363,69.6713913 98.8542103,69.6325234 Z M128.300703,69.5454545 C131.937997,69.5454545 134.673416,70.3165293 136.506494,71.8579807 C138.339804,73.3998976 139.25704,75.6879858 139.25704,78.7229437 C139.25704,82.2990271 138.240423,85.0756412 136.206722,87.0520877 C134.173719,89.0287669 131.314016,90.0169902 127.627613,90.0169902 L126.650776,90.0121716 C126.181077,90.0073486 125.739442,89.9988988 125.325814,89.986793 L124.921519,89.9734674 C124.131592,89.9446074 123.263464,89.9299446 122.317833,89.9299446 C121.059396,89.9299446 119.762556,89.9446074 118.426616,89.9734674 L118.35307,89.2484755 L120.313224,88.7122376 C120.567146,88.6349672 120.698878,88.4850812 120.708653,88.2625797 L120.726393,87.3153264 L120.726393,87.3153264 L120.736088,86.2094156 L120.736088,86.2094156 L120.736088,73.1301785 L120.736088,73.1301785 L120.730531,72.503142 C120.725644,72.1067821 120.718196,71.7444026 120.708653,71.4157706 C120.698878,71.1646418 120.581809,71.0052134 120.357678,70.9372527 L118.397291,70.371922 L118.35307,69.6325001 C119.718801,69.6713681 121.025415,69.6904529 122.273844,69.6904529 C123.063713,69.6904529 123.828708,69.6769684 124.569319,69.649803 L125.30182,69.6180701 C126.267002,69.5698925 127.266397,69.5454545 128.300703,69.5454545 Z M116.451613,69.6325699 L116.554252,69.7484755 L115.647023,74.5762463 L114.857329,74.6923847 L113.921007,71.1693665 L108.26002,71.1693665 L108.26002,79.2012987 L109.093702,79.2012987 C109.951822,79.2012987 110.863939,79.1917563 111.829121,79.1724387 C112.092585,79.1626635 112.258297,79.0323279 112.326723,78.7807336 L112.853186,76.7945119 L113.818601,76.7512219 L113.779552,79.0837467 L113.779552,79.0837467 L113.774612,79.8971978 C113.774612,80.5737793 113.789508,81.6078527 113.818601,82.9998836 L112.853186,83.0866965 L112.311828,81.028092 C112.243635,80.7769632 112.092585,80.6415072 111.858446,80.6221896 L110.704559,80.6036038 C110.141666,80.5966159 109.59987,80.5930969 109.079272,80.5930969 L108.26002,80.5930969 L108.261438,86.107201 C108.264755,86.9224713 108.273906,87.6119024 108.289112,88.175604 C108.298887,88.4076479 108.425732,88.5624214 108.669646,88.6396918 L110.819951,89.2485454 L110.863939,89.9735372 C109.654424,89.950263 108.401415,89.9363729 107.104792,89.9317479 L106.124145,89.9300144 C104.436997,89.9300144 102.915561,89.9444444 101.560303,89.9735372 L101.48699,89.2485454 L103.447144,88.7120747 C103.700833,88.6348043 103.832565,88.485151 103.84234,88.2626495 L103.860211,87.3064897 C103.86632,86.8480258 103.869986,86.3448682 103.871208,85.7969295 L103.871666,73.8223945 C103.871666,73.3392217 103.869106,72.8995718 103.864218,72.5032118 L103.849097,71.6686457 C103.846981,71.5822656 103.844726,71.4979984 103.84234,71.4158404 C103.832565,71.1644789 103.715496,71.0050505 103.491365,70.9373225 L101.530978,70.3717591 L101.48699,69.6325699 C102.852488,69.6712051 104.14956,69.6905227 105.378206,69.6905227 L109.079272,69.6905227 L111.478137,69.6840835 C113.096919,69.6754979 114.754767,69.6583267 116.451613,69.6325699 Z M127.788437,70.9807755 C126.949635,70.9807755 126.062189,71.0196434 125.126332,71.0969138 L125.126332,88.4511009 C125.594377,88.5381464 126.052414,88.5937718 126.50114,88.6177443 C126.949635,88.6421822 127.403249,88.654052 127.861751,88.654052 C129.977843,88.654052 131.58679,87.9146302 132.689056,86.4357864 C133.790858,84.9571754 134.341991,82.7051622 134.341991,79.6797468 C134.341991,76.7318345 133.815296,74.5449891 132.762138,73.1192105 C131.708746,71.6936648 130.050924,70.9807755 127.788437,70.9807755 Z M48,62 L32,62 L32,79 L50,79 L50,88 L58,88 L58,72 L48,72 L48,62 Z" id="mfd"></path>
            </g>
        </g>
    </g>
</svg>