<?xml version="1.0" encoding="UTF-8"?>
<svg width="120px" height="15.8449115px" viewBox="0 0 120 15.8449115" version="1.1" xmlns="http://www.w3.org/2000/svg" xmlns:xlink="http://www.w3.org/1999/xlink">
    <title>partners-logo-latvijas-nafta</title>
    <g id="Design" stroke="none" stroke-width="1" fill="none" fill-rule="evenodd">
        <g id="Group-16" transform="translate(-500, -629)" fill="#292C33">
            <g id="Clients" transform="translate(0, 397)">
                <g id="Client-10" transform="translate(480, 160)">
                    <path d="M27.9865044,72.0079646 L27.9865044,72 L20.0597345,72 L20,79.9247788 C20,84.2980088 23.5469027,87.8449115 27.9207965,87.8449115 C32.295354,87.8449115 35.8415929,84.2980088 35.8415929,79.9247788 C35.8409394,75.6390878 32.4370691,72.1519206 28.1863666,72.0120592 L27.9865044,72.0079646 Z M43.6847345,81.8973451 L43.6847345,73.3533186 L39.1435841,73.3533186 L39.1210177,82.6553097 C39.1210177,83.990708 40.1298673,85.0745575 41.4128319,85.0745575 L53.0710177,85.0652655 L53.0710177,81.8973451 L43.6847345,81.8973451 Z M66.1150442,78.2110619 L65.2814159,78.2110619 L65.2814159,76.204646 L62.7473451,76.204646 L62.7473451,78.2110619 L61.8904867,78.2110619 L61.8904867,80.4285398 L62.7473451,80.4285398 L62.7473451,85.1807522 L65.2814159,85.1807522 L65.2814159,80.4285398 L66.1150442,80.4285398 L66.1150442,78.2110619 Z M76.7073009,85.1276549 L74.2780973,85.1276549 L74.2780973,78.1573009 L76.7073009,78.1573009 L76.7073009,85.1276549 Z M80.8581858,87.4506637 L78.4283186,87.4506637 L78.4283186,78.1573009 L80.8581858,78.1573009 L80.8581858,87.4506637 Z M76.9608407,75.8084071 C76.9608407,76.6251043 76.2987768,77.2871681 75.4820796,77.2871681 C74.6653825,77.2871681 74.0033186,76.6251043 74.0033186,75.8084071 C74.0033186,74.9917099 74.6653825,74.329646 75.4820796,74.329646 C76.2987768,74.329646 76.9608407,74.9917099 76.9608407,75.8084071 Z M81.1216814,75.8084071 C81.1216814,76.6252875 80.459469,77.2875 79.6425885,77.2875 C78.825708,77.2875 78.1634956,76.6252875 78.1634956,75.8084071 C78.1634956,74.9915266 78.825708,74.3293142 79.6425885,74.3293142 C80.459469,74.3293142 81.1216814,74.9915266 81.1216814,75.8084071 Z M132.549779,78.2528761 L131.716814,78.2528761 L131.716814,76.2464602 L129.18208,76.2464602 L129.18208,78.2528761 L128.325221,78.2528761 L128.325221,80.4710177 L129.18208,80.4710177 L129.18208,85.2232301 L131.716814,85.2232301 L131.716814,80.4710177 L132.549779,80.4710177 L132.549779,78.2528761 Z M114.324115,73.469469 L109.887832,73.469469 L109.887832,81.0710177 L105.006858,74.3615044 C104.379646,73.7528761 103.328319,73.3526549 102.135619,73.3526549 C100.265265,73.3526549 98.7433628,74.3362832 98.6590708,75.5707965 L98.6511062,75.5707965 L98.6511062,85.0738938 L102.664602,85.0738938 L102.664602,76.9068584 L107.876106,84.0696903 C108.497345,84.7061947 109.571903,85.1276549 110.79646,85.1276549 C112.719912,85.1276549 114.280973,84.0882743 114.280973,82.804646 L114.324115,73.469469 Z M126.912168,77.0176991 C126.934071,77.0037611 126.900221,76.3626106 127.42323,76.3128319 C127.492257,76.279646 127.665487,76.2915929 127.674779,76.2929204 L127.684071,76.2915929 C127.705973,76.2915929 127.725221,76.3015487 127.74646,76.3035398 L127.74646,74.1033186 L126.67854,74.0926991 C125.278967,74.0926991 124.525351,74.5363303 124.409328,75.8202641 L124.399336,75.9610619 C124.388717,76.1628319 124.378761,78.2542035 124.378761,78.2542035 L123.52323,78.2542035 L123.52323,80.4710177 L124.378761,80.4710177 L124.378761,85.2245575 L126.912832,85.2245575 L126.912832,80.4710177 L127.747788,80.4710177 L127.747788,78.2542035 L126.912832,78.2542035 L126.912168,77.0176991 Z M120.099115,78.1891593 L120.099115,78.9929204 C119.672345,78.3597345 119.09292,77.9707965 118.453097,77.9780973 C116.815708,77.9993363 116.076991,79.6095133 116.076991,81.6212389 C116.076991,83.634292 116.604646,85.2856195 118.453097,85.2650442 C119.093584,85.2570796 119.673009,84.8668142 120.099115,84.2382743 L120.099115,85.160177 L122.528319,85.160177 L122.528319,78.1891593 L120.099115,78.1891593 Z M119.349779,83.2274336 C119,83.2274336 118.715929,82.5185841 118.715929,81.6431416 C118.715929,80.7676991 119,80.0588496 119.349779,80.0588496 C119.699558,80.0588496 119.983628,80.7676991 119.983628,81.6431416 C119.983628,82.5185841 119.699558,83.2274336 119.349779,83.2274336 Z M137.570796,78.2303097 L137.570796,79.0334071 C137.142699,78.400885 136.563274,78.0112832 135.924779,78.0192478 C134.287389,78.039823 133.548673,79.65 133.548673,81.6623894 C133.548673,83.674115 134.076327,85.3261062 135.924779,85.3048673 C136.563938,85.2982301 137.143363,84.9079646 137.570796,84.2794248 L137.570796,85.2 L140,85.2 L140,78.2303097 L137.570796,78.2303097 Z M136.82146,83.2685841 C136.471681,83.2685841 136.187611,82.5597345 136.187611,81.684292 C136.187611,80.8088496 136.471681,80.1 136.82146,80.1 C137.171239,80.1 137.45531,80.8088496 137.45531,81.684292 C137.45531,82.5597345 137.171239,83.2685841 136.82146,83.2685841 Z M86.2482301,78.309292 L86.2482301,79.1130531 C85.8201327,78.480531 85.240708,78.0909292 84.6022124,78.0982301 C82.964823,78.119469 82.2261062,79.729646 82.2261062,81.7413717 C82.2261062,83.7530973 82.7537611,85.4057522 84.6022124,85.3838496 C85.2413717,85.3772124 85.8207965,84.9869469 86.2482301,84.3584071 L86.2482301,85.2789823 L88.6774336,85.2789823 L88.6774336,78.309292 L86.2482301,78.309292 Z M85.4988938,83.3475664 C85.149115,83.3475664 84.8650442,82.6387168 84.8650442,81.7632743 C84.8650442,80.8878319 85.149115,80.1789823 85.4988938,80.1789823 C85.8486726,80.1789823 86.1314159,80.8878319 86.1314159,81.7632743 C86.1314159,82.6387168 85.8486726,83.3475664 85.4988938,83.3475664 Z M58.3681416,78.4141593 L58.3681416,79.2179204 C57.9413717,78.5853982 57.3612832,78.1957965 56.7221239,78.2037611 C55.0847345,78.225 54.3460177,79.835177 54.3460177,81.8469027 C54.3460177,83.8586283 54.8736726,85.5112832 56.7221239,85.490708 C57.3619469,85.4827434 57.9413717,85.0924779 58.3681416,84.4639381 L58.3681416,85.3845133 L60.7973451,85.3845133 L60.7973451,78.4141593 L58.3681416,78.4141593 Z M57.6188053,83.4524336 C57.2683628,83.4524336 56.9856195,82.7435841 56.9856195,81.8681416 C56.9856195,80.9926991 57.2683628,80.2838496 57.6188053,80.2838496 C57.9685841,80.2838496 58.2526549,80.9926991 58.2526549,81.8681416 C58.2526549,82.7435841 57.9692478,83.4524336 57.6188053,83.4524336 Z M70.9170354,78.2110619 L70.0628319,82.5451327 L69.1336283,78.2110619 L66.7243363,78.2110619 L68.6783186,85.2597345 L71.4865044,85.2597345 L73.3183628,78.2110619 L70.9170354,78.2110619 Z M95.2183628,83.1597345 C95.2183628,82.4634956 94.845354,81.8528761 94.2745575,81.4679204 C94.3044248,81.4353982 92.7473451,80.5931416 92.684292,80.3216814 C92.6368363,80.1196903 92.7221147,79.8100618 92.939616,79.7598597 L93.0449612,79.7457433 C93.1524293,79.7365351 93.4647531,79.7585701 94.0070796,80.1756637 C94.0482301,80.2081858 95.009292,78.8336283 95.009292,78.8336283 L94.8594246,78.7309977 C94.5039055,78.5025284 93.5561315,77.9784292 92.4526549,78.0623894 C91.1690265,78.0623894 90.1283186,79.0081858 90.1283186,80.1743363 C90.1283186,80.8692478 90.5026549,81.4811947 91.0721239,81.864823 L92.5681416,82.7787611 L92.6201464,82.8195601 C92.6965093,82.8825139 92.8112832,82.9983776 92.7911504,83.1584071 C92.7692478,83.3323009 92.5561947,83.4889381 92.3152655,83.475 C92.1314159,83.4643805 90.7933628,82.764823 90.7701327,82.7993363 L89.7606195,84.4207965 L89.8226914,84.4673388 C90.0895634,84.6587316 91.2032301,85.3718142 92.8966814,85.3022124 C93.1608407,85.2915929 93.3506637,85.2517699 93.4880531,85.1946903 C94.4396018,84.9650719 95.1564701,84.2069656 95.2145571,83.2813828 L95.2183628,83.1597345 Z" id="latvijas-nafta"></path>
                </g>
            </g>
        </g>
    </g>
</svg>