<?xml version="1.0" encoding="UTF-8"?>
<svg width="74px" height="20.1818182px" viewBox="0 0 74 20.1818182" version="1.1" xmlns="http://www.w3.org/2000/svg" xmlns:xlink="http://www.w3.org/1999/xlink">
    <title>partners-logo-m79</title>
    <g id="Design" stroke="none" stroke-width="1" fill="none" fill-rule="evenodd">
        <g id="Group-16" transform="translate(-363, -467)" fill="#292C33">
            <g id="Clients" transform="translate(0, 397)">
                <g id="Client-3" transform="translate(320, 0)">
                    <path d="M69.2363636,89.2432527 L69.2337377,89.3103112 C69.1972634,89.7743798 68.7851539,90.1449907 68.2687814,90.1792347 L68.1905774,90.1818182 L67.0601403,90.1818182 C66.5077139,90.1818182 66.055278,89.7975833 66.01698,89.3103112 L66.0143541,89.2432527 L66.0145359,74.2247235 C66.0145359,73.7298597 65.6459628,73.3243937 65.1785103,73.2885556 L65.1110879,73.2859806 L57.7291866,73.2854123 L57.7291866,84.080462 L57.7265606,84.1475205 C57.6900864,84.6115891 57.2779768,84.9822 56.7616043,85.016444 L56.6834004,85.0190275 L55.5529632,85.0190275 C55.0005368,85.0190275 54.548101,84.6347926 54.509803,84.1475205 L54.507177,84.080462 L54.507177,73.2854123 L47.1252869,73.3040788 C46.6490289,73.3040788 46.2589632,73.6870509 46.2244867,74.1727652 L46.2220096,74.2428216 L46.2220096,89.2432527 L46.2193836,89.3103112 C46.1829093,89.7743798 45.7707998,90.1449907 45.2544273,90.1792347 L45.1762234,90.1818182 L44.0457862,90.1818182 C43.4933598,90.1818182 43.0409239,89.7975833 43.002626,89.3103112 L43,89.2432527 L43,74.2242541 C43,71.9328099 44.7556228,70.0676819 46.9453953,70.0018009 L65.1709328,70 C67.3762234,70 69.1712264,71.8242093 69.2346305,74.0996973 L69.2363636,89.2432527 Z M89.0931259,70 C89.0415589,70 88.9913951,70.005134 88.9407052,70.0077895 L88.8707215,70 L71.5098479,70 C70.9973356,70 70.5818182,70.4613493 70.5818182,71.0303349 L70.5838047,72.2549003 C70.5838047,72.824417 70.999322,73.2854123 71.5118344,73.2854123 L88.5776317,73.2854123 L88.391654,73.6364716 C88.3767732,73.6656494 88.3640674,73.6916794 88.3550519,73.7122153 L87.409307,75.5694737 L79.8819802,90.1818182 L83.7070553,90.1818182 L91.3810147,75.2821483 L91.5586256,74.92356 C91.6649689,74.7038981 91.7480348,74.5215877 91.8129289,74.3679742 L91.8877389,74.1854258 L91.9240462,74.085756 C91.9593012,73.985378 91.9775426,73.9106699 91.9882418,73.8485311 C92.0594533,73.5911244 92.1090909,73.3243349 92.1090909,73.0439139 C92.1090909,71.3626268 90.7587033,70 89.0931259,70 Z M112.882909,70 C115.156716,70 117,71.8911947 117,74.2241015 L117,85.7230444 C117,88.1431 115.120825,90.112843 112.777914,90.1800458 L112.654182,90.1818182 L101.904,90.1818182 C101.39871,90.1818182 100.989091,89.7615527 100.989091,89.243129 L100.989091,87.8350951 C100.989091,87.3166714 101.39871,86.8964059 101.904,86.8964059 L112.654182,86.8964059 C113.26053,86.8964059 113.756665,86.4122601 113.795386,85.8001932 L113.797818,85.7230444 L113.797818,81.7336152 L98.2443636,81.7336152 C95.9705571,81.7336152 94.1272727,79.8424206 94.1272727,77.5095137 L94.1272727,74.2241015 C94.1272727,71.8911947 95.9705571,70 98.2443636,70 L112.882909,70 Z M112.425455,73.2854123 L98.7018182,73.2854123 C97.9709518,73.2854123 97.3735253,73.8715861 97.3317842,74.6107134 L97.3294545,74.6934461 L97.3294545,77.0401691 C97.3294545,77.790032 97.9007787,78.4029867 98.6211814,78.4458127 L98.7018182,78.448203 L113.797818,78.448203 L113.797818,74.6934461 C113.797818,73.9435832 113.226494,73.3306285 112.506091,73.2878025 L112.425455,73.2854123 Z" id="m79"></path>
                </g>
            </g>
        </g>
    </g>
</svg>