<?xml version="1.0" encoding="UTF-8"?>
<svg width="120px" height="32px" viewBox="0 0 120 32" version="1.1" xmlns="http://www.w3.org/2000/svg" xmlns:xlink="http://www.w3.org/1999/xlink">
    <title>partners-logo-watex</title>
    <g id="Design" stroke="none" stroke-width="1" fill="none" fill-rule="evenodd">
        <g id="Group-16" transform="translate(-180, -461)" fill="#292C33">
            <g id="Clients" transform="translate(0, 397)">
                <g id="Client-2" transform="translate(160, 0)">
                    <path d="M34.8762429,64.5644482 L35.5009322,64 L36.0322282,65.2303365 C37.357057,68.3863127 44.4893962,86.2696712 38.919126,93.2429319 C37.0098646,95.6610279 33.8248294,96.4873801 29.4608034,95.7265039 C28.9302698,95.6728014 28.4067731,95.5615485 27.8990803,95.3946084 C23.5570503,94.3266724 20.9725087,92.260792 20.2224417,89.2488965 C17.9238493,79.9874305 34.1811662,65.1898568 34.8762429,64.5644482 Z M33.6950524,80.2267566 L33.752573,80.8089248 C34.0173805,83.7199935 34.250154,89.9834488 31.5856266,91.9379276 C30.4572266,92.7665376 29.0032845,92.7326707 27.2611934,91.8295536 C26.5316704,91.4699602 25.8708654,90.9790262 25.3101394,90.3800506 C25.4319169,91.2158012 25.7364793,92.0123994 26.2009815,92.7100928 C26.7276864,93.4293738 27.4681002,93.9532103 28.3104074,94.2024938 L28.4731785,94.2431341 C28.8823059,94.3379614 29.2782357,94.4147263 29.6653671,94.4824601 C30.6422087,94.5631038 31.6250488,94.5175923 32.5908482,94.3469925 C35.3491591,93.8999496 37.0274614,92.8116935 37.5663659,91.1115755 C38.5099986,88.1583825 36.2114062,83.8143893 33.6950524,80.2267566 Z M105.859854,88.7589555 C106.259791,88.7455541 106.657106,88.8299047 107.019049,89.0050549 L106.832082,89.537894 C106.522891,89.3788193 106.181511,89.2968252 105.835659,89.2985679 C105.120786,89.2985679 104.848034,89.7094862 104.848034,90.0549285 C104.848034,90.4990496 105.130558,90.7311726 105.767126,90.9828248 L105.890649,91.030295 C106.770493,91.3599327 107.230211,91.770851 107.230211,92.5136648 C107.230211,93.2926033 106.629718,93.9676833 105.393537,93.9676833 C104.928002,93.9742277 104.468019,93.8633617 104.053975,93.644819 L104.223345,93.0984332 C104.594351,93.3120704 105.012137,93.4254947 105.437529,93.4280709 C106.130406,93.4280709 106.537334,93.0758552 106.537334,92.5655941 C106.537334,92.0937153 106.255784,91.825038 105.54751,91.5608762 C104.691862,91.269621 104.163955,90.8428982 104.163955,90.1294357 C104.163955,89.3437238 104.839236,88.7589555 105.859854,88.7589555 Z M116.103438,88.7589555 C116.503375,88.7455541 116.900689,88.8299047 117.262632,89.0050549 L117.077865,89.537894 C116.768673,89.3788193 116.427294,89.2968252 116.081442,89.2985679 C115.364369,89.2985679 115.091617,89.7094862 115.091617,90.0549285 C115.091617,90.4990496 115.374142,90.7311726 116.010709,90.9828248 L116.134232,91.030295 C117.014076,91.3599327 117.473795,91.770851 117.473795,92.5136648 C117.473795,93.2926033 116.875501,93.9676833 115.637121,93.9676833 C115.171653,93.9735854 114.71182,93.8627553 114.297558,93.644819 L114.466928,93.0984332 C114.837934,93.3120704 115.255721,93.4254947 115.681112,93.4280709 C116.37399,93.4280709 116.780917,93.0758552 116.780917,92.5655941 C116.780917,92.0937153 116.501567,91.825038 115.793293,91.5608762 C114.935445,91.269621 114.407539,90.8428982 114.407539,90.1294357 C114.407539,89.3437238 115.085019,88.7589555 116.103438,88.7589555 Z M138.592249,88.7589555 C138.992186,88.7455541 139.389501,88.8299047 139.751444,89.0050549 L139.564477,89.537894 C139.255286,89.3788193 138.913906,89.2968252 138.568054,89.2985679 C137.853181,89.2985679 137.580429,89.7094862 137.580429,90.0549285 C137.580429,90.4990496 137.862953,90.7311726 138.499521,90.9828248 L138.623044,91.030295 C139.502888,91.3599327 139.962607,91.770851 139.962607,92.5136648 C139.962607,93.2926033 139.362113,93.9676833 138.125932,93.9676833 C137.660397,93.9742277 137.200414,93.8633617 136.78637,93.644819 L136.95574,93.0984332 C137.326746,93.3120704 137.744532,93.4254947 138.169924,93.4280709 C138.862802,93.4280709 139.269729,93.0758552 139.269729,92.5655941 C139.269729,92.0937153 138.988179,91.825038 138.279905,91.5608762 C137.424257,91.269621 136.896351,90.8428982 136.896351,90.1294357 C136.896351,89.3437238 137.571631,88.7589555 138.592249,88.7589555 Z M54.1646223,88.8357204 L54.1646223,91.8272958 C54.1646223,92.9561922 54.6859299,93.4393598 55.3854058,93.4393598 C56.1640677,93.4393598 56.6633792,92.9449033 56.6633792,91.8272958 L56.6633792,88.8357204 L57.3474579,88.8357204 L57.3474579,91.770851 C57.3474579,93.3219546 56.4984084,93.96091 55.3678089,93.96091 C54.2921997,93.96091 53.4827432,93.3671105 53.4827432,91.8002023 L53.4827432,88.8357204 L54.1646223,88.8357204 Z M49.6004317,88.8041113 C50.2603147,88.8041113 50.7596262,88.9531257 51.0719707,89.2240608 C51.3482861,89.460858 51.5136331,89.8046928 51.5309666,90.1704185 L51.5316892,90.2807078 C51.5498295,90.6827293 51.4030357,91.0741612 51.126961,91.3599327 C50.7684246,91.7256951 50.1833284,91.9153497 49.5234454,91.9153497 C49.3405637,91.9202595 49.1576938,91.9051218 48.9779421,91.8701939 L48.9779421,93.9022074 L48.3004622,93.9022074 L48.3004622,88.9011964 C48.7305705,88.833309 49.1652799,88.8008438 49.6004317,88.8041113 Z M67.9143839,88.8357204 L67.9143839,89.3843641 L65.7543669,89.3843641 L65.7543669,90.9806235 L67.7956049,90.9806235 L67.7978046,91.5247516 L65.7543669,91.5247516 L65.7543669,93.3513059 L68.0287636,93.3513059 L68.0287636,93.8976918 L65.0812863,93.8976918 L65.0812863,88.8357204 L67.9143839,88.8357204 Z M93.8323875,88.8357204 L93.8323875,89.3843641 L91.67677,89.3843641 L91.67677,90.9806235 L93.7158081,90.9806235 L93.7158081,91.5247516 L91.67677,91.5247516 L91.67677,93.3513059 L93.9489669,93.3513059 L93.9489669,93.8976918 L90.99929,93.8976918 L90.99929,88.8357204 L93.8323875,88.8357204 Z M127.53701,88.8357204 L127.53701,89.3843641 L125.381392,89.3843641 L125.381392,90.9806235 L127.420431,90.9806235 L127.429229,91.5247516 L125.390191,91.5247516 L125.390191,93.3513059 L127.664587,93.3513059 L127.664587,93.8976918 L124.703912,93.8976918 L124.703912,88.8357204 L127.53701,88.8357204 Z M130.757239,88.8357204 L132.186986,92.9787701 L132.211181,92.9787701 L133.702517,88.8357204 L134.569163,88.8357204 L134.896905,93.8864028 L134.237022,93.8864028 L133.999464,89.4927381 L132.402547,93.8615671 L131.885639,93.8615671 L130.422898,89.4927381 L130.397219,90.085749 L130.180941,93.8931762 L129.532056,93.8931762 L129.890593,88.8357204 L130.757239,88.8357204 Z M109.592592,88.8357204 L110.588294,90.742638 L110.771519,91.1037212 L110.852969,91.2718788 L110.870566,91.2718788 L112.152939,88.8357204 L112.925001,88.8357204 L111.165314,91.7369841 L111.165314,93.8886606 L110.481235,93.8931762 L110.481235,91.748273 L108.822729,88.8357204 L109.592592,88.8357204 Z M97.2263856,88.8041113 C97.9500575,88.8041113 98.4185744,88.9305477 98.7441162,89.2150296 C99.0155937,89.4547259 99.1674781,89.8071644 99.1576431,90.1745915 C99.1538987,90.7861586 98.7462462,91.3171069 98.1678187,91.4637912 L98.1678187,91.4863691 C98.5725469,91.6218367 98.8145037,91.9808257 98.9398819,92.5068914 C99.0314312,92.9811726 99.1669575,93.4453804 99.34461,93.8931762 L98.6429344,93.8931762 C98.4867619,93.5037477 98.36958,93.0990257 98.2931962,92.685257 C98.1370244,91.9898569 97.8532744,91.7256951 97.2417831,91.705375 L96.6038962,91.705375 L96.6038962,93.8931762 L95.9264162,93.8931762 L95.9264162,88.9079697 C96.3559806,88.8346823 96.7909469,88.7999316 97.2263856,88.8041113 Z M122.917829,88.8357204 L122.917829,89.3911374 L121.314314,89.3911374 L121.314314,93.8931762 L120.630235,93.8931762 L120.630235,89.395653 L119.035518,89.395653 L119.035518,88.8357204 L122.917829,88.8357204 Z M89.2132069,88.8357204 L89.2132069,89.3911374 L87.6096912,89.3911374 L87.6096912,93.8931762 L86.9256125,93.8931762 L86.9168137,89.395653 L85.330895,89.395653 L85.330895,88.8357204 L89.2132069,88.8357204 Z M73.3540192,88.8357204 L74.0335655,91.6274856 L74.1424204,92.0927056 L74.2416864,92.5379228 L74.3658397,93.1390734 L74.381237,93.1390734 C74.4348525,92.8258047 74.5185408,92.4737301 74.6172655,92.0944254 L74.8079614,91.3847684 L75.5096369,88.8357204 L76.2179113,88.8357204 L76.8557982,91.400573 L76.9988543,91.9970484 C77.0899344,92.391744 77.1696092,92.777074 77.2209334,93.1323001 L77.2363307,93.1323001 C77.3463112,92.576883 77.4936851,92.0034037 77.6564562,91.3847684 L78.3493333,88.8357204 L79.0422104,88.8357204 L77.5552741,93.8886606 L76.8469997,93.8886606 L76.1871167,91.2583321 C76.0409291,90.7156605 75.9263467,90.1645367 75.8439776,89.6078855 L75.8285804,89.6078855 C75.7583927,89.9794588 75.6749461,90.3481982 75.5784225,90.7133616 L74.6759847,93.8886606 L73.9677104,93.8931762 L72.6369464,88.8357204 L73.3540192,88.8357204 Z M60.9834131,88.8041113 C61.7070847,88.8041113 62.1756016,88.9305477 62.5011439,89.2150296 C62.7718482,89.4553137 62.923562,89.8073559 62.9146706,90.1745915 C62.9109263,90.7861586 62.5032737,91.3171069 61.9248461,91.4637912 L61.9248461,91.4863691 C62.3295743,91.6218367 62.5715314,91.9808257 62.6969092,92.5068914 C62.7873606,92.9814517 62.9229183,93.4457671 63.1016374,93.8931762 L62.3999618,93.8931762 C62.2437895,93.5037477 62.1266072,93.0990257 62.0502239,92.685257 C61.8940516,91.9898569 61.6103019,91.7256951 60.9988103,91.705375 L60.3609234,91.705375 L60.3609234,93.8931762 L59.6834436,93.8931762 L59.6834436,88.9079697 C60.1130081,88.8346823 60.5479743,88.7999316 60.9834131,88.8041113 Z M82.7419544,88.8357204 L84.5324369,93.8886606 L83.808765,93.8886606 L83.2478644,92.3082057 L81.3869946,92.3036901 L80.8436909,93.884145 L80.1420154,93.884145 L81.9258991,88.8357204 L82.7419544,88.8357204 Z M28.2007087,73.6559936 L28.4291863,73.1869587 L27.950293,73.7724157 C24.0448437,78.602197 20.3369077,84.5836326 21.4168299,88.9373211 C21.8369554,90.6419546 23.0137467,91.9966303 24.9098104,92.9810279 C21.8778201,87.5953344 27.0014521,76.1702159 28.2007087,73.6559936 L28.2007087,73.6559936 Z M82.3218288,89.4182309 L82.3064316,89.4182309 L81.5277696,91.7934289 L83.1070894,91.7934289 L82.4856604,89.9386963 L82.348784,89.510888 L82.3218288,89.4182309 Z M49.6202282,89.3211459 C49.4064194,89.3156713 49.1926366,89.333075 48.9823414,89.3730751 L48.9779421,91.3373548 C49.1623941,91.376382 49.3505642,91.3938032 49.5388426,91.3892841 C50.3548979,91.3892841 50.8586086,91.0077171 50.8586086,90.3100591 C50.8586086,89.6124011 50.3680956,89.3211459 49.6202282,89.3211459 Z M32.4896662,80.4976917 L32.1109077,80.7340325 C29.5667274,82.3485311 25.5143276,85.4540425 25.5498969,87.9732435 C25.5652942,89.014086 26.3285588,89.9284921 27.8176947,90.7006572 C29.1352611,91.3802528 30.133884,91.4502444 30.8685537,90.9083742 C32.9295882,89.3979108 32.7932124,83.5524853 32.4896662,80.4976917 Z M61.0296049,89.3053413 C60.8080857,89.2993477 60.5866386,89.3198051 60.3697219,89.3663017 L60.3609234,91.2086606 L61.0538006,91.2086606 C61.7774722,91.2086606 62.2371907,90.8270937 62.2371907,90.2490987 C62.2371907,89.5988544 61.7466777,89.3121147 61.0296049,89.3053413 Z M97.2725775,89.3053413 C97.0510581,89.2993477 96.8296112,89.3198051 96.6126944,89.3663017 L96.6038962,91.2086606 L97.2967731,91.2086606 C98.020445,91.2086606 98.4801631,90.8270937 98.4801631,90.2490987 C98.4801631,89.5988544 97.98965,89.3121147 97.2725775,89.3053413 Z M35.056611,66.1020051 C32.9185193,68.1436313 30.8855231,70.298229 28.9658911,72.5570346 L29.7797878,73.4073403 C31.6480337,75.4087048 39.8458986,84.6504675 38.9268296,90.6682061 L38.879,90.934272 L39.0041525,90.6375718 C41.673305,83.8945423 36.928474,70.8044865 35.2644733,66.6187093 L35.056611,66.1020051 Z M127.068493,67.4792587 L131.192762,72.8979613 L135.248842,67.4792587 L139.753644,67.4792587 L133.414368,75.9821062 L140,84.787498 L135.449007,84.8033025 L131.139971,78.9962595 L126.80454,84.7965292 L122.299739,84.7965292 L128.898569,75.9775906 L122.563692,67.4792587 L127.068493,67.4792587 Z M102.84199,67.4792587 L102.84199,70.1276496 L96.6434887,70.1276496 L96.6434887,84.8033025 L92.7127862,84.8033025 L92.6995881,70.1276496 L86.5780737,70.1276496 L86.5780737,67.4792587 L102.84199,67.4792587 Z M80.1244185,67.4792587 L87.1213775,84.7965292 L82.9113244,84.7965292 L80.9624699,79.8903455 L74.1128846,79.8903455 L72.2652123,84.7965292 L68.206932,84.7965292 L75.1093079,67.4792587 L80.1244185,67.4792587 Z M118.945334,67.4792587 L118.945334,70.0757203 L110.349258,70.0757203 L110.349258,74.54615 L118.465819,74.54615 L118.452621,77.1268071 L110.336061,77.1268071 L110.336061,82.2023253 L119.424849,82.2023253 L119.424849,84.7965292 L106.420755,84.7965292 L106.420755,67.4792587 L118.945334,67.4792587 Z M47.2336514,67.4792587 L50.7046359,81.0011795 L54.0964344,68.4365628 L54.3383915,67.4792587 L57.8753642,67.4792587 L58.1723116,68.7413648 L61.3551471,81.0011795 L64.9823039,67.4792587 L69.1945569,67.4792587 L63.9660841,84.787498 L58.9531731,84.787498 L56.1640677,75.3860489 L53.3243713,84.787498 L48.3114603,84.787498 L43.1775708,67.4792587 L47.2336514,67.4792587 Z M29.1484587,74.557439 L28.7799488,75.3735478 C27.8832627,77.4036928 26.4136104,81.0496468 25.651079,84.6226791 C27.5496396,82.0822351 30.9602207,79.9335948 32.2557162,79.1743425 L32.7338229,78.9014323 C31.2930784,76.9800506 29.9007253,75.3973379 29.1484587,74.557439 Z M77.5046831,69.9989554 L77.4408944,69.9989554 L77.2474525,70.5698552 L74.934001,77.0153077 L74.7573703,77.5016007 L80.2717924,77.5016007 L77.5046831,69.9989554 Z" id="watex"></path>
                </g>
            </g>
        </g>
    </g>
</svg>