<?xml version="1.0" encoding="UTF-8"?>
<svg width="70px" height="79.9970086px" viewBox="0 0 70 79.9970086" version="1.1" xmlns="http://www.w3.org/2000/svg" xmlns:xlink="http://www.w3.org/1999/xlink">
    <title>partners-logo-drosi-seifi</title>
    <g id="Design" stroke="none" stroke-width="1" fill="none" fill-rule="evenodd">
        <g id="Group-16" transform="translate(-685, -757)" fill="#292C33">
            <g id="Clients" transform="translate(0, 397)">
                <g id="Client-17" transform="translate(640, 320)">
                    <path d="M81.9090909,79.7199609 C81.3151515,80.5926408 80.995338,81.5304461 80.9496503,82.5203517 C80.9170163,83.1325301 80.9365967,83.3083686 81.0540793,83.7121459 L81.141847,83.9721258 C81.1886946,84.0970979 81.2294872,84.1810485 81.2498834,84.1810485 C81.2759907,84.1810485 81.367366,84.1094106 81.4456876,84.0247476 C81.5240093,83.9400847 81.772028,83.7902963 81.9874126,83.6926083 C82.3072261,83.5493325 82.444289,83.5232823 82.6727273,83.555845 C83.0643357,83.6079453 83.4624709,83.7902963 83.762704,84.0573103 C84.0041958,84.2657115 84.3240093,84.7020514 84.3240093,84.8192771 C84.3240093,84.8425362 84.2440892,84.8558271 84.1318206,84.8567764 L83.9846154,84.8518398 C83.5081585,84.8192771 83.2013986,85.0016281 82.8424242,85.5356561 C82.0918415,86.6492999 81.7002331,89.2868772 81.8438228,92.2110062 L81.8917673,93.0371856 C81.9355462,93.6815659 81.9891531,94.1174427 82.1375291,95.1872354 C82.4312354,97.2842722 83.2927739,100.130251 83.997669,101.341583 C84.3109557,101.875611 84.7156177,102.311951 85.0550117,102.487789 C85.3252214,102.62846 85.8174732,102.74803 86.5032186,102.837004 L89.0910495,103.14898 C90.2938552,103.296129 91.4989447,103.446745 92.5360688,103.579874 L96.2514509,104.079921 L98.9657238,104.461735 C99.2810533,104.509092 99.5012821,104.544529 99.5641026,104.558776 L99.6949446,104.590015 C99.764292,104.611453 99.7023779,104.617694 99.4608559,104.622306 L99.1556919,104.622306 C99.0291137,104.62018 98.9296323,104.615926 98.8901289,104.609547 L98.8722611,104.604363 C98.8200466,104.552263 93.441958,104.03126 91.0792541,103.848909 L88.3820709,103.643992 C87.3885375,103.575204 86.0191466,103.48853 84.7202118,103.410799 L83.8744099,103.363523 C80.9987196,103.222325 77.3708979,103.256084 71.8431828,103.483952 L68.8749536,103.616901 C66.693545,103.724985 64.0175388,103.886862 63.6079254,103.933572 L63.52211,103.94515 C63.4824657,103.948044 63.4795649,103.942256 63.5230769,103.933572 C63.5818182,103.920547 63.6340326,103.868447 63.6340326,103.822859 C63.6340326,103.786389 63.69669,103.758255 63.7986126,103.745125 L64.4941207,103.696226 C64.63626,103.685372 64.7892774,103.673071 64.9393939,103.660046 L69.5025574,103.25731 C71.8003636,103.045234 73.8072984,102.817009 74.2988345,102.709215 C75.1407925,102.526864 75.5846154,102.142625 76.1132867,101.139694 C76.6550117,100.110713 77.3207459,97.9159883 77.6601399,96.0664279 C78.5543124,91.1364376 78.4041958,85.7245197 77.3207459,83.5949202 C76.9978866,82.96277 76.5101456,82.6426426 76.1122366,82.7827963 L76.0284382,82.8199284 C75.7869464,82.9436666 75.767366,82.8459785 75.9762238,82.572452 C76.0937063,82.4226636 76.3351981,82.220775 76.5179487,82.1165744 C76.9617716,81.8756106 77.5948718,81.8625855 78.1039627,82.0905243 C78.4825175,82.2598502 79.0307692,82.7938782 79.2135198,83.1650928 C79.2722611,83.2953435 79.3440559,83.3995441 79.3636364,83.3995441 C79.4615385,83.3995441 79.6573427,82.4943015 79.6573427,82.0319114 C79.6573427,81.6913988 79.6333666,81.5279208 79.5402027,81.311811 L79.4876457,81.1983067 C79.3962704,81.0159557 79.3440559,80.8596548 79.3701632,80.8596548 C79.4501166,80.8596548 79.709965,81.0989906 79.8348922,81.2722596 L79.8792541,81.3415825 C79.9314685,81.4327581 79.9967366,81.5109085 80.0228438,81.5109085 C80.048951,81.5109085 80.1468531,81.3741452 80.2447552,81.2048193 C80.6689977,80.4754152 81.4522145,79.6743732 82.0592075,79.3487463 L82.1143452,79.323295 C82.1941463,79.2926769 82.1520889,79.3617714 81.9090909,79.7199609 Z M73.2284382,83.1129925 C73.2675991,83.1520677 73.1174825,83.373494 72.830303,83.725171 L72.6144071,83.9751141 C71.7531219,84.954231 69.2197158,87.7079022 67.7459207,89.2608271 L66.1169161,90.9879391 C65.8445758,91.2868088 65.8493571,91.3051333 65.9706294,91.2211006 L66.0928107,91.1203028 C66.3267874,90.9153269 66.8278197,90.4442609 67.3893031,89.9018049 L69.8587057,87.5169473 C72.4034546,85.0844881 73.8164442,83.8364761 73.9202797,83.9400847 C73.9787599,83.998437 73.7854829,84.7920287 73.5353047,85.6392111 L73.4251698,86.003583 L73.2788153,86.4625141 C73.1564143,86.834224 73.0354312,87.1703028 72.9347319,87.4047542 C71.616317,90.485184 69.6386946,92.3086942 66.5515152,93.3051123 C65.7095571,93.5721263 64.3780886,93.8196027 63.7384615,93.8196027 L63.35338,93.8196027 L63.3990676,93.4483881 C63.4773893,92.7906219 63.82331,91.3383263 64.1235431,90.4526213 C64.4694639,89.4106154 65.0438228,88.2057962 65.5986014,87.3721915 C66.0881119,86.6232498 67.2955711,85.3923803 68.006993,84.9169652 C68.7118881,84.44155 69.7365967,83.9465972 70.6111888,83.6535331 L70.8992886,83.5647216 C71.8162984,83.2970368 73.1462005,83.0309345 73.2284382,83.1129925 Z M89.2582751,83.6014328 C90.7986014,84.0963855 92.0648019,84.8257896 93.1090909,85.8287203 C94.590676,87.2354282 95.5762238,89.0589385 96.2615385,91.6183654 L96.3630956,92.0348551 C96.5051189,92.6588082 96.6596737,93.4861609 96.6596737,93.6633019 C96.6596737,93.8130902 96.6400932,93.8196027 96.2550117,93.8130902 C96.0265734,93.8065777 95.6806527,93.774015 95.4848485,93.7414523 C93.4876457,93.4028004 91.9734266,92.8427222 90.6550117,91.9635298 C89.7086247,91.3253012 88.5925408,90.1400195 87.9594406,89.0915011 C87.6265734,88.531423 87.0456876,87.3200912 86.8041958,86.6558124 C86.6083916,86.1152719 86.0862471,84.2005861 86.0862471,84.0117226 C86.0862471,83.9596223 86.1188811,83.9205471 86.158042,83.9205471 C86.3511761,83.9205471 88.4592267,85.8490787 92.096183,89.3549604 L93.9107869,91.0962368 C94.1408232,91.3123565 94.3050543,91.4624866 94.3677808,91.5121547 L94.388345,91.5271898 C94.5319347,91.6313904 93.4615385,90.4786714 91.7645688,88.7007489 L90.5958086,87.4700554 C88.4424079,85.1792901 86.6818182,83.1764897 86.765035,83.0934549 C86.8433566,83.0153045 88.4554779,83.3409313 89.2582751,83.6014328 Z M65.2004662,80.2344513 L65.5450612,80.3617002 C66.3174679,80.6526783 66.8550117,80.8962879 66.8778555,80.970368 C66.9235431,81.1006187 65.0634033,81.7648974 61.8391608,82.7808531 L58.245276,83.8981519 C57.7081706,84.0627409 57.2179382,84.2109893 56.6915321,84.3680616 L51.8923077,85.7831325 C51.8400932,85.7961576 51.8205128,85.8287203 51.8400932,85.8482579 L51.9075579,85.8392545 C52.1894903,85.7862096 53.3253306,85.5190864 54.7917927,85.1613004 L59.3971154,84.0316672 C62.264984,83.3399137 64.316887,82.8790245 65.5400992,82.6489997 L66.5866039,82.4514859 L66.7864802,82.4096386 C67.2796167,82.3050762 67.2953697,82.3864025 66.7842542,83.0266858 L66.6885781,83.1455552 C65.3048951,84.8583523 63.6470862,86.3432107 62.0675991,87.294041 C59.6787879,88.7267991 57.3421911,89.2282644 54.5944056,88.896125 L54.0871673,88.8320224 C53.7127066,88.7799124 53.4957265,88.7289699 52.6820513,88.5379355 C52.0021756,88.3751221 51.2951049,88.1580376 50.5570621,87.8791442 L50.1104895,87.7043308 C49.4382284,87.4373168 48.2960373,86.8642136 48.2960373,86.7925757 C48.2960373,86.7274503 48.6818441,86.184739 49.1188984,85.6159774 L49.3401473,85.3315163 C49.4884284,85.1432155 49.6362082,84.9603821 49.7710956,84.7997395 C50.4433566,83.9986975 51.7487179,82.7027027 52.4405594,82.1491371 C54.0787879,80.8401172 56.030303,79.8697493 57.6946387,79.5310974 C59.979021,79.0687073 62.7006993,79.3226962 65.2004662,80.2344513 Z M103.362704,79.8111364 C106.111494,80.7066102 108.769767,82.770198 111.006793,85.7355772 L111.273193,86.0957343 C111.527739,86.4474113 111.736597,86.760013 111.736597,86.7925757 C111.736597,86.8707261 110.542191,87.463367 109.687179,87.8085314 C108.877855,88.1276457 107.513753,88.5509606 106.776224,88.7007489 C105.386014,88.980788 103.675991,89.065451 102.501166,88.9026376 C100.517016,88.629111 98.9114219,87.9843699 97.1165501,86.7339629 C95.8829837,85.874308 94.5188811,84.5783133 93.3701632,83.1846304 L93.2004662,82.9710525 C92.9650157,82.6677718 92.8213181,82.4493058 92.8480186,82.4226636 C92.9132867,82.3575383 94.2382284,82.572452 95.6937063,82.8785412 L97.02179,83.1756746 C97.7405903,83.3405519 98.6249331,83.5472501 99.5713376,83.7709389 L103.391036,84.684945 C105.200756,85.1233053 106.730708,85.5024692 107.220136,85.6398916 L107.331002,85.6724194 C107.644289,85.77662 108.055478,85.8352328 107.996737,85.7701075 C107.974981,85.748399 107.947423,85.729585 107.925667,85.7194544 L107.380295,85.562264 L106.384615,85.2556171 C106.170536,85.1878867 105.835319,85.0909801 105.56276,85.0149137 L104.903776,84.8313236 C103.043757,84.2958554 98.0325435,82.7384996 96.0979871,82.0951275 L95.1704349,81.7802424 C94.1330151,81.420619 93.1958042,81.0711572 93.1482517,81.0289808 C93.0764569,80.9508303 93.2592075,80.8531423 93.9967366,80.5470531 C97.2862471,79.198958 100.67366,78.931944 103.362704,79.8111364 Z M90.1589744,78.2481276 C90.7072261,78.3914035 91.8820513,78.9254315 92.1496503,79.1468577 L92.3128205,79.2771084 L92.0843823,79.550635 C91.7254079,79.9934875 90.6680653,80.8401172 90.1198135,81.1201563 C89.193007,81.602084 88.0899767,81.7583849 87.1305361,81.5499837 C86.3212121,81.3676327 85.0745921,80.8531423 85.1202797,80.716379 C85.1333333,80.6773038 85.2377622,80.6121784 85.3421911,80.5861283 L85.4846844,80.5516965 C85.8650145,80.4658483 86.7838844,80.2845783 87.637904,80.1246434 L89.0781283,79.8642153 C89.4867133,79.7862704 89.8071202,79.7063438 89.8391608,79.6743732 C89.8961221,79.6175365 89.7701169,79.6123695 89.1171813,79.6914398 L87.4449181,79.908025 C86.3217631,80.0492518 85.4217032,80.1402745 85.1686622,80.1330251 L84.9440559,80.1107131 L85.2703963,79.7981114 C86.0731935,79.0231195 86.8890443,78.5216542 87.7832168,78.2481276 C88.4424242,78.046239 89.4214452,78.046239 90.1589744,78.2481276 Z M72.9347319,78.5086291 C73.4764569,78.762618 74.2923077,79.3422338 74.7948718,79.8241615 L75.0885781,80.1107131 L74.8144522,80.1302507 L74.7198263,80.1301108 C74.4831977,80.1209462 73.9137816,80.0644544 73.251239,79.9881467 L70.5089839,79.6597754 C70.0776343,79.6141203 70.0852545,79.6315165 70.1282051,79.6743732 C70.1589744,79.6999581 70.5725275,79.7938915 71.1219257,79.896153 L72.7480729,80.1834684 C73.4372948,80.3096223 73.9685018,80.41709 74.3336328,80.5039565 L74.5454027,80.5569425 L74.7307877,80.6104028 C74.8599179,80.6517558 74.9254079,80.6850568 74.9254079,80.7098665 C74.9254079,80.8205796 74.1682984,81.1722566 73.4177156,81.4132204 C72.7454545,81.6281342 71.6620047,81.6932595 71.041958,81.5499837 C70.030303,81.3220449 68.8097902,80.5210029 67.9090909,79.4985347 L67.7198135,79.283621 L67.8764569,79.1468577 C68.1505828,78.9254315 69.3319347,78.3914035 69.8540793,78.2546402 C71.0158508,77.961576 71.9296037,78.0397265 72.9347319,78.5086291 Z M109.915618,74.9462716 C110.633566,74.9723217 110.803263,75.0048844 111.436364,75.2132856 C112.284848,75.5063497 113.12028,75.9231521 113.805594,76.4115923 L114.1927,76.6965395 C114.645421,77.0399524 115,77.3466065 115,77.4080104 C115,77.6033865 113.681585,78.5542169 112.748252,79.029632 C111.247086,79.8046239 109.804662,80.0455878 108.505828,79.7525236 C107.748718,79.5831977 107.21352,79.3878216 106.567366,79.0556822 C105.862471,78.6974927 104.726807,77.9225008 104.700699,77.7857375 C104.688371,77.7057781 104.862338,77.6780998 105.8824,77.6258945 L106.989916,77.5717887 C107.33487,77.5575576 107.705689,77.5442913 108.063697,77.5329546 L111.321657,77.4383493 C112.010394,77.4129312 112.489852,77.3889447 112.50676,77.3754477 L112.430451,77.3698526 L110.060729,77.2960913 C109.581757,77.2801717 109.063426,77.2603929 108.546922,77.2386845 L106.460997,77.1392642 C105.791357,77.1027481 105.271262,77.0682802 105.059674,77.0433084 L104.890243,77.0182455 C104.759707,76.9954612 104.662471,76.9688794 104.648485,76.9456203 C104.59627,76.8609573 105.588345,76.1966786 106.384615,75.7863888 C107.68345,75.1221101 108.616783,74.9006838 109.915618,74.9462716 Z M52.4731935,75.2653859 C53.3804196,75.55845 55.3449883,76.6981439 55.3449883,76.9195702 C55.3449883,76.9651579 55.220979,77.0172582 55.0317016,77.0433084 L54.8399877,77.0633299 C53.9547489,77.1409785 51.1686668,77.2607892 49.9243663,77.2763042 L49.1697074,77.2838202 C48.3536719,77.2975902 48.034965,77.3329247 48.034965,77.4080104 C48.034965,77.4272053 48.6196657,77.4570078 49.4574568,77.4791802 L51.7259404,77.5275923 C53.7042299,77.5801241 55.2142272,77.6635713 55.3384615,77.7336373 C55.5473193,77.8508629 53.7002331,79.0231195 52.6689977,79.4268968 C51.6573427,79.8241615 50.2867133,79.9739499 49.3729604,79.7785738 C47.9827506,79.4920221 46.3184149,78.6453924 45.3328671,77.7140996 L45,77.4080104 L45.3263403,77.1149463 C45.8550117,76.6395311 46.7230769,76.0468903 47.3300699,75.740801 C49.1053613,74.8485835 50.7566434,74.6922826 52.4731935,75.2653859 Z M100.67366,67.2484533 C101.156643,67.2484533 101.77669,67.281016 102.057343,67.3135786 L103.088578,67.4503419 C104.426573,67.6261804 106.475991,68.264409 107.970629,68.9742755 L108.164802,69.0714547 C108.344697,69.1663953 108.473193,69.2494302 108.473193,69.2738522 C108.473193,69.3650277 107.813986,70.3614458 107.337529,70.9931618 C105.731935,73.1292739 103.917483,74.8225334 102.011655,75.9557148 C101.104429,76.4962553 100.654079,76.7046565 99.5445221,77.0888961 C98.0759907,77.6033865 95.9547786,77.7922501 94.2121212,77.5708238 C92.6,77.3624227 91.6666667,77.147509 90.2111888,76.6330186 L89.3598892,76.3252098 C89.0781641,76.2172986 89.0885781,76.1997635 89.0885781,76.1380658 C89.0885781,76.0271426 89.7497076,75.7327569 91.4444908,75.0977633 L95.0440851,73.7846996 C95.830507,73.5028289 96.5365926,73.2543931 97.3781974,72.9649275 L104.746387,70.4591338 C104.912245,70.324286 104.268688,70.4663449 103.523104,70.7169948 L103.221207,70.8171897 C102.940024,70.9039488 102.360985,71.0727479 101.608153,71.2885078 L97.8734665,72.3441844 L94.2391415,73.34912 C91.6691466,74.0476277 89.9044289,74.4796342 88.9449883,74.6401824 L88.8364943,74.6536793 C88.6208613,74.6667627 88.6708173,74.5395476 89.0483332,74.0319674 L89.1342657,73.9172908 C92.4759907,69.4757408 96.3268065,67.2484533 100.67366,67.2484533 Z M63.418648,67.9387822 C66.1729604,68.9547379 68.6596737,70.9475741 70.9375291,73.9498535 L71.1476466,74.2436796 C71.2888671,74.4506024 71.3715618,74.5978509 71.3487179,74.6206447 C71.2506181,74.7185301 69.1539189,74.2417096 66.205664,73.4493232 L63.4264204,72.6963872 C62.3586334,72.4004679 60.5498106,71.8914532 59.1414173,71.4885049 L55.5098038,70.4353623 C55.1190984,70.3307725 55.1878011,70.3739281 55.2601399,70.4461088 C55.2873349,70.4732443 55.414245,70.5275155 55.5577743,70.5750027 L56.0240553,70.7192728 L57.3290708,71.1503213 L60.0697764,72.0776646 L64.5151515,73.604689 C64.8741259,73.7284272 65.4745921,73.9498535 65.8531469,74.0866167 L68.7823972,75.1782807 C70.5080653,75.8345164 71.0334732,76.0774992 70.9832168,76.1641159 C70.8461538,76.3790296 68.2680653,77.1735591 66.8582751,77.4405731 C65.7030303,77.6554868 63.8363636,77.7271247 62.8508159,77.596874 C60.7296037,77.3103224 59.1501166,76.7176815 57.4009324,75.5519375 C55.8494172,74.5178397 54.4667333,73.2254334 53.127463,71.5495755 L52.8191142,71.1559753 C52.2447552,70.4070335 51.5594406,69.3845653 51.5594406,69.2738522 C51.5594406,69.1240638 53.6153846,68.2774341 54.8097902,67.9387822 C57.9948718,67.0205145 60.9515152,67.027027 63.418648,67.9387822 Z M74.181352,73.4744383 L74.5207459,73.6079453 C74.6545455,73.6633019 74.7981352,73.725171 74.9188811,73.7805275 C75.4801865,74.041029 76.2438228,74.7899707 76.5897436,75.4216867 C76.8638695,75.9036145 77.2946387,77.0693585 77.2358974,77.160534 L77.2204336,77.174737 C77.1730647,77.1977945 77.050037,77.1194752 76.6187351,76.7597206 L75.2420364,75.5904396 C74.7541445,75.1828069 74.4032634,74.8993813 74.4032634,74.9202214 C74.4032634,74.9507489 74.9080711,75.4563609 75.5466098,76.0721581 L76.1694784,76.677894 L76.5742424,77.0864539 C76.8051282,77.3249756 76.9487179,77.4861609 76.9487179,77.512211 C76.9487179,77.6033865 76.8703963,77.6098991 76.5571096,77.5577988 C75.9958042,77.4601107 75.2843823,77.2321719 74.8927739,77.0302833 C74.3575758,76.7502442 73.6983683,76.1120156 73.3655012,75.55845 C72.9477855,74.8616086 72.4582751,73.4028004 72.595338,73.2595246 C72.6671329,73.1943992 73.809324,73.3507001 74.181352,73.4744383 Z M87.4764569,73.2204494 L87.437296,73.507001 C87.4177156,73.6633019 87.3198135,74.0280039 87.2219114,74.3145555 C86.7715618,75.6561381 86.1058275,76.5223054 85.1202797,77.0367958 C84.402331,77.414523 83.0839161,77.7271247 83.0839161,77.5252361 C83.0839161,77.4910453 83.4253497,77.1271573 83.9127185,76.6396329 L84.9286602,75.6374621 L85.3956397,75.1671822 C85.5922649,74.9658543 85.6957905,74.8531806 85.6620047,74.8746337 L85.3436373,75.133863 L83.8476941,76.3962895 C83.0972065,77.0222054 82.7970474,77.2343428 82.7706294,77.160534 C82.7379953,77.0563334 83.155711,75.9557148 83.390676,75.5193748 C84.1282051,74.1582546 85.3095571,73.4158255 86.9738928,73.2660371 L87.4764569,73.2204494 Z M81.7132867,72.0481928 C81.7916084,72.1328557 81.8960373,72.5170954 81.9808858,73.0641485 C82.0853147,73.6958645 82.006993,74.2168675 81.7263403,74.8160208 C81.5109557,75.2588733 81.0932401,75.8450016 80.9888112,75.8450016 C80.9561772,75.8450016 80.9431235,75.727776 80.962704,75.5714751 L81.0160402,75.1703435 C81.0433202,74.9347729 81.0266208,74.9396064 80.9579746,75.1371449 L80.9104895,75.2784109 C80.8321678,75.5258873 80.7342657,75.7212634 80.7016317,75.7212634 C80.5841492,75.7212634 80.4862471,75.1742104 80.4797203,74.4969065 C80.4731935,73.6958645 80.5841492,73.3441876 81.0736597,72.6147835 C81.3934732,72.1393683 81.6153846,71.9374796 81.7132867,72.0481928 Z M78.3780886,72.002605 C78.4985835,72.002605 78.9750017,72.5963634 79.2221232,73.0513932 L79.2787879,73.1618365 C79.5137529,73.6372517 79.5268065,73.689352 79.5463869,74.405731 C79.5594406,74.8941713 79.5333333,75.2653859 79.4811189,75.4477369 C79.3980504,75.7200793 79.2664355,75.8578652 79.2333846,75.7191986 L79.2265734,75.6691631 C79.2265734,75.6040378 79.1808858,75.4347118 79.1351981,75.291436 L79.043,75.031 L79.0634033,75.4086617 C79.0699301,75.6170628 79.0568765,75.7994139 79.0307692,75.8189515 C79.004662,75.8319766 78.8741259,75.7082384 78.7435897,75.5389124 C78.2214452,74.8550961 77.9473193,74.0214914 78.0191142,73.3051123 C78.0648019,72.8231846 78.2932401,72.002605 78.3780886,72.002605 Z M111.149184,70.8629111 L111.473612,70.8682053 C111.843546,70.8790481 111.994737,70.9108719 112.308808,71.0338224 L112.648718,71.1719513 C112.848193,71.2577336 112.99627,71.3334419 113.015851,71.3578639 C113.061538,71.4360143 112.186946,72.3477695 111.834499,72.5822208 C111.201399,73.0055357 110.385548,73.1813741 109.719814,73.0446109 C109.289044,72.9534354 108.60373,72.718984 108.60373,72.6603712 C108.60373,72.6375773 108.789221,72.5669163 109.059464,72.4818951 L110.054014,72.1861818 L110.7955,71.9462516 C111.01339,71.8711138 111.130741,71.8233847 111.055901,71.8333086 L109.165997,72.2080354 C109.030865,72.2330821 108.923448,72.2518295 108.838504,72.2651761 L108.733326,72.2804772 C108.687604,72.2864403 108.651777,72.2899416 108.624024,72.2912936 L108.578741,72.2912241 C108.549076,72.2889323 108.538462,72.2812485 108.538462,72.269619 C108.538462,72.1358949 109.408354,71.3951445 109.858652,71.1328292 L109.948252,71.0843373 C110.379021,70.8694236 110.424709,70.8629111 111.149184,70.8629111 Z M48.8834499,70.8629111 L49.3229895,70.8667779 C49.6625874,70.8783784 49.758042,70.9247802 50.1104895,71.1103875 C50.5869464,71.3578639 51.5724942,72.2044937 51.4811189,72.2956692 C51.4570199,72.3197155 50.9602102,72.2327789 50.344902,72.1014491 L49.5948213,71.9446888 C49.1926429,71.8655335 48.9100592,71.819753 48.8965035,71.8332791 L48.8812063,71.8530838 C48.8685606,71.8773532 48.8950758,71.8961276 49.0586538,71.9460401 L50.9524476,72.4780202 C51.5268065,72.6343211 51.5072261,72.718984 50.8480186,72.9143601 C50.2671329,73.0836861 49.588345,73.1292739 49.1771562,73.0185607 C48.7137529,72.8948225 48.5244755,72.8101596 48.1981352,72.5887333 C47.7869464,72.3086942 47.0559441,71.55324 47.0559441,71.4099642 C47.0559441,71.3441152 47.142807,71.2782662 47.3687383,71.1787111 L47.597669,71.0843373 C48.0937063,70.8824487 48.1916084,70.8694236 48.8834499,70.8629111 Z M96.3333333,54.6530772 L96.3333333,54.9918593 C96.3268065,56.6786063 96.0592075,58.9579941 95.6806527,60.5079779 C94.420979,65.6659069 91.8298368,68.9547379 87.1892774,71.286226 L86.9481231,71.4013968 C86.0850927,71.7974232 84.3616162,72.4584826 84.1608392,72.4584826 C84.1412587,72.4584826 84.1282051,72.4194074 84.1282051,72.3738196 C84.1282051,72.1305211 86.1929531,68.915818 88.9257501,64.8686203 L92.6526452,59.404715 C92.8649254,59.100188 93.040959,58.8534704 93.1247024,58.7428522 L93.1547786,58.7040052 C93.2657343,58.5542169 93.3114219,58.4565288 93.2526807,58.4565288 C93.2096805,58.4626583 92.7041579,59.086059 92.1061308,59.8815084 L90.1260478,62.5203234 C87.2356076,66.3498357 84.9359768,69.2869618 83.563414,70.9052421 L83.2927739,71.2211006 C82.9925408,71.5662651 82.95338,71.4555519 83.0251748,70.569847 C83.220979,68.3099967 83.4167832,67.1637903 83.8736597,65.5421687 C85.1529138,61.0159557 87.7571096,57.8117877 91.8037296,55.7994139 C92.9466459,55.2263106 94.166917,54.7458302 95.2536796,54.4357298 L95.9433455,54.2544755 C96.2864795,54.1737888 96.3290296,54.2208462 96.3333333,54.6530772 Z M66.9365967,55.2002605 C69.2144522,56.1641159 71.3291375,57.596874 72.7062937,59.114295 C73.8615385,60.3777271 74.7230769,61.7258222 75.3561772,63.2497558 C76.2556527,65.4172094 76.7421037,67.4701848 76.9661121,70.0740865 L77.0074592,70.6024096 C77.0400932,71.0257245 77.0335664,71.3448388 77.0009324,71.383914 L76.9837064,71.3991273 C76.9385332,71.426803 76.8654788,71.3642737 76.4929728,70.9297236 L75.8848485,70.2116574 C75.0381041,69.2087268 72.5254867,65.9875972 70.6234998,63.476367 L68.3966512,60.514102 L66.9221154,58.5346793 C66.6865385,58.2269619 66.5041958,58.0071638 66.4797203,58.0071638 C66.4405594,58.0032563 66.4436923,58.0321719 66.6723916,58.3752524 L70.3701221,63.7689917 C71.8718349,65.9864965 74.0019585,69.191041 74.7203469,70.3159919 L75.2745103,71.2089336 C75.8395186,72.1401685 75.9827506,72.4627299 75.8587413,72.45197 C75.848951,72.45197 75.8086154,72.4408336 75.7453119,72.4210225 L75.4940755,72.3380267 L75.02331,72.171931 C72.4909091,71.2797134 70.702567,70.2442201 68.8946387,68.629111 C66.1794872,66.2064474 64.4237762,62.4487138 63.8885781,57.9029632 L63.8189633,57.1941658 C63.7078743,55.873886 63.6583124,54.2530772 63.7515152,54.2038424 C63.8885781,54.125692 65.8335664,54.7313579 66.9365967,55.2002605 Z M80.4862471,65.4054054 C81.2825175,66.9228264 81.4456876,68.1992836 81.027972,69.6190166 C80.8517483,70.21817 80.3687646,71.2276132 80.2382284,71.2666884 C80.1955075,71.2826737 80.161525,71.1155545 80.132706,70.7474958 L80.097145,70.2149398 C80.0727086,69.8915011 80.0424242,69.6580918 80.016317,69.6580918 C79.9954312,69.6580918 79.962014,69.8831651 79.9361156,70.193266 L79.890689,70.801296 C79.8666573,71.0571801 79.8387879,71.239987 79.8205128,71.2536633 C79.7878788,71.2732009 79.7160839,71.2211006 79.6638695,71.1429502 C79.4550117,70.8238359 79.1025641,69.9837187 78.9589744,69.4562032 C78.7370629,68.6486486 78.7501166,67.5089547 78.9981352,66.7014002 C79.1678322,66.1348095 79.6312354,65.1644415 79.8792541,64.8388147 C80.0424242,64.6304135 80.1142191,64.6890264 80.4862471,65.4054054 Z M50.9393939,65.4575057 C51.2722611,65.77662 51.5333333,66.1217844 51.4876457,66.1673722 L51.446279,66.1634526 C51.3343715,66.1425582 51.008915,66.0569455 50.6158449,65.9450791 L50.0995126,65.7998837 C49.0898291,65.5259303 49.3315129,65.6733066 50.753995,66.1950696 L51.0895105,66.3171605 C51.2461538,66.3692608 51.3571096,66.4474113 51.3440559,66.492999 C51.2853147,66.6688375 49.9016317,66.7990882 49.4708625,66.6688375 C49.1445221,66.5646369 48.609324,66.2650602 48.3547786,66.0306089 C48.1002331,65.8026701 47.5128205,65.0862911 47.5128205,65.0081407 C47.5128205,64.9234777 47.9174825,64.7736894 48.4135198,64.6760013 C49.3664336,64.4806252 50.2149184,64.7476392 50.9393939,65.4575057 Z M111.305828,64.6108759 C111.756177,64.6694888 112.519814,64.9039401 112.519814,64.9820905 C112.519814,65.0928036 111.945455,65.7896451 111.632168,66.0696841 C111.462471,66.2129599 111.162238,66.4148486 110.959907,66.5125366 C110.64662,66.6688375 110.50303,66.6948877 109.974359,66.7079127 C109.634965,66.7144253 109.217249,66.6818626 109.047552,66.6427874 L108.888621,66.5993139 C108.594838,66.5094984 108.633782,66.4414131 109.084258,66.2640051 L109.568669,66.0782093 C110.075591,65.8765675 110.62704,65.627762 110.62704,65.594269 C110.62704,65.5870328 110.542433,65.6059272 110.41127,65.6431353 L109.367608,65.965564 C108.731929,66.1546687 108.538462,66.1861862 108.538462,66.1152719 C108.538462,65.9524585 109.478322,65.060241 109.843823,64.8844025 C110.294172,64.6629762 110.875058,64.5587756 111.305828,64.6108759 Z M60.1944056,59.8046239 C60.4881119,60.0130251 61.1995338,60.6512537 61.7738928,61.2243569 L62.8181818,62.2663627 L62.5375291,62.2859004 C62.0703472,62.3208624 59.2257624,61.8396743 55.5138175,61.1035669 L52.7556073,60.5489132 C52.3971684,60.4803028 52.3126519,60.4739282 52.27986,60.4948972 L52.2578089,60.5210029 C52.2410256,60.5489138 52.3585082,60.6007483 52.5321631,60.6436968 L53.1481896,60.778821 C54.602067,61.1089231 57.5442748,61.8497076 59.5434756,62.3884871 L60.9850075,62.7887937 C62.0907954,63.1060831 62.5244755,63.2658657 62.5244755,63.3474438 C62.5244755,63.3800065 62.3286713,63.4972322 62.0871795,63.6079453 C59.9398601,64.5913383 57.8773893,64.9625529 56.1543124,64.6694888 C54.9272727,64.4676001 53.6284382,63.9010094 52.4601399,63.0739173 C51.2657343,62.2272875 49.151049,60.0195376 49.3337995,59.8046239 C49.4382284,59.6743732 50.6065268,59.0882449 51.2983683,58.8147183 C52.1599068,58.4760664 53.4717949,58.1569521 54.3855478,58.0657766 C56.3631702,57.863888 58.2494172,58.4239661 60.1944056,59.8046239 Z M105.647086,58.0657766 C106.567366,58.1504396 107.546387,58.3783784 108.440559,58.7105177 L108.775411,58.8413937 C109.208373,59.0179095 109.627133,59.2211006 110.509557,59.6743732 C110.607459,59.7264735 110.705361,59.7981114 110.724942,59.830674 C110.80979,59.9609248 109.517483,61.419733 108.590676,62.2468251 C106.717483,63.9140345 104.955245,64.6825138 102.892774,64.7411267 L102.322905,64.7500879 C102.06648,64.7510257 101.870676,64.7463367 101.815851,64.7346141 L101.032634,64.6043634 C99.955711,64.4220124 97.5407925,63.5428199 97.5407925,63.3344188 C97.5407925,63.2953435 97.6606727,63.2227753 97.8182294,63.161827 L97.8997669,63.1325301 C98.5291375,62.9178311 100.665877,62.3359614 102.954375,61.7515152 L106.287203,60.9132204 C107.362918,60.635819 107.624709,60.5450993 107.441958,60.5405405 L107.185669,60.5819664 C106.953876,60.623585 106.591465,60.6923327 106.201865,60.7684793 L102.781467,61.4396842 C99.0058566,62.1621169 97.3123543,62.4052969 97.3123543,62.2403126 C97.3123543,62.1426246 98.7351981,60.6968414 99.2573427,60.2605015 C101.241492,58.6128297 103.447552,57.8508629 105.647086,58.0657766 Z M80.0097902,40.5470531 C80.1792361,40.5470531 81.3081516,42.3714786 81.9923782,43.7392187 L82.0722611,43.9010094 C82.8881119,45.5747314 83.2405594,46.5125366 83.6386946,48.1015956 C84.572028,51.8332791 84.2587413,55.3695865 82.64662,59.198958 L82.4943126,59.5521623 C81.8318167,61.0499746 80.8507813,62.8199284 80.6755245,62.8199284 C80.5102932,62.8199284 80.3079351,60.1958587 80.1648497,56.192162 L80.114631,54.918367 C80.0820705,54.2863525 80.0501377,54.1700956 79.983683,54.2364051 L79.9745513,54.2814159 C79.9590436,54.402688 79.936017,54.7566921 79.9139303,55.219638 L79.7894962,58.1373126 C79.6474547,61.0773848 79.4894097,62.8199284 79.3571096,62.8199284 C79.3310023,62.8199284 79.1939394,62.6506024 79.0634033,62.4487138 C78.6391608,61.7974601 77.8820513,60.3451644 77.4839161,59.4334093 C76.8834499,58.0657766 76.3874126,56.4571801 76.0871795,54.9071964 C75.9174825,54.0084663 75.8456876,51.2211006 75.969697,50.2832953 C76.2960373,47.8671443 77.0792541,45.5030935 78.3324009,43.1716053 L78.5584971,42.7621827 C79.107635,41.7978541 79.9189825,40.5470531 80.0097902,40.5470531 Z M102.109557,54.1908173 L102.316273,54.2160534 C102.482401,54.2429176 102.5338,54.2771084 102.5338,54.3406057 C102.5338,54.3992185 102.383683,54.7508955 102.200932,55.1155975 C101.639627,56.2422664 100.862937,56.9521329 99.8643357,57.245197 C99.5118881,57.3493976 98.2261072,57.3949853 98.2261072,57.3103224 L98.2286092,57.2945054 C98.2381577,57.266388 98.2806434,57.2251033 98.4467237,57.1048138 L100.578609,55.6300697 C100.798767,55.4704508 100.788021,55.4576473 100.758508,55.4281993 C100.740233,55.4099642 100.221628,55.6980788 99.5794555,56.0913357 L98.620359,56.6732986 C98.148634,56.951156 98.030303,56.9944643 98.030303,56.9260827 C98.030303,56.8283947 98.5328671,55.910127 98.7482517,55.6300879 C99.5379953,54.5620319 100.751981,54.041029 102.109557,54.1908173 Z M61.0428904,55.3305112 C61.3692308,55.6756757 62.0545455,56.8609573 61.9827506,56.9325952 C61.9440918,56.9711695 61.6484159,56.8278937 61.1273557,56.5106588 L60.4503756,56.0943939 C59.899399,55.764816 59.3263403,55.4473299 59.3263403,55.473787 L59.3549229,55.4990962 C59.4298023,55.5586526 59.6463956,55.7175006 59.9403436,55.9282174 L60.9560578,56.6513058 C61.4472914,57.0057962 61.8065268,57.2777597 61.8065268,57.3038098 C61.8065268,57.3819603 60.5599068,57.3428851 60.2335664,57.2582221 C59.2055944,56.9712634 58.4128169,56.2779072 57.8337221,55.1352242 L57.7207459,54.9006838 C57.5967366,54.6401824 57.4988345,54.3861934 57.4988345,54.3275806 C57.4988345,54.2624552 57.6097902,54.22338 57.9296037,54.1908173 C59.1370629,54.0605666 60.2400932,54.4643439 61.0428904,55.3305112 Z M106.097436,54.8095083 C106.515152,54.8095083 107.291841,55.0374471 107.344056,55.1807229 C107.402797,55.3239987 106.658741,56.0208401 106.267133,56.1901661 C105.895105,56.359492 105.346853,56.3920547 104.870396,56.2878541 C104.301839,56.1604978 104.269608,56.0743072 104.837879,55.9103593 L105.282364,55.788381 C105.504786,55.7230323 105.666667,55.6633742 105.666667,55.643113 C105.666667,55.5910127 105.611551,55.5794349 105.40076,55.6218869 L104.955245,55.727776 C104.628904,55.8059264 104.387413,55.8384891 104.354779,55.8059264 C104.26993,55.7212634 105.098834,55.0569847 105.457809,54.926734 C105.627506,54.8681211 105.914685,54.8160208 106.097436,54.8095083 Z M54.0135198,54.8095083 C54.2289044,54.8095083 54.4638695,54.8681211 54.7249417,54.9983719 C55.1491841,55.193748 55.7365967,55.6756757 55.6582751,55.7538261 C55.6163947,55.7956149 55.1906112,55.7443739 54.6875901,55.6452499 L54.5487179,55.6170628 C54.444289,55.5910127 54.3659674,55.6040378 54.3659674,55.6366005 C54.3659674,55.6700935 54.5098235,55.7322949 54.7071119,55.7862939 L54.8097902,55.8124389 C55.3515152,55.9557148 55.6060606,56.0468903 55.6060606,56.1120156 C55.6060606,56.261804 54.4573427,56.4181049 54.0592075,56.3139043 C53.7328671,56.2292413 53.3151515,55.9557148 52.9365967,55.5714751 L52.590676,55.2132856 L52.7407925,55.1155975 C52.962704,54.9723217 53.6414918,54.8095083 54.0135198,54.8095083 Z M90.1916084,50.7977857 C90.237296,50.8303484 90.2503497,51.0387496 90.2307692,51.4295018 C90.1524476,52.8752849 89.7738928,53.8196027 88.958042,54.6141322 C88.6578089,54.9137089 88.2596737,55.2132856 87.9594406,55.3826115 L87.6071072,55.5718738 C87.4015984,55.6768719 87.3916084,55.6589292 87.3916084,55.5845002 L87.3985986,55.5526343 C87.4272252,55.4669424 87.5477231,55.2422208 87.8319916,54.7476457 L88.5223124,53.5554542 C88.6852214,53.2636926 88.7896503,53.0511234 88.7687646,53.0511234 C88.7445221,53.0511234 88.4220113,53.4947401 88.0363898,54.0639012 L87.3800052,55.0210451 C87.1218337,55.3847824 87.0696193,55.4195159 87.0261072,55.376099 C86.9543124,55.3109736 87.1501166,54.0540541 87.3002331,53.5721263 C87.6461538,52.4780202 88.4097902,51.5988277 89.4997669,51.0647997 L89.71944,50.9605634 C89.9648623,50.8501272 90.16115,50.7825898 90.1916084,50.7977857 Z M70.5328671,51.0713123 C71.3552448,51.4816021 72.1710956,52.2565939 72.4843823,52.9208727 C72.7780886,53.5395637 73.1174825,55.1351351 73,55.3305112 L72.9783737,55.3570761 C72.9161854,55.4075056 72.8054644,55.2791704 72.3488797,54.6004995 L71.8032991,53.7845765 C71.5125874,53.356681 71.2895105,53.0511234 71.2638695,53.0511234 C71.2247086,53.0511234 71.7130203,53.931512 72.2438038,54.8310395 L72.5104895,55.2784109 C72.6149184,55.4477369 72.6736597,55.6040378 72.6475524,55.6170628 C72.6214452,55.6366005 72.425641,55.55845 72.2102564,55.4477369 C71.0158508,54.8290459 70.2979021,53.9303159 69.9715618,52.6473461 C69.8214452,52.0612178 69.7300699,50.9801368 69.827972,50.8433735 C69.8801865,50.7652231 70.0041958,50.8042983 70.5328671,51.0713123 Z M63.1967366,45.5747314 C63.8363636,45.7831325 64.6783217,46.1803973 65.1351981,46.492999 C66.0358974,47.11169 66.9365967,48.2188212 67.5174825,49.4366656 C67.9156177,50.2702703 68.4312354,51.8788668 68.3006993,51.8788668 C68.1971406,51.8788668 66.09226,50.1542313 64.7030036,48.9341274 L63.5761975,47.9338816 L62.9193473,47.3607945 L62.805608,47.265346 C62.6197321,47.1117093 62.5540972,47.0718633 62.5375291,47.0856399 L62.5316081,47.0937908 C62.516391,47.1233217 62.5663166,47.1872078 63.1539481,47.754181 L65.3240304,49.8331293 C66.7969697,51.2562633 67.8400932,52.3226497 67.8634033,52.438945 C67.8871371,52.5336728 67.7814136,52.5476667 67.3844112,52.4809266 L67.2564103,52.4584826 C65.5920746,52.1654184 64.6717949,51.820254 63.6666667,51.1103875 C62.5701632,50.3419082 61.7216783,49.1761641 61.0885781,47.5740801 C60.7426573,46.7014002 60.4032634,45.424943 60.4685315,45.2556171 C60.5403263,45.060241 62.237296,45.2556171 63.1967366,45.5747314 Z M99.5641026,45.2035168 L99.551049,45.4640182 C99.5053613,46.128297 98.8592075,47.9387822 98.3240093,48.8831 C97.2666667,50.7456854 95.6153846,51.9309671 93.5137529,52.3282318 L92.9982611,52.420487 C92.3586866,52.5285687 92.1561772,52.5288994 92.1561772,52.438945 C92.1561772,52.4048794 92.6612226,51.8780094 93.4158931,51.1186582 L96.3727686,48.1820041 L97.1911077,47.3583197 C97.229833,47.3179955 97.2508542,47.2950265 97.2522725,47.291293 L93.8284848,50.2163421 C92.8224543,51.0663386 91.80827,51.8788668 91.7515152,51.8788668 C91.6731935,51.8788668 91.6862471,51.8007164 91.8363636,51.2471508 C92.195338,49.9381309 92.9785548,48.3881472 93.7030303,47.5675676 C94.9235431,46.1608597 96.9142191,45.2686421 98.9440559,45.2165418 L99.5641026,45.2035168 Z M58.0405594,48.4532725 C58.8825175,48.5183979 59.606993,48.980788 60.2074592,49.8404429 L60.3720954,50.0772982 C60.4501748,50.1932392 60.5011655,50.2751547 60.5011655,50.2832953 C60.5011655,50.3510257 60.3299021,50.3062195 59.8436811,50.0955259 L58.4747422,49.4857245 C58.1090191,49.3333702 58.2665632,49.4382091 58.9318667,49.8129013 L59.5624234,50.1689641 C59.9714064,50.4050436 60.2814297,50.5958971 60.2923077,50.6284598 C60.3314685,50.7587105 59.4177156,50.8042983 58.8825175,50.7000977 C58.3864802,50.6024096 57.8969697,50.3353956 57.5314685,49.9576685 C57.1137529,49.5343536 56.5981352,48.713774 56.6960373,48.616086 C56.8004662,48.5118854 57.5771562,48.4141973 58.0405594,48.4532725 Z M103.356177,48.629111 C103.421445,48.7333116 102.853613,49.599479 102.481585,49.9706936 C101.828904,50.6284598 101.104429,50.8433735 99.9752914,50.7261478 C99.8382284,50.7131228 99.7272727,50.6740475 99.7272727,50.6349723 C99.7272727,50.6024096 99.8773893,50.4982091 100.06014,50.3940085 L101.028556,49.8582747 C101.339104,49.682029 101.556084,49.5525887 101.587413,49.5213286 C101.655944,49.4578313 101.364685,49.5665093 100.892614,49.775928 L99.9230769,50.2186826 C99.6500167,50.3352627 99.5967366,50.3279527 99.5967366,50.2442201 C99.5967366,50.1074569 100.118881,49.417128 100.471329,49.0915011 C100.915152,48.6877239 101.404662,48.4923478 102.076923,48.44676 C102.57296,48.4076848 103.284382,48.5118854 103.356177,48.629111 Z M72.3799534,40.0260501 C72.4778555,40.0260501 73.2153846,40.9182677 73.5678322,41.4588082 C74.6773893,43.1455552 75.0755245,44.9430153 74.7622378,46.7730381 C74.5925408,47.7238684 74.0181818,49.4041029 73.8550117,49.4041029 C73.7706133,49.4041029 73.4921957,47.8359832 73.2288314,45.968125 L72.9390135,43.8650602 C72.9107133,43.6821882 72.8903497,43.5701726 72.8825175,43.5623575 C72.8616317,43.5467275 72.8365688,43.5811136 72.8173538,43.6421752 L72.8041958,43.6926083 C72.7718455,43.8163465 72.8018516,44.2556288 72.9346874,45.4400048 L73.032634,46.2911104 C73.0848485,46.746988 73.2937063,49.2868772 73.2937063,49.4887659 C73.2937063,49.6385542 73.1174825,49.4757408 72.7715618,49.0068382 C72.0666667,48.0560078 71.6815851,47.3070661 71.3552448,46.2455226 C71.1333333,45.509606 71.0745921,44.0963855 71.2312354,43.1520677 C71.4009324,42.1491371 72.1776224,40.0260501 72.3799534,40.0260501 Z M87.6331002,40 L87.7962704,40.2539889 C88.2074592,40.9182677 88.6643357,42.2793878 88.8340326,43.3604689 C88.9449883,44.0833605 88.8797203,45.5226311 88.7034965,46.1803973 C88.5076923,46.8967763 87.8158508,48.2774341 87.3002331,48.9677629 L87.1473859,49.1653367 C86.9756655,49.380706 86.8346542,49.5343536 86.8041958,49.5343536 C86.7715618,49.5343536 86.7389277,49.4236405 86.7389277,49.2933898 L86.7508264,49.0673112 C86.7968419,48.4095046 86.9666934,46.618274 87.0898527,45.5021281 L87.1965831,44.5876934 C87.2334341,44.2496312 87.2610723,43.9299541 87.2610723,43.8033214 L87.2593891,43.6642086 C87.254626,43.5408903 87.2371406,43.5493325 87.1762238,43.640508 C87.1381507,43.7002062 87.0547527,44.1081443 86.9826858,44.6042729 L86.845151,45.6156543 C86.6643198,46.8919873 86.3705888,48.7777668 86.2951049,49.1436014 C86.2689977,49.2673396 86.2037296,49.3715402 86.158042,49.3715402 C85.9818182,49.3715402 85.4009324,47.5871052 85.2312354,46.5255617 C85.1202797,45.7831325 85.1855478,44.5587756 85.3878788,43.8033214 C85.6750583,42.6961902 86.4517483,41.3025073 87.2806527,40.3842397 L87.6331002,40 Z M93.2787879,42.5659394 C93.3244755,43.2953435 93.2461538,44.2787366 93.0960373,44.7802019 C92.7762238,45.8677955 91.8755245,46.9228264 90.8051282,47.4763921 L90.6600772,47.5439345 C90.5001778,47.6100091 90.4705203,47.5786942 90.5259123,47.4324532 L90.6077634,47.2381895 C90.753929,46.9052571 91.0461849,46.2915446 91.5100233,45.3207424 L91.7246827,44.8506338 C91.8465164,44.5746952 91.9190365,44.3894497 91.9016317,44.3894497 C91.8904429,44.3894497 91.8265068,44.4851441 91.7293468,44.6447487 L91.5292761,44.9829894 L90.5581159,46.701542 C90.2693502,47.1982119 90.1751495,47.3200912 90.1198135,47.3200912 C90.0741259,47.3200912 90.0610723,46.9944643 90.0806527,46.3301856 C90.1198135,45.1904917 90.2699301,44.6043634 90.7006993,43.8749593 C91.0205128,43.3409313 91.7972028,42.6115272 92.4498834,42.2468251 L92.7563845,42.074439 C93.2139899,41.8310511 93.2348178,41.9352517 93.2787879,42.5659394 Z M66.7995338,41.9472485 L66.9561772,41.9667861 C67.2433566,41.9993487 68.0853147,42.5268642 68.5878788,42.9957669 C69.4167832,43.7707587 69.8475524,44.6955389 69.9519814,45.9068707 L69.9710145,46.1770783 C70.0027164,46.7624444 69.9733023,47.3200912 69.8997669,47.3200912 L69.8770115,47.3104402 C69.79075,47.2473752 69.5581974,46.8570808 68.8554779,45.6138066 L68.6332129,45.2177898 C68.39864,44.8087183 68.2163529,44.5197004 68.1962704,44.5197004 C68.1736441,44.5197004 68.386331,45.0039726 68.6856262,45.6460817 L69.2830253,46.9395178 C69.4209024,47.2476428 69.5081585,47.4551178 69.5081585,47.4829046 C69.5081585,47.6392055 69.3710956,47.5936177 68.8881119,47.2745034 C68.2289044,46.844676 67.5370629,46.1217844 67.2629371,45.5682188 C66.8452214,44.7476392 66.760373,44.2982742 66.7799534,43.0478671 L66.7995338,41.9472485 Z M53.5174825,119.908824 C53.5174825,119.804123 53.6062703,119.769364 54.0527252,119.733528 L54.8432959,119.674224 C55.1801419,119.647089 55.6365275,119.608892 56.1332022,119.565085 L59.0417486,119.302917 C59.8875883,119.230509 60.5979044,119.175875 61.7128553,119.09149 L62.1002331,119.062195 C65.3491323,118.81906 68.2164149,118.658257 71.3988463,118.538619 L72.6083916,118.495604 C75.1668998,118.410941 86.5822844,118.456529 89.2191142,118.560729 L92.4028327,118.702925 C93.1010835,118.737947 93.6445728,118.768847 93.8857809,118.788668 L95.5174825,118.892869 L96.889068,118.975865 C97.4928486,119.01489 98.1037678,119.058188 98.7813829,119.111459 L102.259691,119.419901 L104.8304,119.653085 C105.161683,119.681405 105.434278,119.703611 105.595551,119.715119 L105.666667,119.719961 C106.049573,119.743117 106.210728,119.776564 106.310573,119.856894 L106.41521,119.960212 C106.446212,119.993793 106.446212,120.00173 106.41521,119.994607 L106.345455,119.97395 C106.071329,119.889287 102.422844,119.726473 95.3543124,119.478997 L93.7060872,119.427816 C86.9133859,119.24027 75.9214439,119.188292 70.1227852,119.323658 L65.5906814,119.451836 C59.724392,119.635323 54.2906472,119.868479 53.710549,119.967911 L53.6806527,119.97395 C53.5566434,120.006513 53.5174825,119.986975 53.5174825,119.908824 Z M51.4680653,115.597525 C50.3846154,115.337024 49.4969697,114.646695 49.0531469,113.728427 C48.779021,113.161837 48.6876457,112.745034 48.6876457,112.054705 C48.6876457,110.354933 49.9016317,109.039401 51.8335664,108.642136 C52.1599068,108.577011 52.6755245,108.537936 53.2955711,108.537936 L53.7229986,108.541791 C54.1617828,108.551638 54.4189128,108.583185 54.7876578,108.667704 L55.6517483,108.870075 L55.6974359,109.912081 C55.7170163,110.491697 55.7235431,110.986649 55.6974359,111.019212 C55.6778555,111.051775 55.4428904,111.077825 55.1818182,111.077825 L54.974559,111.075907 C54.7462041,111.069957 54.6970496,111.047097 54.6739434,110.967244 L54.4573427,109.957669 C54.4377622,109.899056 54.2615385,109.78183 54.0526807,109.70368 C53.7524476,109.586454 53.5501166,109.553891 52.995338,109.560404 C51.7226107,109.560404 50.8871795,110.009769 50.4041958,110.947574 C50.2344988,111.279713 50.2214452,111.357864 50.2214452,112.054705 C50.227972,112.959948 50.3585082,113.363725 50.8219114,113.878216 C51.3636364,114.477369 51.8400932,114.666232 52.8517483,114.672745 C53.5305361,114.672745 54.0983683,114.535982 54.5226107,114.255943 C54.7184149,114.125692 54.7445221,114.073592 54.783683,113.721915 L54.8146984,113.317252 L54.8228438,113.103224 C54.8228438,112.96646 54.8554779,112.829697 54.9011655,112.784109 C55.0121212,112.673396 55.8671329,112.679909 55.8671329,112.790622 L55.9479256,113.456276 L56.0023601,113.886356 C56.0314248,114.135664 56.0541157,114.369709 56.0608719,114.50581 L56.0629371,114.575057 C56.0629371,114.848584 56.0564103,114.855096 55.6909091,115.04396 C54.581352,115.597525 52.5645688,115.864539 51.4680653,115.597525 Z M106.169231,115.564963 C105.412121,115.382612 104.726807,115.017909 104.263403,114.562032 C102.599068,112.920873 103.04289,109.990231 105.105361,108.993813 C105.797203,108.661674 106.332401,108.537936 107.154779,108.537936 C109.602331,108.537936 111.358042,110.022794 111.358042,112.087268 C111.351515,113.832628 110.287646,115.180723 108.597203,115.597525 C108.003263,115.740801 106.828438,115.727776 106.169231,115.564963 Z M108.486247,114.483881 C109.106294,114.203842 109.602331,113.565614 109.772028,112.829697 C109.876457,112.39987 109.856876,111.566265 109.745921,111.175513 C109.478322,110.27027 108.629837,109.677629 107.481119,109.599479 C106.227972,109.508303 105.359907,110.009769 104.942191,111.058287 C104.818182,111.370889 104.792075,111.559753 104.785548,112.184956 L104.788157,112.502862 C104.796983,112.909408 104.832422,113.030994 104.955245,113.292087 C105.262005,113.949853 105.751515,114.373168 106.43683,114.568544 C106.919814,114.705308 108.101166,114.65972 108.486247,114.483881 Z M59.5547786,115.089547 C58.4060606,114.861609 57.6097902,114.340606 57.0745921,113.454901 C56.7090909,112.849235 56.5850816,112.354282 56.5850816,111.540215 C56.5850816,110.758711 56.7351981,110.224683 57.1072261,109.645067 C57.5314685,108.987301 58.4191142,108.39466 59.3589744,108.147183 C60.0247086,107.977857 61.3104895,107.95832 61.9044289,108.114621 C63.386014,108.505373 64.3128205,109.443178 64.5869464,110.843373 C64.9655012,112.745034 63.8298368,114.490394 61.9044289,114.985347 C61.2321678,115.161185 60.1552448,115.206773 59.5547786,115.089547 Z M61.5715618,113.975904 C62.2242424,113.780528 62.7398601,113.2986 62.981352,112.666884 C63.1967366,112.126343 63.1967366,111.234126 62.9878788,110.563334 C62.8638695,110.153045 62.7855478,110.022794 62.4722611,109.710192 C61.9631702,109.202214 61.5324009,109.045913 60.6969697,109.045913 C59.6592075,109.052426 58.9020979,109.378053 58.4582751,110.016281 C57.8643357,110.875936 57.955711,112.543146 58.6475524,113.344188 C58.9282051,113.676327 59.3589744,113.936828 59.809324,114.054054 C60.213986,114.151742 61.1146853,114.119179 61.5715618,113.975904 Z M102.416317,115.102572 L100.418604,114.975374 L99.5822195,114.927891 C99.0798704,114.892491 98.9988568,114.843932 99.0067738,114.579871 L99.0223776,114.360143 C99.0405594,114.100107 99.0981352,114.053456 99.6601946,113.990761 L100.158042,113.936828 L100.34683,111.101504 L100.429366,110.050917 C100.458427,109.624412 100.445589,109.563897 100.386982,109.612727 L100.353846,109.645067 C100.314685,109.684142 100.136014,109.968658 99.9197115,110.333768 L97.9171311,113.770214 C97.6125294,114.284308 97.3802331,114.653642 97.3515152,114.672745 C97.3201865,114.693585 97.2053147,114.714425 97.077076,114.721928 L96.8221668,114.732636 C96.7171729,114.728938 96.6520089,114.65805 96.4359053,114.207146 L95.2844054,111.711258 C95.0834769,111.282219 94.8825483,110.85746 94.7220752,110.521387 L94.0620047,109.156627 L94.016317,113.109736 L94.016317,113.637252 L94.6862566,113.831887 C94.7895438,113.864925 94.8657343,113.893101 94.8843823,113.904266 C94.9123543,113.921012 94.9115551,114.047807 94.8860949,114.219032 L94.8060606,114.679258 L93.0068028,114.602931 C92.657958,114.584956 92.3532867,114.564637 92.2083916,114.549007 L91.7645688,114.509932 L91.7645688,113.754477 L92.2540793,113.676327 C92.7240093,113.598176 92.7435897,113.585151 92.7762238,113.396288 L92.7920624,113.18851 C92.8441309,112.294149 92.9554779,108.984509 92.9263403,108.96125 C92.9132867,108.948225 92.6979021,108.8831 92.4498834,108.817975 L91.993007,108.694236 L91.993007,108.329534 C91.993007,108.127646 92.0125874,107.938782 92.0386946,107.919245 C92.0556643,107.902312 92.6020886,107.909838 93.3125784,107.941821 L95.2172494,108.042983 L96.7508729,111.301353 C97.0792696,111.982039 97.3140719,112.445458 97.3319347,112.445458 C97.3528205,112.445458 97.4071235,112.387105 97.4580848,112.307079 L97.9196946,111.507939 C98.6058275,110.337688 99.7622378,108.411871 99.818648,108.355585 C99.8769814,108.297379 100.038724,108.282166 100.66096,108.313439 L102.14627,108.401986 C102.426107,108.42071 102.638228,108.436991 102.71655,108.44676 L102.997203,108.479323 L102.958042,109.286877 L102.468531,109.338978 L102.190887,109.374924 C102.054997,109.394131 101.958625,109.41143 101.946387,109.423641 L101.936012,109.490184 C101.873894,110.040186 101.61532,113.803883 101.639627,113.943341 C101.645338,113.994627 101.795964,114.070844 102.034665,114.145815 L102.631702,114.314556 L102.612121,114.568544 C102.586014,114.991859 102.540326,115.115598 102.416317,115.102572 Z M65.6638695,114.65972 L65.2200466,114.65972 L65.1523767,114.250472 C65.1416205,114.195767 65.1300289,114.14523 65.118855,114.107196 L65.1025641,114.060567 C65.0503497,113.930316 65.1482517,113.878216 65.7421911,113.715402 L66.1272727,113.611202 L66.0688883,112.710354 L65.9184149,109.51156 C65.9004662,109.19733 65.8857809,108.997069 65.8792541,108.987301 C65.8680653,108.970554 65.7322011,108.939453 65.5620855,108.918606 L65.2647364,108.885099 C64.9029947,108.838741 64.8729191,108.789327 64.8837797,108.493444 L64.9067599,108.049495 L66.7365829,107.944106 C67.2033848,107.921349 67.5763396,107.912519 67.6865229,107.921936 L67.7132867,107.925757 C67.8155988,107.951279 67.9780538,108.108826 69.1842866,109.473955 L70.8086337,111.314388 C71.3555835,111.922719 71.7710407,112.356197 71.7925408,112.334744 C71.8162746,112.311062 71.8184323,111.926769 71.79411,111.450977 L71.7668415,110.867388 C71.7515443,110.478671 71.7387966,110.051795 71.7349723,109.739397 L71.7272727,108.80495 L71.4988345,108.759362 L70.9310023,108.674699 L70.5850816,108.635624 L70.5850816,107.854119 L70.9440559,107.808531 L71.0838988,107.798823 C71.3824398,107.782843 71.9861694,107.768371 72.562704,107.762944 L73.8158508,107.756431 L73.8141002,108.297788 C73.805347,108.521835 73.7528281,108.570251 73.4377147,108.644775 L73.032634,108.733312 L73.0439763,110.896487 C73.0520183,111.60992 73.0663371,112.397257 73.0844219,112.892738 L73.1074883,113.525826 C73.1154429,113.926653 73.0995338,114.14523 73.0652681,114.184305 C73.0407925,114.213611 72.8951632,114.275887 72.7109848,114.338163 L71.955711,114.568544 C71.9176379,114.584826 71.6529397,114.334274 71.3315851,113.986486 L69.2860054,111.720154 C68.1019943,110.420059 67.1345765,109.382394 67.1128205,109.404103 C67.103327,109.413576 67.1179988,109.640061 67.1467933,109.953289 L67.1846154,110.335396 C67.2368298,110.830348 67.2955711,111.709541 67.3216783,112.282644 L67.3534052,112.997971 C67.3668805,113.242463 67.3798262,113.418786 67.3869464,113.461413 C67.407252,113.552589 67.4512475,113.588609 67.6417694,113.615436 L68.0672272,113.660913 C68.4566542,113.710489 68.5155289,113.784518 68.4911389,114.07973 L68.446249,114.466888 C68.4425574,114.490128 68.439627,114.503419 68.4377622,114.503419 L68.3722968,114.513495 C67.9871462,114.553097 66.024087,114.65972 65.6638695,114.65972 Z M85.7468531,114.535982 C84.7613054,114.268968 84.1216783,113.793553 83.7431235,113.038098 C83.3776224,112.328232 83.3254079,111.943992 83.3515152,110.231195 L83.3776224,108.707261 L82.8881119,108.609573 C82.6205128,108.557473 82.379021,108.485835 82.3594406,108.459785 C82.3137529,108.39466 82.3920746,107.775969 82.4508159,107.717356 C82.4667249,107.69619 82.9910621,107.696521 83.6947493,107.714855 L85.9230769,107.788994 L85.9622378,108.52491 L85.583683,108.603061 L85.0680653,108.707261 C84.9375291,108.726799 84.9310023,108.785412 84.8918415,109.619017 L84.8598431,110.347751 C84.7946646,112.117017 84.8990935,112.551829 85.3748252,113.038098 C85.7207459,113.389775 86.0993007,113.539564 86.8368298,113.598176 C88.011655,113.689352 88.7426573,113.077174 88.8927739,111.885379 L88.9110254,111.681167 C88.9387852,111.308616 88.9669421,110.663391 88.9776224,110.087919 L88.9972028,108.80495 L88.5207459,108.694236 C88.2596737,108.635624 88.0312354,108.570498 88.011655,108.544448 C87.979021,108.485835 88.0769231,107.834582 88.1226107,107.782481 C88.1617716,107.743406 91.1314685,107.880169 91.1706294,107.925757 C91.183683,107.938782 91.2097902,108.108108 91.2293706,108.303484 L91.2554779,108.655161 L90.9095571,108.726799 L90.4265734,108.811462 C90.3251113,108.827447 90.3022944,108.87831 90.272328,109.691711 L90.2344308,110.832185 C90.1851469,112.147574 90.1152448,112.461739 89.8391608,113.018561 C89.4475524,113.78704 88.7622378,114.327581 87.8745921,114.555519 C87.3263403,114.698795 86.3081585,114.68577 85.7468531,114.535982 Z M76.6680653,114.496907 C75.8456876,114.340606 74.6969697,113.904266 74.6251748,113.721915 C74.6095105,113.680234 74.6105548,113.384305 74.6283077,113.014184 L74.6969697,111.826767 L75.5454545,111.826767 L75.6498834,112.295669 L75.7279768,112.600182 C75.7617716,112.719117 75.7916084,112.807368 75.8065268,112.829697 C75.8717949,112.94041 76.5571096,113.266037 76.9682984,113.389775 C77.2061642,113.459242 77.5213848,113.492689 78.0606476,113.499265 L78.2736597,113.500488 C78.9975913,113.500488 79.2169645,113.484071 79.4948373,113.386025 L79.5724942,113.357213 C80.0815851,113.168349 80.2251748,112.979486 80.1990676,112.523608 C80.1819347,112.238684 80.1598048,112.16318 80.0102491,112.030957 L79.9379953,111.970042 C79.7576494,111.826081 79.6627304,111.779537 78.9852376,111.679798 L77.8131648,111.517037 C76.1200855,111.274512 75.6564103,111.127754 75.225641,110.745685 C74.8536131,110.420059 74.7100233,110.087919 74.7100233,109.547379 C74.7165501,108.557473 75.2125874,108.016933 76.4918415,107.613155 L76.657342,107.564802 C76.8919589,107.501431 77.0850654,107.477604 77.5045215,107.470813 L78.6247535,107.470813 C79.3410198,107.475514 79.5532425,107.499596 79.9464754,107.609817 L80.048951,107.639205 C80.3752914,107.730381 80.8125874,107.873657 81.027972,107.95832 L81.4195804,108.114621 L81.3814394,109.133426 C81.3697115,109.384769 81.3541594,109.623392 81.3379698,109.766617 L81.2890443,110.133507 L80.5058275,110.172582 L80.3752914,109.632042 L80.2382284,109.091501 L79.9118881,108.915663 C79.3897436,108.635624 78.9067599,108.537936 78.0191142,108.537936 C76.8181818,108.537936 76.3417249,108.739824 76.2503497,109.273852 C76.2223776,109.452482 76.2375624,109.521063 76.3616669,109.655946 L76.4331002,109.72973 C76.5986438,109.894911 76.6768036,109.942383 77.0107594,109.993421 L78.3065017,110.166796 C79.9895146,110.403296 80.5876636,110.567342 81.0736597,110.875936 C81.6480186,111.240638 81.9156177,111.91143 81.7850816,112.653859 C81.6284382,113.539564 81.0214452,114.099642 79.8662005,114.412244 C79.2265734,114.588082 77.4055944,114.63367 76.6680653,114.496907 Z" id="drosi-seifi"></path>
                </g>
            </g>
        </g>
    </g>
</svg>