<?xml version="1.0" encoding="UTF-8"?>
<svg width="84px" height="32px" viewBox="0 0 84 32" version="1.1" xmlns="http://www.w3.org/2000/svg" xmlns:xlink="http://www.w3.org/1999/xlink">
    <title>partners-logo-latio</title>
    <g id="Design" stroke="none" stroke-width="1" fill="none" fill-rule="evenodd">
        <g id="Group-16" transform="translate(-838, -64)" fill="#292C33">
            <g id="Client-6" transform="translate(800, 0)">
                <path d="M56.0047474,64 C58.3290254,64 59.8264539,65.0512561 60.5168139,65.8806242 C60.9055123,66.3500407 61.1735461,66.9368112 61.3219042,67.5975444 L58.0936305,69.1980967 L58.0936305,69.1980967 C58.0412106,68.91408 57.9343927,68.6626069 57.776144,68.4495944 C57.4151391,67.974261 56.7900567,67.6932028 56.015627,67.688272 C54.6174187,67.7325151 53.5634627,68.5531096 53.0748357,69.8309868 L53.0089015,70.0166169 L49.9260187,81.0952393 L49.6877759,81.9029318 C47.580547,88.995073 46.4681809,91.3434011 46.1103177,91.9987202 L45.9796914,92.2202115 L49.132797,92.2251424 C54.2203317,92.2251424 56.7434068,91.6857355 58.7000066,87.6729188 L58.8215745,87.4175686 C58.8215745,87.4175686 58.8443228,87.3603708 58.8769616,87.2844358 L61.0053079,79.9250137 C61.0319728,79.8375681 61.0486285,79.7855082 61.0538705,79.7737728 C62.2038468,76.6553466 65.3790714,74.2221702 68.6573159,73.9112549 L68.9307002,73.8902887 L69.5191876,73.87451 L77.716471,73.87451 L73.1658314,90.4510244 C73.0817618,90.7892803 73.0708822,91.0190577 73.1173677,91.2044575 C73.213306,91.5782155 73.5327706,91.8296886 73.9105894,91.8296886 C74.0925754,91.8296886 74.2726625,91.793082 74.4706,91.7193639 L74.6640228,91.6376775 L74.6640228,91.6376775 L81.6845575,88.2094623 L84.7288671,77.1446463 L80.986285,77.1446463 L81.8784122,73.8498558 L85.6298957,73.8518281 L87.0719372,68.5669485 L91.5869708,66.3372205 L89.5445733,73.8498558 L93.6194777,73.8498558 L92.7184491,77.1446463 L88.6603586,77.1446463 L85.0107477,90.4510244 C84.925689,90.7892803 84.9118422,91.0190577 84.9612949,91.2044575 C85.0572332,91.5782155 85.3747197,91.8296886 85.7555057,91.8296886 C85.9374917,91.8296886 86.1175787,91.793082 86.3155162,91.7193639 L86.5093067,91.6375883 L86.5093067,91.6375883 L93.3919952,88.2745494 L97.3452459,73.8774685 L101.274759,73.8774685 L96.7379664,90.4510244 C96.6529077,90.7892803 96.639061,91.0190577 96.6885137,91.2044575 C96.784452,91.5782155 97.1049056,91.8296886 97.4827244,91.8296886 C97.6639192,91.8296886 97.843848,91.793082 98.0417538,91.7193639 L98.2364879,91.6374169 C98.6523821,91.4403471 101.927081,89.8378405 104.532705,88.5644831 L104.543584,88.5092577 L106.856983,80.1317522 C107.842433,76.5514767 111.450935,73.7339476 115.142691,73.6104921 L115.394501,73.606272 L116.089806,73.606272 C118.063959,73.606272 119.810629,74.4198614 120.88672,75.8369863 C121.911569,77.1894466 122.24565,78.9846766 121.818903,80.800991 L121.749176,81.0735436 L119.441712,89.4540075 C118.45336,93.0342831 114.84763,95.8536978 111.153225,95.9772371 L110.901226,95.98146 L110.208888,95.98146 C108.234735,95.98146 106.485098,95.1688568 105.409007,93.7487735 C105.094488,93.3335963 104.845246,92.8730554 104.664249,92.3858879 L101.348875,94.0421201 C100.092744,94.6752058 99.1650072,95.145386 98.8842146,95.269446 C97.8002109,95.741821 96.8714888,95.98146 95.9328761,95.98146 C94.3612685,95.98146 93.0418699,94.9390794 92.6413028,93.3937526 C92.5760252,93.1314317 92.534485,92.8612214 92.5156929,92.5939696 L87.4518123,95.1305182 C87.3216517,95.1938171 87.2220688,95.2408811 87.1569958,95.269446 C86.0729921,95.741821 85.1422919,95.98146 84.2026902,95.98146 C82.6340498,95.98146 81.3146511,94.9390794 80.9150731,93.3907941 C80.8438612,93.115653 80.8023209,92.8257193 80.786496,92.5367718 L78.4532267,93.7029702 C76.8592865,94.5053703 75.6411619,95.1266215 75.3130687,95.269446 C74.2310431,95.741821 73.3003428,95.98146 72.3617301,95.98146 C70.7901226,95.98146 69.4697349,94.9390794 69.0701569,93.3937526 C69.0236713,93.2083529 68.9910325,93.0199946 68.9663062,92.8286778 L64.329071,95.154116 C64.2034034,95.2151665 64.1070816,95.2605705 64.0437821,95.2881832 C62.9617565,95.7635167 62.0310563,95.9982249 61.0914545,95.9982249 C59.8373335,95.9982249 58.7454174,95.3345332 58.1509956,94.2813047 C57.7622972,94.5406671 57.3538177,94.7724169 56.9245681,94.97754 C55.0295397,95.8769261 52.8737175,95.9905328 50.7320744,96 L49.132797,95.9982249 L38,95.9982249 L39.4123698,92.3099529 C41.8118159,92.3099529 42.7791112,90.279431 42.849334,90.1127684 C43.5230779,88.5179359 44.5742098,85.4557322 45.7464823,81.6811017 L46.2951998,79.8911269 L49.3424766,69.1487882 C50.3285639,65.8727349 53.2255044,64 56.0047474,64 Z M116.068047,77.3172259 L115.355928,77.3172259 C113.410293,77.3172259 111.260406,78.9086912 110.637694,80.7732335 L110.578795,80.9670373 L108.196162,89.5930574 C107.985494,90.355366 108.072531,91.0407534 108.437492,91.5210177 C108.773853,91.963972 109.335436,92.2254506 110.033871,92.2659543 L110.22768,92.2714923 L110.942767,92.2714923 C112.885533,92.2714923 115.038097,90.6772625 115.661884,88.8125358 L115.720889,88.6187224 L118.099565,79.9917162 C118.310233,79.2303937 118.223197,78.5450063 117.858235,78.0617835 C117.524594,77.6215412 116.960744,77.3627746 116.261912,77.3227041 L116.068047,77.3172259 Z M72.8453778,77.3172259 L69.2560991,77.3172259 C67.5136324,77.3172259 65.5679188,78.6752825 64.8316688,80.3161638 L64.7549123,80.4995932 L61.899512,90.4668031 C61.8144533,90.8080176 61.8006066,91.0377949 61.8470921,91.2231947 C61.9459976,91.5979389 62.2634841,91.8513843 62.6413029,91.8513843 C62.8232889,91.8513843 63.0033759,91.8128843 63.2028326,91.7389137 L63.3989778,91.6569228 L63.3989778,91.6569228 L69.7496373,88.5536353 L72.8453778,77.3172259 Z M101.389193,64.0781046 C102.796617,64.0781046 103.909304,65.2151574 103.872709,66.6174897 C103.834135,68.0227805 102.663095,69.1598333 101.25567,69.1598333 C99.8472569,69.1598333 98.7365488,68.0227805 98.7731438,66.6174897 C98.8097388,65.2151574 99.9807793,64.0781046 101.389193,64.0781046 Z" id="latio"></path>
            </g>
        </g>
    </g>
</svg>