<?xml version="1.0" encoding="UTF-8"?>
<svg width="110px" height="34.4490418px" viewBox="0 0 110 34.4490418" version="1.1" xmlns="http://www.w3.org/2000/svg" xmlns:xlink="http://www.w3.org/1999/xlink">
    <title>partners-logo-einsteins</title>
    <g id="Design" stroke="none" stroke-width="1" fill="none" fill-rule="evenodd">
        <g id="Client-1" transform="translate(-25, -63)" fill="#292C33">
            <path d="M77.1627906,88.5394046 L77.1627906,93.8571985 C77.1627906,94.44029 77.232558,94.9300868 77.3488371,95.3032653 C77.4651161,95.6764438 77.6511626,96.002975 77.860465,96.2362116 C78.0697673,96.4694481 78.3255812,96.6327137 78.604651,96.7260084 C78.8837208,96.819303 79.1860464,96.8659503 79.4883719,96.8659503 C79.8139533,96.8659503 80.1162789,96.819303 80.3953487,96.7260084 C80.6744185,96.6327137 80.9302324,96.4694481 81.1395347,96.2362116 C81.3139533,96.0418478 81.4722221,95.798893 81.5874244,95.4938498 L81.6511626,95.3032653 C81.7906975,94.9067631 81.860465,94.44029 81.860465,93.8571985 L81.860465,88.5394046 L82.4418603,88.5394046 L82.4418603,93.9271695 C82.4418603,94.6035556 82.3488371,95.186647 82.1860464,95.6297965 C82.0232557,96.0729459 81.7906975,96.4461245 81.5116277,96.7260084 C81.232558,97.0058922 80.9302324,97.1924816 80.5813952,97.2857761 C80.232558,97.4023944 79.8604649,97.4490418 79.4883719,97.4490418 C79.1162789,97.4490418 78.7441859,97.4023944 78.3953486,97.2857761 C78.0465115,97.1691579 77.7209301,96.9825686 77.4651161,96.7260084 C77.1860464,96.4461245 76.976744,96.0962696 76.8139533,95.6297965 C76.6511626,95.186647 76.5581394,94.6035556 76.5581394,93.9271695 L76.5581394,88.5394046 L77.1627906,88.5394046 Z M94.6511626,88.3528154 C95.1860463,88.3528154 95.6744184,88.4461101 96.1162789,88.656023 C96.5581393,88.8659359 96.9302323,89.1691434 97.2558138,89.5656456 C97.5813952,89.9621478 97.8139533,90.4286209 97.9999998,90.9883887 C98.1860463,91.5481565 98.2558137,92.1545716 98.2558137,92.8542813 C98.2558137,93.553991 98.1627905,94.1837297 97.9999998,94.7434975 C97.8139533,95.3032653 97.5813952,95.7930621 97.2558138,96.1895643 C96.9302323,96.5860665 96.5581393,96.889274 96.1162789,97.0991869 C95.6744184,97.3324234 95.1860463,97.4257181 94.6511626,97.4257181 C94.1395347,97.4257181 93.6511626,97.3090998 93.2093021,97.0991869 C92.7674417,96.889274 92.3953486,96.5860665 92.0697673,96.1895643 C91.7441859,95.7930621 91.5116277,95.3032653 91.3255812,94.7434975 C91.1395347,94.1837297 91.0697673,93.553991 91.0697673,92.8542813 C91.0697673,92.1778952 91.1627905,91.5481565 91.3255812,90.9883887 C91.5116277,90.4286209 91.7441859,89.9621478 92.0697673,89.5656456 C92.3953486,89.1691434 92.7674417,88.8659359 93.2093021,88.656023 C93.6511626,88.4461101 94.1395347,88.3528154 94.6511626,88.3528154 Z M117.302325,88.3528154 C117.837209,88.3528154 118.325581,88.4461101 118.767441,88.656023 C119.209302,88.8659359 119.581395,89.1691434 119.906977,89.5656456 C120.232558,89.9621478 120.465116,90.4286209 120.651163,90.9883887 C120.837209,91.5481565 120.906977,92.1545716 120.906977,92.8542813 C120.906977,93.553991 120.813953,94.1837297 120.651163,94.7434975 C120.488372,95.3032653 120.232558,95.7930621 119.906977,96.1895643 C119.581395,96.5860665 119.209302,96.889274 118.767441,97.0991869 C118.325581,97.3324234 117.837209,97.4257181 117.302325,97.4257181 C116.790697,97.4257181 116.302325,97.3090998 115.860465,97.0991869 C115.418605,96.889274 115.046511,96.5860665 114.72093,96.1895643 C114.395348,95.7930621 114.16279,95.3032653 113.976744,94.7434975 C113.790697,94.1837297 113.72093,93.553991 113.72093,92.8542813 C113.72093,92.1778952 113.813953,91.5481565 113.976744,90.9883887 C114.16279,90.4286209 114.395348,89.9621478 114.72093,89.5656456 C115.046511,89.1691434 115.418605,88.8659359 115.860465,88.656023 C116.302325,88.4461101 116.790697,88.3528154 117.302325,88.3528154 Z M102.604651,88.3761391 C103.139535,88.3761391 103.604651,88.4694337 104.023256,88.6793466 C104.441861,88.8892595 104.767441,89.1224961 105.023256,89.40238 L104.674419,89.8222058 C104.418604,89.5423219 104.116279,89.332409 103.767442,89.1691434 C103.418604,89.0058778 103.023256,88.9125832 102.581395,88.9125832 C102,88.9125832 101.534884,89.0525252 101.186046,89.332409 C100.837209,89.6122929 100.651163,89.9854715 100.651163,90.4752682 C100.651163,90.7318284 100.697674,90.9417414 100.790697,91.1283306 C100.883721,91.3149199 101.023256,91.4548618 101.16279,91.5948038 C101.325581,91.711422 101.488372,91.8280404 101.651163,91.921335 L101.999138,92.0906475 C102.054263,92.1182903 102.108527,92.146797 102.16279,92.1778952 L103.488372,92.7609867 C103.616279,92.807634 103.738372,92.8659431 103.854651,92.9271677 L104.186046,93.1108415 C104.418604,93.2507834 104.604651,93.3907254 104.767441,93.5773146 C104.930232,93.7639039 105.069767,93.9738168 105.16279,94.2070534 C105.255814,94.4636136 105.325581,94.7434975 105.325581,95.0700287 C105.325581,95.3965599 105.255814,95.7230911 105.116279,96.002975 C104.976744,96.2828589 104.790698,96.5394191 104.558139,96.749332 C104.325581,96.9592449 104.023256,97.1225106 103.674418,97.2391289 C103.325581,97.3557471 102.953488,97.4257181 102.511628,97.4257181 C101.883721,97.4257181 101.302325,97.3090998 100.813953,97.0525396 C100.325581,96.819303 99.9069765,96.4927718 99.5581393,96.0962696 L99.9767439,95.6997674 C100.302325,96.0496223 100.674418,96.3528298 101.116279,96.5627428 C101.558139,96.7726557 102.023256,96.889274 102.534883,96.889274 C103.209302,96.889274 103.72093,96.7260084 104.116279,96.3994772 C104.511628,96.0729459 104.697674,95.6531202 104.697674,95.1399997 C104.697674,94.8601158 104.651162,94.6502029 104.581395,94.44029 C104.488372,94.2537007 104.395349,94.0904351 104.255814,93.9504932 C104.116279,93.8105512 103.953488,93.6939329 103.767442,93.5773146 L103.371231,93.3734486 C103.302325,93.338895 103.232558,93.3052053 103.16279,93.2741071 L101.837209,92.6910157 L101.440999,92.4975157 C101.372093,92.4629622 101.302325,92.4266809 101.232558,92.3878081 C101.023256,92.2711898 100.837209,92.1312479 100.674418,91.9679823 C100.511628,91.8047167 100.348837,91.5948038 100.232558,91.3615672 C100.116279,91.1283306 100.069767,90.8484468 100.069767,90.5219155 C100.069767,90.1953843 100.139535,89.9155005 100.255814,89.6589403 C100.372093,89.40238 100.558139,89.1691434 100.790697,88.9825542 C100.976744,88.8332828 101.177674,88.6989385 101.417302,88.6034048 L101.604651,88.5394046 C101.906977,88.4227864 102.255814,88.3761391 102.604651,88.3761391 Z M123.511628,88.5394046 L123.511628,96.749332 L127.534883,96.749332 L127.534883,97.2857761 L122.906976,97.2857761 L122.906976,88.5394046 L123.511628,88.5394046 Z M107.767442,88.5394046 L107.767442,93.3907254 L107.790697,93.3907254 L112,88.5394046 L112.744186,88.5394046 L109.953488,91.7580694 L113.116279,97.2857761 L112.418604,97.2857761 L109.534883,92.2245426 L107.767442,94.2537007 L107.767442,97.2857761 L107.16279,97.2857761 L107.16279,88.5394046 L107.767442,88.5394046 Z M90.2558138,88.5394046 L90.2558138,89.0525252 L87.4651161,89.0525252 L87.4651161,97.2857761 L86.860465,97.2857761 L86.860465,89.0525252 L84.0697673,89.0525252 L84.0697673,88.5394046 L90.2558138,88.5394046 Z M72.3488371,88.516081 L75.4186045,97.2624525 L74.7906975,97.2624525 L73.7674417,94.2770244 L70.3023254,94.2770244 L69.2790696,97.2624525 L68.6744185,97.2624525 L71.7441859,88.516081 L72.3488371,88.516081 Z M131.72093,88.516081 L134.790698,97.2624525 L134.16279,97.2624525 L133.116278,94.2770244 L129.674418,94.2770244 L128.651163,97.2624525 L128.046511,97.2624525 L131.116279,88.516081 L131.72093,88.516081 Z M94.6511626,88.9359068 C94.2093022,88.9359068 93.8139533,89.0292015 93.4418603,89.2157907 C93.0697673,89.40238 92.7674417,89.6589403 92.5116277,90.0087951 C92.2558137,90.35865 92.0697672,90.7551521 91.9069765,91.244949 C91.7674417,91.7347457 91.6976742,92.2711898 91.6976742,92.8776049 C91.6976742,93.48402 91.7674417,94.0437878 91.9069765,94.5335846 C92.0465114,95.0233814 92.2558137,95.4432072 92.5116277,95.7930621 C92.7674417,96.1429169 93.0697673,96.4228008 93.4418603,96.6093901 C93.8139533,96.7726557 94.2093022,96.889274 94.6511626,96.889274 C95.093023,96.889274 95.4883718,96.7959794 95.8604649,96.6093901 C96.2325579,96.4228008 96.5348835,96.1429169 96.7906974,95.7930621 C97.0465114,95.4432072 97.2558138,95.0233814 97.3953487,94.5335846 C97.5348835,94.0437878 97.604651,93.48402 97.604651,92.8776049 C97.604651,92.2711898 97.5348835,91.7347457 97.3953487,91.244949 C97.2558138,90.7551521 97.0465114,90.3353263 96.7906974,90.0087951 C96.5348835,89.6822639 96.2093021,89.40238 95.8604649,89.2157907 C95.4883718,89.0292015 95.093023,88.9359068 94.6511626,88.9359068 Z M117.302325,88.9359068 C116.860465,88.9359068 116.465116,89.0292015 116.093023,89.2157907 C115.72093,89.40238 115.418605,89.6589403 115.16279,90.0087951 C114.906976,90.35865 114.72093,90.7551521 114.581395,91.244949 C114.44186,91.7347457 114.372093,92.2711898 114.372093,92.8776049 C114.372093,93.48402 114.44186,94.0437878 114.581395,94.5335846 C114.72093,95.0233814 114.930232,95.4432072 115.16279,95.7930621 C115.418605,96.1429169 115.72093,96.4228008 116.093023,96.6093901 C116.465116,96.7726557 116.860465,96.889274 117.302325,96.889274 C117.744186,96.889274 118.139535,96.7959794 118.511628,96.6093901 C118.860465,96.4228008 119.186046,96.1429169 119.441861,95.7930621 C119.697674,95.4432072 119.906977,95.0233814 120.046511,94.5335846 C120.186046,94.0437878 120.255814,93.48402 120.255814,92.8776049 C120.255814,92.2711898 120.186046,91.7347457 120.046511,91.244949 C119.906977,90.7551521 119.697674,90.3353263 119.441861,90.0087951 C119.186046,89.6822639 118.860465,89.40238 118.511628,89.2157907 C118.139535,89.0292015 117.744186,88.9359068 117.302325,88.9359068 Z M131.395349,89.1224961 L131.348837,89.1224961 C131.244186,89.5248292 131.126453,89.9140427 131.00545,90.280297 L130.551249,91.6250382 C130.493539,91.7917591 130.434109,91.9602077 130.372092,92.1312479 L129.813953,93.7639039 L132.930232,93.7639039 L132.372093,92.1312479 L132.236555,91.7471364 L131.860465,90.6385339 C131.697674,90.148737 131.534883,89.6589403 131.395349,89.1224961 Z M72.0232556,89.1224961 L71.7906975,89.9067541 C71.7529068,90.0335765 71.7151161,90.1582122 71.6765987,90.280297 L71.5581394,90.6385339 C71.3953487,91.1283306 71.232558,91.6181274 71.0465115,92.1312479 L70.4883719,93.7639039 L73.604651,93.7639039 L73.0465115,92.1312479 L72.9109737,91.7471364 L72.5348836,90.6385339 C72.4534883,90.3936354 72.3779068,90.148737 72.3023254,89.8980077 L72.0697673,89.1224961 L72.0232556,89.1224961 Z M48.3953488,68.4110885 L54.9999999,79.0000289 L54.9999999,68.4110885 L58.1627906,68.4110885 L58.1627906,82.9417269 C58.1627906,83.4315238 57.9999999,83.8746732 57.7209301,84.2245281 C57.4186046,84.5743829 57.0697674,84.7609722 56.6511627,84.7609722 C55.6046511,84.7609722 54.7674418,84.1545571 54.0930232,82.9417269 L48.5348836,74.1953555 L48.5348836,84.5743829 L45.372093,84.5743829 L45.372093,68.4110885 L48.3953488,68.4110885 Z M111.116278,68.4110885 L117.72093,79.0000289 L117.72093,68.4110885 L120.883721,68.4110885 L120.883721,82.9417269 C120.883721,83.4315238 120.72093,83.8746732 120.418604,84.2245281 C120.116279,84.5743829 119.767441,84.7609722 119.348837,84.7609722 C118.302325,84.7609722 117.465116,84.1545571 116.790697,82.9417269 L111.232558,74.1953555 L111.232558,84.5743829 L108.093023,84.5743829 L108.093023,68.4110885 L111.116278,68.4110885 Z M128.953488,68.2244992 C130.627907,68.2244992 132,68.6443251 133.023256,69.5073004 C134.046511,70.3702757 134.55814,71.4664876 134.55814,72.8192597 L131.744186,72.9592016 C131.488372,71.6530768 130.60465,70.9766908 129.093023,70.9766908 C128.16279,70.9766908 127.441861,71.16328 126.930232,71.5597822 C126.418604,71.9562843 126.139535,72.4227575 126.139535,72.9592016 C126.139535,73.4956458 126.325581,73.9154716 126.697674,74.2186791 C127.069767,74.5218867 127.534883,74.7317996 128.093023,74.8017705 L130.674418,75.0816544 C133.558139,75.5014803 135,77.0641653 135,79.7930332 C135,81.3323946 134.441861,82.5219012 133.325581,83.3848764 C132.209302,84.2478517 130.790697,84.6910013 129.046511,84.6910013 C127.674419,84.6910013 126.348837,84.3178227 125.069767,83.548142 C124.44186,83.1516399 123.906976,82.591872 123.511628,81.8688387 C123.116279,81.1458053 122.906976,80.3294774 122.906976,79.3965311 L125.767441,79.2565891 C125.767441,80.0729171 126.116278,80.7026558 126.813953,81.169129 C127.511627,81.6356021 128.279069,81.8455151 129.116279,81.8455151 C131,81.8455151 131.953488,81.169129 131.953488,79.8396805 C131.953488,78.7434687 131.325581,78.1137299 130.023255,77.9038169 L127.395348,77.6239331 C126.069767,77.4373438 125.046512,76.9708707 124.27907,76.2245137 C123.511628,75.4781566 123.116279,74.4052684 123.116279,73.0291726 C123.116279,71.6297532 123.674418,70.486894 124.767441,69.5772713 C125.860465,68.6676487 127.255814,68.2244992 128.953488,68.2244992 Z M66.0465115,68.2478229 C67.6976743,68.2478229 69.0930231,68.6909724 70.2558138,69.5539477 C71.4186045,70.416923 71.9999998,71.5131349 71.9999998,72.8425834 L69.1860464,72.9825253 C69.0930231,72.4927285 68.860465,72.0962263 68.4651162,71.7696951 C67.8372092,71.2565747 67.0930231,71.0000144 66.2093022,71.0000144 C65.3255813,71.0000144 64.6279069,71.1866037 64.1395348,71.5831059 C63.6511627,71.979608 63.3953488,72.4460812 63.3953488,72.9825253 C63.3953488,73.5189694 63.5813953,73.9387952 63.9534883,74.2420028 C64.3255812,74.5452103 64.7906976,74.7551232 65.3488371,74.8250942 L67.9302325,75.1049781 C70.8372092,75.5014803 72.2790696,77.0641653 72.2790696,79.7930332 C72.2790696,81.2857473 71.6511627,82.4752538 70.3953487,83.3615528 C69.1395348,84.2478517 67.6279068,84.6910013 65.8372092,84.6910013 C64.488372,84.6910013 63.2558139,84.3178227 62.0930232,83.548142 C61.5116278,83.1516399 61.0465115,82.591872 60.6744185,81.8921624 C60.3255813,81.1924527 60.1395348,80.352801 60.1395348,79.4198547 L62.9999999,79.2799128 C62.9999999,80.1195644 63.2790697,80.7493031 63.8372092,81.1924527 C64.3953487,81.6356021 65.116279,81.8688387 65.9999998,81.8688387 C66.8837208,81.8688387 67.6279068,81.6822494 68.2558138,81.3323946 C68.8837208,80.9825398 69.1860464,80.4927429 69.1860464,79.8630042 C69.1860464,78.7667923 68.5348836,78.1370536 67.2558138,77.9271406 L64.6279069,77.6472567 C63.3255813,77.4606675 62.2790697,76.9941943 61.5116278,76.2478373 C60.7441859,75.5014803 60.3488371,74.4285921 60.3488371,73.0524963 C60.3488371,71.6530768 60.8837208,70.5102176 61.9534883,69.600595 C63.0232557,68.6909724 64.3953487,68.2478229 66.0465115,68.2478229 Z M41.8372093,68.4110885 L41.8372093,84.5743829 L38.6976744,84.5743829 L38.6976744,68.4110885 L41.8372093,68.4110885 Z M104.55814,68.4110885 L104.55814,84.5743829 L101.418604,84.5743829 L101.418604,68.4110885 L104.55814,68.4110885 Z M98.3720928,68.4110885 L98.3720928,71.233251 L90.9069765,71.233251 L90.9069765,75.0350072 L96.1395347,75.0350072 L95.9069766,77.8571697 L90.9069765,77.8571697 L90.9069765,80.0962407 C90.9069765,80.7259795 91.0465114,81.169129 91.3255812,81.4023655 C91.604651,81.6356021 92.1395347,81.7755441 92.8837208,81.7755441 L98.3720928,81.7755441 L98.348837,84.5743829 L92.6511626,84.5743829 C90.8372091,84.5743829 89.5813952,84.2711754 88.8372091,83.6414367 C88.1162789,83.0116979 87.7441858,81.915486 87.7441858,80.3061537 L87.7441858,68.4110885 L98.3720928,68.4110885 Z M35.6046511,68.4110885 L35.6046511,71.233251 L28.1395349,71.233251 L28.1395349,75.0350072 L33.372093,75.0350072 L33.1395348,77.8571697 L28.1395349,77.8571697 L28.1395349,80.0962407 C28.1395349,80.7259795 28.2790698,81.169129 28.5581395,81.4023655 C28.8372093,81.6356021 29.372093,81.7755441 30.1162791,81.7755441 L35.6046511,81.7755441 L35.6046511,84.5743829 L29.9069767,84.5743829 C28.0930232,84.5743829 26.8139535,84.2711754 26.0930233,83.6414367 C25.372093,82.9883742 25,81.8921624 25,80.3061537 L25,68.4110885 L35.6046511,68.4110885 Z M85.2790696,68.4110885 L85.2790696,71.2099274 L80.9534882,71.2099274 L80.9534882,84.5743829 L77.8139533,84.5743829 L77.8139533,71.2099274 L73.5116277,71.2099274 L73.5116277,68.4110885 L85.2790696,68.4110885 Z M68.9534882,63 C69.1395347,63 69.3023255,63.069971 69.4186046,63.2099129 C69.5348836,63.3498549 69.6046511,63.4897968 69.6046511,63.6530624 C69.6046511,63.816328 69.5581394,63.9562699 69.488372,64.0962119 L67.3720929,66.8484034 L65.0232557,66.8484034 L62.9069766,64.0962119 C62.8372092,63.9795936 62.7906975,63.8396517 62.7906975,63.6763861 C62.7906975,63.5131205 62.860465,63.3731785 62.9767441,63.2332366 C63.0930232,63.0932946 63.2558139,63.0233237 63.4418604,63.0233237 C64.0232557,63.0233237 64.604651,63.3965022 65.1860464,64.1195355 L66.1860464,65.379013 L67.2093022,64.0962119 C67.7906975,63.3731785 68.3720929,63 68.9534882,63 Z" id="einsteins"></path>
        </g>
    </g>
</svg>