<?xml version="1.0" encoding="UTF-8"?>
<svg width="116px" height="44px" viewBox="0 0 116 44" version="1.1" xmlns="http://www.w3.org/2000/svg" xmlns:xlink="http://www.w3.org/1999/xlink">
    <title>partners-logo-depozita-punkts</title>
    <g id="Design" stroke="none" stroke-width="1" fill="none" fill-rule="evenodd">
        <g id="Group-16" transform="translate(-502, -58)" fill="#292C33">
            <g id="Client-4" transform="translate(480, 0)">
                <path d="M116.068708,58 C128.181026,58 138,67.8497355 138,80 C138,92.1502645 128.181026,102 116.068708,102 C103.956391,102 94.1374169,92.1502645 94.1374169,80 C94.1374169,67.8497355 103.956391,58 116.068708,58 Z M118.78406,64.360834 L113.361078,64.360834 L113.361078,68.3196808 C113.361028,69.3003429 112.938061,70.2330333 112.201155,70.8774401 L111.320918,71.651997 C110.115273,72.7061364 109.423247,74.2319845 109.423174,75.8363259 L109.423174,79.1643391 L108.998499,78.8562375 L107.757072,80.101553 L110.465561,82.1455228 L113.174049,80.101553 L111.932623,78.8562375 L111.503657,79.1669209 L111.503657,75.8371866 C111.503602,74.8356512 111.935678,73.8831113 112.68846,73.2252083 L113.568697,72.4506513 C114.758692,71.409811 115.441633,69.9034493 115.441561,68.3196808 L115.441561,67.8368736 C115.441514,67.4254743 115.37368,67.0169118 115.240805,66.6277041 L116.904333,66.6277041 C116.771287,67.0171656 116.703451,67.4260395 116.703577,67.8377342 L116.703577,68.3257051 C116.703505,69.9094736 117.386446,71.4158354 118.576441,72.4566757 L119.457536,73.2312326 C120.210092,73.8892254 120.641864,74.8417876 120.641481,75.8432109 L120.641481,76.9826703 C120.639555,78.0685961 120.121336,79.0884579 119.246485,79.7280444 L111.696692,85.2695693 C110.2743,86.3172259 109.432925,87.9806506 109.430038,89.7508117 L109.430038,92.3171772 C109.430038,94.1182534 110.885287,95.5784474 112.680739,95.5789227 L119.472121,95.5789227 C121.267907,95.5789227 122.72368,94.1185895 122.72368,92.3171772 L122.72368,87.3944373 L123.148356,87.7016782 L124.387208,86.451199 L121.67872,84.4063686 L118.970231,86.451199 L120.211658,87.6965145 L120.640623,87.3858311 L120.640623,92.1424715 C120.640623,92.7912652 120.116315,93.3172163 119.469547,93.3172163 L112.678165,93.3172163 C112.367655,93.3172164 112.069875,93.1934215 111.850393,92.9730894 C111.630909,92.7527572 111.50772,92.453954 111.507947,92.1424715 L111.507947,89.7447874 C111.507642,88.6394238 112.033238,87.6002839 112.922675,86.9477761 L120.472469,81.4079725 C121.883711,80.3747252 122.719275,78.728411 122.721964,76.9757853 L122.721964,75.8363259 C122.721996,74.2321457 122.030312,72.7063644 120.825078,71.651997 L119.943983,70.8774401 C119.207077,70.2330333 118.78411,69.3003429 118.78406,68.3196808 L118.78406,64.360834 Z M42.4710929,83.9975746 C42.9981141,83.9931081 43.5181736,84.1026128 43.9973522,84.3185855 C44.4594302,84.5263255 44.8749576,84.8254824 45.2190461,85.1981379 C45.5716176,85.5847432 45.8471144,86.0355077 46.0306488,86.5260728 C46.4207016,87.6015004 46.4207016,88.7803796 46.0306488,89.8558072 C45.8505277,90.3468745 45.5765876,90.7979529 45.2241937,91.1837421 C44.8802627,91.5561971 44.4650581,91.8553317 44.0033578,92.0632946 C43.5241791,92.2792673 43.0041196,92.388772 42.4788143,92.3843054 C42.0054909,92.3976575 41.5355551,92.3004296 41.1061246,92.1003012 C40.7362607,91.919612 40.4081004,91.6634137 40.142668,91.3481203 L40.142668,95.5944138 L38.0115673,95.5944138 L38.0115673,84.2110081 L40.1023453,84.2110081 L40.1023453,85.0905606 C40.3662745,84.7599308 40.6973355,84.4894409 41.0735232,84.29707 C41.5086739,84.0861899 41.9880283,83.9834655 42.4710929,83.9975746 Z M42.0781605,85.9967922 C41.7923762,85.9911086 41.5089202,86.047098 41.2459674,86.1594492 C41.0017113,86.2660368 40.7824964,86.4229 40.6025191,86.6198803 C40.4186632,86.8228971 40.276666,87.0603981 40.1847066,87.3187028 C39.9863761,87.8828817 39.9863761,88.4981378 40.1847066,89.0623166 C40.2768094,89.3205533 40.4187906,89.5580275 40.6025191,89.7611391 C40.7822048,89.9584497 41.0014949,90.1153667 41.2459674,90.2215702 C41.7860676,90.4438713 42.3922716,90.4407734 42.930086,90.212964 C43.1745953,90.102892 43.3939115,89.9435288 43.5743922,89.7447874 C43.7546436,89.5422637 43.8936647,89.3063277 43.9836254,89.050268 C44.175296,88.49499 44.175296,87.8911932 43.9836254,87.3359152 C43.8946837,87.078092 43.7555818,86.8405561 43.5743922,86.6370927 C43.3940598,86.438185 43.1747066,86.2787949 42.930086,86.168916 C42.6619187,86.0502319 42.37122,85.9914988 42.0781605,85.9967922 Z M54.9059456,88.7826155 C54.9202666,89.3398132 54.8152369,89.8936072 54.5979484,90.4066033 C54.4100926,90.8365271 54.1286729,91.2188102 53.7743345,91.5254078 C53.4227151,91.822467 53.013845,92.0436557 52.5732311,92.1751751 C51.6430019,92.454273 50.6516974,92.454273 49.7214682,92.1751751 C49.2813018,92.0425714 48.8726415,91.8214962 48.5203648,91.5254078 C48.1641472,91.2195683 47.8811768,90.8371704 47.6924613,90.4066033 C47.4754667,89.8935421 47.37073,89.3397507 47.385322,88.7826155 L47.385322,84.2110081 L49.525002,84.2110081 L49.525002,88.5932793 C49.5186916,88.8711417 49.5601945,89.1480146 49.6476862,89.4117279 C49.7189143,89.6203388 49.8362284,89.8101004 49.9908586,89.9668271 C50.1363758,90.1100689 50.3123732,90.2183521 50.5056172,90.2835348 C50.7129617,90.3532006 50.9304075,90.3878101 51.1490655,90.3859484 C51.3663399,90.3880582 51.5824162,90.3534358 51.7882242,90.2835348 C51.9806968,90.2167064 52.1563528,90.1086331 52.3029828,89.9668271 C52.4581105,89.8104945 52.5755002,89.6206107 52.6461552,89.4117279 C52.7332724,89.1479435 52.7744826,88.8710863 52.7679814,88.5932793 L52.7679814,84.2110081 L54.8999401,84.2110081 L54.9059456,88.7826155 Z M61.0049775,84.0010171 C61.430209,83.9933621 61.8515074,84.0701753 62.2472616,84.2239174 C62.6132202,84.3658573 62.9463532,84.5814173 63.226161,84.8573329 C63.5049008,85.1368945 63.7225714,85.471604 63.8653196,85.8401596 C64.022038,86.2434954 64.100093,86.6732664 64.0952451,87.10613 L64.0952451,92.1786175 L61.9555651,92.1786175 L61.9555651,87.7989281 C61.988568,87.3211841 61.8440017,86.8481088 61.5497637,86.4709932 C61.2548681,86.1562356 60.8360134,85.9888623 60.4061416,86.0140046 C60.1840166,86.0126912 59.9633662,86.0502611 59.754114,86.1250244 C59.5535262,86.1959295 59.3714303,86.3112359 59.2213388,86.462387 C59.0644403,86.6235635 58.9418469,86.8150569 58.8610078,87.0252318 C58.7663094,87.2775587 58.7205899,87.5457248 58.7263126,87.8152799 L58.7263126,92.1811994 L56.5874905,92.1811994 L56.5874905,84.2144506 L58.6688312,84.2144506 L58.6688312,85.1508039 C58.9201988,84.7565836 59.2827343,84.4462348 59.7103595,84.2592028 C60.1201866,84.0866408 60.5605167,83.9988257 61.0049775,84.0010171 Z M67.854699,87.0476079 L68.6088204,87.0476079 L70.8471625,84.2075656 L73.4698578,84.2075656 L70.3384094,87.9564214 L73.4938798,92.1734538 L70.8651791,92.1734538 L68.5779349,88.9504362 L67.8572728,88.9504362 L67.8572728,92.1734538 L65.7175928,92.1734538 L65.7175928,81.1205258 L67.8572728,81.1205258 L67.854699,87.0476079 Z M86.7360457,86.4314048 C86.5770425,86.3550965 86.3980208,86.2785015 86.1989808,86.2016195 C85.9999408,86.1247376 85.7894618,86.0544537 85.5675436,85.9907679 C85.3437421,85.9276508 85.1166107,85.8770829 84.8872043,85.839299 C84.6603752,85.8013174 84.4308265,85.7820325 84.2008594,85.7816375 C83.8824692,85.7607156 83.56457,85.8292631 83.2828732,85.9795799 C83.0944647,86.0870432 82.9783953,86.2880053 82.9791656,86.505418 C82.9753789,86.6107926 83.0119045,86.7136311 83.0812594,86.7928647 C83.1578604,86.8755766 83.2515603,86.9404908 83.3557973,86.9830615 C83.4880875,87.0366088 83.6255035,87.0764055 83.7658884,87.1018269 L84.2737835,87.1878887 L84.9790029,87.2954661 C85.7002348,87.3693034 86.387621,87.6395244 86.9668291,88.076908 C87.4327514,88.4745355 87.6884869,89.0664454 87.6591795,89.6793804 C87.6647035,90.0664231 87.5804071,90.4494499 87.4129533,90.7981849 C87.2473464,91.1352774 87.0027066,91.427048 86.7000126,91.6484763 C86.3539162,91.8987556 85.9647693,92.082852 85.5521008,92.1915268 C85.0486233,92.3266893 84.5289701,92.3915599 84.0078249,92.3843054 C83.7341449,92.3843054 83.4450222,92.3688143 83.1430304,92.3395533 C82.8341865,92.3083098 82.5275926,92.2577214 82.2250442,92.1880843 C81.9134837,92.1162743 81.6079895,92.0201666 81.3113476,91.9006376 C81.0161711,91.7827035 80.7354985,91.6310987 80.4748648,91.4488127 L81.319069,89.8205218 C81.4917842,89.9376003 81.6727067,90.042007 81.8604235,90.1329265 C82.0604082,90.2298692 82.2671402,90.3121308 82.4789918,90.3790635 C82.7116575,90.4536884 82.9501347,90.5086726 83.1919325,90.5434417 C83.3756575,90.5700447 83.5605285,90.5874785 83.7458626,90.5956957 L84.0241256,90.6011032 C84.403096,90.6239949 84.7820789,90.5564549 85.1299987,90.4040214 C85.3484111,90.3084006 85.4897982,90.0922785 85.4903298,89.8532254 C85.4848761,89.6519698 85.363313,89.4722452 85.1789008,89.3927943 C84.9400934,89.2826882 84.6886951,89.203446 84.4307438,89.1566967 L83.5230939,89.0347768 C81.692841,88.7834761 80.7777145,87.9782237 80.7777145,86.6190197 C80.7705982,86.2402391 80.8492118,85.8647721 81.00764,85.52087 C81.1610533,85.1987871 81.388669,84.9179486 81.6716787,84.7015608 C81.9865093,84.4636291 82.343833,84.2883512 82.7243601,84.1851895 C83.1826242,84.061026 83.6558682,84.0013593 84.1305091,84.007902 C84.4330616,84.0074169 84.7354435,84.0223483 85.0364843,84.0526542 C85.3175595,84.0826994 85.5965971,84.1295429 85.8721091,84.1929351 C86.1414714,84.2555783 86.407012,84.3337373 86.6674112,84.4270234 C86.9344526,84.5243408 87.1956949,84.636981 87.4498443,84.764386 L86.7360457,86.4314048 Z M79.4067407,86.1955952 L76.5300978,86.1955952 L76.5300978,89.1062082 C76.5250246,89.3198107 76.5569562,89.5326752 76.6244703,89.7353206 C76.678909,89.8923708 76.7667296,90.0356733 76.8818496,90.1553026 C76.9875497,90.2618352 77.1164854,90.3422675 77.2584813,90.3902515 C77.4078286,90.440197 77.5643387,90.4652009 77.7217641,90.4642648 C78.3169649,90.4354513 78.8955641,90.2579553 79.4050248,89.9478934 L79.4110303,91.8412549 C79.2543116,92.010872 79.0604789,92.1416771 78.8447958,92.2233697 C78.3718525,92.3937232 77.8715009,92.4745555 77.3691544,92.4617611 C76.5435324,92.5245369 75.7308981,92.2279367 75.1385337,91.6476157 C74.599723,90.9818182 74.3332262,90.1355243 74.3929916,89.2800532 L74.3929916,81.1256895 L76.5326716,81.1256895 L76.5326716,84.2893244 L79.4093145,84.2893244 L79.4067407,86.1955952 Z M26.566767,66.6104917 C27.3703404,66.5998919 28.1692465,66.7345776 28.9252195,67.0080976 C29.6013969,67.2532787 30.2199579,67.6355974 30.7423174,68.1312053 C31.2526308,68.6252449 31.6508766,69.2237513 31.9099616,69.8860071 C32.4584254,71.3566615 32.4584254,72.9766327 31.9099616,74.4472871 C31.6512849,75.1097568 31.2529843,75.7083455 30.7423174,76.202089 C30.2202095,76.6975967 29.6019495,77.0799099 28.9260774,77.3251966 C28.1700142,77.5983711 27.371171,77.7330462 26.5676249,77.7228025 L22,77.7228025 L22,66.6104917 L26.566767,66.6104917 Z M24.1439697,68.6054063 L24.1439697,75.7313304 L26.5307339,75.7313304 C27.0634768,75.7429793 27.5935107,75.6521239 28.0921684,75.463678 C28.9337553,75.142414 29.5832294,74.4535132 29.8560747,73.5926926 C30.0057788,73.1327273 30.0796736,72.651343 30.0748471,72.1675077 C30.0797566,71.680005 30.0058747,71.194926 29.8560747,70.7311348 C29.5866352,69.8702402 28.9354688,69.1827213 28.0921684,68.8687556 C27.5929285,68.6828048 27.0631565,68.5931622 26.5307339,68.6045456 L24.1439697,68.6054063 Z M37.143341,69.5538082 C37.6826848,69.5434949 38.21691,69.6468677 38.7142128,69.8541642 C39.1758706,70.0495358 39.5908457,70.3411338 39.931617,70.7096194 C40.2807259,71.0934377 40.5496839,71.5434956 40.7226294,72.0332512 C40.9165517,72.5791441 41.0124089,73.1552153 41.0057467,73.7346947 L41.0027439,73.9259672 L40.9937356,74.1211125 C40.9851563,74.2527872 40.9757191,74.3655283 40.9654239,74.4593358 L35.3348224,74.4593358 C35.3788276,74.721684 35.4704257,74.9737115 35.6050707,75.2029105 C35.7238176,75.4017896 35.8782797,75.5768698 36.0606321,75.7192818 C36.2397322,75.8569601 36.4436484,75.9586532 36.6611838,76.0187771 C36.893315,76.0832936 37.1332544,76.1151541 37.3741245,76.1134452 C37.7314717,76.110987 38.0854511,76.0439341 38.4190845,75.9155029 C38.7709088,75.7845969 39.0970315,75.5926217 39.3825411,75.348355 L40.6368363,76.7296483 C40.1961524,77.1382825 39.675498,77.4504229 39.1080032,77.6462074 C38.5094978,77.8458082 37.8821221,77.9443973 37.2514404,77.9379572 C36.6815786,77.9444195 36.1156571,77.8425031 35.5836224,77.6376012 C34.5917378,77.2575076 33.8088616,76.4706131 33.4319313,75.474866 C33.223725,74.9304642 33.1206571,74.3513006 33.1282237,73.7682588 C33.1214417,73.1835261 33.2214677,72.6024911 33.423352,72.053906 C33.6059026,71.5590983 33.8860205,71.1062857 34.2469658,70.7225287 C34.6042482,70.3497674 35.0356874,70.0565486 35.513272,69.8619098 C36.0307717,69.6514049 36.5849585,69.5466573 37.143341,69.5538082 Z M37.3115604,71.4077046 L37.1270404,71.4041388 C36.6866901,71.3809772 36.2550307,71.5331499 35.9259369,71.8275633 C35.612611,72.1462161 35.4088334,72.5568573 35.3442596,72.9997262 L38.861777,72.9997262 C38.797706,72.5515742 38.590966,72.1361951 38.2723783,71.8155146 C38.0048271,71.5753427 37.6663694,71.4328538 37.3115604,71.4077046 Z M46.563424,69.5512264 C47.0903848,69.5456015 47.6104472,69.6548133 48.0896834,69.870516 C48.5514425,70.0783763 48.9666664,70.3775248 49.3105193,70.7500685 C49.6631328,71.1369676 49.938628,71.5880217 50.122122,72.078864 C50.3219037,72.6106675 50.4216795,73.1750139 50.4163924,73.7433009 C50.421658,74.3112803 50.3230825,74.8754163 50.1255538,75.4077377 C49.9449384,75.8990157 49.6707368,76.3503372 49.3182406,76.7365333 C48.9744191,77.1091125 48.5591875,77.4082665 48.0974048,77.6160857 C47.6181434,77.8317105 47.0980982,77.9409187 46.5728613,77.936236 C46.0995379,77.949588 45.6296021,77.8523601 45.2001716,77.6522317 C44.8303747,77.4714347 44.5022352,77.2152526 44.236715,76.9000509 L44.236715,81.0663068 L42.1056143,81.0663068 L42.1056143,69.7646599 L44.1955343,69.7646599 L44.1955343,70.6442123 C44.4595384,70.313657 44.7905821,70.0431813 45.1667123,69.8507217 C45.6016257,69.640041 46.0806538,69.5373236 46.563424,69.5512264 Z M46.1704916,71.5513046 C45.8847073,71.5447604 45.6012514,71.6007498 45.3382985,71.713101 C45.0940551,71.8197109 44.8748445,71.9765711 44.6948502,72.1735321 C44.5110854,72.3766167 44.3690996,72.6140985 44.2770378,72.8723546 C44.079669,73.4366982 44.079669,74.0516248 44.2770378,74.6159684 C44.3692627,74.8741471 44.5112303,75.1115985 44.6948502,75.3147909 C44.874536,75.5121015 45.0938261,75.6690184 45.3382985,75.775222 C45.8782473,75.9979891 46.4845272,75.9952007 47.0224171,75.7674764 C47.2670626,75.6576406 47.486424,75.4982446 47.6667234,75.2992998 C47.8468854,75.0967105 47.9858954,74.8607932 48.0759565,74.6047803 C48.2667649,74.0493572 48.2667649,73.4458508 48.0759565,72.8904276 C47.9868904,72.632662 47.8478022,72.3951495 47.6667234,72.1916051 C47.4866409,71.9924173 47.2672251,71.8329817 47.0224171,71.7234284 C46.7542666,71.6046915 46.4635561,71.545956 46.1704916,71.5513046 Z M55.6017277,69.5495051 C56.1885289,69.5448999 56.7709536,69.6521096 57.3175898,69.8662129 C57.8262908,70.0655606 58.2903092,70.3645628 58.6825581,70.7457654 C59.0673512,71.125295 59.3724823,71.5782805 59.579954,72.0780034 C60.0112991,73.1469344 60.0112991,74.3422492 59.579954,75.4111802 C59.3719418,75.9093452 59.0668429,76.3608198 58.6825581,76.7391151 C58.2906836,77.1207912 57.8265644,77.4198583 57.3175898,77.6186676 C56.212451,78.0411685 54.9910044,78.0411685 53.8858656,77.6186676 C52.8673507,77.2209862 52.0546232,76.42374 51.6355124,75.4111802 C51.2041673,74.3422492 51.2041673,73.1469344 51.6355124,72.0780034 C52.052368,71.0627426 52.8656325,70.2631034 53.8858656,69.8653523 C54.4322615,69.6504025 55.0148513,69.5431623 55.6017277,69.5495051 Z M55.6017277,71.5470015 C55.3150885,71.5443173 55.0307684,71.5987268 54.7652449,71.7070766 C54.5139417,71.8105167 54.2864736,71.9645901 54.0969166,72.1597622 C53.9051316,72.3595457 53.754932,72.5956444 53.6550821,72.8542816 C53.4413918,73.4269863 53.4413918,74.0578942 53.6550821,74.6305989 C53.7549936,74.8892048 53.9051859,75.125292 54.0969166,75.3251183 C54.2864911,75.5200561 54.5139701,75.6738439 54.7652449,75.7769432 C55.0307085,75.8855877 55.3150307,75.9402901 55.6017277,75.937879 C55.8895063,75.939952 56.1748855,75.8852706 56.4416422,75.7769432 C56.694566,75.674582 56.9235905,75.5207369 57.1142601,75.3251183 C57.3059909,75.125292 57.4561832,74.8892048 57.5560946,74.6305989 C57.7697849,74.0578942 57.7697849,73.4269863 57.5560946,72.8542816 C57.4562448,72.5956444 57.3060451,72.3595457 57.1142601,72.1597622 C56.9235439,71.9639874 56.6945477,71.8098683 56.4416422,71.7070766 C56.1748326,71.5990221 55.8894511,71.5446328 55.6017277,71.5470015 Z M67.5964618,71.3344287 L63.6782906,75.8156711 L67.6865445,75.8156711 L67.6865445,77.7305481 L60.737303,77.7305481 L60.737303,76.1814341 L64.7455569,71.6674882 L60.8771458,71.6674882 L60.8771458,69.7603568 L67.5981776,69.7603568 L67.5964618,71.3344287 Z M68.3917639,67.7439268 L72.2498798,67.7439268 L72.2498798,68.8782224 L68.3917639,68.8782224 L68.3917639,67.7439268 Z M69.2505528,69.7646599 L71.3902329,69.7646599 L71.3902329,77.7314087 L69.2505528,77.7314087 L69.2505528,69.7646599 Z M78.0434882,71.6709306 L75.1668454,71.6709306 L75.1668454,74.5815436 C75.1617199,74.7951494 75.1936527,75.0080229 75.2612178,75.210656 C75.3153806,75.3678374 75.403236,75.5111965 75.5185971,75.630638 C75.6243667,75.736884 75.7533014,75.817021 75.8952289,75.8647264 C76.0445464,75.9147939 76.2010768,75.939801 76.3585116,75.9387396 C76.9537125,75.9099262 77.5323116,75.7324301 78.0417724,75.4223683 L78.0477779,77.3157298 C77.8907937,77.4854329 77.6966624,77.6162413 77.4806855,77.6978445 C77.0080372,77.8681898 76.5079681,77.9490235 76.005902,77.936236 C75.1802956,77.9988985 74.3677063,77.7023147 73.7752812,77.1220905 C73.2365475,76.4562515 72.9700606,75.6099888 73.0297391,74.754528 L73.0297391,66.6242616 L75.1694192,66.6242616 L75.1694192,69.7637992 L78.046062,69.7637992 L78.0434882,71.6709306 Z M87.4395491,77.7314087 L85.3487712,77.7314087 L85.3487712,76.8518562 C84.7722818,77.5702526 83.8909719,77.9727123 82.9723021,77.9370966 C82.4470572,77.9418608 81.9269948,77.832649 81.4477587,77.6169464 C80.9859286,77.4092095 80.5706816,77.1100444 80.2269228,76.7373939 C79.8747766,76.3509342 79.600619,75.8996851 79.4196096,75.4085984 C79.0315999,74.3328104 79.0315999,73.1546519 79.4196096,72.078864 C79.6005995,71.5877677 79.8747591,71.1365151 80.2269228,70.7500685 C80.5706816,70.377418 80.9859286,70.0782528 81.4477587,69.870516 C81.9270032,69.6548393 82.4470599,69.5456287 82.9723021,69.5503658 C83.4564248,69.5367454 83.9367779,69.6394316 84.3733036,69.8498611 C84.7510086,70.0417662 85.0835633,70.3122816 85.3487712,70.6433517 L85.3487712,69.7646599 L87.4395491,69.7646599 L87.4395491,77.7314087 Z M83.3660925,71.5452803 C83.0742211,71.5443092 82.7848264,71.6030152 82.5175987,71.7208465 C82.271421,71.8297442 82.0507558,71.9892381 81.8698607,72.1890232 C81.6887819,72.3925676 81.5496937,72.6300801 81.4606276,72.8878457 C81.2688236,73.4431012 81.2688236,74.046943 81.4606276,74.6021985 C81.5506486,74.8582301 81.689663,75.0941548 81.8698607,75.2967179 C82.0509761,75.4962554 82.2715854,75.655709 82.5175987,75.7648946 C82.7848346,75.8827 83.0742236,75.9414049 83.3660925,75.9370183 C83.6533378,75.9408534 83.9382257,75.8845765 84.2025753,75.7717795 C84.4485861,75.6661028 84.6693821,75.5091545 84.8503132,75.3113484 C85.0339693,75.1081828 85.1759414,74.8707239 85.2681256,74.6125259 C85.4646776,74.0480431 85.4646776,73.4333949 85.2681256,72.8689121 C85.1761047,72.6106366 85.0341144,72.3731471 84.8503132,72.1700896 C84.6691574,71.9725394 84.44842,71.8156328 84.2025753,71.7096585 C83.9380525,71.5975177 83.6532434,71.5415495 83.3660925,71.5452803 Z" id="depozita-punkts"></path>
            </g>
        </g>
    </g>
</svg>