<?xml version="1.0" encoding="UTF-8"?>
<svg width="71px" height="53.79px" viewBox="0 0 71 53.79" version="1.1" xmlns="http://www.w3.org/2000/svg" xmlns:xlink="http://www.w3.org/1999/xlink">
    <title>partners-logo-pwc</title>
    <g id="Design" stroke="none" stroke-width="1" fill="none" fill-rule="evenodd">
        <g id="Group-16" transform="translate(-365, -53)" fill="#292C33" fill-rule="nonzero">
            <g id="Client-3" transform="translate(320, 0)">
                <g id="pwc" transform="translate(45, 53)">
                    <path d="M47.985,35.525 C45.705,35.895 44.5375,37.58 44.5375,40.5425 C44.5375,43.505 46.09,45.5225 48.4725,45.5225 C49.58,45.5225 50.5875,45.1525 52.7025,44.115 L52.7025,46.5275 C50.1625,47.6925 48.6675,48.055 46.6225,48.055 C44.405,48.055 42.8475,47.465 41.575,46.1675 C40.2798196,44.8512138 39.5735406,43.0661227 39.6175,41.22 C39.6175,36.95 42.7775,34.0625 47.395,34.0625 C50.4625,34.0625 52.57,35.4625 52.57,37.52 C52.57,38.845 51.59,39.7575 50.1325,39.7575 C49.3690647,39.7494033 48.6238929,39.5229891 47.985,39.105 L47.985,35.525 Z M31.5675,47.825 L36.73,41.22 L37.5024294,40.2365759 C38.9612069,38.3513228 39.5000003,37.4280172 39.5000003,36.3375 C39.5002319,35.7231459 39.2519847,35.1348137 38.8117248,34.7063254 C38.3714648,34.2778371 37.7766223,34.0456221 37.1625,34.0625 C36.4407512,34.0590129 35.7475957,34.3443769 35.2375,34.855 L35.2375,40.105 L31.885,44.57 L31.885,34.3925 L28.6975,34.3925 L23.4025,43.1725 L23.4025,34.3925 L21.5725,34.3925 L16.765,35.565 L16.765,36.7925 L19.3875,37.06 L19.3875,47.825 L22.775,47.825 L27.855,39.48 L27.855,47.825 L31.5675,47.825 Z M6.645,37.13 L6.6425,46.1675 L7.0671875,46.1828125 C7.180625,46.185 7.2775,46.185 7.3925,46.185 C10.1225,46.185 11.585,44.4825 11.585,41.22 C11.585,38.47 10.3875,36.99 8.18,36.99 C7.66605017,37.0068408 7.15351651,37.0535866 6.645,37.13 Z M6.6425,52.0525 L8.84,52.54 L8.84,53.79 L0.22,53.79 L0.22,52.54 L2.185,52.0525 L2.185,37 L0,37 L0,35.7075 L5.275,34.105 L6.6425,34.105 L6.6425,35.905 L7.16555035,35.5978649 C9.24071674,34.3979081 10.0563889,34.175 11.23,34.175 C14.155,34.175 16.315,36.8725 16.315,40.61 C16.315,44.93 13.4325,47.835 8.8925,47.835 C8.14064838,47.8317874 7.38953202,47.787555 6.6425,47.7025 L6.6425,52.0525 Z" id="Shape"></path>
                    <rect id="Rectangle" opacity="0.200000003" x="45" y="16" width="26" height="7"></rect>
                    <rect id="Rectangle" opacity="0.300000012" x="45" y="3" width="16" height="20"></rect>
                    <rect id="Rectangle" opacity="0.300000012" x="45" y="0" width="13" height="23"></rect>
                    <rect id="Rectangle" opacity="0.200000003" x="45" y="7" width="22" height="16"></rect>
                    <rect id="Rectangle" x="45" y="13" width="8" height="10"></rect>
                    <rect id="Rectangle" x="32" y="23" width="13" height="3"></rect>
                </g>
            </g>
        </g>
    </g>
</svg>