<?xml version="1.0" encoding="UTF-8"?>
<svg width="100px" height="72px" viewBox="0 0 100 72" version="1.1" xmlns="http://www.w3.org/2000/svg" xmlns:xlink="http://www.w3.org/1999/xlink">
    <title>partners-logo-jaunpils-pienotava</title>
    <g id="Design" stroke="none" stroke-width="1" fill="none" fill-rule="evenodd">
        <g id="Group-16" transform="translate(-190, -204)" fill="#292C33">
            <g id="Client-8" transform="translate(160, 160)">
                <path d="M100.018063,54.1428934 L101.442017,64.1615939 L102.086588,65.1470389 L102.100016,64.0630494 L101.912016,64.072008 L101.933745,63.8366768 C101.991078,63.3535979 102.189196,62.2647846 102.829635,61.8995497 C102.919159,61.8457982 102.959445,61.1694246 103.044492,61.1739039 C103.134016,61.1783832 103.156397,61.9174669 103.245921,61.8995497 C103.962111,62.3295621 104.042682,63.5658476 104.118777,64.072008 C103.919836,64.1357135 103.897731,64.0861648 103.895275,64.0743674 L103.894968,65.1559975 L107.847442,69.061943 L107.413252,69.4964347 L107.663919,73.6845759 L108.800871,74.1728191 L109.297728,72.7573617 L110.331727,72.806634 L111.320965,71.6554551 L112.632488,71.668893 L113.39344,72.7170481 L114.39163,73.0440366 L114.870582,72.609545 L116.052296,72.2870357 L116.392001,72.4599522 L116.487001,72.4151115 L117.157461,72.1057516 C119.67112,70.9648935 121.547886,70.3394112 123.205555,70.1474111 C123.263203,70.1243359 123.303973,70.1195361 123.312897,70.1241228 L123.777515,70.0355404 C123.843715,70.0239235 123.902286,70.0145744 123.958623,70.0067311 L124.042128,69.9960003 C124.15812,69.9820715 124.272013,69.9695179 124.38386,69.9583466 L124.609246,69.9386498 L124.505522,69.8866128 L125.622387,69.8866128 C127.481532,69.8866128 128.70949,70.3785244 129.407958,71.2174186 C129.847974,71.7458994 130,72.2927242 130,72.6991309 L130,73.35862 L127.680518,113.476972 C127.546253,115.178843 126.096868,115.995521 123.379817,115.995521 L122.974571,115.991213 C119.746403,115.922771 115.715159,115.027584 106.332019,112.508362 L101.20541,111.128293 C98.6612634,110.449103 96.7703607,109.960095 94.9686279,109.520423 L93.7769583,109.233657 L92.9986807,109.050681 L92.912248,109.167921 C92.4325642,109.777195 91.7576037,110.191677 90.8556419,110.341498 L90.6588783,110.369526 L70.2462086,110.367807 L70.1616999,110.374759 C69.6358314,110.407728 69.0130533,110.336541 68.4102318,110.072568 C67.9374424,109.865536 67.5342347,109.557246 67.2244377,109.135818 L67.135661,109.008375 L65.8427787,109.31372 L64.4878726,109.643127 C62.8114679,110.05711 61.0135466,110.524504 58.580563,111.174039 L52.0644681,112.924092 C43.3880388,115.23168 39.6838965,116 36.5641392,116 C33.8459671,116 32.3931839,115.182773 32.2585594,113.475482 L30.579983,83.3028471 L30,72.8075002 C30.2218357,71.1499771 31.7074052,70.2987079 34.2230926,70.2987079 C35.2978215,70.2987079 36.3956274,70.4418034 37.4112801,70.6538508 C39.3878725,71.073419 40.9452234,71.6169358 43.8470307,72.9788465 L44.4467073,73.0753917 L46.1834685,73.3755045 L47.2219442,74.1772984 L47.8172773,73.5905107 L48.3723247,73.3755045 L48.9273721,73.5905107 L49.0034673,73.3755045 L49.5227052,73.0977882 L49.9345145,73.3755045 L51.6041329,71.6330586 L54.5718459,69.1425704 L56.7965116,69.2903871 L56.7965116,68.6991201 L57.3918447,68.6991201 L57.3918447,69.4337246 L60.3819387,69.7114409 L60.4311768,69.6845651 L60.7489862,69.7159202 L60.7624147,69.303825 L60.4893672,69.1380911 L60.7489862,68.4124452 L62.9423186,66.4594724 L74.6833612,66.4594724 L75.7800274,65.5904891 L77.9554551,65.5636133 C78.0405027,65.5636133 77.8569789,64.9275534 77.9733599,64.7215058 C78.1031693,64.5064996 78.5328834,64.7215058 78.6358358,64.7215058 C78.68955,64.7215058 78.6224072,65.559134 78.6805976,65.559134 L88.514784,65.4471517 C88.5908792,65.4471517 88.4342126,64.6587957 88.514784,64.5020203 C88.6624982,64.224304 89.0519266,64.5020203 89.1772599,64.5020203 C89.1887701,64.5020203 89.1928809,64.5987423 89.194349,64.7300077 L89.1955822,65.1652564 C89.1966263,65.3187833 89.2002803,65.4381931 89.2130694,65.4381931 L95.1037336,65.3710036 L98.1788751,67.5389826 L98.1788751,65.5860098 L97.9640181,65.3710036 L98.3982084,64.5020203 L100.018063,54.1428934 Z M31.1252813,75.093012 L31.0435257,75.008651 L33.1838787,113.424468 C33.205962,113.741216 33.3198272,114.012067 33.5013861,114.224479 C33.8360118,114.529791 34.2256835,114.726236 34.712353,114.778522 C36.1450527,115.058072 38.146513,114.917559 40.7286097,114.418835 L41.2745011,114.325083 C43.2155567,113.980041 45.4864845,113.455445 48.4117697,112.688361 L58.3487948,110.014259 L60.1896016,109.50439 C61.8169809,109.057735 63.7755463,108.539613 65.2795312,108.15652 L66.6734884,107.808632 L66.6435319,107.655765 L66.9220561,107.618101 C67.0419154,107.601892 67.1638006,107.591625 67.302425,107.585201 L67.6147905,107.575447 L67.6901487,107.725125 C68.1874113,108.712801 69.2605868,109.326809 70.2743155,109.326809 L80.6160556,109.352175 L86.0184716,109.349296 C87.2501201,109.346266 88.5821806,109.341649 90.1087592,109.335365 C91.1750257,109.057181 91.8408946,108.557179 92.222904,107.868141 L92.3149158,107.702178 L92.5016464,107.736543 C92.8871152,107.807483 93.2741945,107.854533 93.7042907,107.883454 L95.3454671,108.307651 C95.9764303,108.47399 96.6790042,108.661891 97.4163075,108.861231 L99.6434237,109.469087 L103.802438,110.609808 L110.69512,112.462249 L111.128934,112.5773 C114.561442,113.484028 117.089064,114.063885 119.239639,114.419973 L119.904078,114.541336 C122.181272,114.937555 123.952561,115.032378 125.272008,114.77513 C125.734551,114.725663 126.12252,114.534014 126.425648,114.259849 C126.634316,114.019517 126.752283,113.743134 126.777757,113.423576 L128.517982,83.2843785 L128.522885,83.2933871 L129.001693,75.0852612 L128.976684,75.1151036 C128.246954,75.9270787 126.973653,76.6667293 124.632165,77.5901772 L124.357223,77.6975591 C120.246516,79.2933043 115.73333,80.4190397 110.152118,81.4645889 L108.606585,81.7510714 C104.861407,82.4360607 102.549717,82.7810345 98.5789273,83.2766775 L97.8684439,83.3634543 C96.2460402,83.5553868 94.8761743,83.6740888 93.8596616,83.7321033 L93.6979276,83.7400387 L93.6981105,83.8252213 L92.8609288,83.824761 L92.8029726,83.8297006 L92.5698808,83.8297006 L92.5410102,83.5985755 C92.4960437,83.2385939 92.446813,82.9188968 92.3825769,82.5854403 C92.2777672,82.0403696 91.9070078,81.5930618 91.3433003,81.2367158 C91.0988892,81.082212 90.8352279,80.9559964 90.57146,80.8567121 L90.2988617,80.7577306 C90.2939237,80.7553957 90.291163,80.753621 90.2908179,80.7524227 L70.7720209,80.6945602 L69.9923156,80.6941938 L69.9694989,80.6867597 C69.054438,80.9085546 68.4163417,81.3717981 67.9995561,82.0075438 C67.7903745,82.3266198 67.6502381,82.6697968 67.5666668,83.0129678 C67.5169853,83.2169761 67.497398,83.3726836 67.4945025,83.4449605 L67.4945025,83.9363391 L67.218224,83.9234801 C67.0216707,83.9143317 66.8251255,83.9006097 66.6285919,83.8823148 L66.3890836,83.8600195 L66.3885181,83.791353 L66.3682719,83.7904806 C65.211562,83.6988256 63.8464586,83.565805 62.2080425,83.3681546 L60.3945062,83.1413193 C56.5206764,82.646737 54.1659616,82.2705703 49.8186714,81.4556258 C45.0483381,80.5609214 39.9413243,79.2552788 35.619681,77.690879 C33.6595705,76.9849993 31.9642097,75.9226058 31.1252813,75.093012 Z M120.22858,102.665617 C121.186484,102.665617 121.965341,103.440535 121.965341,104.403584 C121.965341,105.366632 121.186484,106.132592 120.22858,106.132592 C119.270676,106.132592 118.500771,105.357674 118.500771,104.403584 C118.500771,103.449494 119.275152,102.665617 120.22858,102.665617 Z M120.22858,102.84031 C119.367043,102.84031 118.668628,103.539208 118.668628,104.401344 C118.668628,105.263479 119.367043,105.962378 120.22858,105.962378 C121.092485,105.962378 121.795246,105.259129 121.795246,104.403584 C121.795246,103.548038 121.092485,102.84031 120.22858,102.84031 Z M120.300199,103.319594 C120.707532,103.319594 121.002961,103.633145 121.002961,104.022844 C121.002961,104.255767 120.85077,104.506607 120.640389,104.623069 C120.626961,104.632028 120.609056,104.658903 120.626961,104.6813 L121.025342,105.402466 C121.056675,105.447259 121.029818,105.492052 120.985056,105.492052 L120.75677,105.492052 C120.720961,105.492052 120.676199,105.460697 120.658294,105.420384 L120.286771,104.739531 C120.268866,104.717134 120.259913,104.703696 120.224104,104.703696 L119.995818,104.703696 C119.973437,104.703696 119.955533,104.721614 119.955533,104.739531 L119.955533,105.411425 C119.955533,105.460697 119.915247,105.496532 119.870485,105.496532 L119.70039,105.496532 C119.646676,105.496532 119.615342,105.456218 119.615342,105.411425 L119.615342,103.668979 C119.615342,103.575661 119.609125,103.491674 119.555245,103.440348 L119.516866,103.413659 C119.449723,103.377825 119.458676,103.319594 119.516866,103.319594 L120.300199,103.319594 Z M120.32258,103.628666 L119.986866,103.628666 L119.963656,103.645919 C119.959014,103.650564 119.955533,103.655541 119.955533,103.660021 L119.955533,104.354311 C119.955533,104.354311 119.964485,104.385666 119.986866,104.385666 L120.32258,104.385666 C120.515056,104.385666 120.671723,104.210974 120.671723,104.004926 C120.671723,103.785441 120.515056,103.628666 120.32258,103.628666 Z M117.672676,88.1750964 C119.100581,88.1750964 120.421056,88.8245943 121.101437,89.7697256 C121.252,89.9733299 121.173204,90.2620779 121.023112,90.4003942 L120.009247,91.1986208 C119.715884,91.4218965 119.472104,91.3131212 119.291989,91.1048186 L119.248295,91.0508041 C118.934962,90.6611054 118.339629,90.2893239 117.672676,90.2893239 C116.768486,90.2893239 116.007534,90.9029873 116.007534,91.6241539 C116.007534,92.4085681 116.867192,92.8738558 117.933721,93.3435835 L118.379914,93.536813 C120.250961,94.3296483 121.893722,95.3912413 121.893722,97.6129718 C121.893722,99.8347023 119.897342,101.671213 117.471248,101.671213 C115.304773,101.671213 113.505345,100.300549 112.932393,98.4819551 C112.842869,98.2042388 112.990583,97.9444397 113.227821,97.8727709 L114.637821,97.389007 C114.879535,97.2949418 115.098868,97.4472379 115.192868,97.7249542 C115.524106,98.7775886 116.379058,99.556986 117.471248,99.556986 C118.563438,99.556986 119.472104,98.6656062 119.472104,97.6129718 C119.472104,96.3452467 118.267865,95.8003832 116.950017,95.2201487 L116.338482,94.9474417 C114.9389,94.3051335 113.599345,93.49389 113.599345,91.6241539 C113.599345,89.7338912 115.430106,88.1750964 117.672676,88.1750964 Z M63.2556518,88.4348956 C63.5376516,88.4348956 63.7569849,88.654381 63.7569849,88.9141802 L63.7569849,96.5916925 C63.7525087,98.2176767 64.9834606,99.5525067 66.536698,99.5525067 C68.0899354,99.5525067 69.3477444,98.2176767 69.3477444,96.5916925 L69.3298397,88.9141802 C69.3298397,88.654381 69.5536491,88.4348956 69.8311728,88.4348956 L71.2769817,88.4348956 C71.5545054,88.4348956 71.7738387,88.654381 71.7738387,88.9141802 L71.7738387,96.5379409 C71.7738387,99.3554177 69.3925063,101.671213 66.536698,101.671213 C63.6808897,101.671213 61.3308907,99.3554177 61.3308907,96.5379409 L61.3308907,90.2714067 C61.3308907,89.6884092 61.1096769,89.3076956 60.7834306,89.0799427 L60.6997481,89.0261626 C60.3103197,88.8111564 60.4580339,88.4348956 60.793748,88.4348956 L63.2556518,88.4348956 Z M45.5926116,88.4348956 C45.8701353,88.4348956 46.0939447,88.6588603 46.0939447,88.9141802 L46.0939447,97.478593 C46.0939447,99.7764715 44.1870884,101.648817 41.8147084,101.648817 C40.0197568,101.648817 38.3546146,100.520035 37.7950911,98.8492573 C37.7010911,98.5760203 37.8532815,98.3117419 38.0905195,98.2400732 L39.4423285,97.8324573 C39.7198522,97.7249542 39.9436616,97.8906881 40.0555663,98.146008 C40.3509948,99.0015534 41.0716611,99.556986 41.8147084,99.556986 C42.8531842,99.556986 43.6857553,98.6118547 43.6857553,97.478593 L43.6857553,90.2714067 C43.6857553,89.6884092 43.4797976,89.3115122 43.1558984,89.0808234 L43.0725174,89.0261626 C42.683089,88.8066771 42.8308032,88.4348956 43.1665174,88.4348956 L45.5926116,88.4348956 Z M54.7956553,88.4348956 C55.0910838,88.4348956 55.3909884,88.654381 55.4805122,88.9141802 L60.1491769,100.945568 C60.2387007,101.18297 60.0909864,101.406935 59.795558,101.406935 L58.2199396,101.406935 C57.9468921,101.406935 57.6335589,101.18297 57.5529875,100.945568 L56.5771784,98.3117419 C56.4876546,98.0564221 56.3175595,97.9981912 56.022131,97.9981912 L51.7428947,98.0026705 C51.4250853,98.0026705 51.2773711,98.0564221 51.1878473,98.3162212 L50.2433715,100.950047 C50.1493716,101.18745 49.8718479,101.411414 49.5943242,101.411414 L47.9784201,101.411414 C47.6650869,101.411414 47.5173727,101.18745 47.6113726,100.950047 L51.6488948,90.6207917 C51.8906089,90.0071283 51.7563233,89.2859617 51.4250853,89.0261626 C51.0714664,88.7529255 51.2773711,88.4348956 51.6086091,88.4348956 L54.7956553,88.4348956 Z M106.056967,88.4348956 C106.334491,88.4348956 106.5583,88.654381 106.5583,88.9141802 L106.5583,98.8313402 C106.5583,99.1090565 106.741824,99.2927076 107.019348,99.2927076 L111.688012,99.2927076 C111.965536,99.2927076 112.184869,99.5166724 112.184869,99.7943887 L112.184869,100.945568 C112.184869,101.18297 111.965536,101.406935 111.688012,101.406935 L104.59773,101.406935 C104.360492,101.406935 104.136682,101.18297 104.136682,100.945568 L104.132206,90.2714067 C104.132206,89.6884092 103.907178,89.3076956 103.583866,89.0799427 L103.501063,89.0261626 C103.116111,88.8111564 103.263825,88.4348956 103.59954,88.4348956 L106.056967,88.4348956 Z M84.5667856,88.4304163 C84.812976,88.4304163 85.0323093,88.6499018 85.0323093,88.9097009 L85.0323093,100.941088 C85.0323093,101.178491 84.812976,101.402456 84.5667856,101.402456 L82.9195482,101.402456 C82.6420246,101.402456 82.3286913,101.178491 82.1765009,100.941088 L77.7316457,93.733902 L77.0288841,92.1213557 C76.957265,91.9556217 76.7334556,92.0272905 76.7513604,92.1751072 L76.9751698,93.9220324 L76.9751698,100.945568 C76.9751698,101.18297 76.7513604,101.406935 76.4738367,101.406935 L75.0280278,101.406935 C74.7863136,101.406935 74.5625041,101.18297 74.5625041,100.945568 L74.5625041,90.2714067 C74.5625041,89.6884092 74.3565465,89.3076956 74.0326473,89.0799427 L73.9492663,89.0261626 C73.5643141,88.8111564 73.7075521,88.4348956 74.0432663,88.4348956 L76.59917,88.4348956 C76.8945984,88.4348956 77.2079316,88.654381 77.3735506,88.9141802 L77.3869791,88.9097009 L81.8497392,96.1213665 L82.5525008,97.7339128 C82.6196436,97.904126 82.843453,97.827978 82.8300245,97.6801612 L82.6106912,95.9377153 L82.5883103,88.9097009 C82.5704055,88.6499018 82.794215,88.4304163 83.0717387,88.4304163 L84.5667856,88.4304163 Z M92.6149727,88.4348956 C95.0455431,88.4348956 97.0419232,90.307241 97.0419232,92.6230368 C97.0419232,94.9209153 95.0410669,96.8111779 92.6149727,96.8111779 L90.8737354,96.8111779 C90.6320212,96.8111779 90.4305927,96.9813912 90.4126879,97.2411903 L90.4126879,100.945568 C90.4126879,101.18297 90.1888785,101.406935 89.9113548,101.406935 L88.4521173,101.406935 C88.2104032,101.406935 87.9865937,101.18297 87.9865937,100.945568 L87.9865937,90.2714067 C87.9865937,89.6884092 87.776822,89.3076956 87.4558567,89.0799427 L87.3733559,89.0261626 C86.9884037,88.8111564 87.1361179,88.4348956 87.471832,88.4348956 L92.6149727,88.4348956 Z M100.649731,88.4348956 C100.936207,88.4348956 101.155541,88.654381 101.155541,88.9141802 L101.155541,100.945568 C101.155541,101.18297 100.931731,101.406935 100.649731,101.406935 L99.2083985,101.406935 C98.9711605,101.406935 98.7473511,101.18297 98.7473511,100.945568 L98.7428749,90.2714067 C98.7428749,89.6884092 98.5369173,89.3076956 98.2130181,89.0799427 L98.1296371,89.0261626 C97.7446849,88.8111564 97.8923991,88.4348956 98.2281132,88.4348956 L100.649731,88.4348956 Z M53.8914652,90.7865256 C53.7974653,90.7865256 53.7213701,90.8581944 53.7034653,90.9522596 L53.2827036,92.5468887 L52.2442278,95.4046792 C52.1323231,95.7182299 52.2442278,95.8884431 52.5396563,95.8884431 L55.2164171,95.8884431 C55.5342265,95.8884431 55.6461312,95.7182299 55.5342265,95.4046792 L54.4957507,92.5468887 L54.0705128,90.9522596 C54.0570842,90.8581944 53.9854652,90.7865256 53.8914652,90.7865256 Z M92.6149727,90.5446437 L90.8737354,90.5446437 C90.6006879,90.5446437 90.4126879,90.7686085 90.4126879,91.0463248 L90.4126879,94.1997487 C90.4126879,94.4819443 90.6006879,94.7014298 90.8737354,94.7014298 L92.6149727,94.7014298 C93.7295437,94.7014298 94.615829,93.7562985 94.615829,92.6230368 C94.615829,91.489775 93.7295437,90.5446437 92.6149727,90.5446437 Z M34.232045,71.2160048 C32.2183824,71.2160048 31.1413183,71.7551008 30.9359006,72.78743 L30.9140595,72.9213861 L30.9191225,73.0081146 L30.942514,73.0498337 L30.9646518,73.0963353 C31.0476266,73.3495842 31.3579362,73.8045266 31.9261405,74.3310069 C32.8168744,75.1563329 34.1536683,75.9855719 36.0177021,76.7696353 C38.1556675,77.6708685 40.4432132,78.3181348 45.0174209,79.394202 C48.4600234,80.2030976 53.4937242,81.1348449 57.1444056,81.6562301 L57.656202,81.7278646 C58.7643481,81.880599 60.1504503,82.0492174 61.7242929,82.2263924 L63.4259185,82.4135314 L65.5581987,82.6371418 L65.5083848,82.6290272 C64.1395117,82.3868604 62.6736402,82.0294953 61.6813178,81.7114283 L61.4609862,81.6387961 C56.3703428,79.914241 52.9660634,78.4480698 47.6991007,75.8724427 L44.4242882,74.2684909 L43.665915,73.9066561 C40.6979335,72.5055546 39.1685974,71.96527 37.2296745,71.555094 C36.2915983,71.3549243 35.2354318,71.2160048 34.232045,71.2160048 Z M123.312715,71.2365316 C122.267632,71.3615287 121.122448,71.6617945 119.815392,72.1381656 L119.308236,72.3419286 C117.839616,72.9417554 116.30229,73.6554252 113.698739,74.9240731 L110.559637,76.4568226 C108.446828,77.4896026 106.605809,78.3375959 104.757269,79.1114165 L103.673634,79.5565947 L102.779646,79.9106687 L102.42559,80.045773 C101.692285,80.3209531 101.070416,80.5462691 100.475415,80.7501395 L100.21144,80.8437079 L99.1464246,81.1967767 L98.8719051,81.2820813 C97.3956392,81.749825 95.8115276,82.1699258 94.1164679,82.5468536 L93.83117,82.6086193 L94.8114435,82.5257204 L96.9602496,82.3290566 L97.7767238,82.2495227 C99.5169504,82.0768469 101.063799,81.9022222 102.296925,81.7323138 C105.982521,81.2274715 111.338078,80.24496 114.93506,79.3987823 L115.737747,79.2066242 C119.122864,78.3865557 121.327142,77.7212056 123.546861,76.8479932 L124.111072,76.6221093 C126.93324,75.4756431 128.331323,74.6339424 129.056203,73.4206114 L129.09601,73.350692 L129.09601,72.7036102 C129.09601,72.5866649 129.057549,72.3953403 128.97095,72.2048327 L128.923594,72.1099951 C128.202996,71.2370866 126.461491,70.8351672 123.312715,71.2365316 Z M55.9191787,71.7495203 L51.796609,71.9018163 L49.2720386,74.687938 L49.2727898,75.6205365 L50.2876045,76.1066318 C50.4532991,76.1853809 50.617372,76.2630347 50.7799711,76.3396503 L61.5188906,76.7484139 L62.2977474,76.2825672 L63.072128,76.9051893 L64.4731751,76.9813373 L65.1714605,76.2825672 L65.5608889,76.7484139 L66.3352695,76.3587152 L66.5456504,76.6095558 L67.3468881,77.0619646 L67.5483166,76.6319522 L68.5912686,77.1381126 L69.4462206,75.8928685 L69.0075541,75.1313883 L59.0659392,75.1313883 L55.9191787,71.7495203 Z M76.0620273,67.7226337 L73.8642187,67.7226337 L72.328886,69.4606003 L72.3602194,76.1974606 L73.4031713,75.4270218 L74.4147899,76.1974606 L75.0369801,75.8167205 L76.0441226,76.5154906 L86.8227847,76.1974606 C86.5944991,75.8346377 88.5684982,75.7988033 88.586403,75.6823416 L88.6184541,75.4761112 C88.6620414,75.2265505 88.7552193,74.8101588 88.9534505,74.4326182 C89.0161171,74.3295944 89.369736,74.7685654 89.4503074,74.6745002 C89.5308788,74.5759557 89.5845931,74.414701 89.6383073,74.2489671 C89.678593,74.1190675 89.844212,74.1549019 89.8979263,74.0429195 C89.9148363,74.0080805 89.9273254,73.967048 89.9381935,73.9240984 L89.9687348,73.7937748 C89.9947998,73.6875068 90.0282331,73.5959854 90.1127833,73.5860314 C90.5290688,73.5412384 90.4350689,73.868227 90.5648784,74.0115644 C90.6409736,74.0921918 90.8603068,74.0921918 90.9184973,74.1683398 C91.07964,74.3967838 90.9901163,74.6655416 90.9901163,74.6655416 L95.1664002,74.6655416 C95.3857335,74.6655416 95.1664002,72.0630709 95.1664002,72.0630709 L94.7232576,70.5445898 L93.6265913,71.8480648 L88.7967839,71.6285793 L90.1127833,69.4606003 L77.2437411,69.5904999 L76.0620273,67.7226337 Z M103.948682,69.0350673 L98.6757321,69.2500734 L98.6757321,69.6800858 L95.1708764,69.6800858 L97.5835421,72.2870357 L97.5835421,75.3777495 L98.460875,76.1929813 L100.878017,75.5434835 L101.09735,75.5434835 L101.974683,75.7584896 C102.265635,75.8301584 102.18954,75.7584896 102.18954,75.7584896 L102.221382,75.7346697 C102.269929,75.6970593 102.362193,75.6202714 102.41335,75.5434835 C102.484969,75.4315011 102.856492,75.3284773 102.856492,75.3284773 L102.856492,74.459494 C102.856492,74.2400085 102.928111,74.4236596 103.071349,74.2400085 C103.219063,74.0608367 103.071349,74.0250023 103.071349,74.0250023 L103.071349,73.8099961 C103.071349,73.8099961 103.071349,73.8458305 103.290683,73.59499 C103.514492,73.3396701 103.290683,72.9454921 103.290683,72.9454921 L103.314887,72.8726621 C103.341965,72.7985602 103.392069,72.6797575 103.466734,72.57309 L103.514492,72.5110005 C103.65773,72.3318287 103.438397,72.4393318 103.514492,72.0720295 C103.581635,71.7136859 103.729349,72.0720295 103.729349,72.0720295 L104.168015,72.291515 L104.826015,72.0720295 L105.049825,72.7260067 L105.269158,73.8099961 L105.703348,73.8099961 L105.484015,70.1190568 L103.948682,69.0350673 Z M54.0167985,72.927575 L54.0167985,73.8055169 L53.5736558,73.8055169 L53.5736558,72.927575 L54.0167985,72.927575 Z M83.080691,72.2825564 L83.080691,73.8010376 L82.2033581,73.8010376 L82.2033581,72.2825564 L83.080691,72.2825564 Z M79.3520259,72.2825564 L79.3520259,73.8010376 L78.474693,73.8010376 L78.474693,72.2825564 L79.3520259,72.2825564 Z M88.7967839,72.0630709 L88.7967839,73.5860314 L87.9194509,73.5860314 L87.9194509,72.0630709 L88.7967839,72.0630709 Z M87.0331656,72.0630709 L87.0331656,73.5860314 L86.1558326,73.5860314 L86.1558326,72.0630709 L87.0331656,72.0630709 Z M92.0957349,72.0675502 L92.0957349,73.3710252 L91.4422113,73.3710252 L91.4422113,72.0675502 L92.0957349,72.0675502 Z M101.979159,71.8525441 L101.979159,73.3710252 L100.882493,73.3710252 L100.882493,71.8525441 L101.979159,71.8525441 Z M65.2386033,69.4337246 L64.5403179,70.5983414 L66.8724121,72.7797582 L65.2386033,69.4337246 Z M75.1981229,69.895092 L75.1981229,71.1985669 L74.32079,71.1985669 L74.32079,69.895092 L75.1981229,69.895092 Z M82.8613578,69.895092 L82.8613578,71.1985669 L81.9840248,71.1985669 L81.9840248,69.895092 L82.8613578,69.895092 Z M89.0205933,69.6800858 L89.0205933,71.1985669 L88.1387841,71.1985669 L88.1387841,69.6800858 L89.0205933,69.6800858 Z M86.3841182,69.6756065 L86.3841182,71.1940876 L85.5023091,71.1940876 L85.5023091,69.6756065 L86.3841182,69.6756065 Z M63.4167946,68.1571254 L61.527843,68.1750426 L60.8832718,68.7752681 L60.8832718,69.7159202 L63.877842,69.8995713 L64.0971752,69.2500734 L63.4167946,68.1571254 Z M101.979159,65.3396486 L98.4653512,65.3396486 L98.4653512,67.9465985 L98.9040177,68.5960963 L101.979159,65.7741402 L101.979159,65.3396486 Z M100.224493,65.7741402 L100.224493,66.6431235 L99.5664936,66.6431235 L99.5664936,65.7741402 L100.224493,65.7741402 Z M77.360122,52.2914611 C78.5865977,52.2914611 79.4907878,53.2858647 79.4146926,54.4863159 L79.2893593,56.5915847 C79.2177403,57.7382843 78.2195502,58.5848711 77.1005031,58.5176817 C76.5812652,58.4818473 76.124694,58.2802791 75.7800274,57.9353733 C75.721837,57.8771425 75.7307894,57.778598 75.793456,57.7293257 L76.0978368,57.4560887 C76.173932,57.3933786 76.2455511,57.4023372 76.3126939,57.4740059 C76.5275509,57.6755742 76.8185032,57.8144323 77.145265,57.8323495 C77.8525028,57.8771425 78.5149787,57.3306684 78.5552644,56.6139812 L78.5821215,56.1302173 C78.5910739,56.04959 78.5373596,56.0182349 78.4791692,56.0585485 C78.1568836,56.278034 77.7719314,56.4079336 77.360122,56.4079336 C76.2276463,56.4079336 75.3010753,55.489678 75.3010753,54.351937 C75.3010753,53.214196 76.2231701,52.2914611 77.360122,52.2914611 Z M87.0152608,52.2959404 C88.0492604,52.2959404 88.8907838,53.138048 88.8907838,54.1727652 C88.8907838,54.8978511 88.4658257,55.4068811 87.9937451,55.8829024 L86.2543087,57.5949469 C86.2005945,57.6442191 86.2319278,57.7114085 86.2990706,57.7114085 L88.7341172,57.7114085 C88.8191648,57.7114085 88.8907838,57.778598 88.8907838,57.8681839 L88.8907838,58.2623619 C88.8907838,58.3385099 88.8191648,58.4056993 88.7341172,58.4056993 L85.2919282,58.4056993 C85.2113568,58.4056993 85.144214,58.3385099 85.144214,58.2623619 L85.1352616,58.2623619 L85.1355617,57.8143148 C85.1373627,57.7203671 85.1499691,57.7011701 85.2382139,57.612864 L87.731451,55.1447723 C87.9776413,54.8849732 88.1343079,54.5311088 88.1343079,54.1727652 C88.1343079,53.5143088 87.6284986,52.9767933 87.0107846,52.9767933 C86.4757484,52.9767933 86.0239786,53.3815108 85.9167032,53.9145989 L85.9006898,54.0159898 C85.8872613,54.1458894 85.8604041,54.1727652 85.7395471,54.1727652 L85.2964044,54.1727652 C85.1800235,54.1727652 85.1486902,54.1324515 85.1576425,54.0159898 C85.2292616,53.0529413 85.9812612,52.2959404 87.0152608,52.2959404 Z M72.6556478,52.4124021 C72.7451716,52.4124021 72.8078382,52.4840708 72.8078382,52.5557396 L72.8078382,58.2578826 C72.8078382,58.3340306 72.7451716,58.40122 72.6556478,58.40122 L72.2035528,58.40122 C72.1274576,58.40122 72.0603147,58.3340306 72.0603147,58.2578826 L72.0603147,53.6800427 C72.0603147,53.5949361 71.9976481,53.5949361 71.9528862,53.639729 L71.7425053,53.8502559 C71.6843149,53.9129661 71.5858387,53.9129661 71.5276483,53.8502559 L71.2546008,53.5770189 C71.1964103,53.5232674 71.1964103,53.4292022 71.2546008,53.366492 L72.171319,52.4571298 C72.2073373,52.4250042 72.2350035,52.4156538 72.3019245,52.4131987 L72.6556478,52.4124021 Z M82.7897388,52.4124021 C82.8792625,52.4124021 82.9419292,52.4840708 82.9419292,52.5557396 L82.9419292,58.2578826 C82.9419292,58.3340306 82.8747864,58.40122 82.7897388,58.40122 L82.3376437,58.40122 C82.2570723,58.40122 82.1899295,58.3340306 82.1899295,58.2578826 L82.1899295,53.6800427 C82.1899295,53.5949361 82.1317391,53.5949361 82.082501,53.639729 L81.8765963,53.8502559 C81.8139297,53.9129661 81.7244059,53.9129661 81.6572631,53.8502559 L81.3842156,53.5770189 C81.3260251,53.5232674 81.3260251,53.4292022 81.3842156,53.366492 L82.2391676,52.5243845 L82.3054099,52.4571298 C82.3414283,52.4250042 82.3690945,52.4156538 82.4360155,52.4131987 L82.7897388,52.4124021 Z M77.3556458,52.9767933 C76.6260271,52.9767933 76.0441226,53.5949361 76.0441226,54.3564163 C76.0441226,55.1134172 76.6349795,55.7270807 77.3556458,55.7270807 C78.0763122,55.7270807 78.6671691,55.1178965 78.6671691,54.3564163 C78.6671691,53.5949361 78.0852646,52.9767933 77.3556458,52.9767933 Z M100.014112,52.2063545 L100.057082,52.6315814 C100.067337,52.7202137 100.078458,52.7953819 100.090208,52.8289766 C100.170779,53.0395035 100.206589,52.9096039 100.206589,53.1022136 C100.197636,53.2410717 100.157351,53.2052374 100.130493,53.3172198 L100.080189,53.5609796 C100.040156,53.7750704 100.014112,53.9622383 100.014112,53.9622383 L99.9979151,53.7675816 C99.9794154,53.5844137 99.9431821,53.3134296 99.8798268,53.1425272 C99.8440173,53.0305449 99.9245887,53.0036691 99.9469696,52.8334559 L99.9747247,52.6142901 C99.9975395,52.4101069 100.014112,52.2063545 100.014112,52.2063545 Z M82.6375484,48.9633447 C83.0627863,48.9633447 83.411929,49.3127297 83.411929,49.7472213 C83.411929,50.1772337 83.0583101,50.5266187 82.6375484,50.5266187 C82.2167866,50.5266187 81.8676439,50.181713 81.8676439,49.7472213 C81.8676439,49.3127297 82.2123104,48.9633447 82.6375484,48.9633447 Z M80.3860255,48.9946997 C80.4039303,48.9946997 80.444216,49.0305341 80.444216,49.0305341 L80.444216,49.0215755 L81.0440252,50.0518134 L81.1245966,50.2041095 C81.133549,50.2220267 81.1425014,50.2041095 81.1425014,50.2041095 L81.1425014,49.0305341 C81.1380252,49.0126169 81.1783109,48.9946997 81.1783109,48.9946997 L81.299168,48.9946997 C81.3170727,48.9946997 81.3349775,49.0305341 81.3349775,49.0305341 L81.3349775,50.4639086 C81.3349775,50.4818258 81.299168,50.499743 81.299168,50.499743 L81.1469776,50.499743 C81.1290728,50.499743 81.0932633,50.4639086 81.0932633,50.4639086 L80.4845017,49.4336707 L80.4084064,49.2858539 C80.4039303,49.272416 80.3860255,49.2858539 80.3860255,49.2858539 L80.3949779,49.4560671 L80.3949779,50.4639086 C80.3949779,50.4818258 80.3815493,50.499743 80.3546922,50.499743 L80.2427875,50.499743 C80.2204065,50.499743 80.2025018,50.4639086 80.2025018,50.4639086 L80.2025018,49.1783508 C80.2025018,49.0798063 80.1577399,49.0529306 80.1264066,49.0394927 C80.0905971,49.0215755 80.1040256,48.9946997 80.1308828,48.9946997 L80.3860255,48.9946997 Z M78.640312,48.9946997 C78.6626929,48.9946997 78.6985024,49.0305341 78.6985024,49.0305341 L79.3072641,50.0562927 L79.3833593,50.2085888 C79.3878354,50.226506 79.401264,50.2085888 79.401264,50.2085888 L79.3923116,50.0383755 L79.3923116,49.0305341 C79.3923116,49.0126169 79.4281211,48.9946997 79.4281211,48.9946997 L79.544502,48.9946997 C79.566883,48.9946997 79.5803116,49.0305341 79.5803116,49.0305341 L79.5803116,50.4639086 C79.5803116,50.4818258 79.544502,50.499743 79.544502,50.499743 L79.3967878,50.499743 C79.3788831,50.499743 79.3385974,50.4639086 79.3385974,50.4639086 L78.7343119,49.4336707 L78.6582167,49.2858539 C78.6492643,49.272416 78.6447881,49.2858539 78.6447881,49.2858539 L78.6447881,50.4639086 C78.6447881,50.4818258 78.6089786,50.499743 78.6089786,50.499743 L78.4925977,50.499743 C78.4702168,50.499743 78.452312,50.4639086 78.452312,50.4639086 L78.452312,49.1783508 C78.452312,49.0798063 78.4120263,49.0529306 78.380693,49.0394927 C78.3493597,49.0215755 78.3538359,48.9946997 78.380693,48.9946997 L78.640312,48.9946997 Z M77.3780268,48.9902204 C77.4048839,48.9902204 77.431741,49.0260548 77.431741,49.0260548 L77.9688837,50.4594293 C77.977836,50.4773465 77.9644075,50.4952637 77.9420265,50.4952637 L77.8166933,50.4952637 C77.7987885,50.4952637 77.7674552,50.4594293 77.7674552,50.4594293 L77.6421219,50.1010857 C77.6376457,50.0831685 77.619741,50.0786892 77.59736,50.0786892 L77.0288841,50.0786892 C77.0065031,50.0786892 76.9885984,50.1010857 76.9885984,50.1010857 L76.8632651,50.4594293 C76.8543127,50.4773465 76.814027,50.4952637 76.814027,50.4952637 L76.6886937,50.4952637 C76.670789,50.4952637 76.6618366,50.4594293 76.6618366,50.4594293 L77.1407888,49.1828301 C77.1721221,49.1066821 77.122884,49.0529306 77.0915507,49.0394927 C77.0646936,49.0170962 77.0736459,48.9902204 77.1005031,48.9902204 L77.3780268,48.9902204 Z M82.6375484,49.1335579 C82.319739,49.1335579 82.0556438,49.4112742 82.0556438,49.7472213 C82.0556438,50.0831685 82.3107866,50.3564055 82.6375484,50.3564055 C82.9643101,50.3564055 83.2239291,50.0831685 83.2239291,49.7472213 C83.2239291,49.4067949 82.9553578,49.1335579 82.6375484,49.1335579 Z M77.3198363,49.1828301 C77.3153601,49.1828301 77.3064078,49.2007473 77.3064078,49.2007473 L77.2571697,49.3575226 L77.0736459,49.8681623 C77.0646936,49.8905588 77.0736459,49.9039967 77.1005031,49.9039967 L77.5391696,49.9039967 C77.5660267,49.9039967 77.5660267,49.8681623 77.5660267,49.8681623 L77.382503,49.3575226 L77.3377411,49.2007473 C77.3332649,49.1873094 77.3287887,49.1828301 77.3198363,49.1828301 Z M102.140302,46.5669216 L102.646111,46.6923419 C102.695349,46.7013005 102.731159,46.7416141 102.731159,46.7819278 L103.066873,49.6262804 C103.066873,49.666594 103.044492,49.6889905 103.004206,49.6800319 L102.771445,49.6262804 C102.731159,49.6173218 102.699826,49.5725288 102.699826,49.5366945 L102.628207,48.8334451 C102.621492,48.8032098 102.609742,48.7880922 102.585403,48.7786437 L101.540493,48.5243737 C101.486779,48.5064565 101.468874,48.5154151 101.446493,48.5467702 L101.057064,49.1425165 C101.048112,49.1738715 100.994398,49.196268 100.954112,49.1873094 L100.730303,49.1335579 C100.685541,49.1245993 100.672112,49.0842856 100.690017,49.0529306 L102.126873,46.9342238 C102.195935,46.8267208 102.169626,46.7257995 102.129692,46.670951 L102.108969,46.6475489 C102.059731,46.6072353 102.091064,46.557963 102.140302,46.5669216 Z M57.9827016,46.6341111 L57.9827016,46.6430696 L58.443749,48.5198944 C58.5601299,48.9902204 58.2870824,49.4650257 57.8305112,49.5770081 C57.4858447,49.6576354 57.1232734,49.5098187 56.9307973,49.2186645 C56.9122627,49.1848817 56.9218729,49.1425677 56.9531782,49.12012 L57.1322258,49.0126169 C57.1725115,48.9857411 57.208321,48.999179 57.2351781,49.0350134 C57.351559,49.2097059 57.5529875,49.3082504 57.754416,49.2589781 C58.0185111,49.1917887 58.1751777,48.8916759 58.1035587,48.6005217 L57.7096541,46.9924547 C57.6648922,46.8222415 57.5664161,46.7864071 57.5037494,46.7684899 C57.4500352,46.7460934 57.4500352,46.6968212 57.4992732,46.6833833 L57.9021302,46.5848388 C57.9379397,46.5714009 57.9737492,46.5982767 57.9827016,46.6341111 Z M60.1626055,46.0741991 C60.2073673,46.0697198 60.2566054,46.0921163 60.2745102,46.1234714 L61.814319,48.5512495 C61.8367,48.5781253 61.8232714,48.6184389 61.7829857,48.6273975 L61.5547001,48.6766697 C61.5144144,48.681149 61.4651763,48.6587526 61.4427954,48.6273975 L61.0757479,48.0182133 C61.0488908,47.9913376 61.0354622,47.982379 60.9862242,47.9913376 L60.9772718,47.9958169 L59.9432722,48.2197816 C59.9029865,48.2287402 59.8850818,48.2376988 59.8761294,48.2780125 L59.7821294,48.9857411 C59.7821294,49.0170962 59.7463199,49.0618892 59.701558,49.0708477 L59.4732724,49.12012 C59.4329867,49.1245993 59.4061296,49.0977235 59.4061296,49.0618892 L59.7866056,46.5221287 C59.8179389,46.3743119 59.7149866,46.2936846 59.6478438,46.2712881 C59.5896533,46.2533709 59.5986057,46.1951401 59.6478438,46.1861815 L60.1626055,46.0741991 Z M98.552181,45.7770725 L98.5727797,45.7785656 L98.9666843,45.859193 C99.0203986,45.8681515 99.0383034,45.8860687 99.0472557,45.9442996 L99.3068747,47.9107102 L99.3292556,48.2287402 L99.3395343,48.2526298 C99.3416895,48.2546206 99.3441762,48.255616 99.3471604,48.255616 C99.3605889,48.255616 99.3784937,48.2421781 99.3784937,48.2421781 L99.5306841,47.9599825 L100.560207,46.2668088 C100.585274,46.2202242 100.596017,46.2080405 100.629105,46.2119106 L100.895922,46.2668088 C100.940684,46.2802467 100.954112,46.3160811 100.936207,46.3429569 L99.4143032,48.7752142 C99.3829699,48.8244865 99.3650651,48.8379244 99.3068747,48.8244865 L99.172589,48.7931314 C99.1099224,48.7886521 99.1054462,48.770735 99.0964938,48.7125041 L98.7160178,46.1503472 C98.6891606,45.9980511 98.6130654,45.9039859 98.554875,45.859193 C98.5190655,45.8323172 98.5190655,45.799469 98.5363071,45.784538 L98.552181,45.7770725 Z M96.7062091,45.4470978 L97.225447,45.541163 C97.2702089,45.5501216 97.3104946,45.5904352 97.3149707,45.6262696 L97.8252562,48.452705 C97.8342086,48.4930186 97.8073515,48.5198944 97.7625896,48.5109358 L97.5298278,48.4706222 C97.4940183,48.4616636 97.4582088,48.4258292 97.4492564,48.3855155 L97.3418279,47.6822662 C97.3283993,47.6419525 97.3104946,47.6240353 97.2657327,47.6240353 L97.2567803,47.6285146 L96.2183045,47.4359049 C96.1735427,47.4314256 96.1511617,47.4359049 96.133257,47.46726 L95.7796381,48.0898821 C95.7662095,48.1212371 95.7169714,48.1436336 95.6677333,48.1391543 L95.4439239,48.0988406 C95.399162,48.0898821 95.3902097,48.0495684 95.4081144,48.0182133 L96.7151615,45.8144 C96.7765492,45.7030575 96.7458553,45.6048787 96.702007,45.5508921 L96.679352,45.5277251 C96.6256377,45.4874114 96.656971,45.4381392 96.7062091,45.4470978 Z M102.440207,47.0103719 C102.431254,47.0058926 102.41335,47.0238098 102.41335,47.0238098 L102.252207,47.3104847 L101.697159,48.1525922 C101.670302,48.1929058 101.688207,48.2197816 101.724017,48.2287402 L102.520778,48.4213499 C102.570016,48.4303085 102.583445,48.4123913 102.583445,48.3631191 L102.480492,47.3597569 L102.467064,47.0372476 C102.467064,47.0238098 102.453635,47.0103719 102.440207,47.0103719 Z M64.4731751,47.0641234 C64.5742843,47.62061 64.2432012,48.1651931 63.7224946,48.3094933 L63.6226992,48.331764 C63.0497471,48.4392671 62.4946997,48.0361305 62.3872712,47.4403842 L62.1276522,46.0204476 C62.1007951,45.8502344 62.002319,45.8099207 61.9441285,45.7875242 C61.8859381,45.7651278 61.9038428,45.7113762 61.9441285,45.7068969 L62.3514617,45.6352282 C62.38973,45.6268557 62.4276201,45.6508029 62.4365093,45.6889797 L62.7408901,47.391112 C62.8125091,47.8032071 63.1840328,48.0898821 63.5645088,48.0182133 C63.9449848,47.9510239 64.2001276,47.5568459 64.1285085,47.1447507 L63.8241277,45.4381392 C63.8151753,45.4067841 63.8465087,45.3664705 63.8823182,45.3575119 L64.0882228,45.3216775 C64.1285085,45.3127189 64.1598419,45.344074 64.1687942,45.3799083 L64.4731751,47.0641234 Z M67.3513643,44.828955 C67.3826976,44.8244757 67.4274595,44.8513515 67.4274595,44.8871859 L67.8079356,47.5523666 C67.8079356,47.588201 67.7855546,47.6285146 67.7452689,47.6285146 L67.4722214,47.6688283 C67.4319357,47.6733076 67.3782215,47.6509111 67.3513643,47.6150767 L65.9547935,45.8636722 L65.7757459,45.6083524 C65.7578412,45.5904352 65.7309841,45.5993938 65.7309841,45.6217903 L65.7936507,45.9308617 L66.062222,47.8032071 C66.0693839,47.8354581 66.0536277,47.867709 66.0264125,47.8793193 L65.7891745,47.9151895 C65.7578412,47.9241481 65.7220317,47.8927931 65.7130793,47.8569587 L65.372889,45.4694943 C65.3569026,45.3479134 65.3020921,45.2903224 65.2525017,45.2575439 L65.1983176,45.2276123 C65.135651,45.2007365 65.1490795,45.1514643 65.1983176,45.1425057 L65.6683174,45.070837 C65.7142773,45.0751176 65.7571695,45.0957837 65.7891745,45.1290678 L67.1812692,46.8849516 L67.3692691,47.1447507 C67.3826976,47.1626679 67.4050786,47.14923 67.4050786,47.1223543 L67.342412,46.8177622 L67.0738406,44.9364581 C67.0648883,44.9006237 67.0917454,44.8647894 67.1365073,44.8603101 L67.3513643,44.828955 Z M93.5055443,44.9399147 L93.5325914,44.9409374 L93.5325914,44.949896 L95.3588763,45.2276123 C95.3946858,45.2320916 95.4170668,45.267926 95.4170668,45.3037603 L95.3812573,45.4829321 C95.3812573,45.5232458 95.3409716,45.541163 95.3096383,45.541163 L94.63821,45.4381392 C94.6024005,45.4291806 94.566591,45.4560564 94.5621148,45.49637 L94.2084959,47.8211243 C94.2040197,47.8659173 94.1682102,47.8883138 94.1279245,47.8838345 L93.9130674,47.8569587 C93.8727817,47.8480001 93.8504008,47.8121657 93.8593532,47.7718521 L94.2084959,45.4426185 C94.2174482,45.4023048 94.1816387,45.3619912 94.1503054,45.3619912 L93.4833533,45.2589674 C93.4475438,45.2544881 93.4251629,45.223133 93.4251629,45.1828194 L93.45202,44.9946889 C93.4547477,44.976435 93.4650564,44.9601844 93.4804028,44.9499464 L93.5055443,44.9399147 Z M60.1223198,46.4594185 C60.1088912,46.4594185 60.0999388,46.481815 60.0999388,46.481815 L60.0775579,46.8088036 L59.9432722,47.8121657 C59.9343198,47.8569587 59.9567008,47.8793552 60.0014627,47.8703966 L60.8027004,47.6957041 C60.8474623,47.6867455 60.8608909,47.6598697 60.8340337,47.619556 L60.3058435,46.7595313 L60.1536531,46.4728564 C60.1447007,46.4594185 60.1312721,46.4594185 60.1223198,46.4594185 Z M91.3840209,44.6049902 C92.1852586,44.6945762 92.7537346,45.4247013 92.6597346,46.2309745 C92.5612585,47.0372476 91.8405921,47.619556 91.0438305,47.5254908 C90.2515452,47.4314256 89.678593,46.7013005 89.772593,45.8950273 C89.8665929,45.0932334 90.5917355,44.510925 91.3840209,44.6049902 Z M70.1986515,44.7607615 C70.3817171,44.9069795 70.4991281,45.1200736 70.524982,45.3530326 C70.579621,45.8411565 70.2330047,46.2757243 69.7506014,46.3339983 L69.2537445,46.3877498 C69.2134588,46.3922291 69.1910778,46.4280635 69.1910778,46.4638978 L69.2940302,47.3821534 C69.3029826,47.4179877 69.2716492,47.4583014 69.2358397,47.4583014 L69.0209827,47.4806979 C68.9851732,47.4851772 68.9448875,47.4583014 68.9448875,47.422467 L68.6763162,45.026044 C68.6571325,44.880147 68.5820421,44.8198136 68.5271534,44.7886283 L68.4765662,44.7614338 C68.4445491,44.7348898 68.4607131,44.6938296 68.5017448,44.6900969 L69.5491729,44.5736352 C69.781909,44.5472171 70.015586,44.6145436 70.1986515,44.7607615 Z M97.0463994,45.8726308 C97.0284947,45.8681515 97.0105899,45.8860687 97.0105899,45.8860687 L96.8718281,46.1772229 L96.3615426,47.0551648 C96.3507997,47.0909992 96.3515159,47.1153666 96.377442,47.1259735 L97.2075422,47.2791296 C97.2567803,47.2836089 97.274685,47.2656917 97.2657327,47.2164195 L97.1001137,46.2220159 L97.0643042,45.8995066 C97.0643042,45.8860687 97.0463994,45.8726308 97.0463994,45.8726308 Z M90.1217357,45.9308617 C90.0501167,46.5624423 90.4798308,47.1313128 91.07964,47.2029816 C91.6884017,47.270171 92.2389729,46.8222415 92.3195443,46.1906608 C92.3911633,45.5590802 91.9614492,44.9946889 91.3526875,44.9230202 C90.7439259,44.8513515 90.1933547,45.3037603 90.1217357,45.9308617 Z M86.6347848,44.2152915 L87.1092608,44.2511259 C87.1495465,44.2556052 87.1943083,44.2914396 87.2166893,44.3317532 L87.2166893,44.3227946 L88.1924984,46.3384776 L88.3133555,46.6341111 C88.3267841,46.6654661 88.3625936,46.6341111 88.3625936,46.6341111 L88.3625936,46.3205604 L88.514784,44.434777 C88.514784,44.3989427 88.5461173,44.3720669 88.5953554,44.3720669 L88.8057362,44.3899841 C88.8460219,44.3944634 88.8728791,44.4302977 88.8728791,44.4661321 L88.6535458,47.1447507 C88.6535458,47.1805851 88.6177363,47.2074609 88.5774506,47.2074609 L88.3044031,47.1805851 C88.2596412,47.1805851 88.2148793,47.1447507 88.1969746,47.1044371 L87.2166893,45.0887541 L87.1003084,44.8020792 C87.0868798,44.7796828 87.0600227,44.7796828 87.0600227,44.8020792 L87.0465941,45.1156299 L86.8944037,47.0014133 C86.8944037,47.0372476 86.8630704,47.0641234 86.8183085,47.0641234 L86.6034515,47.0462062 C86.5676419,47.0462062 86.5363086,47.0103719 86.545261,46.9745375 L86.7377371,44.5736352 C86.7466895,44.403422 86.6661181,44.3362325 86.61688,44.3003982 C86.5631658,44.2600845 86.5855467,44.206333 86.6347848,44.2152915 Z M71.6350768,44.3675876 C71.6843149,44.3631083 71.711172,44.3899841 71.7156482,44.4302977 L71.9528862,47.1089164 C71.9618386,47.14923 71.9305053,47.1850644 71.8902196,47.1850644 L71.6753625,47.2029816 C71.6350768,47.2074609 71.5992673,47.1761058 71.5992673,47.1402714 L71.3844102,44.7438484 C71.3754579,44.5691559 71.2814579,44.5198836 71.2232675,44.4930079 C71.1606008,44.4661321 71.1785056,44.4079012 71.2277436,44.4079012 L71.6350768,44.3675876 Z M73.1838381,44.2421673 C73.2285999,44.2421673 73.2599333,44.2690431 73.2599333,44.3048775 L73.4165999,46.6699454 C73.4210761,46.7147384 73.4524094,46.7371348 73.4926951,46.7371348 L74.5804089,46.6609868 C74.6206946,46.6609868 74.6609803,46.6923419 74.6609803,46.7326556 L74.6744089,46.9163067 C74.6744089,46.9476617 74.6430755,46.9834961 74.607266,46.9834961 L73.1569809,47.0820406 C73.1211714,47.0820406 73.0853619,47.0506855 73.0853619,47.0148512 L72.9331715,44.6049902 C72.9235797,44.4802099 72.87288,44.4171341 72.8251166,44.3814825 L72.7720287,44.3496704 C72.7093621,44.3227946 72.7272668,44.2690431 72.7765049,44.2645638 L73.1838381,44.2421673 Z M83.9311669,44.0809127 L85.5739281,44.16154 C85.6142138,44.1660193 85.6455471,44.1973744 85.6455471,44.2332087 L85.6321185,44.4168598 C85.6276423,44.4571735 85.596309,44.4840493 85.5560233,44.4840493 L84.4638333,44.4258184 C84.4369762,44.4258184 84.3966905,44.4526942 84.3877381,44.4930079 L84.3519286,45.2500088 C84.3519286,45.2858431 84.3787857,45.3261568 84.4190714,45.3261568 L85.3008806,45.3709498 C85.3366901,45.3709498 85.3680234,45.4067841 85.3680234,45.4426185 L85.359071,45.6262696 C85.3545948,45.6665833 85.3187853,45.693459 85.2829758,45.693459 L84.4056429,45.6486661 C84.360881,45.6441868 84.3295476,45.6755418 84.3295476,45.7158555 L84.2937381,46.526608 C84.2937381,46.5669216 84.3205953,46.5982767 84.3564048,46.5982767 L85.453071,46.6520282 C85.4888805,46.6565075 85.5202138,46.6923419 85.5202138,46.7326556 L85.5067852,46.9118274 C85.5023091,46.9476617 85.4754519,46.9745375 85.4351662,46.9745375 L83.9848811,46.9073481 C83.9535478,46.9028688 83.9177383,46.8625551 83.9222145,46.8312001 L83.9177383,46.8401586 L84.0385954,44.434777 C84.052024,44.2600845 83.9669764,44.2018537 83.9132621,44.1660193 C83.864024,44.1257056 83.8819288,44.0809127 83.9311669,44.0809127 Z M76.1649797,44.0182026 C76.433551,44.009244 76.6797413,44.116747 76.8319318,44.2914396 C76.8587889,44.3227946 76.8453603,44.3720669 76.8185032,44.3899841 L76.6797413,44.5064457 C76.6349795,44.5512387 76.59917,44.5288422 76.5678366,44.4974872 C76.4693605,44.4123805 76.339551,44.3407118 76.1784082,44.3407118 C75.9277417,44.3496704 75.7263132,44.5378008 75.7352656,44.7483277 C75.7482872,44.9568185 75.9412442,45.0658024 76.1281747,45.1459249 L76.3261225,45.2276123 C76.7155509,45.3843876 77.0646936,45.5904352 77.0870745,46.0652405 C77.1049793,46.5355666 76.7245032,46.9342238 76.2365987,46.9566203 C75.8203131,46.9745375 75.4622181,46.7147384 75.31898,46.3519154 C75.2965991,46.3160811 75.3279324,46.2712881 75.3592657,46.2578502 L75.5606942,46.1772229 C75.5965037,46.163785 75.627837,46.1772229 75.6457418,46.2220159 C75.7307894,46.4459806 75.9725036,46.6385904 76.2276463,46.6296318 C76.5141224,46.6206732 76.742408,46.3743119 76.7334556,46.0786784 C76.7065985,45.3306361 75.4264085,45.6083524 75.390599,44.7572863 C75.3726943,44.3675876 75.721837,44.0361197 76.1649797,44.0182026 Z M82.391358,44.0226818 L82.8031673,44.0316404 C82.843453,44.040599 82.8747864,44.0674748 82.8703102,44.1077885 L82.8031673,46.7908864 C82.8031673,46.8312001 82.771834,46.8580758 82.7270721,46.8580758 L82.5166913,46.8580758 C82.4808818,46.8535965 82.4450723,46.8222415 82.4450723,46.7819278 L82.5166913,44.3720669 C82.5166913,44.2018537 82.4316437,44.1436228 82.3779294,44.1077885 C82.3242152,44.0719541 82.3421199,44.0226818 82.391358,44.0226818 Z M80.7083111,44.0002854 C81.1917394,44.0047647 81.5901202,44.403422 81.5901202,44.8916652 C81.585644,45.3754291 81.1783109,45.7651278 80.6948825,45.7651278 L80.1980256,45.7651278 C80.1577399,45.7651278 80.1308828,45.7875242 80.1264066,45.8323172 L80.1264066,46.7505727 C80.1264066,46.7908864 80.0905971,46.8177622 80.0503114,46.8177622 L79.8399305,46.8177622 C79.7996448,46.8177622 79.7683115,46.7864071 79.7683115,46.7505727 L79.78174,44.3407118 C79.7862162,44.1704986 79.6966925,44.1122678 79.6429782,44.0764334 C79.5937401,44.0450783 79.6071687,43.9958061 79.6564068,44.0002854 L80.7083111,44.0002854 Z M69.6669345,44.8970621 L69.5939348,44.9006237 L69.0926017,44.9543753 C69.0567922,44.9588546 69.0344112,44.9946889 69.0388874,45.0350026 L69.1418398,45.9980511 C69.1507921,46.0383648 69.1821255,46.0652405 69.217935,46.0652405 L69.7192681,46.011489 C70.0057442,45.9801339 70.216125,45.7068969 70.1803155,45.3978255 C70.1542044,45.1439988 69.9695616,44.9430526 69.7377738,44.9038588 L69.6669345,44.8970621 Z M80.7038349,44.3227946 L80.206978,44.3227946 C80.1666923,44.3227946 80.1353589,44.358629 80.1308828,44.3989427 L80.1308828,45.3664705 C80.1308828,45.4067841 80.1577399,45.4381392 80.1980256,45.4381392 L80.6993587,45.4470978 C80.9858348,45.4470978 81.227549,45.2007365 81.227549,44.8871859 C81.2320251,44.5825938 80.9947871,44.3227946 80.7038349,44.3227946 Z" id="jaunpils-pienotava"></path>
            </g>
        </g>
    </g>
</svg>