<?xml version="1.0" encoding="UTF-8"?>
<svg width="120px" height="34.6478873px" viewBox="0 0 120 34.6478873" version="1.1" xmlns="http://www.w3.org/2000/svg" xmlns:xlink="http://www.w3.org/1999/xlink">
    <title>partners-logo-madara</title>
    <g id="Design" stroke="none" stroke-width="1" fill="none" fill-rule="evenodd">
        <g id="Group-16" transform="translate(-180, -63)" fill="#292C33">
            <g id="Client-2" transform="translate(160, 0)">
                <path d="M113.080282,78.0341408 L104.692958,78.0341408 L104.692958,83.2633521 L103.369662,83.2633521 L103.369662,68.8829155 L113.29493,68.8829155 C113.902535,68.8829155 114.50507,69.0012676 115.067042,69.2312113 C115.629014,69.4611634 116.139437,69.7981944 116.569577,70.2230789 C116.999718,70.6479634 117.341127,71.1523775 117.573521,71.7075211 C117.806761,72.2626479 117.925915,72.857662 117.925915,73.458507 C117.925915,74.0594366 117.806761,74.6543662 117.573521,75.209493 C117.341127,75.7647042 116.999718,76.2690423 116.569577,76.6939437 C116.139437,77.1188451 115.629014,77.4558592 115.067042,77.6858028 C114.935211,77.7398873 114.800845,77.7878028 114.663944,77.8294648 L118.167606,83.2816901 L116.36,83.2816901 L113.080282,78.0341408 Z M104.692958,70.190231 L113.29493,70.190231 C114.172113,70.190231 115.013803,70.5345718 115.634085,71.147493 C116.254366,71.7604225 116.602535,72.5917183 116.602535,73.458507 C116.602535,74.3252958 116.254366,75.1565915 115.634085,75.7695211 C115.013803,76.3824507 114.172113,76.7268169 113.29493,76.7268169 L104.692958,76.7268169 L104.692958,70.190231 Z M64.3295211,83.2640282 L72.2714085,83.2633521 C76.2910704,83.2633521 79.5497465,80.0441408 79.5497465,76.0731549 C79.5497465,72.102169 76.2910704,68.8829155 72.2714085,68.8829155 L64.3295211,68.8835746 L64.3295211,83.2640282 Z M65.6528169,81.9560282 L72.2714085,81.9560282 C73.8507606,81.9560282 75.3654648,81.3362535 76.4822254,80.2330141 C77.5989859,79.1297746 78.2263662,77.6334085 78.2263662,76.0731549 C78.2263662,74.5129014 77.5989859,73.0165352 76.4822254,71.9132958 C75.3654648,70.8100394 73.8507606,70.190231 72.2714085,70.190231 L65.6528169,70.190231 L65.6528169,81.9560282 Z M47.4966479,76.727493 L51.4290141,70.4360113 L55.3614648,76.727493 L47.4966479,76.727493 Z M50.8560563,68.8659211 L41.5927324,83.2810141 L43.4004225,83.2810141 L46.6794648,78.0348169 L56.1785634,78.0348169 L59.4576901,83.2810141 L61.2652958,83.2810141 L52.0020563,68.8659211 L50.8560563,68.8659211 Z M54.584507,63 L51.6440845,67.5756 L53.3941408,67.5756 L56.2538592,63 L54.584507,63 Z M29.8779437,78.3518028 L37.2032676,70.7262338 L37.2032676,83.2633521 L38.5265634,83.2633521 L38.5265634,68.8829155 L37.2032676,68.8829155 L29.2633239,77.1098873 L21.3233296,68.8868366 L20,68.8829155 L20,83.2633521 L21.3233296,83.2633521 L21.3233296,70.7353859 L28.6486197,78.3518028 L29.8779437,78.3518028 Z M134.912676,78.0348169 L138.192394,83.2816901 L140,83.2816901 L130.736338,68.8665803 L129.590423,68.8665803 L120.327606,83.2816901 L122.135211,83.2816901 L125.414085,78.0348169 L134.912676,78.0348169 Z M126.233803,76.727493 L130.165915,70.436662 L134.098873,76.727493 L126.233803,76.727493 Z M85.7170704,78.0348169 L95.2159155,78.0348169 L98.4951268,83.2816901 L100.302817,83.2816901 L91.039493,68.8665803 L89.893493,68.8665803 L80.6302535,83.2816901 L82.4378592,83.2816901 L85.7170704,78.0348169 Z M86.5329014,76.727493 L90.4651831,70.436662 L94.3974648,76.727493 L86.5329014,76.727493 Z M69.4070423,94.2827324 C69.4070423,94.6336056 69.5032113,94.8736056 69.8041408,94.8736056 C70.0020563,94.8736056 70.2177183,94.7727887 70.3236056,94.691831 L70.400507,95.5242254 C70.2947042,95.6151549 69.8700563,95.7643099 69.4386479,95.7643099 C68.773493,95.7643099 68.4272676,95.3750704 68.4272676,94.5128451 L68.4272676,90.4246479 L69.4070423,90.4246479 L69.4070423,94.2827324 Z M68.9246761,88.3521127 C69.2943099,88.3521127 69.5320282,88.5027042 69.5320282,88.9345352 C69.5320282,89.3663662 69.2943099,89.5254085 68.9246761,89.5254085 C68.570169,89.5254085 68.3131831,89.3663662 68.3131831,88.9345352 C68.3131831,88.5012676 68.570169,88.3521127 68.9246761,88.3521127 Z M40.3820845,94.8437746 C41.3921127,94.8437746 42.0832958,94.0739155 42.0832958,93.059662 C42.0832958,92.0312113 41.3906761,91.2470704 40.3820845,91.2470704 C39.3913239,91.2470704 38.701493,92.0312113 38.701493,93.059662 C38.701493,94.0739155 39.3913239,94.8437746 40.3820845,94.8437746 Z M40.3820845,90.2853803 C41.9334648,90.2853803 43.0286761,91.4686479 43.0286761,93.0582254 C43.0286761,94.632169 41.9334648,95.8040282 40.3820845,95.8040282 C38.8540282,95.8040282 37.7464789,94.6336056 37.7464789,93.0582254 C37.7464789,91.4686479 38.8540282,90.2853803 40.3820845,90.2853803 Z M44.8032394,91.818169 C44.8032394,91.4558873 44.7234648,91.2286479 44.4074085,91.2286479 C44.2095775,91.2286479 44.0006761,91.3181408 43.8783944,91.397662 L43.813831,90.5865634 C43.9182817,90.4870986 44.3401408,90.3365915 44.7771268,90.3365915 C45.3460282,90.3365915 45.6730704,90.6263662 45.7596056,91.2386197 C46.0151549,90.6874648 46.3848732,90.3365915 47.0444507,90.3365915 C47.5047606,90.3365915 47.8372958,90.5183662 47.9417465,90.6959155 L47.7603099,91.6164507 C47.6586479,91.4473521 47.3370986,91.2968451 46.9029014,91.2968451 C46.2020845,91.2968451 45.9189859,91.9772113 45.7857183,92.6803944 L45.7857183,95.6634085 L44.8018028,95.6634085 L44.8018028,91.818169 L44.8032394,91.818169 Z M52.3884225,93.8622254 C52.1012676,94.1719437 51.6120563,94.4517465 51.0747606,94.4517465 C50.0826479,94.4517465 49.4505352,93.7641972 49.4505352,92.8622535 C49.4505352,91.9488169 50.0826479,91.2470704 51.0747606,91.2470704 C51.6202535,91.2470704 52.1149577,91.5482535 52.3884225,91.8578873 L52.3884225,93.8622254 Z M52.3884225,90.9558592 C52.0352676,90.5865634 51.5076056,90.3365915 50.8054366,90.3365915 C49.3928169,90.3365915 48.4501408,91.4687324 48.4501408,92.8622535 C48.4501408,94.2343944 49.3914648,95.3637465 50.8040845,95.3637465 C51.4787887,95.3637465 52.0256338,95.1038028 52.3870704,94.7529296 L52.3870704,95.3168451 C52.3870704,96.3282254 51.7233521,96.7287887 50.9772394,96.7287887 C50.2132113,96.7287887 49.6360282,96.3893239 49.3227606,96.1776338 L49.1097183,97.1067042 L49.3546283,97.2422437 C49.6957864,97.42277 50.2211972,97.6478873 50.9785915,97.6478873 C52.3596056,97.6478873 53.3668451,96.7785634 53.3668451,95.1038028 L53.3668451,90.4274366 L52.3884225,90.4274366 L52.3884225,90.9558592 Z M58.7360845,91.8380282 C58.4805352,91.5368451 57.9693521,91.2499437 57.4237746,91.2499437 C56.4289577,91.2499437 55.7968451,91.9914085 55.7968451,93.0610986 C55.7968451,94.1108451 56.4426479,94.8537465 57.4237746,94.8537465 C57.9707042,94.8537465 58.4529859,94.5739437 58.7360845,94.2614366 L58.7360845,91.8380282 Z M59.7158592,94.2827324 C59.7158592,94.6336056 59.8203099,94.8722535 60.1129577,94.8722535 C60.3025915,94.8722535 60.4716056,94.8040563 60.6434085,94.691831 L60.7079718,95.5242254 C60.4825915,95.6549577 60.1129577,95.7614366 59.7570986,95.7614366 C59.2198028,95.7614366 58.9188732,95.5029296 58.8006479,94.9915775 C58.4544225,95.4134366 57.8662535,95.7515493 57.1640845,95.7515493 C55.7514648,95.7515493 54.8046479,94.6307324 54.8046479,93.0582254 C54.8046479,91.4687324 55.7514648,90.3337183 57.1640845,90.3337183 C57.8470704,90.3337183 58.3842817,90.5836901 58.7374366,90.954507 L58.7374366,90.4232113 L59.7172113,90.4232113 L59.7172113,94.2827324 L59.7158592,94.2827324 Z M62.8377183,91.2272113 L62.8377183,90.4246479 L61.8524507,90.4246479 L61.8524507,95.6620563 L62.8377183,95.6620563 L62.8377183,92.4289859 C63.0039437,91.8550986 63.4972958,91.2954085 64.1953239,91.2954085 C65.0074366,91.2954085 65.4114648,91.9189859 65.4114648,92.8096901 L65.4114648,94.5128451 C65.4114648,95.3722817 65.7549859,95.7628732 66.4228451,95.7628732 C66.793831,95.7628732 67.1524789,95.6563099 67.3750704,95.525662 L67.3132958,94.6932676 C67.1387887,94.805493 66.9601408,94.8736056 66.793831,94.8736056 C66.4874085,94.8736056 66.3967324,94.6350423 66.3967324,94.284169 L66.3967324,92.6505634 C66.3967324,91.3479718 65.8058592,90.3365915 64.5361408,90.3365915 C63.7679718,90.3365915 63.1839437,90.6874648 62.8377183,91.2272113 Z M73.8982535,95.8054648 C74.6979437,95.8054648 75.4318028,95.5156901 75.9525352,95.0852958 L75.5692113,94.2670986 C75.1651831,94.5966761 74.5605352,94.8864507 74.0136901,94.8864507 C72.7563099,94.8864507 72.2464789,94.0653803 72.2464789,93.0327042 C72.2464789,91.9914085 72.8387887,91.2115775 73.8390986,91.2115775 C74.6910986,91.2115775 75.0881972,91.7215775 75.1349296,92.5212676 L76.0130423,92.3011268 C75.9690141,91.1093239 75.2187606,90.2882535 73.8309014,90.2882535 C72.2534085,90.2882535 71.2323944,91.4587606 71.2323944,93.0625352 C71.2323944,94.6350423 72.0348732,95.8054648 73.8982535,95.8054648 Z M83.3218028,91.6292113 C82.9067887,91.4090704 82.2747606,91.2158873 81.7360282,91.2158873 C81.1356056,91.2158873 80.6683662,91.4700845 80.6683662,91.9204225 C80.6683662,92.2911549 80.9060845,92.3906197 81.3788169,92.508507 L82.3956901,92.7599155 C83.2242817,92.9801408 83.6268732,93.4034366 83.6268732,94.152 C83.6268732,95.1151268 82.9068732,95.7657465 81.6632676,95.7657465 C80.8195493,95.7657465 80.1585352,95.5156901 79.7792676,95.3168451 L79.9813239,94.4119437 C80.3825634,94.643493 80.9802817,94.8921127 81.6220282,94.8921127 C82.2733239,94.8921127 82.6416056,94.643493 82.6416056,94.224507 C82.6416056,93.8920563 82.3324789,93.7641972 81.8665915,93.6420845 L80.9157183,93.4034366 C80.1118028,93.1903099 79.6830986,92.7911831 79.6830986,91.998507 C79.6830986,91.0283662 80.4993521,90.3365915 81.811662,90.3365915 C82.4464789,90.3365915 83.2201408,90.5269014 83.5842817,90.7186479 L83.3218028,91.6292113 Z M88.1399718,93.0227324 C88.8530648,92.5918479 89.3422945,91.8355114 89.5752997,90.6809617 L89.6212958,90.4260845 L88.6387324,90.4260845 C88.2883662,92.2570986 87.3085915,92.579493 86.0320282,92.5909014 L86.0320282,88.5509577 L85.0522535,88.5509577 L85.0522535,95.6634085 L86.0320282,95.6634085 L86.0320282,93.5227606 C86.4731549,93.5227606 86.8922254,93.4729859 87.271493,93.3821408 L88.6744789,95.6648451 L89.7559155,95.6648451 L89.7559155,95.495831 L88.1399718,93.0227324 Z M92.0098873,94.2827324 C92.0098873,94.6336056 92.1060563,94.8736056 92.408338,94.8736056 C92.6076056,94.8736056 92.8260563,94.7727887 92.9278028,94.691831 L93.0061408,95.5242254 C92.9016901,95.6151549 92.4756901,95.7643099 92.0387042,95.7643099 C91.3791268,95.7643099 91.0314648,95.3750704 91.0314648,94.5128451 L91.0314648,90.4246479 L92.0098873,90.4246479 L92.0098873,94.2827324 Z M91.5330141,88.3521127 C91.8958028,88.3521127 92.1335211,88.5027042 92.1335211,88.9345352 C92.1335211,89.3663662 91.8958028,89.5254085 91.5330141,89.5254085 C91.1730141,89.5254085 90.9188169,89.3663662 90.9188169,88.9345352 C90.9188169,88.5012676 91.1730141,88.3521127 91.5330141,88.3521127 Z M95.1555775,91.2272113 L95.1555775,90.4246479 L94.1730986,90.4246479 L94.1730986,95.6620563 L95.1542254,95.6620563 L95.1542254,92.4289859 C95.3273803,91.8550986 95.8151549,91.2954085 96.5159718,91.2954085 C97.3280845,91.2954085 97.7334648,91.9189859 97.7334648,92.8096901 L97.7334648,94.5128451 C97.7334648,95.3722817 98.0756338,95.7628732 98.7461972,95.7628732 C99.1144789,95.7628732 99.4744789,95.6563099 99.698507,95.525662 L99.6339437,94.6932676 C99.4676338,94.805493 99.283493,94.8736056 99.1144789,94.8736056 C98.8149014,94.8736056 98.7187324,94.6350423 98.7187324,94.284169 L98.7187324,92.6505634 C98.7187324,91.3479718 98.1347042,90.3365915 96.8554366,90.3365915 C96.0927606,90.3365915 95.5073803,90.6874648 95.1555775,91.2272113 Z M105.139155,95.0852958 C104.619437,95.5156901 103.887014,95.8054648 103.084535,95.8054648 C101.221155,95.8054648 100.418676,94.6350423 100.418676,93.0625352 C100.418676,91.4587606 101.441042,90.2882535 103.017183,90.2882535 C104.406394,90.2882535 105.150141,91.1093239 105.200845,92.3011268 L104.321211,92.5212676 C104.271775,91.7215775 103.878732,91.2115775 103.028169,91.2115775 C102.022282,91.2115775 101.432761,91.9914085 101.432761,93.0327042 C101.432761,94.0653803 101.941239,94.8864507 103.202676,94.8864507 C103.742761,94.8864507 104.354254,94.5966761 104.752958,94.2670986 L105.139155,95.0852958 Z M108.855775,91.2499437 C109.4,91.2499437 109.913803,91.5368451 110.166479,91.8380282 L110.166479,94.2614366 C109.885915,94.5739437 109.400845,94.8537465 108.855775,94.8537465 C107.874648,94.8537465 107.232394,94.1108451 107.232394,93.0610986 C107.232394,91.9914085 107.861127,91.2499437 108.855775,91.2499437 Z M111.549014,94.8722535 C111.252394,94.8722535 111.151831,94.6336056 111.151831,94.2827324 L111.151831,90.4232113 L110.166479,90.4232113 L110.166479,90.954507 C109.817465,90.5836901 109.28,90.3337183 108.599718,90.3337183 C107.18507,90.3337183 106.235211,91.4687324 106.235211,93.0582254 C106.235211,94.6307324 107.18507,95.7515493 108.599718,95.7515493 C109.296901,95.7515493 109.885915,95.4134366 110.23662,94.9915775 C110.344789,95.5029296 110.649859,95.7614366 111.187324,95.7614366 C111.549014,95.7614366 111.913239,95.6549577 112.141408,95.5242254 L112.079718,94.691831 C111.907324,94.8040563 111.733239,94.8722535 111.549014,94.8722535 Z M113.650704,91.818169 C113.650704,91.4558873 113.563662,91.2286479 113.255211,91.2286479 C113.053239,91.2286479 112.847887,91.3181408 112.726197,91.397662 L112.656056,90.5865634 C112.76,90.4870986 113.18338,90.3365915 113.620282,90.3365915 C114.186479,90.3365915 114.519437,90.6263662 114.605634,91.2386197 C114.855775,90.6874648 115.226761,90.3365915 115.885915,90.3365915 C116.348169,90.3365915 116.684507,90.5183662 116.78338,90.6959155 L116.606761,91.6164507 C116.500282,91.4473521 116.18169,91.2968451 115.743099,91.2968451 C115.042535,91.2968451 114.759437,91.9772113 114.629296,92.6803944 L114.629296,95.6634085 L113.648169,95.6634085 L113.648169,91.818169 L113.650704,91.818169 Z M120.036056,91.1590141 C120.92507,91.1590141 121.312958,91.6974085 121.312958,92.2982535 C121.312958,92.3891831 121.304507,92.5028451 121.293521,92.579493 L118.496338,92.579493 C118.574085,91.8195211 119.111549,91.1590141 120.036056,91.1590141 Z M120.140845,95.8041127 C120.970704,95.8041127 121.682254,95.5356338 122.192676,95.0952676 L121.804789,94.3466197 C121.424507,94.6449296 120.849859,94.926169 120.167887,94.926169 C119.092113,94.926169 118.573239,94.3025915 118.476901,93.3934648 L122.149577,93.3934648 C122.210423,93.2002817 122.254366,92.7812113 122.254366,92.4701408 C122.254366,91.2698028 121.556338,90.2868169 120.053803,90.2868169 C118.470141,90.2868169 117.465352,91.5198592 117.465352,93.0610986 C117.465352,94.583831 118.28169,95.8041127 120.140845,95.8041127 Z" id="madara"></path>
            </g>
        </g>
    </g>
</svg>