<?xml version="1.0" encoding="UTF-8"?>
<svg width="98px" height="50px" viewBox="0 0 98 50" version="1.1" xmlns="http://www.w3.org/2000/svg" xmlns:xlink="http://www.w3.org/1999/xlink">
    <title>partners-logo-tsc</title>
    <g id="Design" stroke="none" stroke-width="1" fill="none" fill-rule="evenodd">
        <g id="Group-16" transform="translate(-31, -215)" fill="#292C33">
            <g id="Client-7" transform="translate(0, 160)">
                <path d="M49.3813747,56.2916704 L50.1765111,59.3724953 C40.747081,61.8404068 34.1611718,70.4248531 34.1611718,80.2489453 C34.1611718,92.1410107 43.7694067,101.816752 55.5798063,101.816752 C67.3889949,101.816752 76.9968262,92.1410107 76.9968262,80.2489453 C76.9968262,70.4447687 70.4286764,61.8643868 61.0246745,59.3826563 L61.8262689,56.3030507 C72.6195396,59.1517977 80.157998,68.9986506 80.157998,80.2489453 C80.157998,93.8968371 69.1322408,105 55.5798063,105 C42.0261609,105 31,93.8968371 31,80.2489453 C31,68.975077 38.5586396,59.1233468 49.3813747,56.2916704 Z M73.0736553,75.5581658 L73.0736553,78.2268593 L67.755121,78.2268593 C66.3049051,78.2268593 65.1251164,79.4148871 65.1251164,80.8752307 L65.1251164,84.0909941 C65.1251164,85.5513376 66.3049051,86.7393655 67.755121,86.7393655 L71.735243,86.7393655 L71.735243,89.4084654 L67.755121,89.4084654 C64.8433879,89.4084654 62.4745271,87.0230615 62.4745271,84.0909941 L62.4745271,80.8752307 C62.4745271,77.9431633 64.8433879,75.5581658 67.755121,75.5581658 L73.0736553,75.5581658 Z M44.7040755,70.3377933 L44.7040755,75.5581252 L48.6111418,75.5581252 L48.6111418,78.2268186 L44.7040755,78.2268186 L44.7040755,85.1594876 C44.7040755,86.0158593 45.2949789,86.7393248 45.9948604,86.7393248 L48.6111418,86.7393248 L48.6111418,89.4084247 L45.9948604,89.4084247 C43.821353,89.4084247 42.0534862,87.5022151 42.0534862,85.1594876 L42.0534862,78.2268186 L38.084262,78.2268186 L38.084262,75.5581252 L42.0534862,75.5581252 L42.0534862,70.3377933 L44.7040755,70.3377933 Z M61.0339982,75.5579626 L61.0339982,78.2270625 L54.3649427,78.2270625 C53.6594105,78.2270625 53.0854593,78.8046155 53.0854593,79.5150749 L53.0854593,79.8597371 C53.0854593,80.5701965 53.6263135,81.1485624 54.2910798,81.1485624 L57.3113874,81.1485624 C59.4380746,81.1485624 61.1680009,82.9234915 61.1680009,85.1056747 L61.1680009,85.4507434 C61.1680009,87.6329266 59.4045739,89.4082621 57.2375245,89.4082621 L50.568469,89.4082621 L50.568469,86.7395687 L57.2375245,86.7395687 C57.9430567,86.7395687 58.517008,86.1612027 58.517008,85.4507434 L58.517008,85.1056747 C58.517008,84.3952154 57.9761537,83.8172559 57.3113874,83.8172559 L54.2910798,83.8172559 C52.1647962,83.8172559 50.4344663,82.0419204 50.4344663,79.8597371 L50.4344663,79.5150749 C50.4344663,77.3328917 52.1978933,75.5579626 54.3649427,75.5579626 L61.0339982,75.5579626 Z M57.1604729,55 L57.1604729,66.2730554 L53.9993011,66.2730554 L53.9993011,55 L57.1604729,55 Z M88.892269,78.7484047 L87.5167234,78.7484047 C86.8959519,78.7484047 86.7813231,79.0658354 86.7813231,79.383266 C86.7813231,79.8835952 87.0392379,80.0376365 87.4880662,80.0376365 C88.032553,80.0376365 88.5197254,79.9319617 88.892269,79.8453897 L88.892269,78.7484047 Z M87.5550675,78.0172169 C87.9179242,78.0172169 88.4337538,78.0562352 88.8640154,78.1619099 L88.892269,78.1619099 L88.892269,77.4981913 C88.892269,76.81537 88.5669492,76.5072875 87.8028917,76.5072875 C87.2297477,76.5072875 86.8959519,76.6036141 86.4184664,76.7479007 L86.2747768,76.0557312 C86.7522622,75.8626716 87.2967491,75.7667515 87.9461778,75.7667515 C89.0448383,75.7667515 89.7802386,76.1898569 89.7806423,77.3441501 L89.7806423,80.0091856 L90.4111007,80.0091856 L90.4111007,80.5473138 C90.048244,80.7013551 89.8282697,80.7688243 89.5130405,80.7688243 C89.1982149,80.7688243 88.9209262,80.6050285 88.892269,80.3359644 L88.8446416,80.3359644 C88.4050966,80.6241312 87.8896706,80.7688243 87.364154,80.7688243 C86.5520655,80.7688243 85.8929498,80.3932726 85.8929498,79.4023687 C85.8929498,78.466899 86.4383822,78.0629064 87.3840583,78.0209056 L87.5550675,78.0172169 Z M94.5768891,79.7486567 L94.5764854,75.8626716 L95.4648587,75.8626716 L95.4652623,80.6716849 L94.5768891,80.6716849 L94.5768891,80.3067006 L94.5292616,80.3067006 C94.0324022,80.6241312 93.5642001,80.7688243 93.0294002,80.7688243 C92.0550554,80.7688243 91.4819113,80.2493924 91.4819113,79.1914257 L91.4815077,75.8626716 L92.3698809,75.8626716 L92.3702846,78.9983661 C92.3702846,79.6145311 92.5515111,80.0376365 93.2970019,80.0376365 C93.870146,80.0376365 94.2709432,79.8742471 94.5768891,79.7486567 Z M98.2169994,74.3236004 L98.2169994,75.8627936 L99.5542009,75.8627936 L99.458946,76.5740658 L98.2169994,76.5740658 L98.2174031,79.4797145 C98.2174031,79.8813524 98.5019403,80.0139329 98.7325904,80.0347191 L98.8948616,80.0379881 C99.0158133,80.0371763 99.1840791,80.0278683 99.5259474,79.9605346 L99.6312929,80.6433559 L99.1488125,80.723374 C98.9816624,80.7485226 98.8097191,80.7677269 98.6375741,80.7677269 C97.8735166,80.7677269 97.3290298,80.3933945 97.3290298,79.5366163 L97.3286262,76.5740658 L96.5359115,76.5740658 L96.5359115,75.8627936 L97.3286262,75.8627936 L97.3286262,74.4195206 L98.2169994,74.3236004 Z M102.554368,80.0852307 C103.5384,80.0852307 103.891569,79.3930612 103.891569,78.1712987 C103.891569,77.1035775 103.633654,76.4589616 102.649623,76.4589616 C101.655904,76.4589616 101.303138,77.1511311 101.303138,78.3635455 C101.303138,79.4406149 101.561053,80.0852307 102.554368,80.0852307 Z M102.69725,75.7659792 C104.034855,75.7659792 104.779943,76.4874125 104.780346,78.1712987 C104.780346,79.8543721 104.130514,80.7680521 102.50674,80.7680521 C101.169135,80.7680521 100.414765,80.0470253 100.414765,78.3635455 C100.414765,76.6804721 101.073477,75.7659792 102.69725,75.7659792 Z M108.630381,76.5836172 C107.89498,76.574269 107.350897,76.6803502 107.055042,76.8144758 L107.055042,80.67201 L106.166669,80.67201 L106.166265,75.8629968 L107.054638,75.8629968 L107.054638,76.2373292 L107.102266,76.2373292 C107.560781,75.9296531 108.047953,75.7374064 108.630381,75.7658573 L108.630381,76.5836172 Z M110.733214,80.6718474 L109.84484,80.6718474 L109.844437,75.8628342 L110.73281,75.8628342 L110.733214,80.6718474 Z M110.293265,74.0830278 C110.589524,74.0830278 110.837752,74.3329892 110.837752,74.6410717 C110.837752,74.9389932 110.589524,75.1889546 110.293265,75.1889546 C109.987319,75.1889546 109.739091,74.9389932 109.739091,74.6410717 C109.739091,74.3637975 109.940156,74.1336013 110.203403,74.0903348 L110.293265,74.0830278 Z M115.671697,76.5066372 L113.10264,79.9215568 L115.719728,79.9215568 L115.719728,80.6718474 L112.023353,80.6718474 L112.023353,80.0662499 L114.640441,76.6216601 L112.166235,76.622473 L112.165832,75.8628342 L115.671697,75.8620213 L115.671697,76.5066372 Z M117.611749,77.7378698 L119.942266,77.7378698 C119.923699,76.9298645 119.550752,76.5067591 118.833918,76.5067591 C118.225079,76.5067591 117.784389,76.8025404 117.63723,77.576622 L117.611749,77.7378698 Z M117.295713,74.9196059 L120.448409,74.9196059 L120.448409,74.1400515 L117.295713,74.1400515 L117.295713,74.9196059 Z M120.563441,80.459807 C120.095239,80.6622148 119.589096,80.7678895 118.978012,80.7678895 C117.554435,80.7678895 116.704406,80.2191938 116.704406,78.2865655 C116.704406,76.6416976 117.468463,75.7658167 118.843605,75.7658167 C120.209868,75.7658167 120.830639,76.5445582 120.831043,77.8634601 L120.826767,77.9965471 C120.820369,78.1161311 120.80548,78.283043 120.773728,78.4109365 L117.592779,78.4109365 C117.611749,79.7582894 118.184893,80.0367016 119.034922,80.0367016 C119.474467,80.0367016 120.038328,79.9310269 120.401185,79.7960884 L120.563441,80.459807 Z M123.295966,74.3227875 L123.295966,75.8619807 L124.633167,75.8619807 L124.537912,76.5740658 L123.295966,76.5740658 L123.296369,79.4789016 C123.296369,79.8812785 123.580907,80.0132544 123.811557,80.0339245 L123.973828,80.0371752 C124.09478,80.0363634 124.263045,80.0270554 124.604914,79.9597217 L124.710259,80.642543 L124.227779,80.7232724 C124.060629,80.7485226 123.888685,80.7677269 123.71654,80.7677269 C122.952483,80.7677269 122.407996,80.3925816 122.407996,79.5366163 L122.407592,76.5740658 L121.614878,76.5740658 L121.614878,75.8619807 L122.407592,75.8619807 L122.407592,74.4195206 L123.295966,74.3227875 Z M125.666078,79.7772295 C126.000277,79.902007 126.621452,80.0369455 127.041623,80.0369455 C127.643425,80.0369455 128.111627,79.8446988 128.111627,79.3634723 C128.111627,78.8436339 127.58611,78.7001601 126.974622,78.5461189 C126.200878,78.3632203 125.541762,78.0165259 125.541762,77.1321097 C125.541358,76.1509604 126.258192,75.7660605 127.394793,75.7660605 C127.833934,75.7660605 128.388108,75.900999 128.760652,76.0257765 L128.598799,76.7663125 C128.159254,76.6025167 127.709619,76.5065965 127.356449,76.5065965 C126.754648,76.5065965 126.430539,76.7187589 126.430539,77.1028459 C126.430539,77.4669012 126.722753,77.6202705 127.077865,77.7306259 L127.519512,77.8531365 C128.283166,78.0555443 129,78.3148538 129,79.2960031 C129,80.3352734 128.130597,80.7681334 127.012966,80.7681334 C126.583108,80.7681334 125.923993,80.6527041 125.513105,80.5177655 L125.666078,79.7772295 Z M86.1603498,88.0219316 C86.4945492,88.1475219 87.1157244,88.2824604 87.5358954,88.2824604 C88.1376967,88.2824604 88.6058988,88.0894008 88.6058988,87.6081743 C88.6058988,87.0891488 88.0803823,86.9448622 87.4688941,86.7908209 C86.6951497,86.6079224 86.036034,86.2620408 86.036034,85.3768117 C86.036034,84.3956625 86.7528677,84.0107626 87.8894688,84.0107626 C88.3286101,84.0107626 88.8827839,84.1457011 89.2553275,84.270885 L89.0930712,85.0118274 C88.6535263,84.8480316 88.2042944,84.7521115 87.8511246,84.7521115 C87.2493234,84.7521115 86.9248109,84.9634609 86.9248109,85.3483608 C86.9248109,85.7488216 87.2783904,85.8938506 87.6803277,86.007802 L88.0137845,86.0986514 C88.7774384,86.3002463 89.4942721,86.5603687 89.4942721,87.5407051 C89.4942721,88.5799755 88.6248691,89.0128354 87.5072382,89.0128354 C87.0773802,89.0128354 86.4186682,88.8974061 86.0073768,88.7624676 L86.1603498,88.0219316 Z M91.4338399,85.9833847 L93.7643565,85.9825718 C93.7457899,85.1745665 93.3732462,84.752274 92.6564126,84.752274 C92.0475732,84.752274 91.6065288,85.0480553 91.4593254,85.8221369 L91.4338399,85.9833847 Z M94.3855316,88.7045091 C93.9173295,88.9069168 93.4111868,89.0125916 92.8001022,89.0125916 C91.3765255,89.0125916 90.5264964,88.4647087 90.5264964,86.5312675 C90.5264964,84.8863997 91.2909575,84.0105187 92.6660995,84.0105187 C94.0319583,84.0105187 94.6531334,84.7892602 94.6531334,86.1081622 L94.648858,86.2412491 C94.6424598,86.3608332 94.6275706,86.527745 94.595819,86.6556386 L91.4148696,86.6564514 C91.4338399,88.0029914 92.0069839,88.2822166 92.857013,88.2822166 C93.296558,88.2822166 93.8604187,88.1761354 94.2232753,88.0407904 L94.3855316,88.7045091 Z M98.5512393,84.8283598 C97.815839,84.8190117 97.2713521,84.92428 96.9754968,85.0592185 L96.9754968,88.9167527 L96.0871236,88.9167527 L96.0871236,84.1069266 L96.9754968,84.1069266 L96.9754968,84.4820719 L97.0231243,84.4820719 C97.4816395,84.1743958 97.9688119,83.9821491 98.5512393,84.0106 L98.5512393,84.8283598 Z M100.787308,88.964225 L98.9722176,84.1068453 L99.9558458,84.1068453 L101.226853,87.8680529 L101.283764,87.8680529 L102.554368,84.1068453 L103.500055,84.1068453 L101.685368,88.964225 L100.787308,88.964225 Z M104.494501,88.9167121 L105.382874,88.9167121 L105.382874,84.1068859 L104.494501,84.1068859 L104.494501,88.9167121 Z M104.943329,82.3270796 C105.239184,82.3270796 105.487816,82.5778538 105.487816,82.8851234 C105.487816,83.1834513 105.239184,83.4334127 104.943329,83.4334127 C104.637383,83.4334127 104.389155,83.1834513 104.389155,82.8851234 C104.389155,82.6085808 104.59022,82.3777994 104.853467,82.3344085 L104.943329,82.3270796 Z M106.940211,88.0219316 C107.274411,88.146709 107.895586,88.2816476 108.315757,88.2816476 C108.917558,88.2816476 109.38576,88.0894008 109.38576,87.6081743 C109.38576,87.0883359 108.860244,86.9448622 108.248755,86.7908209 C107.475011,86.6079224 106.815895,86.2612279 106.815895,85.3768117 C106.815895,84.3956625 107.532729,84.0107626 108.66933,84.0107626 C109.108472,84.0107626 109.662645,84.1457011 110.035189,84.2704785 L109.872933,85.0110146 C109.433388,84.8472187 108.984156,84.7512986 108.630986,84.7512986 C108.029185,84.7512986 107.704672,84.9634609 107.704672,85.3475479 C107.704672,85.7116032 107.996887,85.8649726 108.351998,85.9753279 L108.793646,86.0978385 C109.5573,86.3002463 110.274133,86.5595558 110.274133,87.5407051 C110.274133,88.5799755 109.40473,89.0128354 108.2871,89.0128354 C107.857242,89.0128354 107.198126,88.8974061 106.787238,88.7624676 L106.940211,88.0219316 Z M111.47818,88.0219316 C111.812379,88.146709 112.433554,88.2816476 112.853726,88.2816476 C113.455527,88.2816476 113.923729,88.0885879 113.923729,87.6073615 C113.923729,87.1254092 113.470605,86.9665736 112.916281,86.8236585 L112.786724,86.7908209 C112.01298,86.6079224 111.353864,86.2612279 111.353864,85.3768117 C111.353864,84.3956625 112.070698,84.0107553 113.207299,84.0107553 C113.64644,84.0099497 114.200614,84.1448882 114.573158,84.2704785 L114.410901,85.0110146 C113.971356,84.8472187 113.522124,84.7512986 113.168955,84.7512986 C112.567154,84.7512986 112.242641,84.9634609 112.242641,85.3475479 C112.242641,85.7116032 112.534855,85.8649726 112.889967,85.9753279 L113.331615,86.0978385 C114.095269,86.2994334 114.812102,86.5595558 114.812102,87.5398922 C114.812102,88.5791626 113.942699,89.0120225 112.825068,89.0128354 C112.39521,89.0128354 111.736498,88.8974061 111.325207,88.7624676 L111.47818,88.0219316 Z" id="tsc"></path>
            </g>
        </g>
    </g>
</svg>